;TYPE=PLATED
;Layer: PTH_Through
;EasyEDA Pro v1.8.39, 2022-10-27 11:15:31
;Gerber Generator version 0.3
M48
METRIC,LZ,000.000
;Hole size 1 = 0.254 METRIC
T01C0.254
;Hole size 2 = 0.300 METRIC
T02C0.300
;Hole size 3 = 0.400 METRIC
T03C0.400
;Hole size 4 = 0.450 METRIC
T04C0.450
;Hole size 5 = 0.599 METRIC
T05C0.599
%
G05
G90
T01
X027559Y012446
X027559Y011811
X028016Y012852
X027965Y011303
X028016Y009906
X027559Y009373
X027559Y008788
X023978Y009754
X023978Y007722
X023927Y006452
X021666Y004445
X023825Y013665
X027026Y008077
X027813Y006782
X026010Y006528
X028016Y008357
X022581Y014173
X020218Y015342
X018593Y015265
X019152Y017196
X018059Y017145
X012776Y013132
X021768Y007597
X006934Y015672
X007518Y015215
X012929Y007087
X012878Y006452
X012116Y004115
X015697Y004293
X016205Y003988
X018644Y006350
X012014Y003023
X012268Y003556
X012268Y002489
X015977Y002794
X018618Y004089
X012776Y011532
X012725Y010947
X012776Y009246
X012979Y014199
X008357Y007798
X003480Y009931
X003480Y009322
X010592Y001753
T02
X026873Y005182
X026010Y005309
X030000Y003996
X027915Y004724
X025146Y003277
X024994Y002667
X024994Y002032
X024257Y003658
X023038Y016383
X010185Y003988
X018085Y003734
X012762Y010172
X004470Y006579
X003937Y006579
X003708Y013437
X003124Y007341
X000813Y000737
X003861Y002159
X007315Y000737
X003200Y018390
X008745Y018390
X017196Y017374
X015977Y000635
X018948Y000635
X024142Y000784
X024130Y004445
X022098Y003302
X028778Y000711
X030000Y018256
X022936Y018542
X020371Y007671
X018263Y007671
X018644Y006350
X019329Y007671
X020371Y008788
X017221Y007671
X018263Y008788
X019329Y008788
X017247Y009830
X018288Y009830
X019329Y009830
X017221Y008788
X018288Y010871
X019329Y010871
X020396Y010871
X020396Y011938
X017221Y010871
X020396Y009830
X017221Y011963
X018288Y011963
X019329Y011963
X026416Y000711
X021234Y016739
T03
X015011Y010236
X017170Y000711
T04
X024181Y012014
X026721Y018313
X027991Y016459
X027991Y015519
X021717Y015443
X021285Y017780
X013945Y014503
X020955Y013157
T05
X004897Y003750G85X002896Y003750
X004897Y015450G85X002896Y015450
M30