G04 Layer: InnerLayer2*
G04 EasyEDA Pro v1.8.39, 2022-10-27 11:15:30*
G04 Gerber Generator version 0.3*
G04 Scale: 100 percent, Rotated: No, Reflected: No*
G04 Dimensions in millimeters*
G04 Leading zeros omitted, absolute positions, 3 integers and 3 decimals*
%FSLAX33Y33*%
%MOMM*%
%ADD999C,0.2032*%
%ADD10O,3.79984X1.80086*%
%ADD11C,0.450002*%
%ADD12C,0.599999*%
%ADD13C,0.650001*%
%ADD14C,0.5008*%
%ADD15C,0.499999*%
G75*


G04 Copper Start*
G36*
G01X29273Y358D02*
G03X29386Y711I-495J353D01*
G03X28778Y1319I-608J0D01*
G03X28170Y711I0J-608D01*
G03X28283Y358I608J0D01*
G01X26911D01*
G03X27024Y711I-495J353D01*
G03X26416Y1319I-608J0D01*
G03X25808Y711I0J-608D01*
G03X25921Y358I608J0D01*
G01X24576D01*
G03X24750Y784I-434J426D01*
G03X24142Y1392I-608J0D01*
G03X23534Y784I0J-608D01*
G03X23707Y358I608J0D01*
G01X19490D01*
G03X19557Y635I-541J277D01*
G03X18948Y1243I-608J0D01*
G03X18340Y635I0J-608D01*
G03X18407Y358I608J0D01*
G01X16518D01*
G03X16585Y635I-541J277D01*
G03X15977Y1243I-608J0D01*
G03X15368Y635I0J-608D01*
G03X15435Y358I608J0D01*
G01X13411D01*
G01Y1422D01*
G01X22479D01*
G03X22551Y1452I0J102D01*
G01X22597Y1499D01*
G03X22808Y1601I-42J356D01*
G01X23381Y2173D01*
G03X23486Y2427I-253J253D01*
G01Y5897D01*
G03X23477Y5976I-358J0D01*
G03X23496Y6059I-338J120D01*
G03X23927Y5868I431J393D01*
G03X24510Y6452I0J583D01*
G03X23927Y7035I-583J0D01*
G03X23498Y6846I0J-583D01*
G01Y7391D01*
G03X23978Y7138I480J331D01*
G03X24561Y7722I0J583D01*
G03X23978Y8305I-583J0D01*
G03X23498Y8053I0J-583D01*
G01Y9423D01*
G03X23978Y9170I480J331D01*
G03X24561Y9754I0J583D01*
G03X23978Y10337I-583J0D01*
G03X23498Y10085I0J-583D01*
G01Y13183D01*
G03X23825Y13082I328J482D01*
G03X24408Y13665I0J583D01*
G03X23825Y14248I-583J0D01*
G03X23498Y14148I0J-583D01*
G01Y15985D01*
G03X23646Y16383I-460J398D01*
G03X23038Y16991I-608J0D01*
G03X22430Y16383I0J-608D01*
G01Y16360D01*
G01X21711D01*
G03X21843Y16739I-476J378D01*
G03X21234Y17347I-608J0D01*
G03X20626Y16739I0J-608D01*
G03X20758Y16361I608J0D01*
G01X10569Y16363D01*
G03X10316Y16258I0J-358D01*
G01X8510Y14452D01*
G03X8405Y14199I253J-253D01*
G01Y8379D01*
G03X8357Y8381I-48J-581D01*
G03X7773Y7798I0J-583D01*
G03X8357Y7215I583J0D01*
G03X8405Y7217I0J583D01*
G01Y3759D01*
G03X8763Y3401I358J0D01*
G01X10025D01*
G03X10185Y3380I160J587D01*
G03X10345Y3401I0J608D01*
G01X11571D01*
G03X11431Y3023I444J-378D01*
G03X11687Y2540I583J0D01*
G03X11685Y2489I581J-51D01*
G03X12268Y1906I583J0D01*
G03X12851Y2489I0J583D01*
G03X12595Y2972I-583J0D01*
G03X12597Y3023I-581J51D01*
G03X12595Y3073I-583J0D01*
G03X12830Y3401I-327J483D01*
G01X13078D01*
G01Y1854D01*
G03X13157Y1630I358J0D01*
G01Y358D01*
G01X7791D01*
G03X7923Y737I-476J378D01*
G03X7315Y1345I-608J0D01*
G03X6707Y737I0J-608D01*
G03X6839Y358I608J0D01*
G01X1289D01*
G03X1421Y737I-476J378D01*
G03X813Y1345I-608J0D01*
G03X358Y1140I0J-608D01*
G01Y3042D01*
G01X1000D01*
G03X1358Y3400I0J358D01*
G01Y15800D01*
G03X1000Y16158I-358J0D01*
G01X358D01*
G01Y18842D01*
G01X2286D01*
G01X2794D01*
G03X2592Y18390I407J-452D01*
G03X3200Y17781I608J0D01*
G03X3809Y18390I0J608D01*
G03X3607Y18842I-608J0D01*
G01X8338D01*
G03X8136Y18390I407J-452D01*
G03X8745Y17781I608J0D01*
G03X9353Y18390I0J608D01*
G03X9151Y18842I-608J0D01*
G01X22407D01*
G03X22328Y18542I529J-300D01*
G03X22936Y17934I608J0D01*
G03X23544Y18542I0J608D01*
G03X23465Y18842I-608J0D01*
G01X26288D01*
G03X26038Y18313I433J-528D01*
G03X26721Y17630I683J0D01*
G03X27404Y18313I0J683D01*
G03X27154Y18842I-683J0D01*
G01X29838D01*
G03X29392Y18256I162J-586D01*
G03X30000Y17648I608J0D01*
G03X30608Y18256I0J608D01*
G03X30162Y18842I-608J0D01*
G01X31342D01*
G01Y762D01*
G01Y358D01*
G01X29273D01*
G37*
%LPC*%
G36*
G01X3861Y1551D02*
G03X4469Y2159I0J608D01*
G03X4370Y2492I-608J0D01*
G01X4896D01*
G03X6154Y3750I0J1259D01*
G03X4896Y5009I-1259J0D01*
G01X2897D01*
G03X1638Y3750I0J-1259D01*
G03X2897Y2492I1259J0D01*
G01X3352D01*
G03X3253Y2159I509J-333D01*
G03X3861Y1551I608J0D01*
G37*
G36*
G01X4896Y14191D02*
G03X6154Y15450I0J1259D01*
G03X4896Y16708I-1259J0D01*
G01X2897D01*
G03X1638Y15450I0J-1259D01*
G03X2897Y14191I1259J0D01*
G01X4896D01*
G37*
G36*
G01X24385Y2032D02*
G03X24994Y1424I608J0D01*
G03X25602Y2032I0J608D01*
G03X25512Y2350I-608J0D01*
G03X25602Y2667I-519J318D01*
G03X25575Y2846I-608J0D01*
G03X25754Y3277I-429J431D01*
G03X25146Y3885I-608J0D01*
G03X24847Y3806I0J-608D01*
G03X24647Y4124I-590J-148D01*
G03X24738Y4445I-517J321D01*
G03X24130Y5053I-608J0D01*
G03X23522Y4445I0J-608D01*
G03X23740Y3978I608J0D01*
G03X23649Y3658I517J-321D01*
G03X24257Y3049I608J0D01*
G03X24556Y3128I0J608D01*
G03X24565Y3098I590J148D01*
G03X24385Y2667I429J-431D01*
G03X24475Y2350I608J0D01*
G03X24385Y2032I519J-317D01*
G37*
G36*
G01X26442Y8077D02*
G03X27026Y7494I583J0D01*
G03X27595Y7953I0J583D01*
G03X28016Y7773I421J404D01*
G03X28599Y8357I0J583D01*
G03X28125Y8930I-583J0D01*
G03X28064Y9081I-566J-141D01*
G03X28141Y9336I-505J292D01*
G03X28599Y9906I-125J570D01*
G03X28016Y10489I-583J0D01*
G03X27434Y9942I0J-583D01*
G03X26976Y9373I125J-570D01*
G03X27054Y9081I583J0D01*
G03X26976Y8788I505J-292D01*
G03X26990Y8659I583J0D01*
G03X26442Y8077I35J-582D01*
G37*
G36*
G01X27306Y4724D02*
G03X27915Y4116I608J0D01*
G03X28523Y4724I0J608D01*
G03X27915Y5333I-608J0D01*
G03X27481Y5150I0J-608D01*
G03Y5182I-607J31D01*
G03X26873Y5790I-608J0D01*
G03X26503Y5664I0J-608D01*
G03X26010Y5917I-493J-355D01*
G03X25401Y5309I0J-608D01*
G03X26010Y4700I608J0D01*
G03X26380Y4826I0J608D01*
G03X26873Y4573I493J355D01*
G03X27307Y4756I0J608D01*
G03X27306Y4724I607J-31D01*
G37*
G36*
G01X17543Y16874D02*
G03X18059Y16562I516J271D01*
G03X18615Y16968I0J583D01*
G03X19152Y16613I537J228D01*
G03X19735Y17196I0J583D01*
G03X19152Y17779I-583J0D01*
G03X18596Y17373I0J-583D01*
G03X18059Y17728I-537J-228D01*
G03X17745Y17636I0J-583D01*
G03X17196Y17982I-549J-262D01*
G03X16588Y17374I0J-608D01*
G03X17196Y16765I608J0D01*
G03X17543Y16874I0J608D01*
G37*
G36*
G01X27965Y10720D02*
G03X28549Y11303I0J583D01*
G03X28140Y11859I-583J0D01*
G03X28048Y12129I-581J-48D01*
G03X28117Y12278I-489J318D01*
G03X28599Y12852I-101J574D01*
G03X28016Y13436I-583J0D01*
G03X27458Y13020I0J-583D01*
G03X26976Y12446I101J-574D01*
G03X27070Y12129I583J0D01*
G03X26976Y11811I489J-317D01*
G03X27384Y11255I583J0D01*
G03X27965Y10720I581J48D01*
G37*
G36*
G01X27308Y15519D02*
G03X27991Y14836I683J0D01*
G03X28674Y15519I0J683D01*
G03X28487Y15989I-683J0D01*
G03X28674Y16459I-496J470D01*
G03X27991Y17142I-683J0D01*
G03X27308Y16459I0J-683D01*
G03X27495Y15989I683J0D01*
G03X27308Y15519I496J-470D01*
G37*
G36*
G01X7518Y14631D02*
G03X8102Y15215I0J583D01*
G03X7518Y15798I-583J0D01*
G01X7504D01*
G03X6934Y16255I-569J-126D01*
G03X6351Y15672I0J-583D01*
G03X6934Y15089I583J0D01*
G01X6949D01*
G03X7518Y14631I569J126D01*
G37*
G36*
G01X3480Y8739D02*
G03X4063Y9322I0J583D01*
G03X3977Y9627I-583J0D01*
G03X4063Y9931I-497J305D01*
G03X3480Y10515I-583J0D01*
G03X2897Y9931I0J-583D01*
G03X2983Y9627I583J0D01*
G03X2897Y9322I497J-305D01*
G03X3480Y8739I583J0D01*
G37*
G36*
G01X23523Y12014D02*
G03X24181Y11356I658J0D01*
G03X24839Y12014I0J658D01*
G03X24181Y12672I-658J0D01*
G03X23523Y12014I0J-658D01*
G37*
G36*
G01X3708Y12828D02*
G03X4317Y13437I0J608D01*
G03X3708Y14045I-608J0D01*
G03X3100Y13437I0J-608D01*
G03X3708Y12828I608J0D01*
G37*
G36*
G01X2516Y7341D02*
G03X3124Y6732I608J0D01*
G03X3732Y7341I0J608D01*
G03X3124Y7949I-608J0D01*
G03X2516Y7341I0J-608D01*
G37*
G36*
G01X29392Y3996D02*
G03X30000Y3388I608J0D01*
G03X30608Y3996I0J608D01*
G03X30000Y4604I-608J0D01*
G03X29392Y3996I0J-608D01*
G37*
G36*
G01X10592Y1169D02*
G03X11175Y1753I0J583D01*
G03X10592Y2336I-583J0D01*
G03X10009Y1753I0J-583D01*
G03X10592Y1169I583J0D01*
G37*
G36*
G01X27813Y6199D02*
G03X28396Y6782I0J583D01*
G03X27813Y7365I-583J0D01*
G03X27230Y6782I0J-583D01*
G03X27813Y6199I583J0D01*
G37*
G36*
G01X26010Y5945D02*
G03X26593Y6528I0J583D01*
G03X26010Y7111I-583J0D01*
G03X25426Y6528I0J-583D01*
G03X26010Y5945I583J0D01*
G37*
%LPD*%
G36*
G01X8865Y3861D02*
G01X8865Y7511D01*
G03X8940Y7798I-508J286D01*
G03X8865Y8084I-583J0D01*
G01Y14157D01*
G01X10611Y15903D01*
G01X20054Y15901D01*
G03X19635Y15342I165J-559D01*
G03X20218Y14758I583J0D01*
G03X20802Y15342I0J583D01*
G03X20383Y15901I-583J0D01*
G01X21244D01*
G03X21059Y15443I473J-458D01*
G03X21717Y14785I658J0D01*
G03X22375Y15443I0J658D01*
G03X22190Y15901I-658J0D01*
G01X22668Y15900D01*
G03X23038Y15775I370J483D01*
G01Y6198D01*
G01X18415D01*
G01Y7082D01*
G03X18796Y7379I-152J589D01*
G03X19329Y7063I533J292D01*
G03X19850Y7357I0J608D01*
G03X20371Y7063I521J314D01*
G03X20979Y7671I0J608D01*
G03X20611Y8230I-608J0D01*
G03X20979Y8788I-240J559D01*
G03X20697Y9301I-608J0D01*
G03X21004Y9830I-301J528D01*
G03X20710Y10351I-608J0D01*
G03X21004Y10871I-314J521D01*
G03X20688Y11405I-608J0D01*
G03X21004Y11938I-292J533D01*
G03X20396Y12546I-608J0D01*
G03X19870Y12242I0J-608D01*
G03X19329Y12572I-540J-279D01*
G03X18809Y12278I0J-608D01*
G03X18415Y12558I-521J-314D01*
G01Y13665D01*
G03X18313Y13767I-102J0D01*
G01X13371D01*
G03X13563Y14199I-392J432D01*
G03X12979Y14782I-583J0D01*
G03X12396Y14199I0J-583D01*
G03X12587Y13767I583J0D01*
G01X12166D01*
G03X12065Y13666I0J-102D01*
G01X12036Y7624D01*
G03X12066Y7552I102J0D01*
G01X12369Y7249D01*
G03X12345Y7087I560J-162D01*
G03X12929Y6503I583J0D01*
G03X13091Y6527I0J583D01*
G01X13161Y6456D01*
G01X13157Y4521D01*
G01Y3861D01*
G01X12765D01*
G03X12680Y3969I-497J-305D01*
G03X12699Y4115I-565J146D01*
G03X12116Y4698I-583J0D01*
G03X11533Y4115I0J-583D01*
G03X11591Y3861I583J0D01*
G01X8865D01*
G37*
%LPC*%
G36*
G01X20297Y13157D02*
G03X20955Y12499I658J0D01*
G03X21613Y13157I0J658D01*
G03X20955Y13815I-658J0D01*
G03X20297Y13157I0J-658D01*
G37*
G36*
G01X18010Y15265D02*
G03X18593Y14682I583J0D01*
G03X19176Y15265I0J583D01*
G03X18593Y15849I-583J0D01*
G03X18010Y15265I0J-583D01*
G37*
G36*
G01X21768Y7014D02*
G03X22351Y7597I0J583D01*
G03X21768Y8180I-583J0D01*
G03X21185Y7597I0J-583D01*
G03X21768Y7014I583J0D01*
G37*
%LPD*%
G36*
G01X13538Y1956D02*
G01X13538Y3535D01*
G03X13617Y3759I-279J224D01*
G01Y4521D01*
G01X13621Y6497D01*
G01Y6498D01*
G03X13516Y6751I-358J0D01*
G01X13447Y6820D01*
G03X13512Y7087I-519J266D01*
G03X12929Y7670I-583J0D01*
G03X12662Y7605I0J-583D01*
G01X12496Y7771D01*
G01X12501Y8732D01*
G03X12776Y8662I275J514D01*
G03X13359Y9246I0J583D01*
G03X12776Y9829I-583J0D01*
G03X12506Y9762I0J-583D01*
G01X12509Y10335D01*
G01X14361D01*
G03X14353Y10236I651J-99D01*
G03X14704Y9654I658J0D01*
G01X14709Y7182D01*
G03X14814Y6930I358J1D01*
G01X17084Y4660D01*
G01X17069Y3484D01*
G01Y3480D01*
G03X17158Y3243I358J0D01*
G03X17200Y3202I89J49D01*
G03X17427Y3122I227J277D01*
G01X18872D01*
G03X19230Y3480I0J358D01*
G01Y5738D01*
G01X23026D01*
G01Y2469D01*
G01X22513Y1956D01*
G01X13538D01*
G37*
%LPC*%
G36*
G01X15693Y3709D02*
G03X16205Y3405I512J278D01*
G03X16788Y3988I0J583D01*
G03X16210Y4571I-583J0D01*
G03X15697Y4876I-512J-278D01*
G03X15114Y4293I0J-583D01*
G03X15693Y3709I583J0D01*
G37*
G36*
G01X21490Y3302D02*
G03X22098Y2694I608J0D01*
G03X22706Y3302I0J608D01*
G03X22098Y3910I-608J0D01*
G03X21490Y3302I0J-608D01*
G37*
G36*
G01X15393Y2794D02*
G03X15977Y2211I583J0D01*
G03X16560Y2794I0J583D01*
G03X15977Y3377I-583J0D01*
G03X15393Y2794I0J-583D01*
G37*
%LPD*%
G36*
G01X17530Y3581D02*
G01X17545Y4806D01*
G01Y4807D01*
G03X17515Y4879I-102J0D01*
G01X15169Y7225D01*
G01X15164Y9596D01*
G03X15670Y10236I-153J640D01*
G03X15011Y10894I-658J0D01*
G03X14658Y10791I0J-658D01*
G03X14630Y10795I-27J-98D01*
G01X13288D01*
G03X13309Y10947I-563J152D01*
G03X13253Y11196I-583J0D01*
G03X13359Y11532I-477J336D01*
G03X12776Y12115I-583J0D01*
G03X12517Y12054I0J-583D01*
G01X12523Y13307D01*
G01X17955D01*
G01Y12472D01*
G03X17755Y12255I333J-509D01*
G03X17221Y12572I-533J-292D01*
G03X16613Y11963I0J-608D01*
G03X16954Y11417I608J0D01*
G03X16613Y10871I268J-546D01*
G03X16920Y10343I608J0D01*
G03X16638Y9830I327J-513D01*
G03X16920Y9317I608J0D01*
G03X16613Y8788I301J-528D01*
G03X16981Y8230I608J0D01*
G03X16613Y7671I240J-559D01*
G03X17221Y7063I608J0D01*
G03X17742Y7357I0J608D01*
G03X17955Y7146I521J314D01*
G01Y6096D01*
G03X18037Y5868I358J0D01*
G03X18124Y5792I99J25D01*
G03X18313Y5738I189J304D01*
G01X18771D01*
G01Y4652D01*
G03X18618Y4673I-152J-563D01*
G03X18035Y4089I0J-583D01*
G03X18332Y3581I583J0D01*
G01X17530D01*
G37*
G54D999*
G01X29273Y358D02*
G03X29386Y711I-495J353D01*
G03X28778Y1319I-608J0D01*
G03X28170Y711I0J-608D01*
G03X28283Y358I608J0D01*
G01X26911D01*
G03X27024Y711I-495J353D01*
G03X26416Y1319I-608J0D01*
G03X25808Y711I0J-608D01*
G03X25921Y358I608J0D01*
G01X24576D01*
G03X24750Y784I-434J426D01*
G03X24142Y1392I-608J0D01*
G03X23534Y784I0J-608D01*
G03X23707Y358I608J0D01*
G01X19490D01*
G03X19557Y635I-541J277D01*
G03X18948Y1243I-608J0D01*
G03X18340Y635I0J-608D01*
G03X18407Y358I608J0D01*
G01X16518D01*
G03X16585Y635I-541J277D01*
G03X15977Y1243I-608J0D01*
G03X15368Y635I0J-608D01*
G03X15435Y358I608J0D01*
G01X13411D01*
G01Y1422D01*
G01X22479D01*
G03X22551Y1452I0J102D01*
G01X22597Y1499D01*
G03X22808Y1601I-42J356D01*
G01X23381Y2173D01*
G03X23486Y2427I-253J253D01*
G01Y5897D01*
G03X23477Y5976I-358J0D01*
G03X23496Y6059I-338J120D01*
G03X23927Y5868I431J393D01*
G03X24510Y6452I0J583D01*
G03X23927Y7035I-583J0D01*
G03X23498Y6846I0J-583D01*
G01Y7391D01*
G03X23978Y7138I480J331D01*
G03X24561Y7722I0J583D01*
G03X23978Y8305I-583J0D01*
G03X23498Y8053I0J-583D01*
G01Y9423D01*
G03X23978Y9170I480J331D01*
G03X24561Y9754I0J583D01*
G03X23978Y10337I-583J0D01*
G03X23498Y10085I0J-583D01*
G01Y13183D01*
G03X23825Y13082I328J482D01*
G03X24408Y13665I0J583D01*
G03X23825Y14248I-583J0D01*
G03X23498Y14148I0J-583D01*
G01Y15985D01*
G03X23646Y16383I-460J398D01*
G03X23038Y16991I-608J0D01*
G03X22430Y16383I0J-608D01*
G01Y16360D01*
G01X21711D01*
G03X21843Y16739I-476J378D01*
G03X21234Y17347I-608J0D01*
G03X20626Y16739I0J-608D01*
G03X20758Y16361I608J0D01*
G01X10569Y16363D01*
G03X10316Y16258I0J-358D01*
G01X8510Y14452D01*
G03X8405Y14199I253J-253D01*
G01Y8379D01*
G03X8357Y8381I-48J-581D01*
G03X7773Y7798I0J-583D01*
G03X8357Y7215I583J0D01*
G03X8405Y7217I0J583D01*
G01Y3759D01*
G03X8763Y3401I358J0D01*
G01X10025D01*
G03X10185Y3380I160J587D01*
G03X10345Y3401I0J608D01*
G01X11571D01*
G03X11431Y3023I444J-378D01*
G03X11687Y2540I583J0D01*
G03X11685Y2489I581J-51D01*
G03X12268Y1906I583J0D01*
G03X12851Y2489I0J583D01*
G03X12595Y2972I-583J0D01*
G03X12597Y3023I-581J51D01*
G03X12595Y3073I-583J0D01*
G03X12830Y3401I-327J483D01*
G01X13078D01*
G01Y1854D01*
G03X13157Y1630I358J0D01*
G01Y358D01*
G01X7791D01*
G03X7923Y737I-476J378D01*
G03X7315Y1345I-608J0D01*
G03X6707Y737I0J-608D01*
G03X6839Y358I608J0D01*
G01X1289D01*
G03X1421Y737I-476J378D01*
G03X813Y1345I-608J0D01*
G03X358Y1140I0J-608D01*
G01Y3042D01*
G01X1000D01*
G03X1358Y3400I0J358D01*
G01Y15800D01*
G03X1000Y16158I-358J0D01*
G01X358D01*
G01Y18842D01*
G01X2286D01*
G01X2794D01*
G03X2592Y18390I407J-452D01*
G03X3200Y17781I608J0D01*
G03X3809Y18390I0J608D01*
G03X3607Y18842I-608J0D01*
G01X8338D01*
G03X8136Y18390I407J-452D01*
G03X8745Y17781I608J0D01*
G03X9353Y18390I0J608D01*
G03X9151Y18842I-608J0D01*
G01X22407D01*
G03X22328Y18542I529J-300D01*
G03X22936Y17934I608J0D01*
G03X23544Y18542I0J608D01*
G03X23465Y18842I-608J0D01*
G01X26288D01*
G03X26038Y18313I433J-528D01*
G03X26721Y17630I683J0D01*
G03X27404Y18313I0J683D01*
G03X27154Y18842I-683J0D01*
G01X29838D01*
G03X29392Y18256I162J-586D01*
G03X30000Y17648I608J0D01*
G03X30608Y18256I0J608D01*
G03X30162Y18842I-608J0D01*
G01X31342D01*
G01Y762D01*
G01Y358D01*
G01X29273D01*
G01X3861Y1551D02*
G03X4469Y2159I0J608D01*
G03X4370Y2492I-608J0D01*
G01X4896D01*
G03X6154Y3750I0J1259D01*
G03X4896Y5009I-1259J0D01*
G01X2897D01*
G03X1638Y3750I0J-1259D01*
G03X2897Y2492I1259J0D01*
G01X3352D01*
G03X3253Y2159I509J-333D01*
G03X3861Y1551I608J0D01*
G01X4896Y14191D02*
G03X6154Y15450I0J1259D01*
G03X4896Y16708I-1259J0D01*
G01X2897D01*
G03X1638Y15450I0J-1259D01*
G03X2897Y14191I1259J0D01*
G01X4896D01*
G01X24385Y2032D02*
G03X24994Y1424I608J0D01*
G03X25602Y2032I0J608D01*
G03X25512Y2350I-608J0D01*
G03X25602Y2667I-519J318D01*
G03X25575Y2846I-608J0D01*
G03X25754Y3277I-429J431D01*
G03X25146Y3885I-608J0D01*
G03X24847Y3806I0J-608D01*
G03X24647Y4124I-590J-148D01*
G03X24738Y4445I-517J321D01*
G03X24130Y5053I-608J0D01*
G03X23522Y4445I0J-608D01*
G03X23740Y3978I608J0D01*
G03X23649Y3658I517J-321D01*
G03X24257Y3049I608J0D01*
G03X24556Y3128I0J608D01*
G03X24565Y3098I590J148D01*
G03X24385Y2667I429J-431D01*
G03X24475Y2350I608J0D01*
G03X24385Y2032I519J-317D01*
G01X26442Y8077D02*
G03X27026Y7494I583J0D01*
G03X27595Y7953I0J583D01*
G03X28016Y7773I421J404D01*
G03X28599Y8357I0J583D01*
G03X28125Y8930I-583J0D01*
G03X28064Y9081I-566J-141D01*
G03X28141Y9336I-505J292D01*
G03X28599Y9906I-125J570D01*
G03X28016Y10489I-583J0D01*
G03X27434Y9942I0J-583D01*
G03X26976Y9373I125J-570D01*
G03X27054Y9081I583J0D01*
G03X26976Y8788I505J-292D01*
G03X26990Y8659I583J0D01*
G03X26442Y8077I35J-582D01*
G01X27306Y4724D02*
G03X27915Y4116I608J0D01*
G03X28523Y4724I0J608D01*
G03X27915Y5333I-608J0D01*
G03X27481Y5150I0J-608D01*
G03Y5182I-607J31D01*
G03X26873Y5790I-608J0D01*
G03X26503Y5664I0J-608D01*
G03X26010Y5917I-493J-355D01*
G03X25401Y5309I0J-608D01*
G03X26010Y4700I608J0D01*
G03X26380Y4826I0J608D01*
G03X26873Y4573I493J355D01*
G03X27307Y4756I0J608D01*
G03X27306Y4724I607J-31D01*
G01X17543Y16874D02*
G03X18059Y16562I516J271D01*
G03X18615Y16968I0J583D01*
G03X19152Y16613I537J228D01*
G03X19735Y17196I0J583D01*
G03X19152Y17779I-583J0D01*
G03X18596Y17373I0J-583D01*
G03X18059Y17728I-537J-228D01*
G03X17745Y17636I0J-583D01*
G03X17196Y17982I-549J-262D01*
G03X16588Y17374I0J-608D01*
G03X17196Y16765I608J0D01*
G03X17543Y16874I0J608D01*
G01X27965Y10720D02*
G03X28549Y11303I0J583D01*
G03X28140Y11859I-583J0D01*
G03X28048Y12129I-581J-48D01*
G03X28117Y12278I-489J318D01*
G03X28599Y12852I-101J574D01*
G03X28016Y13436I-583J0D01*
G03X27458Y13020I0J-583D01*
G03X26976Y12446I101J-574D01*
G03X27070Y12129I583J0D01*
G03X26976Y11811I489J-317D01*
G03X27384Y11255I583J0D01*
G03X27965Y10720I581J48D01*
G01X27308Y15519D02*
G03X27991Y14836I683J0D01*
G03X28674Y15519I0J683D01*
G03X28487Y15989I-683J0D01*
G03X28674Y16459I-496J470D01*
G03X27991Y17142I-683J0D01*
G03X27308Y16459I0J-683D01*
G03X27495Y15989I683J0D01*
G03X27308Y15519I496J-470D01*
G01X7518Y14631D02*
G03X8102Y15215I0J583D01*
G03X7518Y15798I-583J0D01*
G01X7504D01*
G03X6934Y16255I-569J-126D01*
G03X6351Y15672I0J-583D01*
G03X6934Y15089I583J0D01*
G01X6949D01*
G03X7518Y14631I569J126D01*
G01X3480Y8739D02*
G03X4063Y9322I0J583D01*
G03X3977Y9627I-583J0D01*
G03X4063Y9931I-497J305D01*
G03X3480Y10515I-583J0D01*
G03X2897Y9931I0J-583D01*
G03X2983Y9627I583J0D01*
G03X2897Y9322I497J-305D01*
G03X3480Y8739I583J0D01*
G01X23523Y12014D02*
G03X24181Y11356I658J0D01*
G03X24839Y12014I0J658D01*
G03X24181Y12672I-658J0D01*
G03X23523Y12014I0J-658D01*
G01X3708Y12828D02*
G03X4317Y13437I0J608D01*
G03X3708Y14045I-608J0D01*
G03X3100Y13437I0J-608D01*
G03X3708Y12828I608J0D01*
G01X2516Y7341D02*
G03X3124Y6732I608J0D01*
G03X3732Y7341I0J608D01*
G03X3124Y7949I-608J0D01*
G03X2516Y7341I0J-608D01*
G01X29392Y3996D02*
G03X30000Y3388I608J0D01*
G03X30608Y3996I0J608D01*
G03X30000Y4604I-608J0D01*
G03X29392Y3996I0J-608D01*
G01X10592Y1169D02*
G03X11175Y1753I0J583D01*
G03X10592Y2336I-583J0D01*
G03X10009Y1753I0J-583D01*
G03X10592Y1169I583J0D01*
G01X27813Y6199D02*
G03X28396Y6782I0J583D01*
G03X27813Y7365I-583J0D01*
G03X27230Y6782I0J-583D01*
G03X27813Y6199I583J0D01*
G01X26010Y5945D02*
G03X26593Y6528I0J583D01*
G03X26010Y7111I-583J0D01*
G03X25426Y6528I0J-583D01*
G03X26010Y5945I583J0D01*
G01X8865Y3861D02*
G01X8865Y7511D01*
G03X8940Y7798I-508J286D01*
G03X8865Y8084I-583J0D01*
G01Y14157D01*
G01X10611Y15903D01*
G01X20054Y15901D01*
G03X19635Y15342I165J-559D01*
G03X20218Y14758I583J0D01*
G03X20802Y15342I0J583D01*
G03X20383Y15901I-583J0D01*
G01X21244D01*
G03X21059Y15443I473J-458D01*
G03X21717Y14785I658J0D01*
G03X22375Y15443I0J658D01*
G03X22190Y15901I-658J0D01*
G01X22668Y15900D01*
G03X23038Y15775I370J483D01*
G01Y6198D01*
G01X18415D01*
G01Y7082D01*
G03X18796Y7379I-152J589D01*
G03X19329Y7063I533J292D01*
G03X19850Y7357I0J608D01*
G03X20371Y7063I521J314D01*
G03X20979Y7671I0J608D01*
G03X20611Y8230I-608J0D01*
G03X20979Y8788I-240J559D01*
G03X20697Y9301I-608J0D01*
G03X21004Y9830I-301J528D01*
G03X20710Y10351I-608J0D01*
G03X21004Y10871I-314J521D01*
G03X20688Y11405I-608J0D01*
G03X21004Y11938I-292J533D01*
G03X20396Y12546I-608J0D01*
G03X19870Y12242I0J-608D01*
G03X19329Y12572I-540J-279D01*
G03X18809Y12278I0J-608D01*
G03X18415Y12558I-521J-314D01*
G01Y13665D01*
G03X18313Y13767I-102J0D01*
G01X13371D01*
G03X13563Y14199I-392J432D01*
G03X12979Y14782I-583J0D01*
G03X12396Y14199I0J-583D01*
G03X12587Y13767I583J0D01*
G01X12166D01*
G03X12065Y13666I0J-102D01*
G01X12036Y7624D01*
G03X12066Y7552I102J0D01*
G01X12369Y7249D01*
G03X12345Y7087I560J-162D01*
G03X12929Y6503I583J0D01*
G03X13091Y6527I0J583D01*
G01X13161Y6456D01*
G01X13157Y4521D01*
G01Y3861D01*
G01X12765D01*
G03X12680Y3969I-497J-305D01*
G03X12699Y4115I-565J146D01*
G03X12116Y4698I-583J0D01*
G03X11533Y4115I0J-583D01*
G03X11591Y3861I583J0D01*
G01X8865D01*
G01X20297Y13157D02*
G03X20955Y12499I658J0D01*
G03X21613Y13157I0J658D01*
G03X20955Y13815I-658J0D01*
G03X20297Y13157I0J-658D01*
G01X18010Y15265D02*
G03X18593Y14682I583J0D01*
G03X19176Y15265I0J583D01*
G03X18593Y15849I-583J0D01*
G03X18010Y15265I0J-583D01*
G01X21768Y7014D02*
G03X22351Y7597I0J583D01*
G03X21768Y8180I-583J0D01*
G03X21185Y7597I0J-583D01*
G03X21768Y7014I583J0D01*
G01X13538Y1956D02*
G01X13538Y3535D01*
G03X13617Y3759I-279J224D01*
G01Y4521D01*
G01X13621Y6497D01*
G01Y6498D01*
G03X13516Y6751I-358J0D01*
G01X13447Y6820D01*
G03X13512Y7087I-519J266D01*
G03X12929Y7670I-583J0D01*
G03X12662Y7605I0J-583D01*
G01X12496Y7771D01*
G01X12501Y8732D01*
G03X12776Y8662I275J514D01*
G03X13359Y9246I0J583D01*
G03X12776Y9829I-583J0D01*
G03X12506Y9762I0J-583D01*
G01X12509Y10335D01*
G01X14361D01*
G03X14353Y10236I651J-99D01*
G03X14704Y9654I658J0D01*
G01X14709Y7182D01*
G03X14814Y6930I358J1D01*
G01X17084Y4660D01*
G01X17069Y3484D01*
G01Y3480D01*
G03X17158Y3243I358J0D01*
G03X17200Y3202I89J49D01*
G03X17427Y3122I227J277D01*
G01X18872D01*
G03X19230Y3480I0J358D01*
G01Y5738D01*
G01X23026D01*
G01Y2469D01*
G01X22513Y1956D01*
G01X13538D01*
G01X15693Y3709D02*
G03X16205Y3405I512J278D01*
G03X16788Y3988I0J583D01*
G03X16210Y4571I-583J0D01*
G03X15697Y4876I-512J-278D01*
G03X15114Y4293I0J-583D01*
G03X15693Y3709I583J0D01*
G01X21490Y3302D02*
G03X22098Y2694I608J0D01*
G03X22706Y3302I0J608D01*
G03X22098Y3910I-608J0D01*
G03X21490Y3302I0J-608D01*
G01X15393Y2794D02*
G03X15977Y2211I583J0D01*
G03X16560Y2794I0J583D01*
G03X15977Y3377I-583J0D01*
G03X15393Y2794I0J-583D01*
G01X17530Y3581D02*
G01X17545Y4806D01*
G01Y4807D01*
G03X17515Y4879I-102J0D01*
G01X15169Y7225D01*
G01X15164Y9596D01*
G03X15670Y10236I-153J640D01*
G03X15011Y10894I-658J0D01*
G03X14658Y10791I0J-658D01*
G03X14630Y10795I-27J-98D01*
G01X13288D01*
G03X13309Y10947I-563J152D01*
G03X13253Y11196I-583J0D01*
G03X13359Y11532I-477J336D01*
G03X12776Y12115I-583J0D01*
G03X12517Y12054I0J-583D01*
G01X12523Y13307D01*
G01X17955D01*
G01Y12472D01*
G03X17755Y12255I333J-509D01*
G03X17221Y12572I-533J-292D01*
G03X16613Y11963I0J-608D01*
G03X16954Y11417I608J0D01*
G03X16613Y10871I268J-546D01*
G03X16920Y10343I608J0D01*
G03X16638Y9830I327J-513D01*
G03X16920Y9317I608J0D01*
G03X16613Y8788I301J-528D01*
G03X16981Y8230I608J0D01*
G03X16613Y7671I240J-559D01*
G03X17221Y7063I608J0D01*
G03X17742Y7357I0J608D01*
G03X17955Y7146I521J314D01*
G01Y6096D01*
G03X18037Y5868I358J0D01*
G03X18124Y5792I99J25D01*
G03X18313Y5738I189J304D01*
G01X18771D01*
G01Y4652D01*
G03X18618Y4673I-152J-563D01*
G03X18035Y4089I0J-583D01*
G03X18332Y3581I583J0D01*
G01X17530D01*
G04 Copper End*

G04 Pad Start*
G54D10*
G01X3896Y3750D03*
G01X3896Y15450D03*
G04 Pad End*

G04 Via Start*
G54D11*
G01X27559Y12446D03*
G01X27559Y11811D03*
G01X28016Y12852D03*
G01X27965Y11303D03*
G01X28016Y9906D03*
G01X27559Y9373D03*
G01X27559Y8788D03*
G54D12*
G01X24181Y12014D03*
G54D11*
G01X23978Y9754D03*
G01X23978Y7722D03*
G01X23927Y6452D03*
G01X21666Y4445D03*
G54D13*
G01X26721Y18313D03*
G01X27991Y16459D03*
G01X27991Y15519D03*
G54D11*
G01X23825Y13665D03*
G01X27026Y8077D03*
G01X27813Y6782D03*
G01X26010Y6528D03*
G54D15*
G01X26873Y5182D03*
G01X26010Y5309D03*
G01X30000Y3996D03*
G01X27915Y4724D03*
G01X25146Y3277D03*
G01X24994Y2667D03*
G01X24994Y2032D03*
G01X24257Y3658D03*
G54D11*
G01X28016Y8357D03*
G54D12*
G01X21717Y15443D03*
G54D13*
G01X21285Y17780D03*
G54D15*
G01X23038Y16383D03*
G54D11*
G01X22581Y14173D03*
G01X20218Y15342D03*
G01X18593Y15265D03*
G01X19152Y17196D03*
G01X18059Y17145D03*
G54D12*
G01X13945Y14503D03*
G54D11*
G01X12776Y13132D03*
G54D12*
G01X15011Y10236D03*
G54D11*
G01X21768Y7597D03*
G54D12*
G01X20955Y13157D03*
G54D11*
G01X6934Y15672D03*
G01X7518Y15215D03*
G01X12929Y7087D03*
G01X12878Y6452D03*
G01X12116Y4115D03*
G01X15697Y4293D03*
G01X16205Y3988D03*
G01X18644Y6350D03*
G54D12*
G01X17170Y711D03*
G54D15*
G01X10185Y3988D03*
G54D11*
G01X12014Y3023D03*
G01X12268Y3556D03*
G01X12268Y2489D03*
G01X15977Y2794D03*
G54D15*
G01X18085Y3734D03*
G54D11*
G01X18618Y4089D03*
G01X12776Y11532D03*
G01X12725Y10947D03*
G01X12776Y9246D03*
G01X12979Y14199D03*
G01X8357Y7798D03*
G54D15*
G01X12762Y10172D03*
G54D11*
G01X3480Y9931D03*
G01X3480Y9322D03*
G54D15*
G01X4470Y6579D03*
G01X3937Y6579D03*
G01X3708Y13437D03*
G01X3124Y7341D03*
G01X813Y737D03*
G01X3861Y2159D03*
G01X7315Y737D03*
G01X3200Y18390D03*
G01X8745Y18390D03*
G01X17196Y17374D03*
G01X15977Y635D03*
G01X18948Y635D03*
G01X24142Y784D03*
G01X24130Y4445D03*
G01X22098Y3302D03*
G01X28778Y711D03*
G01X30000Y18256D03*
G01X22936Y18542D03*
G01X20371Y7671D03*
G01X18263Y7671D03*
G01X18644Y6350D03*
G01X19329Y7671D03*
G01X20371Y8788D03*
G01X17221Y7671D03*
G01X18263Y8788D03*
G01X19329Y8788D03*
G01X17247Y9830D03*
G01X18288Y9830D03*
G01X19329Y9830D03*
G01X17221Y8788D03*
G01X18288Y10871D03*
G01X19329Y10871D03*
G01X20396Y10871D03*
G01X20396Y11938D03*
G01X17221Y10871D03*
G01X20396Y9830D03*
G01X17221Y11963D03*
G01X18288Y11963D03*
G01X19329Y11963D03*
G01X26416Y711D03*
G01X21234Y16739D03*
G54D11*
G01X10592Y1753D03*
G04 Via End*

M02*
