G04 Layer: TopSolderMaskLayer*
G04 EasyEDA Pro v1.8.39, 2022-10-27 11:15:30*
G04 Gerber Generator version 0.3*
G04 Scale: 100 percent, Rotated: No, Reflected: No*
G04 Dimensions in millimeters*
G04 Leading zeros omitted, absolute positions, 3 integers and 3 decimals*
%FSLAX33Y33*%
%MOMM*%
%ADD10O,3.899865X1.900885*%
%ADD11C,1.20396*%
%ADD12O,3.203199X0.803199*%
G75*


G04 Pad Start*
G36*
G01X18888Y16563D02*
G01X18348Y16563D01*
G03X18297Y16512I0J-51D01*
G01Y15947D01*
G03X18348Y15896I51J0D01*
G01X18888D01*
G03X18939Y15947I0J51D01*
G01Y16512D01*
G03X18888Y16563I-51J0D01*
G37*
G36*
G01X18888Y17429D02*
G01X18348Y17429D01*
G03X18297Y17378I0J-51D01*
G01Y16812D01*
G03X18348Y16762I51J0D01*
G01X18888D01*
G03X18939Y16812I0J51D01*
G01Y17378D01*
G03X18888Y17429I-51J0D01*
G37*
G36*
G01X21903Y14804D02*
G01X21903Y13804D01*
G03X22005Y13703I102J0D01*
G01X22275D01*
G03X22376Y13804I0J102D01*
G01Y14804D01*
G03X22275Y14906I-102J0D01*
G01X22005D01*
G03X21903Y14804I0J-102D01*
G37*
G36*
G01X21403Y14804D02*
G01X21403Y13804D01*
G03X21505Y13703I102J0D01*
G01X21775D01*
G03X21876Y13804I0J102D01*
G01Y14804D01*
G03X21775Y14906I-102J0D01*
G01X21505D01*
G03X21403Y14804I0J-102D01*
G37*
G36*
G01X20903Y14804D02*
G01X20903Y13804D01*
G03X21005Y13703I102J0D01*
G01X21275D01*
G03X21376Y13804I0J102D01*
G01Y14804D01*
G03X21275Y14906I-102J0D01*
G01X21005D01*
G03X20903Y14804I0J-102D01*
G37*
G36*
G01X20403Y14804D02*
G01X20403Y13804D01*
G03X20505Y13703I102J0D01*
G01X20775D01*
G03X20876Y13804I0J102D01*
G01Y14804D01*
G03X20775Y14906I-102J0D01*
G01X20505D01*
G03X20403Y14804I0J-102D01*
G37*
G36*
G01X19903Y14804D02*
G01X19903Y13804D01*
G03X20005Y13703I102J0D01*
G01X20275D01*
G03X20376Y13804I0J102D01*
G01Y14804D01*
G03X20275Y14906I-102J0D01*
G01X20005D01*
G03X19903Y14804I0J-102D01*
G37*
G36*
G01X19403Y14804D02*
G01X19403Y13804D01*
G03X19505Y13703I102J0D01*
G01X19775D01*
G03X19876Y13804I0J102D01*
G01Y14804D01*
G03X19775Y14906I-102J0D01*
G01X19505D01*
G03X19403Y14804I0J-102D01*
G37*
G36*
G01X18903Y14804D02*
G01X18903Y13804D01*
G03X19005Y13703I102J0D01*
G01X19275D01*
G03X19376Y13804I0J102D01*
G01Y14804D01*
G03X19275Y14906I-102J0D01*
G01X19005D01*
G03X18903Y14804I0J-102D01*
G37*
G36*
G01X18403Y14804D02*
G01X18403Y13804D01*
G03X18505Y13703I102J0D01*
G01X18775D01*
G03X18876Y13804I0J102D01*
G01Y14804D01*
G03X18775Y14906I-102J0D01*
G01X18505D01*
G03X18403Y14804I0J-102D01*
G37*
G36*
G01X17903Y14804D02*
G01X17903Y13804D01*
G03X18005Y13703I102J0D01*
G01X18275D01*
G03X18376Y13804I0J102D01*
G01Y14804D01*
G03X18275Y14906I-102J0D01*
G01X18005D01*
G03X17903Y14804I0J-102D01*
G37*
G36*
G01X17403Y14804D02*
G01X17403Y13804D01*
G03X17505Y13703I102J0D01*
G01X17775D01*
G03X17876Y13804I0J102D01*
G01Y14804D01*
G03X17775Y14906I-102J0D01*
G01X17505D01*
G03X17403Y14804I0J-102D01*
G37*
G36*
G01X16903Y14804D02*
G01X16903Y13804D01*
G03X17005Y13703I102J0D01*
G01X17275D01*
G03X17376Y13804I0J102D01*
G01Y14804D01*
G03X17275Y14906I-102J0D01*
G01X17005D01*
G03X16903Y14804I0J-102D01*
G37*
G36*
G01X16403Y14804D02*
G01X16403Y13804D01*
G03X16505Y13703I102J0D01*
G01X16775D01*
G03X16876Y13804I0J102D01*
G01Y14804D01*
G03X16775Y14906I-102J0D01*
G01X16505D01*
G03X16403Y14804I0J-102D01*
G37*
G36*
G01X15903Y14804D02*
G01X15903Y13804D01*
G03X16005Y13703I102J0D01*
G01X16275D01*
G03X16376Y13804I0J102D01*
G01Y14804D01*
G03X16275Y14906I-102J0D01*
G01X16005D01*
G03X15903Y14804I0J-102D01*
G37*
G36*
G01X15403Y14804D02*
G01X15403Y13804D01*
G03X15505Y13703I102J0D01*
G01X15775D01*
G03X15876Y13804I0J102D01*
G01Y14804D01*
G03X15775Y14906I-102J0D01*
G01X15505D01*
G03X15403Y14804I0J-102D01*
G37*
G36*
G01X14903Y14804D02*
G01X14903Y13804D01*
G03X15005Y13703I102J0D01*
G01X15275D01*
G03X15376Y13804I0J102D01*
G01Y14804D01*
G03X15275Y14906I-102J0D01*
G01X15005D01*
G03X14903Y14804I0J-102D01*
G37*
G36*
G01X14403Y14804D02*
G01X14403Y13804D01*
G03X14505Y13703I102J0D01*
G01X14775D01*
G03X14876Y13804I0J102D01*
G01Y14804D01*
G03X14775Y14906I-102J0D01*
G01X14505D01*
G03X14403Y14804I0J-102D01*
G37*
G36*
G01X22390Y13318D02*
G01X23390Y13318D01*
G03X23491Y13419I0J102D01*
G01Y13689D01*
G03X23390Y13791I-102J0D01*
G01X22390D01*
G03X22288Y13689I0J-102D01*
G01Y13419D01*
G03X22390Y13318I102J0D01*
G37*
G36*
G01X22390Y12818D02*
G01X23390Y12818D01*
G03X23491Y12919I0J102D01*
G01Y13189D01*
G03X23390Y13291I-102J0D01*
G01X22390D01*
G03X22288Y13189I0J-102D01*
G01Y12919D01*
G03X22390Y12818I102J0D01*
G37*
G36*
G01X22390Y12318D02*
G01X23390Y12318D01*
G03X23491Y12419I0J102D01*
G01Y12689D01*
G03X23390Y12791I-102J0D01*
G01X22390D01*
G03X22288Y12689I0J-102D01*
G01Y12419D01*
G03X22390Y12318I102J0D01*
G37*
G36*
G01X22390Y11818D02*
G01X23390Y11818D01*
G03X23491Y11919I0J102D01*
G01Y12189D01*
G03X23390Y12291I-102J0D01*
G01X22390D01*
G03X22288Y12189I0J-102D01*
G01Y11919D01*
G03X22390Y11818I102J0D01*
G37*
G36*
G01X22390Y11318D02*
G01X23390Y11318D01*
G03X23491Y11419I0J102D01*
G01Y11689D01*
G03X23390Y11791I-102J0D01*
G01X22390D01*
G03X22288Y11689I0J-102D01*
G01Y11419D01*
G03X22390Y11318I102J0D01*
G37*
G36*
G01X22390Y10818D02*
G01X23390Y10818D01*
G03X23491Y10919I0J102D01*
G01Y11189D01*
G03X23390Y11291I-102J0D01*
G01X22390D01*
G03X22288Y11189I0J-102D01*
G01Y10919D01*
G03X22390Y10818I102J0D01*
G37*
G36*
G01X22390Y10318D02*
G01X23390Y10318D01*
G03X23491Y10419I0J102D01*
G01Y10689D01*
G03X23390Y10791I-102J0D01*
G01X22390D01*
G03X22288Y10689I0J-102D01*
G01Y10419D01*
G03X22390Y10318I102J0D01*
G37*
G36*
G01X22390Y9818D02*
G01X23390Y9818D01*
G03X23491Y9919I0J102D01*
G01Y10189D01*
G03X23390Y10291I-102J0D01*
G01X22390D01*
G03X22288Y10189I0J-102D01*
G01Y9919D01*
G03X22390Y9818I102J0D01*
G37*
G36*
G01X22390Y9318D02*
G01X23390Y9318D01*
G03X23491Y9419I0J102D01*
G01Y9689D01*
G03X23390Y9791I-102J0D01*
G01X22390D01*
G03X22288Y9689I0J-102D01*
G01Y9419D01*
G03X22390Y9318I102J0D01*
G37*
G36*
G01X22390Y8818D02*
G01X23390Y8818D01*
G03X23491Y8919I0J102D01*
G01Y9189D01*
G03X23390Y9291I-102J0D01*
G01X22390D01*
G03X22288Y9189I0J-102D01*
G01Y8919D01*
G03X22390Y8818I102J0D01*
G37*
G36*
G01X22390Y8318D02*
G01X23390Y8318D01*
G03X23491Y8419I0J102D01*
G01Y8689D01*
G03X23390Y8791I-102J0D01*
G01X22390D01*
G03X22288Y8689I0J-102D01*
G01Y8419D01*
G03X22390Y8318I102J0D01*
G37*
G36*
G01X22390Y7818D02*
G01X23390Y7818D01*
G03X23491Y7919I0J102D01*
G01Y8189D01*
G03X23390Y8291I-102J0D01*
G01X22390D01*
G03X22288Y8189I0J-102D01*
G01Y7919D01*
G03X22390Y7818I102J0D01*
G37*
G36*
G01X22390Y7318D02*
G01X23390Y7318D01*
G03X23491Y7419I0J102D01*
G01Y7689D01*
G03X23390Y7791I-102J0D01*
G01X22390D01*
G03X22288Y7689I0J-102D01*
G01Y7419D01*
G03X22390Y7318I102J0D01*
G37*
G36*
G01X22390Y6818D02*
G01X23390Y6818D01*
G03X23491Y6919I0J102D01*
G01Y7189D01*
G03X23390Y7291I-102J0D01*
G01X22390D01*
G03X22288Y7189I0J-102D01*
G01Y6919D01*
G03X22390Y6818I102J0D01*
G37*
G36*
G01X22390Y6318D02*
G01X23390Y6318D01*
G03X23491Y6419I0J102D01*
G01Y6689D01*
G03X23390Y6791I-102J0D01*
G01X22390D01*
G03X22288Y6689I0J-102D01*
G01Y6419D01*
G03X22390Y6318I102J0D01*
G37*
G36*
G01X22390Y5818D02*
G01X23390Y5818D01*
G03X23491Y5919I0J102D01*
G01Y6189D01*
G03X23390Y6291I-102J0D01*
G01X22390D01*
G03X22288Y6189I0J-102D01*
G01Y5919D01*
G03X22390Y5818I102J0D01*
G37*
G36*
G01X13390Y13318D02*
G01X14390Y13318D01*
G03X14491Y13419I0J102D01*
G01Y13689D01*
G03X14390Y13791I-102J0D01*
G01X13390D01*
G03X13288Y13689I0J-102D01*
G01Y13419D01*
G03X13390Y13318I102J0D01*
G37*
G36*
G01X13390Y12818D02*
G01X14390Y12818D01*
G03X14491Y12919I0J102D01*
G01Y13189D01*
G03X14390Y13291I-102J0D01*
G01X13390D01*
G03X13288Y13189I0J-102D01*
G01Y12919D01*
G03X13390Y12818I102J0D01*
G37*
G36*
G01X13390Y12318D02*
G01X14390Y12318D01*
G03X14491Y12419I0J102D01*
G01Y12689D01*
G03X14390Y12791I-102J0D01*
G01X13390D01*
G03X13288Y12689I0J-102D01*
G01Y12419D01*
G03X13390Y12318I102J0D01*
G37*
G36*
G01X13390Y11818D02*
G01X14390Y11818D01*
G03X14491Y11919I0J102D01*
G01Y12189D01*
G03X14390Y12291I-102J0D01*
G01X13390D01*
G03X13288Y12189I0J-102D01*
G01Y11919D01*
G03X13390Y11818I102J0D01*
G37*
G36*
G01X13390Y11318D02*
G01X14390Y11318D01*
G03X14491Y11419I0J102D01*
G01Y11689D01*
G03X14390Y11791I-102J0D01*
G01X13390D01*
G03X13288Y11689I0J-102D01*
G01Y11419D01*
G03X13390Y11318I102J0D01*
G37*
G36*
G01X13390Y10818D02*
G01X14390Y10818D01*
G03X14491Y10919I0J102D01*
G01Y11189D01*
G03X14390Y11291I-102J0D01*
G01X13390D01*
G03X13288Y11189I0J-102D01*
G01Y10919D01*
G03X13390Y10818I102J0D01*
G37*
G36*
G01X13390Y10318D02*
G01X14390Y10318D01*
G03X14491Y10419I0J102D01*
G01Y10689D01*
G03X14390Y10791I-102J0D01*
G01X13390D01*
G03X13288Y10689I0J-102D01*
G01Y10419D01*
G03X13390Y10318I102J0D01*
G37*
G36*
G01X13390Y9818D02*
G01X14390Y9818D01*
G03X14491Y9919I0J102D01*
G01Y10189D01*
G03X14390Y10291I-102J0D01*
G01X13390D01*
G03X13288Y10189I0J-102D01*
G01Y9919D01*
G03X13390Y9818I102J0D01*
G37*
G36*
G01X13390Y5818D02*
G01X14390Y5818D01*
G03X14491Y5919I0J102D01*
G01Y6189D01*
G03X14390Y6291I-102J0D01*
G01X13390D01*
G03X13288Y6189I0J-102D01*
G01Y5919D01*
G03X13390Y5818I102J0D01*
G37*
G36*
G01X13390Y6318D02*
G01X14390Y6318D01*
G03X14491Y6419I0J102D01*
G01Y6689D01*
G03X14390Y6791I-102J0D01*
G01X13390D01*
G03X13288Y6689I0J-102D01*
G01Y6419D01*
G03X13390Y6318I102J0D01*
G37*
G36*
G01X13390Y6818D02*
G01X14390Y6818D01*
G03X14491Y6919I0J102D01*
G01Y7189D01*
G03X14390Y7291I-102J0D01*
G01X13390D01*
G03X13288Y7189I0J-102D01*
G01Y6919D01*
G03X13390Y6818I102J0D01*
G37*
G36*
G01X13390Y7318D02*
G01X14390Y7318D01*
G03X14491Y7419I0J102D01*
G01Y7689D01*
G03X14390Y7791I-102J0D01*
G01X13390D01*
G03X13288Y7689I0J-102D01*
G01Y7419D01*
G03X13390Y7318I102J0D01*
G37*
G36*
G01X13390Y7818D02*
G01X14390Y7818D01*
G03X14491Y7919I0J102D01*
G01Y8189D01*
G03X14390Y8291I-102J0D01*
G01X13390D01*
G03X13288Y8189I0J-102D01*
G01Y7919D01*
G03X13390Y7818I102J0D01*
G37*
G36*
G01X13390Y8318D02*
G01X14390Y8318D01*
G03X14491Y8419I0J102D01*
G01Y8689D01*
G03X14390Y8791I-102J0D01*
G01X13390D01*
G03X13288Y8689I0J-102D01*
G01Y8419D01*
G03X13390Y8318I102J0D01*
G37*
G36*
G01X13390Y8818D02*
G01X14390Y8818D01*
G03X14491Y8919I0J102D01*
G01Y9189D01*
G03X14390Y9291I-102J0D01*
G01X13390D01*
G03X13288Y9189I0J-102D01*
G01Y8919D01*
G03X13390Y8818I102J0D01*
G37*
G36*
G01X13390Y9318D02*
G01X14390Y9318D01*
G03X14491Y9419I0J102D01*
G01Y9689D01*
G03X14390Y9791I-102J0D01*
G01X13390D01*
G03X13288Y9689I0J-102D01*
G01Y9419D01*
G03X13390Y9318I102J0D01*
G37*
G36*
G01X21903Y5804D02*
G01X21903Y4804D01*
G03X22005Y4703I102J0D01*
G01X22275D01*
G03X22376Y4804I0J102D01*
G01Y5804D01*
G03X22275Y5906I-102J0D01*
G01X22005D01*
G03X21903Y5804I0J-102D01*
G37*
G36*
G01X21403Y5804D02*
G01X21403Y4804D01*
G03X21505Y4703I102J0D01*
G01X21775D01*
G03X21876Y4804I0J102D01*
G01Y5804D01*
G03X21775Y5906I-102J0D01*
G01X21505D01*
G03X21403Y5804I0J-102D01*
G37*
G36*
G01X20903Y5804D02*
G01X20903Y4804D01*
G03X21005Y4703I102J0D01*
G01X21275D01*
G03X21376Y4804I0J102D01*
G01Y5804D01*
G03X21275Y5906I-102J0D01*
G01X21005D01*
G03X20903Y5804I0J-102D01*
G37*
G36*
G01X20403Y5804D02*
G01X20403Y4804D01*
G03X20505Y4703I102J0D01*
G01X20775D01*
G03X20876Y4804I0J102D01*
G01Y5804D01*
G03X20775Y5906I-102J0D01*
G01X20505D01*
G03X20403Y5804I0J-102D01*
G37*
G36*
G01X19903Y5804D02*
G01X19903Y4804D01*
G03X20005Y4703I102J0D01*
G01X20275D01*
G03X20376Y4804I0J102D01*
G01Y5804D01*
G03X20275Y5906I-102J0D01*
G01X20005D01*
G03X19903Y5804I0J-102D01*
G37*
G36*
G01X19403Y5804D02*
G01X19403Y4804D01*
G03X19505Y4703I102J0D01*
G01X19775D01*
G03X19876Y4804I0J102D01*
G01Y5804D01*
G03X19775Y5906I-102J0D01*
G01X19505D01*
G03X19403Y5804I0J-102D01*
G37*
G36*
G01X18903Y5804D02*
G01X18903Y4804D01*
G03X19005Y4703I102J0D01*
G01X19275D01*
G03X19376Y4804I0J102D01*
G01Y5804D01*
G03X19275Y5906I-102J0D01*
G01X19005D01*
G03X18903Y5804I0J-102D01*
G37*
G36*
G01X18403Y5804D02*
G01X18403Y4804D01*
G03X18505Y4703I102J0D01*
G01X18775D01*
G03X18876Y4804I0J102D01*
G01Y5804D01*
G03X18775Y5906I-102J0D01*
G01X18505D01*
G03X18403Y5804I0J-102D01*
G37*
G36*
G01X17903Y5804D02*
G01X17903Y4804D01*
G03X18005Y4703I102J0D01*
G01X18275D01*
G03X18376Y4804I0J102D01*
G01Y5804D01*
G03X18275Y5906I-102J0D01*
G01X18005D01*
G03X17903Y5804I0J-102D01*
G37*
G36*
G01X17403Y5804D02*
G01X17403Y4804D01*
G03X17505Y4703I102J0D01*
G01X17775D01*
G03X17876Y4804I0J102D01*
G01Y5804D01*
G03X17775Y5906I-102J0D01*
G01X17505D01*
G03X17403Y5804I0J-102D01*
G37*
G36*
G01X16903Y5804D02*
G01X16903Y4804D01*
G03X17005Y4703I102J0D01*
G01X17275D01*
G03X17376Y4804I0J102D01*
G01Y5804D01*
G03X17275Y5906I-102J0D01*
G01X17005D01*
G03X16903Y5804I0J-102D01*
G37*
G36*
G01X16403Y5804D02*
G01X16403Y4804D01*
G03X16505Y4703I102J0D01*
G01X16775D01*
G03X16876Y4804I0J102D01*
G01Y5804D01*
G03X16775Y5906I-102J0D01*
G01X16505D01*
G03X16403Y5804I0J-102D01*
G37*
G36*
G01X15903Y5804D02*
G01X15903Y4804D01*
G03X16005Y4703I102J0D01*
G01X16275D01*
G03X16376Y4804I0J102D01*
G01Y5804D01*
G03X16275Y5906I-102J0D01*
G01X16005D01*
G03X15903Y5804I0J-102D01*
G37*
G36*
G01X15403Y5804D02*
G01X15403Y4804D01*
G03X15505Y4703I102J0D01*
G01X15775D01*
G03X15876Y4804I0J102D01*
G01Y5804D01*
G03X15775Y5906I-102J0D01*
G01X15505D01*
G03X15403Y5804I0J-102D01*
G37*
G36*
G01X14903Y5804D02*
G01X14903Y4804D01*
G03X15005Y4703I102J0D01*
G01X15275D01*
G03X15376Y4804I0J102D01*
G01Y5804D01*
G03X15275Y5906I-102J0D01*
G01X15005D01*
G03X14903Y5804I0J-102D01*
G37*
G36*
G01X14403Y5804D02*
G01X14403Y4804D01*
G03X14505Y4703I102J0D01*
G01X14775D01*
G03X14876Y4804I0J102D01*
G01Y5804D01*
G03X14775Y5906I-102J0D01*
G01X14505D01*
G03X14403Y5804I0J-102D01*
G37*
G36*
G01X15640Y6953D02*
G01X21140Y6953D01*
G03X21241Y7054I0J102D01*
G01Y12554D01*
G03X21140Y12656I-102J0D01*
G01X15640D01*
G03X15538Y12554I0J-102D01*
G01Y7054D01*
G03X15640Y6953I102J0D01*
G37*
G36*
G01X26245Y14045D02*
G01X25571Y14045D01*
G03X25469Y13943I0J-102D01*
G01Y13743D01*
G03X25571Y13641I102J0D01*
G01X26245D01*
G03X26347Y13743I0J102D01*
G01Y13943D01*
G03X26245Y14045I-102J0D01*
G37*
G36*
G01X26245Y13545D02*
G01X25571Y13545D01*
G03X25469Y13443I0J-102D01*
G01Y13243D01*
G03X25571Y13141I102J0D01*
G01X26245D01*
G03X26347Y13243I0J102D01*
G01Y13443D01*
G03X26245Y13545I-102J0D01*
G37*
G36*
G01X27120Y13145D02*
G01X25571Y13145D01*
G03X25469Y13043I0J-102D01*
G01Y12643D01*
G03X25571Y12541I102J0D01*
G01X27120D01*
G03X27222Y12643I0J102D01*
G01Y13043D01*
G03X27120Y13145I-102J0D01*
G37*
G36*
G01X26245Y12545D02*
G01X25571Y12545D01*
G03X25469Y12443I0J-102D01*
G01Y12243D01*
G03X25571Y12141I102J0D01*
G01X26245D01*
G03X26347Y12243I0J102D01*
G01Y12443D01*
G03X26245Y12545I-102J0D01*
G37*
G36*
G01X26245Y12045D02*
G01X25571Y12045D01*
G03X25469Y11943I0J-102D01*
G01Y11743D01*
G03X25571Y11641I102J0D01*
G01X26245D01*
G03X26347Y11743I0J102D01*
G01Y11943D01*
G03X26245Y12045I-102J0D01*
G37*
G36*
G01X27120Y12045D02*
G01X26445Y12045D01*
G03X26344Y11943I0J-102D01*
G01Y11743D01*
G03X26445Y11641I102J0D01*
G01X27120D01*
G03X27222Y11743I0J102D01*
G01Y11943D01*
G03X27120Y12045I-102J0D01*
G37*
G36*
G01X27120Y12545D02*
G01X26445Y12545D01*
G03X26344Y12443I0J-102D01*
G01Y12243D01*
G03X26445Y12141I102J0D01*
G01X27120D01*
G03X27222Y12243I0J102D01*
G01Y12443D01*
G03X27120Y12545I-102J0D01*
G37*
G36*
G01X27120Y13545D02*
G01X26445Y13545D01*
G03X26344Y13443I0J-102D01*
G01Y13243D01*
G03X26445Y13141I102J0D01*
G01X27120D01*
G03X27222Y13243I0J102D01*
G01Y13443D01*
G03X27120Y13545I-102J0D01*
G37*
G36*
G01X27120Y14045D02*
G01X26445Y14045D01*
G03X26344Y13943I0J-102D01*
G01Y13743D01*
G03X26445Y13641I102J0D01*
G01X27120D01*
G03X27222Y13743I0J102D01*
G01Y13943D01*
G03X27120Y14045I-102J0D01*
G37*
G36*
G01X26240Y11082D02*
G01X25565Y11082D01*
G03X25463Y10981I0J-102D01*
G01Y10781D01*
G03X25565Y10679I102J0D01*
G01X26240D01*
G03X26341Y10781I0J102D01*
G01Y10981D01*
G03X26240Y11082I-102J0D01*
G37*
G36*
G01X26240Y10582D02*
G01X25565Y10582D01*
G03X25463Y10481I0J-102D01*
G01Y10281D01*
G03X25565Y10179I102J0D01*
G01X26240D01*
G03X26341Y10281I0J102D01*
G01Y10481D01*
G03X26240Y10582I-102J0D01*
G37*
G36*
G01X27115Y10182D02*
G01X25565Y10182D01*
G03X25463Y10081I0J-102D01*
G01Y9681D01*
G03X25565Y9579I102J0D01*
G01X27115D01*
G03X27216Y9681I0J102D01*
G01Y10081D01*
G03X27115Y10182I-102J0D01*
G37*
G36*
G01X26240Y9582D02*
G01X25565Y9582D01*
G03X25463Y9481I0J-102D01*
G01Y9281D01*
G03X25565Y9179I102J0D01*
G01X26240D01*
G03X26341Y9281I0J102D01*
G01Y9481D01*
G03X26240Y9582I-102J0D01*
G37*
G36*
G01X26240Y9082D02*
G01X25565Y9082D01*
G03X25463Y8981I0J-102D01*
G01Y8781D01*
G03X25565Y8679I102J0D01*
G01X26240D01*
G03X26341Y8781I0J102D01*
G01Y8981D01*
G03X26240Y9082I-102J0D01*
G37*
G36*
G01X27115Y9082D02*
G01X26440Y9082D01*
G03X26338Y8981I0J-102D01*
G01Y8781D01*
G03X26440Y8679I102J0D01*
G01X27115D01*
G03X27216Y8781I0J102D01*
G01Y8981D01*
G03X27115Y9082I-102J0D01*
G37*
G36*
G01X27115Y9582D02*
G01X26440Y9582D01*
G03X26338Y9481I0J-102D01*
G01Y9281D01*
G03X26440Y9179I102J0D01*
G01X27115D01*
G03X27216Y9281I0J102D01*
G01Y9481D01*
G03X27115Y9582I-102J0D01*
G37*
G36*
G01X27115Y10582D02*
G01X26440Y10582D01*
G03X26338Y10481I0J-102D01*
G01Y10281D01*
G03X26440Y10179I102J0D01*
G01X27115D01*
G03X27216Y10281I0J102D01*
G01Y10481D01*
G03X27115Y10582I-102J0D01*
G37*
G36*
G01X27115Y11082D02*
G01X26440Y11082D01*
G03X26338Y10981I0J-102D01*
G01Y10781D01*
G03X26440Y10679I102J0D01*
G01X27115D01*
G03X27216Y10781I0J102D01*
G01Y10981D01*
G03X27115Y11082I-102J0D01*
G37*
G36*
G01X7247Y6000D02*
G01X4945Y6000D01*
G03X4895Y5950I0J-50D01*
G01Y5249D01*
G03X4945Y5199I50J0D01*
G01X7247D01*
G03X7297Y5249I0J50D01*
G01Y5950D01*
G03X7247Y6000I-50J0D01*
G37*
G36*
G01X7247Y8002D02*
G01X4945Y8002D01*
G03X4895Y7952I0J-50D01*
G01Y7251D01*
G03X4945Y7200I50J0D01*
G01X7247D01*
G03X7297Y7251I0J50D01*
G01Y7952D01*
G03X7247Y8002I-50J0D01*
G37*
G36*
G01X7247Y10001D02*
G01X4945Y10001D01*
G03X4895Y9951I0J-50D01*
G01Y9249D01*
G03X4945Y9199I50J0D01*
G01X7247D01*
G03X7297Y9249I0J50D01*
G01Y9951D01*
G03X7247Y10001I-50J0D01*
G37*
G36*
G01X7247Y12000D02*
G01X4945Y12000D01*
G03X4895Y11950I0J-50D01*
G01Y11248D01*
G03X4945Y11198I50J0D01*
G01X7247D01*
G03X7297Y11248I0J50D01*
G01Y11950D01*
G03X7247Y12000I-50J0D01*
G37*
G36*
G01X7247Y14001D02*
G01X4945Y14001D01*
G03X4895Y13951I0J-50D01*
G01Y13250D01*
G03X4945Y13200I50J0D01*
G01X7247D01*
G03X7297Y13250I0J50D01*
G01Y13951D01*
G03X7247Y14001I-50J0D01*
G37*
G36*
G01X7247Y13000D02*
G01X4945Y13000D01*
G03X4895Y12950I0J-50D01*
G01Y12249D01*
G03X4945Y12199I50J0D01*
G01X7247D01*
G03X7297Y12249I0J50D01*
G01Y12950D01*
G03X7247Y13000I-50J0D01*
G37*
G36*
G01X7247Y11001D02*
G01X4945Y11001D01*
G03X4895Y10951I0J-50D01*
G01Y10250D01*
G03X4945Y10200I50J0D01*
G01X7247D01*
G03X7297Y10250I0J50D01*
G01Y10951D01*
G03X7247Y11001I-50J0D01*
G37*
G36*
G01X7247Y9000D02*
G01X4945Y9000D01*
G03X4895Y8950I0J-50D01*
G01Y8249D01*
G03X4945Y8199I50J0D01*
G01X7247D01*
G03X7297Y8249I0J50D01*
G01Y8950D01*
G03X7247Y9000I-50J0D01*
G37*
G36*
G01X7247Y7001D02*
G01X4945Y7001D01*
G03X4895Y6951I0J-50D01*
G01Y6250D01*
G03X4945Y6200I50J0D01*
G01X7247D01*
G03X7297Y6250I0J50D01*
G01Y6951D01*
G03X7247Y7001I-50J0D01*
G37*
G54D10*
G01X3896Y3750D03*
G01X3896Y15450D03*
G36*
G01X26190Y3261D02*
G01X26190Y3801D01*
G03X26139Y3851I-51J0D01*
G01X25573D01*
G03X25523Y3801I0J-51D01*
G01Y3261D01*
G03X25573Y3210I51J0D01*
G01X26139D01*
G03X26190Y3261I0J51D01*
G37*
G36*
G01X27055Y3261D02*
G01X27055Y3801D01*
G03X27005Y3851I-51J0D01*
G01X26439D01*
G03X26388Y3801I0J-51D01*
G01Y3261D01*
G03X26439Y3210I51J0D01*
G01X27005D01*
G03X27055Y3261I0J51D01*
G37*
G36*
G01X26190Y2219D02*
G01X26190Y2759D01*
G03X26139Y2810I-51J0D01*
G01X25573D01*
G03X25523Y2759I0J-51D01*
G01Y2219D01*
G03X25573Y2168I51J0D01*
G01X26139D01*
G03X26190Y2219I0J51D01*
G37*
G36*
G01X27055Y2219D02*
G01X27055Y2759D01*
G03X27005Y2810I-51J0D01*
G01X26439D01*
G03X26388Y2759I0J-51D01*
G01Y2219D01*
G03X26439Y2168I51J0D01*
G01X27005D01*
G03X27055Y2219I0J51D01*
G37*
G36*
G01X26541Y6087D02*
G01X26541Y5547D01*
G03X26591Y5496I51J0D01*
G01X27157D01*
G03X27208Y5547I0J51D01*
G01Y6087D01*
G03X27157Y6137I-51J0D01*
G01X26591D01*
G03X26541Y6087I0J-51D01*
G37*
G36*
G01X25675Y6087D02*
G01X25675Y5547D01*
G03X25726Y5496I51J0D01*
G01X26291D01*
G03X26342Y5547I0J51D01*
G01Y6087D01*
G03X26291Y6137I-51J0D01*
G01X25726D01*
G03X25675Y6087I0J-51D01*
G37*
G36*
G01X26541Y7306D02*
G01X26541Y6766D01*
G03X26591Y6715I51J0D01*
G01X27157D01*
G03X27208Y6766I0J51D01*
G01Y7306D01*
G03X27157Y7357I-51J0D01*
G01X26591D01*
G03X26541Y7306I0J-51D01*
G37*
G36*
G01X25675Y7306D02*
G01X25675Y6766D01*
G03X25726Y6715I51J0D01*
G01X26291D01*
G03X26342Y6766I0J51D01*
G01Y7306D01*
G03X26291Y7357I-51J0D01*
G01X25726D01*
G03X25675Y7306I0J-51D01*
G37*
G36*
G01X26363Y4817D02*
G01X26363Y4277D01*
G03X26414Y4226I51J0D01*
G01X27204D01*
G03X27255Y4277I0J51D01*
G01Y4817D01*
G03X27204Y4867I-51J0D01*
G01X26414D01*
G03X26363Y4817I0J-51D01*
G37*
G36*
G01X25273Y4817D02*
G01X25273Y4277D01*
G03X25323Y4226I51J0D01*
G01X26114D01*
G03X26164Y4277I0J51D01*
G01Y4817D01*
G03X26114Y4867I-51J0D01*
G01X25323D01*
G03X25273Y4817I0J-51D01*
G37*
G36*
G01X8866Y13901D02*
G01X8866Y13226D01*
G03X8968Y13125I102J0D01*
G01X9168D01*
G03X9269Y13226I0J102D01*
G01Y13901D01*
G03X9168Y14003I-102J0D01*
G01X8968D01*
G03X8866Y13901I0J-102D01*
G37*
G36*
G01X9366Y13901D02*
G01X9366Y13226D01*
G03X9468Y13125I102J0D01*
G01X9668D01*
G03X9769Y13226I0J102D01*
G01Y13901D01*
G03X9668Y14003I-102J0D01*
G01X9468D01*
G03X9366Y13901I0J-102D01*
G37*
G36*
G01X9766Y14776D02*
G01X9766Y13226D01*
G03X9868Y13125I102J0D01*
G01X10268D01*
G03X10369Y13226I0J102D01*
G01Y14776D01*
G03X10268Y14878I-102J0D01*
G01X9868D01*
G03X9766Y14776I0J-102D01*
G37*
G36*
G01X10366Y13901D02*
G01X10366Y13226D01*
G03X10468Y13125I102J0D01*
G01X10668D01*
G03X10769Y13226I0J102D01*
G01Y13901D01*
G03X10668Y14003I-102J0D01*
G01X10468D01*
G03X10366Y13901I0J-102D01*
G37*
G36*
G01X10866Y13901D02*
G01X10866Y13226D01*
G03X10968Y13125I102J0D01*
G01X11168D01*
G03X11269Y13226I0J102D01*
G01Y13901D01*
G03X11168Y14003I-102J0D01*
G01X10968D01*
G03X10866Y13901I0J-102D01*
G37*
G36*
G01X10866Y14776D02*
G01X10866Y14101D01*
G03X10968Y13999I102J0D01*
G01X11168D01*
G03X11269Y14101I0J102D01*
G01Y14776D01*
G03X11168Y14878I-102J0D01*
G01X10968D01*
G03X10866Y14776I0J-102D01*
G37*
G36*
G01X10366Y14776D02*
G01X10366Y14101D01*
G03X10468Y13999I102J0D01*
G01X10668D01*
G03X10769Y14101I0J102D01*
G01Y14776D01*
G03X10668Y14878I-102J0D01*
G01X10468D01*
G03X10366Y14776I0J-102D01*
G37*
G36*
G01X9366Y14776D02*
G01X9366Y14101D01*
G03X9468Y13999I102J0D01*
G01X9668D01*
G03X9769Y14101I0J102D01*
G01Y14776D01*
G03X9668Y14878I-102J0D01*
G01X9468D01*
G03X9366Y14776I0J-102D01*
G37*
G36*
G01X8866Y14776D02*
G01X8866Y14101D01*
G03X8968Y13999I102J0D01*
G01X9168D01*
G03X9269Y14101I0J102D01*
G01Y14776D01*
G03X9168Y14878I-102J0D01*
G01X8968D01*
G03X8866Y14776I0J-102D01*
G37*
G36*
G01X10568Y16487D02*
G01X10950Y16105D01*
G03X11022I36J36D01*
G01X11581Y16664D01*
G03Y16736I-36J36D01*
G01X11199Y17118D01*
G03X11127I-36J-36D01*
G01X10568Y16559D01*
G03Y16487I36J-36D01*
G37*
G36*
G01X9797Y15716D02*
G01X10179Y15335D01*
G03X10251I36J36D01*
G01X10810Y15893D01*
G03Y15965I-36J36D01*
G01X10428Y16347D01*
G03X10356I-36J-36D01*
G01X9797Y15788D01*
G03Y15716I36J-36D01*
G37*
G36*
G01X9806Y17249D02*
G01X10188Y16867D01*
G03X10260I36J36D01*
G01X10819Y17426D01*
G03Y17498I-36J36D01*
G01X10437Y17880D01*
G03X10365I-36J-36D01*
G01X9806Y17321D01*
G03Y17249I36J-36D01*
G37*
G36*
G01X9035Y16478D02*
G01X9417Y16097D01*
G03X9489I36J36D01*
G01X10048Y16655D01*
G03Y16727I-36J36D01*
G01X9666Y17109D01*
G03X9594I-36J-36D01*
G01X9035Y16550D01*
G03Y16478I36J-36D01*
G37*
G36*
G01X25873Y15539D02*
G01X27373Y15539D01*
G03X27475Y15640I0J102D01*
G01Y16140D01*
G03X27373Y16242I-102J0D01*
G01X25873D01*
G03X25771Y16140I0J-102D01*
G01Y15640D01*
G03X25873Y15539I102J0D01*
G37*
G36*
G01X25873Y16489D02*
G01X27373Y16489D01*
G03X27475Y16590I0J102D01*
G01Y17090D01*
G03X27373Y17192I-102J0D01*
G01X25873D01*
G03X25771Y17090I0J-102D01*
G01Y16590D01*
G03X25873Y16489I102J0D01*
G37*
G36*
G01X25873Y17439D02*
G01X27373Y17439D01*
G03X27475Y17540I0J102D01*
G01Y18040D01*
G03X27373Y18142I-102J0D01*
G01X25873D01*
G03X25771Y18040I0J-102D01*
G01Y17540D01*
G03X25873Y17439I102J0D01*
G37*
G36*
G01X23173Y17439D02*
G01X24673Y17439D01*
G03X24775Y17540I0J102D01*
G01Y18040D01*
G03X24673Y18142I-102J0D01*
G01X23173D01*
G03X23071Y18040I0J-102D01*
G01Y17540D01*
G03X23173Y17439I102J0D01*
G37*
G36*
G01X23173Y15539D02*
G01X24673Y15539D01*
G03X24775Y15640I0J102D01*
G01Y16140D01*
G03X24673Y16242I-102J0D01*
G01X23173D01*
G03X23071Y16140I0J-102D01*
G01Y15640D01*
G03X23173Y15539I102J0D01*
G37*
G36*
G01X17879Y3140D02*
G01X17879Y2600D01*
G03X17930Y2549I51J0D01*
G01X18720D01*
G03X18771Y2600I0J51D01*
G01Y3140D01*
G03X18720Y3191I-51J0D01*
G01X17930D01*
G03X17879Y3140I0J-51D01*
G37*
G36*
G01X16789Y3140D02*
G01X16789Y2600D01*
G03X16840Y2549I51J0D01*
G01X17630D01*
G03X17681Y2600I0J51D01*
G01Y3140D01*
G03X17630Y3191I-51J0D01*
G01X16840D01*
G03X16789Y3140I0J-51D01*
G37*
G36*
G01X19955Y16639D02*
G01X19415Y16639D01*
G03X19364Y16589I0J-51D01*
G01Y15798D01*
G03X19415Y15748I51J0D01*
G01X19955D01*
G03X20006Y15798I0J51D01*
G01Y16589D01*
G03X19955Y16639I-51J0D01*
G37*
G36*
G01X19955Y17730D02*
G01X19415Y17730D01*
G03X19364Y17679I0J-51D01*
G01Y16889D01*
G03X19415Y16838I51J0D01*
G01X19955D01*
G03X20006Y16889I0J51D01*
G01Y17679D01*
G03X19955Y17730I-51J0D01*
G37*
G36*
G01X11871Y5396D02*
G01X12411Y5396D01*
G03X12462Y5447I0J51D01*
G01Y6237D01*
G03X12411Y6288I-51J0D01*
G01X11871D01*
G03X11820Y6237I0J-51D01*
G01Y5447D01*
G03X11871Y5396I51J0D01*
G37*
G36*
G01X11871Y4306D02*
G01X12411Y4306D01*
G03X12462Y4357I0J51D01*
G01Y5147D01*
G03X12411Y5198I-51J0D01*
G01X11871D01*
G03X11820Y5147I0J-51D01*
G01Y4357D01*
G03X11871Y4306I51J0D01*
G37*
G36*
G01X9153Y1177D02*
G01X9153Y1718D01*
G03X9102Y1769I-51J0D01*
G01X8465D01*
G03X8414Y1718I0J-51D01*
G01Y1177D01*
G03X8465Y1126I51J0D01*
G01X9102D01*
G03X9153Y1177I0J51D01*
G37*
G36*
G01X10230Y1177D02*
G01X10230Y1718D01*
G03X10179Y1769I-51J0D01*
G01X9542D01*
G03X9491Y1718I0J-51D01*
G01Y1177D01*
G03X9542Y1126I51J0D01*
G01X10179D01*
G03X10230Y1177I0J51D01*
G37*
G36*
G01X9197Y2727D02*
G01X9197Y3267D01*
G03X9146Y3318I-51J0D01*
G01X8581D01*
G03X8530Y3267I0J-51D01*
G01Y2727D01*
G03X8581Y2676I51J0D01*
G01X9146D01*
G03X9197Y2727I0J51D01*
G37*
G36*
G01X10063Y2727D02*
G01X10063Y3267D01*
G03X10012Y3318I-51J0D01*
G01X9446D01*
G03X9396Y3267I0J-51D01*
G01Y2727D01*
G03X9446Y2676I51J0D01*
G01X10012D01*
G03X10063Y2727I0J51D01*
G37*
G36*
G01X19745Y3122D02*
G01X20285Y3122D01*
G03X20336Y3173I0J51D01*
G01Y3738D01*
G03X20285Y3789I-51J0D01*
G01X19745D01*
G03X19694Y3738I0J-51D01*
G01Y3173D01*
G03X19745Y3122I51J0D01*
G37*
G36*
G01X19745Y2256D02*
G01X20285Y2256D01*
G03X20336Y2307I0J51D01*
G01Y2873D01*
G03X20285Y2923I-51J0D01*
G01X19745D01*
G03X19694Y2873I0J-51D01*
G01Y2307D01*
G03X19745Y2256I51J0D01*
G37*
G36*
G01X21276Y2923D02*
G01X20736Y2923D01*
G03X20685Y2873I0J-51D01*
G01Y2307D01*
G03X20736Y2256I51J0D01*
G01X21276D01*
G03X21327Y2307I0J51D01*
G01Y2873D01*
G03X21276Y2923I-51J0D01*
G37*
G36*
G01X21276Y3789D02*
G01X20736Y3789D01*
G03X20685Y3738I0J-51D01*
G01Y3173D01*
G03X20736Y3122I51J0D01*
G01X21276D01*
G03X21327Y3173I0J51D01*
G01Y3738D01*
G03X21276Y3789I-51J0D01*
G37*
G54D11*
G01X30556Y1143D03*
G01X1219Y17932D03*
G54D12*
G01X30000Y5100D03*
G01X30000Y6100D03*
G01X30000Y7100D03*
G01X30000Y8100D03*
G01X30000Y9100D03*
G01X30000Y10100D03*
G01X30000Y11100D03*
G01X30000Y12100D03*
G01X30000Y13100D03*
G01X30000Y14100D03*
G36*
G01X28476Y2097D02*
G01X31476Y2097D01*
G03X31578Y2199I0J102D01*
G01Y3499D01*
G03X31476Y3601I-102J0D01*
G01X28476D01*
G03X28374Y3499I0J-102D01*
G01Y2199D01*
G03X28476Y2097I102J0D01*
G37*
G36*
G01X28463Y15698D02*
G01X31463Y15698D01*
G03X31565Y15800I0J102D01*
G01Y17100D01*
G03X31463Y17202I-102J0D01*
G01X28463D01*
G03X28361Y17100I0J-102D01*
G01Y15800D01*
G03X28463Y15698I102J0D01*
G37*
G36*
G01X21623Y17394D02*
G01X22523Y17394D01*
G03X22573Y17445I0J51D01*
G01Y18245D01*
G03X22523Y18296I-51J0D01*
G01X21623D01*
G03X21572Y18245I0J-51D01*
G01Y17445D01*
G03X21623Y17394I51J0D01*
G37*
G36*
G01X21623Y15994D02*
G01X22523Y15994D01*
G03X22573Y16045I0J51D01*
G01Y16845D01*
G03X22523Y16896I-51J0D01*
G01X21623D01*
G03X21572Y16845I0J-51D01*
G01Y16045D01*
G03X21623Y15994I51J0D01*
G37*
G36*
G01X11744Y9663D02*
G01X12284Y9663D01*
G03X12335Y9714I0J51D01*
G01Y10504D01*
G03X12284Y10555I-51J0D01*
G01X11744D01*
G03X11693Y10504I0J-51D01*
G01Y9714D01*
G03X11744Y9663I51J0D01*
G37*
G36*
G01X11744Y8573D02*
G01X12284Y8573D01*
G03X12335Y8624I0J51D01*
G01Y9414D01*
G03X12284Y9465I-51J0D01*
G01X11744D01*
G03X11693Y9414I0J-51D01*
G01Y8624D01*
G03X11744Y8573I51J0D01*
G37*
G36*
G01X12284Y12384D02*
G01X11744Y12384D01*
G03X11693Y12333I0J-51D01*
G01Y11543D01*
G03X11744Y11492I51J0D01*
G01X12284D01*
G03X12335Y11543I0J51D01*
G01Y12333D01*
G03X12284Y12384I-51J0D01*
G37*
G36*
G01X12284Y13474D02*
G01X11744Y13474D01*
G03X11693Y13423I0J-51D01*
G01Y12633D01*
G03X11744Y12582I51J0D01*
G01X12284D01*
G03X12335Y12633I0J51D01*
G01Y13423D01*
G03X12284Y13474I-51J0D01*
G37*
G04 Pad End*

M02*
