G04 Layer: TopSilkscreenLayer*
G04 EasyEDA Pro v1.8.39, 2022-10-27 11:15:30*
G04 Gerber Generator version 0.3*
G04 Scale: 100 percent, Rotated: No, Reflected: No*
G04 Dimensions in millimeters*
G04 Leading zeros omitted, absolute positions, 3 integers and 3 decimals*
%FSLAX33Y33*%
%MOMM*%
%ADD10C,0.127*%
%ADD11C,0.1524*%
%ADD12C,0.254*%
%ADD13C,0.0254*%
%ADD14C,0.0762*%
G75*


G04 Text Start*
G04 //text: R6*
G54D10*
G01X15827Y16167D02*
G01X16579Y16167D01*
G01X15827Y16167D02*
G01X15827Y16490D01*
G01X15862Y16596D01*
G01X15898Y16632D01*
G01X15972Y16667D01*
G01X16043D01*
G01X16114Y16632D01*
G01X16149Y16596D01*
G01X16185Y16490D01*
G01Y16167D01*
G01X16185Y16416D02*
G01X16579Y16667D01*
G01X15933Y17394D02*
G01X15862Y17358D01*
G01X15827Y17252D01*
G01Y17181D01*
G01X15862Y17074D01*
G01X15972Y17000D01*
G01X16149Y16965D01*
G01X16327D01*
G01X16469Y17000D01*
G01X16543Y17074D01*
G01X16579Y17181D01*
G01Y17216D01*
G01X16543Y17323D01*
G01X16469Y17394D01*
G01X16363Y17429D01*
G01X16327D01*
G01X16220Y17394D01*
G01X16149Y17323D01*
G01X16114Y17216D01*
G01Y17181D01*
G01X16149Y17074D01*
G01X16220Y17000D01*
G01X16327Y16965D01*
G04 //text: U2*
G01X13043Y16355D02*
G01X13043Y15819D01*
G01X13078Y15712D01*
G01X13150Y15639D01*
G01X13256Y15603D01*
G01X13330D01*
G01X13437Y15639D01*
G01X13508Y15712D01*
G01X13543Y15819D01*
G01Y16355D01*
G01X13876Y16175D02*
G01X13876Y16210D01*
G01X13914Y16284D01*
G01X13950Y16320D01*
G01X14021Y16355D01*
G01X14163D01*
G01X14234Y16320D01*
G01X14270Y16284D01*
G01X14305Y16210D01*
G01Y16139D01*
G01X14270Y16068D01*
G01X14199Y15961D01*
G01X13840Y15603D01*
G01X14341D01*
G04 //text: U5*
G01X24361Y12129D02*
G01X24897Y12129D01*
G01X25004Y12164D01*
G01X25077Y12235D01*
G01X25113Y12342D01*
G01Y12416D01*
G01X25077Y12522D01*
G01X25004Y12593D01*
G01X24897Y12629D01*
G01X24361D01*
G01X24361Y13355D02*
G01X24361Y13000D01*
G01X24684Y12962D01*
G01X24648Y13000D01*
G01X24613Y13106D01*
G01Y13213D01*
G01X24648Y13320D01*
G01X24719Y13391D01*
G01X24826Y13426D01*
G01X24897D01*
G01X25004Y13391D01*
G01X25077Y13320D01*
G01X25113Y13213D01*
G01Y13106D01*
G01X25077Y13000D01*
G01X25039Y12962D01*
G01X24968Y12926D01*
G04 //text: U6*
G01X24387Y9131D02*
G01X24922Y9131D01*
G01X25029Y9167D01*
G01X25103Y9238D01*
G01X25138Y9345D01*
G01Y9418D01*
G01X25103Y9525D01*
G01X25029Y9596D01*
G01X24922Y9632D01*
G01X24387D01*
G01X24493Y10358D02*
G01X24422Y10323D01*
G01X24387Y10216D01*
G01Y10145D01*
G01X24422Y10038D01*
G01X24531Y9964D01*
G01X24709Y9929D01*
G01X24887D01*
G01X25029Y9964D01*
G01X25103Y10038D01*
G01X25138Y10145D01*
G01Y10180D01*
G01X25103Y10287D01*
G01X25029Y10358D01*
G01X24922Y10394D01*
G01X24887D01*
G01X24780Y10358D01*
G01X24709Y10287D01*
G01X24674Y10180D01*
G01Y10145D01*
G01X24709Y10038D01*
G01X24780Y9964D01*
G01X24887Y9929D01*
G04 //text: CN1*
G01X4841Y2179D02*
G01X4806Y2253D01*
G01X4735Y2324D01*
G01X4663Y2360D01*
G01X4519D01*
G01X4448Y2324D01*
G01X4376Y2253D01*
G01X4341Y2179D01*
G01X4305Y2073D01*
G01Y1895D01*
G01X4341Y1788D01*
G01X4376Y1717D01*
G01X4448Y1643D01*
G01X4519Y1608D01*
G01X4663D01*
G01X4735Y1643D01*
G01X4806Y1717D01*
G01X4841Y1788D01*
G01X5138Y2360D02*
G01X5138Y1608D01*
G01X5138Y2360D02*
G01X5639Y1608D01*
G01X5639Y2360D02*
G01X5639Y1608D01*
G01X5939Y2215D02*
G01X6010Y2253D01*
G01X6116Y2360D01*
G01Y1608D01*
G04 //text: R4*
G01X23381Y3858D02*
G01X23381Y3106D01*
G01X23381Y3858D02*
G01X23703Y3858D01*
G01X23810Y3823D01*
G01X23846Y3787D01*
G01X23881Y3713D01*
G01Y3642D01*
G01X23846Y3571D01*
G01X23810Y3536D01*
G01X23703Y3500D01*
G01X23381D01*
G01X23630Y3500D02*
G01X23881Y3106D01*
G01X24536Y3858D02*
G01X24178Y3358D01*
G01X24714D01*
G01X24536Y3858D02*
G01X24536Y3106D01*
G04 //text: R5*
G01X23381Y2817D02*
G01X23381Y2065D01*
G01X23381Y2817D02*
G01X23703Y2817D01*
G01X23810Y2781D01*
G01X23846Y2746D01*
G01X23881Y2672D01*
G01Y2601D01*
G01X23846Y2530D01*
G01X23810Y2494D01*
G01X23703Y2459D01*
G01X23381D01*
G01X23630Y2459D02*
G01X23881Y2065D01*
G01X24608Y2817D02*
G01X24252Y2817D01*
G01X24214Y2494D01*
G01X24252Y2530D01*
G01X24359Y2565D01*
G01X24465D01*
G01X24572Y2530D01*
G01X24643Y2459D01*
G01X24679Y2352D01*
G01Y2281D01*
G01X24643Y2174D01*
G01X24572Y2101D01*
G01X24465Y2065D01*
G01X24359D01*
G01X24252Y2101D01*
G01X24214Y2139D01*
G01X24178Y2210D01*
G04 //text: R1*
G01X24219Y6144D02*
G01X24219Y5392D01*
G01X24219Y6144D02*
G01X24541Y6144D01*
G01X24648Y6109D01*
G01X24684Y6073D01*
G01X24719Y5999D01*
G01Y5928D01*
G01X24684Y5857D01*
G01X24648Y5822D01*
G01X24541Y5786D01*
G01X24219D01*
G01X24468Y5786D02*
G01X24719Y5392D01*
G01X25016Y5999D02*
G01X25090Y6038D01*
G01X25197Y6144D01*
G01Y5392D01*
G04 //text: R2*
G01X23965Y7414D02*
G01X23965Y6662D01*
G01X23965Y7414D02*
G01X24287Y7414D01*
G01X24394Y7379D01*
G01X24430Y7343D01*
G01X24465Y7269D01*
G01Y7198D01*
G01X24430Y7127D01*
G01X24394Y7092D01*
G01X24287Y7056D01*
G01X23965D01*
G01X24214Y7056D02*
G01X24465Y6662D01*
G01X24798Y7234D02*
G01X24798Y7269D01*
G01X24836Y7343D01*
G01X24872Y7379D01*
G01X24943Y7414D01*
G01X25085D01*
G01X25156Y7379D01*
G01X25192Y7343D01*
G01X25227Y7269D01*
G01Y7198D01*
G01X25192Y7127D01*
G01X25121Y7021D01*
G01X24762Y6662D01*
G01X25263D01*
G04 //text: C1*
G01X24348Y4745D02*
G01X24313Y4818D01*
G01X24242Y4890D01*
G01X24171Y4925D01*
G01X24026D01*
G01X23955Y4890D01*
G01X23884Y4818D01*
G01X23848Y4745D01*
G01X23813Y4638D01*
G01Y4460D01*
G01X23848Y4354D01*
G01X23884Y4282D01*
G01X23955Y4209D01*
G01X24026Y4173D01*
G01X24171D01*
G01X24242Y4209D01*
G01X24313Y4282D01*
G01X24348Y4354D01*
G01X24646Y4780D02*
G01X24719Y4818D01*
G01X24826Y4925D01*
G01Y4173D01*
G04 //text: U3*
G01X9055Y12621D02*
G01X9055Y12085D01*
G01X9091Y11979D01*
G01X9162Y11905D01*
G01X9268Y11869D01*
G01X9342D01*
G01X9449Y11905D01*
G01X9520Y11979D01*
G01X9555Y12085D01*
G01Y12621D01*
G01X9926Y12621D02*
G01X10317Y12621D01*
G01X10104Y12334D01*
G01X10211D01*
G01X10282Y12299D01*
G01X10317Y12263D01*
G01X10353Y12156D01*
G01Y12085D01*
G01X10317Y11979D01*
G01X10246Y11905D01*
G01X10140Y11869D01*
G01X10033D01*
G01X9926Y11905D01*
G01X9888Y11943D01*
G01X9853Y12014D01*
G04 //text: C3*
G01X11864Y17838D02*
G01X11787Y17865D01*
G01X11686D01*
G01X11611Y17840D01*
G01X11508Y17738D01*
G01X11483Y17662D01*
G01Y17562D01*
G01X11510Y17484D01*
G01X11560Y17384D01*
G01X11686Y17258D01*
G01X11787Y17208D01*
G01X11862Y17183D01*
G01X11964Y17181D01*
G01X12040Y17206D01*
G01X12142Y17308D01*
G01X12167Y17384D01*
G01X12166Y17486D01*
G01X12140Y17562D01*
G01X11999Y18228D02*
G01X12275Y18505D01*
G01X12327Y18151D01*
G01X12403Y18226D01*
G01X12478Y18251D01*
G01X12528D01*
G01X12629Y18201D01*
G01X12679Y18151D01*
G01X12730Y18050D01*
G01X12731Y17948D01*
G01X12681Y17847D01*
G01X12606Y17772D01*
G01X12505Y17722D01*
G01X12453Y17723D01*
G01X12376Y17747D01*
G04 //text: C2*
G01X8384Y17559D02*
G01X8307Y17586D01*
G01X8206D01*
G01X8131Y17561D01*
G01X8028Y17458D01*
G01X8003Y17383D01*
G01Y17282D01*
G01X8030Y17205D01*
G01X8081Y17104D01*
G01X8206Y16979D01*
G01X8307Y16928D01*
G01X8382Y16903D01*
G01X8485Y16902D01*
G01X8560Y16927D01*
G01X8662Y17029D01*
G01X8688Y17104D01*
G01X8686Y17207D01*
G01X8661Y17282D01*
G01X8621Y17796D02*
G01X8596Y17821D01*
G01X8569Y17898D01*
G01Y17949D01*
G01X8594Y18024D01*
G01X8695Y18125D01*
G01X8770Y18150D01*
G01X8820D01*
G01X8898Y18123D01*
G01X8948Y18073D01*
G01X8973Y17997D01*
G01X8998Y17871D01*
G01Y17365D01*
G01X9352Y17719D01*
G04 //text: U9*
G01X27699Y18514D02*
G01X27699Y17978D01*
G01X27734Y17871D01*
G01X27805Y17798D01*
G01X27912Y17762D01*
G01X27986D01*
G01X28092Y17798D01*
G01X28164Y17871D01*
G01X28199Y17978D01*
G01Y18514D01*
G01X28961Y18263D02*
G01X28926Y18156D01*
G01X28854Y18085D01*
G01X28748Y18049D01*
G01X28712D01*
G01X28605Y18085D01*
G01X28532Y18156D01*
G01X28496Y18263D01*
G01Y18298D01*
G01X28532Y18407D01*
G01X28605Y18479D01*
G01X28712Y18514D01*
G01X28748D01*
G01X28854Y18479D01*
G01X28926Y18407D01*
G01X28961Y18263D01*
G01Y18085D01*
G01X28926Y17907D01*
G01X28854Y17798D01*
G01X28748Y17762D01*
G01X28677D01*
G01X28570Y17798D01*
G01X28532Y17871D01*
G04 //text: C7*
G01X17643Y1875D02*
G01X17607Y1948D01*
G01X17536Y2019D01*
G01X17465Y2055D01*
G01X17320D01*
G01X17249Y2019D01*
G01X17178Y1948D01*
G01X17142Y1875D01*
G01X17107Y1768D01*
G01Y1590D01*
G01X17142Y1483D01*
G01X17178Y1412D01*
G01X17249Y1339D01*
G01X17320Y1303D01*
G01X17465D01*
G01X17536Y1339D01*
G01X17607Y1412D01*
G01X17643Y1483D01*
G01X18440Y2055D02*
G01X18085Y1303D01*
G01X17940Y2055D02*
G01X18440Y2055D01*
G04 //text: C13*
G01X17074Y16449D02*
G01X17000Y16413D01*
G01X16929Y16342D01*
G01X16894Y16271D01*
G01Y16126D01*
G01X16929Y16055D01*
G01X17000Y15984D01*
G01X17074Y15949D01*
G01X17181Y15913D01*
G01X17358D01*
G01X17465Y15949D01*
G01X17536Y15984D01*
G01X17610Y16055D01*
G01X17645Y16126D01*
G01Y16271D01*
G01X17610Y16342D01*
G01X17536Y16413D01*
G01X17465Y16449D01*
G01X17038Y16746D02*
G01X17000Y16820D01*
G01X16894Y16927D01*
G01X17645D01*
G01X16894Y17295D02*
G01X16894Y17689D01*
G01X17181Y17475D01*
G01Y17582D01*
G01X17216Y17653D01*
G01X17252Y17689D01*
G01X17358Y17724D01*
G01X17429D01*
G01X17536Y17689D01*
G01X17610Y17617D01*
G01X17645Y17511D01*
G01Y17404D01*
G01X17610Y17295D01*
G01X17572Y17259D01*
G01X17501Y17224D01*
G04 //text: C21*
G01X10673Y4943D02*
G01X10599Y4907D01*
G01X10528Y4836D01*
G01X10493Y4765D01*
G01Y4620D01*
G01X10528Y4549D01*
G01X10599Y4478D01*
G01X10673Y4442D01*
G01X10780Y4407D01*
G01X10958D01*
G01X11064Y4442D01*
G01X11135Y4478D01*
G01X11209Y4549D01*
G01X11245Y4620D01*
G01Y4765D01*
G01X11209Y4836D01*
G01X11135Y4907D01*
G01X11064Y4943D01*
G01X10673Y5278D02*
G01X10638Y5278D01*
G01X10564Y5314D01*
G01X10528Y5349D01*
G01X10493Y5420D01*
G01Y5563D01*
G01X10528Y5634D01*
G01X10564Y5669D01*
G01X10638Y5705D01*
G01X10709D01*
G01X10780Y5669D01*
G01X10886Y5598D01*
G01X11245Y5240D01*
G01Y5740D01*
G01X10638Y6040D02*
G01X10599Y6111D01*
G01X10493Y6218D01*
G01X11245D01*
G04 //text: D2*
G01X11113Y1801D02*
G01X11113Y1049D01*
G01X11113Y1801D02*
G01X11361Y1801D01*
G01X11471Y1765D01*
G01X11542Y1694D01*
G01X11577Y1621D01*
G01X11613Y1514D01*
G01Y1336D01*
G01X11577Y1229D01*
G01X11542Y1158D01*
G01X11471Y1085D01*
G01X11361Y1049D01*
G01X11113D01*
G01X11946Y1621D02*
G01X11946Y1656D01*
G01X11984Y1730D01*
G01X12019Y1765D01*
G01X12090Y1801D01*
G01X12233D01*
G01X12304Y1765D01*
G01X12339Y1730D01*
G01X12375Y1656D01*
G01Y1585D01*
G01X12339Y1514D01*
G01X12268Y1407D01*
G01X11910Y1049D01*
G01X12410D01*
G04 //text: R10*
G01X10605Y3376D02*
G01X10605Y2624D01*
G01X10605Y3376D02*
G01X10927Y3376D01*
G01X11034Y3340D01*
G01X11069Y3305D01*
G01X11105Y3231D01*
G01Y3160D01*
G01X11069Y3089D01*
G01X11034Y3053D01*
G01X10927Y3018D01*
G01X10605D01*
G01X10853Y3018D02*
G01X11105Y2624D01*
G01X11402Y3231D02*
G01X11476Y3269D01*
G01X11582Y3376D01*
G01Y2624D01*
G01X12095Y3376D02*
G01X11986Y3340D01*
G01X11915Y3231D01*
G01X11880Y3053D01*
G01Y2946D01*
G01X11915Y2769D01*
G01X11986Y2659D01*
G01X12095Y2624D01*
G01X12167D01*
G01X12273Y2659D01*
G01X12344Y2769D01*
G01X12380Y2946D01*
G01Y3053D01*
G01X12344Y3231D01*
G01X12273Y3340D01*
G01X12167Y3376D01*
G01X12095D01*
G04 //text: R11*
G01X19637Y368D02*
G01X20389Y368D01*
G01X19637Y368D02*
G01X19637Y691D01*
G01X19672Y798D01*
G01X19708Y833D01*
G01X19782Y869D01*
G01X19853D01*
G01X19924Y833D01*
G01X19959Y798D01*
G01X19995Y691D01*
G01Y368D01*
G01X19995Y617D02*
G01X20389Y869D01*
G01X19782Y1166D02*
G01X19743Y1240D01*
G01X19637Y1346D01*
G01X20389D01*
G01X19782Y1643D02*
G01X19743Y1715D01*
G01X19637Y1824D01*
G01X20389D01*
G04 //text: R3*
G01X20704Y521D02*
G01X21455Y521D01*
G01X20704Y521D02*
G01X20704Y843D01*
G01X20739Y950D01*
G01X20775Y986D01*
G01X20848Y1021D01*
G01X20919D01*
G01X20991Y986D01*
G01X21026Y950D01*
G01X21062Y843D01*
G01Y521D01*
G01X21062Y770D02*
G01X21455Y1021D01*
G01X20704Y1392D02*
G01X20704Y1783D01*
G01X20991Y1570D01*
G01Y1676D01*
G01X21026Y1748D01*
G01X21062Y1783D01*
G01X21168Y1819D01*
G01X21239D01*
G01X21346Y1783D01*
G01X21420Y1712D01*
G01X21455Y1605D01*
G01Y1499D01*
G01X21420Y1392D01*
G01X21382Y1354D01*
G01X21311Y1318D01*
G04 //text: J1*
G01X28539Y1699D02*
G01X28539Y1128D01*
G01X28504Y1021D01*
G01X28468Y983D01*
G01X28395Y947D01*
G01X28324D01*
G01X28252Y983D01*
G01X28217Y1021D01*
G01X28181Y1128D01*
G01Y1199D01*
G01X28837Y1554D02*
G01X28908Y1593D01*
G01X29014Y1699D01*
G01Y947D01*
G04 //text: C5*
G01X20554Y17795D02*
G01X20480Y17760D01*
G01X20409Y17689D01*
G01X20373Y17617D01*
G01Y17473D01*
G01X20409Y17402D01*
G01X20480Y17330D01*
G01X20554Y17295D01*
G01X20660Y17259D01*
G01X20838D01*
G01X20945Y17295D01*
G01X21016Y17330D01*
G01X21090Y17402D01*
G01X21125Y17473D01*
G01Y17617D01*
G01X21090Y17689D01*
G01X21016Y17760D01*
G01X20945Y17795D01*
G01X20373Y18522D02*
G01X20373Y18166D01*
G01X20696Y18131D01*
G01X20660Y18166D01*
G01X20625Y18273D01*
G01Y18379D01*
G01X20660Y18486D01*
G01X20731Y18557D01*
G01X20838Y18593D01*
G01X20909D01*
G01X21016Y18557D01*
G01X21090Y18486D01*
G01X21125Y18379D01*
G01Y18273D01*
G01X21090Y18166D01*
G01X21052Y18131D01*
G01X20980Y18092D01*
G04 //text: C28*
G01X10571Y9007D02*
G01X10498Y8971D01*
G01X10427Y8900D01*
G01X10391Y8829D01*
G01Y8684D01*
G01X10427Y8613D01*
G01X10498Y8542D01*
G01X10571Y8506D01*
G01X10678Y8471D01*
G01X10856D01*
G01X10963Y8506D01*
G01X11034Y8542D01*
G01X11107Y8613D01*
G01X11143Y8684D01*
G01Y8829D01*
G01X11107Y8900D01*
G01X11034Y8971D01*
G01X10963Y9007D01*
G01X10571Y9342D02*
G01X10536Y9342D01*
G01X10462Y9378D01*
G01X10427Y9413D01*
G01X10391Y9484D01*
G01Y9627D01*
G01X10427Y9698D01*
G01X10462Y9733D01*
G01X10536Y9769D01*
G01X10607D01*
G01X10678Y9733D01*
G01X10785Y9662D01*
G01X11143Y9304D01*
G01Y9804D01*
G01X10391Y10282D02*
G01X10427Y10175D01*
G01X10498Y10140D01*
G01X10571D01*
G01X10643Y10175D01*
G01X10678Y10246D01*
G01X10714Y10389D01*
G01X10749Y10498D01*
G01X10820Y10569D01*
G01X10892Y10605D01*
G01X10998D01*
G01X11069Y10569D01*
G01X11107Y10533D01*
G01X11143Y10424D01*
G01Y10282D01*
G01X11107Y10175D01*
G01X11069Y10140D01*
G01X10998Y10104D01*
G01X10892D01*
G01X10820Y10140D01*
G01X10749Y10211D01*
G01X10714Y10317D01*
G01X10678Y10460D01*
G01X10643Y10533D01*
G01X10571Y10569D01*
G01X10498D01*
G01X10427Y10533D01*
G01X10391Y10424D01*
G01Y10282D01*
G04 //text: C26*
G01X11816Y14417D02*
G01X11742Y14381D01*
G01X11671Y14310D01*
G01X11636Y14239D01*
G01Y14094D01*
G01X11671Y14023D01*
G01X11742Y13952D01*
G01X11816Y13917D01*
G01X11923Y13881D01*
G01X12101D01*
G01X12207Y13917D01*
G01X12278Y13952D01*
G01X12352Y14023D01*
G01X12388Y14094D01*
G01Y14239D01*
G01X12352Y14310D01*
G01X12278Y14381D01*
G01X12207Y14417D01*
G01X11816Y14752D02*
G01X11781Y14752D01*
G01X11707Y14788D01*
G01X11671Y14823D01*
G01X11636Y14895D01*
G01Y15037D01*
G01X11671Y15108D01*
G01X11707Y15143D01*
G01X11781Y15179D01*
G01X11852D01*
G01X11923Y15143D01*
G01X12029Y15072D01*
G01X12388Y14714D01*
G01Y15215D01*
G01X11742Y15944D02*
G01X11671Y15908D01*
G01X11636Y15799D01*
G01Y15728D01*
G01X11671Y15621D01*
G01X11781Y15550D01*
G01X11958Y15514D01*
G01X12136D01*
G01X12278Y15550D01*
G01X12352Y15621D01*
G01X12388Y15728D01*
G01Y15763D01*
G01X12352Y15870D01*
G01X12278Y15944D01*
G01X12172Y15979D01*
G01X12136D01*
G01X12029Y15944D01*
G01X11958Y15870D01*
G01X11923Y15763D01*
G01Y15728D01*
G01X11958Y15621D01*
G01X12029Y15550D01*
G01X12136Y15514D01*
G04 Text End*

G04 PolygonModel Start*
G54D11*
G01X18120Y16889D02*
G01X18120Y17607D01*
G01X18120Y17607D02*
G01X19117Y17607D01*
G01X19117Y17607D02*
G01X19117Y16889D01*
G01X18120Y16436D02*
G01X18120Y15718D01*
G01X18120Y15718D02*
G01X19117Y15718D01*
G01X19117Y15718D02*
G01X19117Y16436D01*
G54D10*
G01X13183Y15011D02*
G01X13183Y4597D01*
G01X23597D01*
G01Y13741D01*
G01X22327Y15011D01*
G01X13183D01*
G54D12*
G01X1715Y15599D02*
G01X-13853Y15599D01*
G01X-13853Y15599D02*
G01X-13853Y3618D01*
G01X-13853Y3618D02*
G01X-13853Y3616D01*
G01X-13853Y3616D02*
G01X1745Y3616D01*
G01X1745Y3616D02*
G01X1694Y3631D01*
G54D11*
G01X26515Y4029D02*
G01X27233Y4029D01*
G01X27233Y4029D02*
G01X27233Y3032D01*
G01X27233Y3032D02*
G01X26515Y3032D01*
G01X26063Y4029D02*
G01X25345Y4029D01*
G01X25345Y4029D02*
G01X25345Y3032D01*
G01X25345Y3032D02*
G01X26063Y3032D01*
G01X26515Y2988D02*
G01X27233Y2988D01*
G01X27233Y2988D02*
G01X27233Y1991D01*
G01X27233Y1991D02*
G01X26515Y1991D01*
G01X26063Y2988D02*
G01X25345Y2988D01*
G01X25345Y2988D02*
G01X25345Y1991D01*
G01X25345Y1991D02*
G01X26063Y1991D01*
G01X26215Y5318D02*
G01X25497Y5318D01*
G01X25497Y5318D02*
G01X25497Y6315D01*
G01X25497Y6315D02*
G01X26215Y6315D01*
G01X26668Y5318D02*
G01X27386Y5318D01*
G01X27386Y5318D02*
G01X27386Y6315D01*
G01X27386Y6315D02*
G01X26668Y6315D01*
G01X26215Y6537D02*
G01X25497Y6537D01*
G01X25497Y6537D02*
G01X25497Y7534D01*
G01X25497Y7534D02*
G01X26215Y7534D01*
G01X26668Y6537D02*
G01X27386Y6537D01*
G01X27386Y6537D02*
G01X27386Y7534D01*
G01X27386Y7534D02*
G01X26668Y7534D01*
G01X27280Y5045D02*
G01X26490Y5045D01*
G01X26490Y4048D02*
G01X27280Y4048D01*
G01X27432Y4200D02*
G01X27432Y4893D01*
G01X25247Y5045D02*
G01X26037Y5045D01*
G01X26037Y4048D02*
G01X25247Y4048D01*
G01X25095Y4200D02*
G01X25095Y4893D01*
G01X27280Y4048D02*
G03X27432Y4200I0J152D01*
G01X27432Y4893D02*
G03X27280Y5045I-152J0D01*
G01X25247Y4048D02*
G02X25095Y4200I0J152D01*
G01X25095Y4893D02*
G02X25247Y5045I152J0D01*
G01X11055Y17297D02*
G01X10496Y16739D01*
G01X11201Y16034D02*
G01X11760Y16592D01*
G01X11760Y16808D02*
G01X11271Y17297D01*
G01X9618Y15860D02*
G01X10176Y16419D01*
G01X10882Y15714D02*
G01X10323Y15155D01*
G01X10107Y15155D02*
G01X9618Y15645D01*
G01X11760Y16592D02*
G03X11760Y16808I-108J108D01*
G01X11271Y17297D02*
G03X11055Y17297I-108J-108D01*
G01X10323Y15155D02*
G02X10107Y15155I-108J108D01*
G01X9618Y15645D02*
G02X9618Y15860I108J108D01*
G01X10293Y18059D02*
G01X9734Y17501D01*
G01X10439Y16796D02*
G01X10998Y17354D01*
G01X10998Y17570D02*
G01X10509Y18059D01*
G01X8856Y16622D02*
G01X9414Y17181D01*
G01X10120Y16476D02*
G01X9561Y15917D01*
G01X9345Y15917D02*
G01X8856Y16407D01*
G01X10998Y17354D02*
G03X10998Y17570I-108J108D01*
G01X10509Y18059D02*
G03X10293Y18059I-108J-108D01*
G01X9561Y15917D02*
G02X9345Y15917I-108J108D01*
G01X8856Y16407D02*
G02X8856Y16622I108J108D01*
G01X18796Y3369D02*
G01X18006Y3369D01*
G01X18006Y2372D02*
G01X18796Y2372D01*
G01X18949Y2524D02*
G01X18949Y3216D01*
G01X16764Y3369D02*
G01X17554Y3369D01*
G01X17554Y2372D02*
G01X16764Y2372D01*
G01X16611Y2524D02*
G01X16611Y3216D01*
G01X18796Y2372D02*
G03X18949Y2524I0J152D01*
G01X18949Y3216D02*
G03X18796Y3369I-152J0D01*
G01X16764Y2372D02*
G02X16611Y2524I0J152D01*
G01X16611Y3216D02*
G02X16764Y3369I152J0D01*
G01X20184Y15722D02*
G01X20184Y16512D01*
G01X19186Y16512D02*
G01X19186Y15722D01*
G01X19339Y15570D02*
G01X20031Y15570D01*
G01X20184Y17755D02*
G01X20184Y16965D01*
G01X19186Y16965D02*
G01X19186Y17755D01*
G01X19339Y17907D02*
G01X20031Y17907D01*
G01X19186Y15722D02*
G03X19339Y15570I152J0D01*
G01X20031Y15570D02*
G03X20184Y15722I0J152D01*
G01X19186Y17755D02*
G02X19339Y17907I152J0D01*
G01X20031Y17907D02*
G02X20184Y17755I0J-152D01*
G01X11643Y6313D02*
G01X11643Y5523D01*
G01X12640Y5523D02*
G01X12640Y6313D01*
G01X12487Y6466D02*
G01X11795Y6466D01*
G01X11643Y4281D02*
G01X11643Y5071D01*
G01X12640Y5071D02*
G01X12640Y4281D01*
G01X12487Y4128D02*
G01X11795Y4128D01*
G01X12640Y6313D02*
G03X12487Y6466I-152J0D01*
G01X11795Y6466D02*
G03X11643Y6313I0J-152D01*
G01X12640Y4281D02*
G02X12487Y4128I-152J0D01*
G01X11795Y4128D02*
G02X11643Y4281I0J152D01*
G01X9025Y1946D02*
G01X8237Y1946D01*
G01X8237Y1946D02*
G01X8237Y950D01*
G01X8237Y950D02*
G01X9025Y950D01*
G01X9619Y1946D02*
G01X10254Y1946D01*
G01X10254Y1946D02*
G01X10406Y1793D01*
G01X10406Y1793D02*
G01X10406Y1102D01*
G01X10406Y1102D02*
G01X10254Y950D01*
G01X10254Y950D02*
G01X9619Y950D01*
G36*
G01X10559Y1793D02*
G01X10559Y1102D01*
G01X10711D01*
G01Y1793D01*
G01X10559D01*
G37*
G54D13*
G01X10559Y1793D02*
G01X10559Y1102D01*
G01X10711D01*
G01Y1793D01*
G01X10559D01*
G54D11*
G01X9523Y3496D02*
G01X10241Y3496D01*
G01X10241Y3496D02*
G01X10241Y2499D01*
G01X10241Y2499D02*
G01X9523Y2499D01*
G01X9070Y3496D02*
G01X8352Y3496D01*
G01X8352Y3496D02*
G01X8352Y2499D01*
G01X8352Y2499D02*
G01X9070Y2499D01*
G01X20514Y2796D02*
G01X20514Y2078D01*
G01X20514Y2078D02*
G01X19517Y2078D01*
G01X19517Y2078D02*
G01X19517Y2796D01*
G01X20514Y3249D02*
G01X20514Y3967D01*
G01X20514Y3967D02*
G01X19517Y3967D01*
G01X19517Y3967D02*
G01X19517Y3249D01*
G01X20507Y3249D02*
G01X20507Y3967D01*
G01X20507Y3967D02*
G01X21504Y3967D01*
G01X21504Y3967D02*
G01X21504Y3249D01*
G01X20507Y2796D02*
G01X20507Y2078D01*
G01X20507Y2078D02*
G01X21504Y2078D01*
G01X21504Y2078D02*
G01X21504Y2796D01*
G54D12*
G01X31531Y1143D02*
G03X29532Y1140I-999J-3D01*
G03X31531Y1138I999J0D01*
G01X2194Y17932D02*
G03X195Y17930I-999J-3D01*
G03X2194Y17927I999J0D01*
G01X31531Y1143D02*
G03X29532Y1140I-999J-3D01*
G03X31531Y1138I999J0D01*
G01X2194Y17932D02*
G03X195Y17930I-999J-3D01*
G03X2194Y17927I999J0D01*
G01X31778Y2353D02*
G01X31778Y16958D01*
G01X42827Y2353D02*
G01X42827Y16958D01*
G01X32282Y4266D02*
G01X32282Y6552D01*
G01X32282Y12394D02*
G01X32282Y14680D01*
G01X33044Y4266D02*
G01X33044Y6552D01*
G01X35076Y4346D02*
G01X35076Y6346D01*
G01X39902Y4774D02*
G01X39902Y5790D01*
G01X33044Y12394D02*
G01X33044Y14680D01*
G01X35076Y12474D02*
G01X35076Y14474D01*
G01X39902Y12902D02*
G01X39902Y13918D01*
G01X31750Y2324D02*
G01X42760Y2324D01*
G01X35076Y4346D02*
G01X39902Y4774D01*
G01X35076Y6346D02*
G01X39902Y5790D01*
G01X35076Y12474D02*
G01X39902Y12902D01*
G01X35076Y14474D02*
G01X39902Y13918D01*
G01X31750Y16975D02*
G01X42760Y16975D01*
G01X32282Y4266D02*
G01X33044Y4266D01*
G01X32282Y6552D02*
G01X33044Y6552D01*
G01X32282Y12394D02*
G01X33044Y12394D01*
G01X32282Y14680D02*
G01X33044Y14680D01*
G01X21673Y18535D02*
G01X22473Y18535D01*
G01X21363Y17425D02*
G01X21363Y18225D01*
G01X22783Y17425D02*
G01X22783Y18225D01*
G01X21357Y16849D02*
G01X21357Y16049D01*
G01X21667Y15740D02*
G01X22467Y15740D01*
G01X22777Y16849D02*
G01X22777Y16049D01*
G01X21667Y15739D02*
G02X21357Y16049I0J310D01*
G01X22777Y16049D02*
G02X22467Y15739I-310J-0D01*
G01X21363Y18225D02*
G02X21673Y18535I310J0D01*
G01X22473Y18535D02*
G02X22783Y18225I0J-310D01*
G54D11*
G01X11516Y10580D02*
G01X11516Y9790D01*
G01X12513Y9790D02*
G01X12513Y10580D01*
G01X12360Y10733D02*
G01X11668Y10733D01*
G01X11516Y8548D02*
G01X11516Y9338D01*
G01X12513Y9338D02*
G01X12513Y8548D01*
G01X12360Y8395D02*
G01X11668Y8395D01*
G01X12513Y10580D02*
G03X12360Y10733I-152J0D01*
G01X11668Y10733D02*
G03X11516Y10580I0J-152D01*
G01X12513Y8548D02*
G02X12360Y8395I-152J0D01*
G01X11668Y8395D02*
G02X11516Y8548I0J152D01*
G01X12513Y11467D02*
G01X12513Y12257D01*
G01X11516Y12257D02*
G01X11516Y11467D01*
G01X11668Y11314D02*
G01X12360Y11314D01*
G01X12513Y13499D02*
G01X12513Y12709D01*
G01X11516Y12709D02*
G01X11516Y13499D01*
G01X11668Y13652D02*
G01X12360Y13652D01*
G01X11516Y11467D02*
G03X11668Y11314I152J0D01*
G01X12360Y11314D02*
G03X12513Y11467I0J152D01*
G01X11516Y13499D02*
G02X11668Y13652I152J0D01*
G01X12360Y13652D02*
G02X12513Y13499I0J-152D01*
G04 PolygonModel End*

G04 Rect Start*
G54D10*
G01X27305Y14097D02*
G01X25400Y14097D01*
G01Y11557D01*
G01X27305D01*
G01Y14097D01*
G01X27299Y11135D02*
G01X25394Y11135D01*
G01Y8595D01*
G01X27299D01*
G01Y11135D01*
G01X8814Y14961D02*
G01X8814Y13056D01*
G01X11354D01*
G01Y14961D01*
G01X8814D01*
G01X24972Y15390D02*
G01X25607Y15390D01*
G01Y18290D01*
G01X24972D01*
G01Y15390D01*
G04 Rect End*

G04 Circle Start*
G54D12*
G01X22932Y14757D02*
G03X23500Y14757I284J0D01*
G03X22932I-284J0D01*
G54D10*
G01X27432Y13970D02*
G03X27686Y13970I127J0D01*
G03X27432I-127J0D01*
G01X27426Y11008D02*
G03X27680Y11008I127J0D01*
G03X27426I-127J0D01*
G01X8814Y15215D02*
G03X9068Y15215I127J0D01*
G03X8814I-127J0D01*
G01X26496Y15255D02*
G03X26750Y15255I127J0D01*
G03X26496I-127J0D01*
G54D14*
G01X9284Y1946D02*
G03X9360Y1946I38J0D01*
G03X9284I-38J0D01*
G01X9284Y950D02*
G03X9360Y950I38J0D01*
G03X9284I-38J0D01*
G04 Circle End*

M02*
