G04 Layer: TopPasteMaskLayer*
G04 EasyEDA Pro v1.8.39, 2022-10-27 11:15:30*
G04 Gerber Generator version 0.3*
G04 Scale: 100 percent, Rotated: No, Reflected: No*
G04 Dimensions in millimeters*
G04 Leading zeros omitted, absolute positions, 3 integers and 3 decimals*
%FSLAX33Y33*%
%MOMM*%
%ADD10C,0.0254*%
%ADD11C,1.00076*%
%ADD12O,2.999999X0.599999*%
G75*


G04 PolygonModel Start*
G36*
G01X18388Y16527D02*
G01X18848Y16527D01*
G01X18888Y16487D01*
G01Y15987D01*
G01X18848Y15947D01*
G01X18388D01*
G01X18348Y15987D01*
G01Y16487D01*
G01X18388Y16527D01*
G37*
G54D10*
G01X18388Y16527D02*
G01X18848Y16527D01*
G01X18888Y16487D01*
G01Y15987D01*
G01X18848Y15947D01*
G01X18388D01*
G01X18348Y15987D01*
G01Y16487D01*
G01X18388Y16527D01*
G36*
G01X18388Y16797D02*
G01X18848Y16797D01*
G01X18888Y16837D01*
G01Y17338D01*
G01X18848Y17378D01*
G01X18388D01*
G01X18348Y17338D01*
G01Y16837D01*
G01X18388Y16797D01*
G37*
G01X18388Y16797D02*
G01X18848Y16797D01*
G01X18888Y16837D01*
G01Y17338D01*
G01X18848Y17378D01*
G01X18388D01*
G01X18348Y17338D01*
G01Y16837D01*
G01X18388Y16797D01*
G36*
G01X4897Y4650D02*
G02X4897Y2851I0J-899D01*
G01X2896D01*
G02Y4650I0J899D01*
G01X4897D01*
G37*
G01X4897Y4650D02*
G02X4897Y2851I0J-899D01*
G01X2896D01*
G02Y4650I0J899D01*
G01X4897D01*
G36*
G01X4897Y16349D02*
G02X4897Y14550I0J-899D01*
G01X2896D01*
G02Y16349I0J899D01*
G01X4897D01*
G37*
G01X4897Y16349D02*
G02X4897Y14550I0J-899D01*
G01X2896D01*
G02Y16349I0J899D01*
G01X4897D01*
G36*
G01X7247Y5950D02*
G01X7247Y5249D01*
G01X4945D01*
G01Y5950D01*
G01X7247D01*
G37*
G01X7247Y5950D02*
G01X7247Y5249D01*
G01X4945D01*
G01Y5950D01*
G01X7247D01*
G36*
G01X7247Y7949D02*
G01X7247Y7251D01*
G01X4945D01*
G01Y7949D01*
G01X7247D01*
G37*
G01X7247Y7949D02*
G01X7247Y7251D01*
G01X4945D01*
G01Y7949D01*
G01X7247D01*
G36*
G01X7247Y9951D02*
G01X7247Y9249D01*
G01X4945D01*
G01Y9951D01*
G01X7247D01*
G37*
G01X7247Y9951D02*
G01X7247Y9249D01*
G01X4945D01*
G01Y9951D01*
G01X7247D01*
G36*
G01X7247Y11950D02*
G01X7247Y11251D01*
G01X4945D01*
G01Y11950D01*
G01X7247D01*
G37*
G01X7247Y11950D02*
G01X7247Y11251D01*
G01X4945D01*
G01Y11950D01*
G01X7247D01*
G36*
G01X7247Y13951D02*
G01X7247Y13250D01*
G01X4945D01*
G01Y13951D01*
G01X7247D01*
G37*
G01X7247Y13951D02*
G01X7247Y13250D01*
G01X4945D01*
G01Y13951D01*
G01X7247D01*
G36*
G01X7247Y12950D02*
G01X7247Y12249D01*
G01X4945D01*
G01Y12950D01*
G01X7247D01*
G37*
G01X7247Y12950D02*
G01X7247Y12249D01*
G01X4945D01*
G01Y12950D01*
G01X7247D01*
G36*
G01X7247Y10949D02*
G01X7247Y10250D01*
G01X4945D01*
G01Y10949D01*
G01X7247D01*
G37*
G01X7247Y10949D02*
G01X7247Y10250D01*
G01X4945D01*
G01Y10949D01*
G01X7247D01*
G36*
G01X7247Y8950D02*
G01X7247Y8249D01*
G01X4945D01*
G01Y8950D01*
G01X7247D01*
G37*
G01X7247Y8950D02*
G01X7247Y8249D01*
G01X4945D01*
G01Y8950D01*
G01X7247D01*
G36*
G01X7247Y6951D02*
G01X7247Y6250D01*
G01X4945D01*
G01Y6951D01*
G01X7247D01*
G37*
G01X7247Y6951D02*
G01X7247Y6250D01*
G01X4945D01*
G01Y6951D01*
G01X7247D01*
G36*
G01X26154Y3761D02*
G01X26154Y3301D01*
G01X26114Y3261D01*
G01X25613D01*
G01X25573Y3301D01*
G01Y3761D01*
G01X25613Y3801D01*
G01X26114D01*
G01X26154Y3761D01*
G37*
G01X26154Y3761D02*
G01X26154Y3301D01*
G01X26114Y3261D01*
G01X25613D01*
G01X25573Y3301D01*
G01Y3761D01*
G01X25613Y3801D01*
G01X26114D01*
G01X26154Y3761D01*
G36*
G01X26424Y3761D02*
G01X26424Y3301D01*
G01X26464Y3261D01*
G01X26965D01*
G01X27005Y3301D01*
G01Y3761D01*
G01X26965Y3801D01*
G01X26464D01*
G01X26424Y3761D01*
G37*
G01X26424Y3761D02*
G01X26424Y3301D01*
G01X26464Y3261D01*
G01X26965D01*
G01X27005Y3301D01*
G01Y3761D01*
G01X26965Y3801D01*
G01X26464D01*
G01X26424Y3761D01*
G36*
G01X26154Y2719D02*
G01X26154Y2259D01*
G01X26114Y2219D01*
G01X25613D01*
G01X25573Y2259D01*
G01Y2719D01*
G01X25613Y2759D01*
G01X26114D01*
G01X26154Y2719D01*
G37*
G01X26154Y2719D02*
G01X26154Y2259D01*
G01X26114Y2219D01*
G01X25613D01*
G01X25573Y2259D01*
G01Y2719D01*
G01X25613Y2759D01*
G01X26114D01*
G01X26154Y2719D01*
G36*
G01X26424Y2719D02*
G01X26424Y2259D01*
G01X26464Y2219D01*
G01X26965D01*
G01X27005Y2259D01*
G01Y2719D01*
G01X26965Y2759D01*
G01X26464D01*
G01X26424Y2719D01*
G37*
G01X26424Y2719D02*
G01X26424Y2259D01*
G01X26464Y2219D01*
G01X26965D01*
G01X27005Y2259D01*
G01Y2719D01*
G01X26965Y2759D01*
G01X26464D01*
G01X26424Y2719D01*
G36*
G01X26576Y5587D02*
G01X26576Y6047D01*
G01X26616Y6087D01*
G01X27117D01*
G01X27157Y6047D01*
G01Y5587D01*
G01X27117Y5547D01*
G01X26616D01*
G01X26576Y5587D01*
G37*
G01X26576Y5587D02*
G01X26576Y6047D01*
G01X26616Y6087D01*
G01X27117D01*
G01X27157Y6047D01*
G01Y5587D01*
G01X27117Y5547D01*
G01X26616D01*
G01X26576Y5587D01*
G36*
G01X26306Y5587D02*
G01X26306Y6047D01*
G01X26266Y6087D01*
G01X25766D01*
G01X25726Y6047D01*
G01Y5587D01*
G01X25766Y5547D01*
G01X26266D01*
G01X26306Y5587D01*
G37*
G01X26306Y5587D02*
G01X26306Y6047D01*
G01X26266Y6087D01*
G01X25766D01*
G01X25726Y6047D01*
G01Y5587D01*
G01X25766Y5547D01*
G01X26266D01*
G01X26306Y5587D01*
G36*
G01X26576Y6806D02*
G01X26576Y7266D01*
G01X26616Y7306D01*
G01X27117D01*
G01X27157Y7266D01*
G01Y6806D01*
G01X27117Y6766D01*
G01X26616D01*
G01X26576Y6806D01*
G37*
G01X26576Y6806D02*
G01X26576Y7266D01*
G01X26616Y7306D01*
G01X27117D01*
G01X27157Y7266D01*
G01Y6806D01*
G01X27117Y6766D01*
G01X26616D01*
G01X26576Y6806D01*
G36*
G01X26306Y6806D02*
G01X26306Y7266D01*
G01X26266Y7306D01*
G01X25766D01*
G01X25726Y7266D01*
G01Y6806D01*
G01X25766Y6766D01*
G01X26266D01*
G01X26306Y6806D01*
G37*
G01X26306Y6806D02*
G01X26306Y7266D01*
G01X26266Y7306D01*
G01X25766D01*
G01X25726Y7266D01*
G01Y6806D01*
G01X25766Y6766D01*
G01X26266D01*
G01X26306Y6806D01*
G36*
G01X26084Y4772D02*
G01X26084Y4322D01*
G01X26014Y4272D01*
G01X25534D01*
G01X25484Y4322D01*
G01Y4772D01*
G01X25534Y4822D01*
G01X26014D01*
G01X26084Y4772D01*
G37*
G01X26084Y4772D02*
G01X26084Y4322D01*
G01X26014Y4272D01*
G01X25534D01*
G01X25484Y4322D01*
G01Y4772D01*
G01X25534Y4822D01*
G01X26014D01*
G01X26084Y4772D01*
G36*
G01X27044Y4772D02*
G01X27044Y4322D01*
G01X26994Y4272D01*
G01X26514D01*
G01X26444Y4322D01*
G01Y4772D01*
G01X26514Y4822D01*
G01X26994D01*
G01X27044Y4772D01*
G37*
G01X27044Y4772D02*
G01X27044Y4322D01*
G01X26994Y4272D01*
G01X26514D01*
G01X26444Y4322D01*
G01Y4772D01*
G01X26514Y4822D01*
G01X26994D01*
G01X27044Y4772D01*
G36*
G01X10403Y16258D02*
G01X10721Y15940D01*
G01X10707Y15855D01*
G01X10367Y15516D01*
G01X10296D01*
G01X9978Y15834D01*
G01Y15904D01*
G01X10318Y16244D01*
G01X10403Y16258D01*
G37*
G01X10403Y16258D02*
G01X10721Y15940D01*
G01X10707Y15855D01*
G01X10367Y15516D01*
G01X10296D01*
G01X9978Y15834D01*
G01Y15904D01*
G01X10318Y16244D01*
G01X10403Y16258D01*
G36*
G01X11081Y16937D02*
G01X11400Y16619D01*
G01Y16548D01*
G01X11060Y16208D01*
G01X10975Y16194D01*
G01X10657Y16513D01*
G01X10671Y16597D01*
G01X11011Y16937D01*
G01X11081D01*
G37*
G01X11081Y16937D02*
G01X11400Y16619D01*
G01Y16548D01*
G01X11060Y16208D01*
G01X10975Y16194D01*
G01X10657Y16513D01*
G01X10671Y16597D01*
G01X11011Y16937D01*
G01X11081D01*
G36*
G01X9641Y17020D02*
G01X9959Y16702D01*
G01X9945Y16617D01*
G01X9605Y16278D01*
G01X9534D01*
G01X9216Y16596D01*
G01Y16666D01*
G01X9556Y17006D01*
G01X9641Y17020D01*
G37*
G01X9641Y17020D02*
G01X9959Y16702D01*
G01X9945Y16617D01*
G01X9605Y16278D01*
G01X9534D01*
G01X9216Y16596D01*
G01Y16666D01*
G01X9556Y17006D01*
G01X9641Y17020D01*
G36*
G01X10319Y17699D02*
G01X10638Y17381D01*
G01Y17310D01*
G01X10298Y16970D01*
G01X10213Y16956D01*
G01X9895Y17275D01*
G01X9909Y17359D01*
G01X10249Y17699D01*
G01X10319D01*
G37*
G01X10319Y17699D02*
G01X10638Y17381D01*
G01Y17310D01*
G01X10298Y16970D01*
G01X10213Y16956D01*
G01X9895Y17275D01*
G01X9909Y17359D01*
G01X10249Y17699D01*
G01X10319D01*
G36*
G01X17600Y3095D02*
G01X17600Y2645D01*
G01X17530Y2595D01*
G01X17050D01*
G01X17000Y2645D01*
G01Y3095D01*
G01X17050Y3145D01*
G01X17530D01*
G01X17600Y3095D01*
G37*
G01X17600Y3095D02*
G01X17600Y2645D01*
G01X17530Y2595D01*
G01X17050D01*
G01X17000Y2645D01*
G01Y3095D01*
G01X17050Y3145D01*
G01X17530D01*
G01X17600Y3095D01*
G36*
G01X18560Y3095D02*
G01X18560Y2645D01*
G01X18510Y2595D01*
G01X18030D01*
G01X17960Y2645D01*
G01Y3095D01*
G01X18030Y3145D01*
G01X18510D01*
G01X18560Y3095D01*
G37*
G01X18560Y3095D02*
G01X18560Y2645D01*
G01X18510Y2595D01*
G01X18030D01*
G01X17960Y2645D01*
G01Y3095D01*
G01X18030Y3145D01*
G01X18510D01*
G01X18560Y3095D01*
G36*
G01X19910Y16919D02*
G01X19460Y16919D01*
G01X19410Y16989D01*
G01Y17469D01*
G01X19460Y17519D01*
G01X19910D01*
G01X19960Y17469D01*
G01Y16989D01*
G01X19910Y16919D01*
G37*
G01X19910Y16919D02*
G01X19460Y16919D01*
G01X19410Y16989D01*
G01Y17469D01*
G01X19460Y17519D01*
G01X19910D01*
G01X19960Y17469D01*
G01Y16989D01*
G01X19910Y16919D01*
G36*
G01X19910Y15959D02*
G01X19460Y15959D01*
G01X19410Y16009D01*
G01Y16489D01*
G01X19460Y16559D01*
G01X19910D01*
G01X19960Y16489D01*
G01Y16009D01*
G01X19910Y15959D01*
G37*
G01X19910Y15959D02*
G01X19460Y15959D01*
G01X19410Y16009D01*
G01Y16489D01*
G01X19460Y16559D01*
G01X19910D01*
G01X19960Y16489D01*
G01Y16009D01*
G01X19910Y15959D01*
G36*
G01X11916Y5117D02*
G01X12366Y5117D01*
G01X12416Y5047D01*
G01Y4567D01*
G01X12366Y4517D01*
G01X11916D01*
G01X11866Y4567D01*
G01Y5047D01*
G01X11916Y5117D01*
G37*
G01X11916Y5117D02*
G01X12366Y5117D01*
G01X12416Y5047D01*
G01Y4567D01*
G01X12366Y4517D01*
G01X11916D01*
G01X11866Y4567D01*
G01Y5047D01*
G01X11916Y5117D01*
G36*
G01X11916Y6077D02*
G01X12366Y6077D01*
G01X12416Y6027D01*
G01Y5547D01*
G01X12366Y5477D01*
G01X11916D01*
G01X11866Y5547D01*
G01Y6027D01*
G01X11916Y6077D01*
G37*
G01X11916Y6077D02*
G01X12366Y6077D01*
G01X12416Y6027D01*
G01Y5547D01*
G01X12366Y5477D01*
G01X11916D01*
G01X11866Y5547D01*
G01Y6027D01*
G01X11916Y6077D01*
G36*
G01X9124Y1679D02*
G01X9124Y1217D01*
G01X9083Y1179D01*
G01X8506D01*
G01X8466Y1217D01*
G01Y1679D01*
G01X8506Y1717D01*
G01X9083D01*
G01X9124Y1679D01*
G37*
G01X9124Y1679D02*
G01X9124Y1217D01*
G01X9083Y1179D01*
G01X8506D01*
G01X8466Y1217D01*
G01Y1679D01*
G01X8506Y1717D01*
G01X9083D01*
G01X9124Y1679D01*
G36*
G01X9520Y1679D02*
G01X9520Y1217D01*
G01X9561Y1179D01*
G01X10137D01*
G01X10178Y1217D01*
G01Y1679D01*
G01X10137Y1717D01*
G01X9561D01*
G01X9520Y1679D01*
G37*
G01X9520Y1679D02*
G01X9520Y1217D01*
G01X9561Y1179D01*
G01X10137D01*
G01X10178Y1217D01*
G01Y1679D01*
G01X10137Y1717D01*
G01X9561D01*
G01X9520Y1679D01*
G36*
G01X9161Y3227D02*
G01X9161Y2767D01*
G01X9121Y2727D01*
G01X8621D01*
G01X8581Y2767D01*
G01Y3227D01*
G01X8621Y3267D01*
G01X9121D01*
G01X9161Y3227D01*
G37*
G01X9161Y3227D02*
G01X9161Y2767D01*
G01X9121Y2727D01*
G01X8621D01*
G01X8581Y2767D01*
G01Y3227D01*
G01X8621Y3267D01*
G01X9121D01*
G01X9161Y3227D01*
G36*
G01X9431Y3227D02*
G01X9431Y2767D01*
G01X9471Y2727D01*
G01X9972D01*
G01X10012Y2767D01*
G01Y3227D01*
G01X9972Y3267D01*
G01X9471D01*
G01X9431Y3227D01*
G37*
G01X9431Y3227D02*
G01X9431Y2767D01*
G01X9471Y2727D01*
G01X9972D01*
G01X10012Y2767D01*
G01Y3227D01*
G01X9972Y3267D01*
G01X9471D01*
G01X9431Y3227D01*
G36*
G01X20245Y3158D02*
G01X19785Y3158D01*
G01X19745Y3198D01*
G01Y3698D01*
G01X19785Y3738D01*
G01X20245D01*
G01X20285Y3698D01*
G01Y3198D01*
G01X20245Y3158D01*
G37*
G01X20245Y3158D02*
G01X19785Y3158D01*
G01X19745Y3198D01*
G01Y3698D01*
G01X19785Y3738D01*
G01X20245D01*
G01X20285Y3698D01*
G01Y3198D01*
G01X20245Y3158D01*
G36*
G01X20245Y2888D02*
G01X19785Y2888D01*
G01X19745Y2848D01*
G01Y2347D01*
G01X19785Y2307D01*
G01X20245D01*
G01X20285Y2347D01*
G01Y2848D01*
G01X20245Y2888D01*
G37*
G01X20245Y2888D02*
G01X19785Y2888D01*
G01X19745Y2848D01*
G01Y2347D01*
G01X19785Y2307D01*
G01X20245D01*
G01X20285Y2347D01*
G01Y2848D01*
G01X20245Y2888D01*
G36*
G01X20776Y2888D02*
G01X21236Y2888D01*
G01X21276Y2848D01*
G01Y2347D01*
G01X21236Y2307D01*
G01X20776D01*
G01X20736Y2347D01*
G01Y2848D01*
G01X20776Y2888D01*
G37*
G01X20776Y2888D02*
G01X21236Y2888D01*
G01X21276Y2848D01*
G01Y2347D01*
G01X21236Y2307D01*
G01X20776D01*
G01X20736Y2347D01*
G01Y2848D01*
G01X20776Y2888D01*
G36*
G01X20776Y3158D02*
G01X21236Y3158D01*
G01X21276Y3198D01*
G01Y3698D01*
G01X21236Y3738D01*
G01X20776D01*
G01X20736Y3698D01*
G01Y3198D01*
G01X20776Y3158D01*
G37*
G01X20776Y3158D02*
G01X21236Y3158D01*
G01X21276Y3198D01*
G01Y3698D01*
G01X21236Y3738D01*
G01X20776D01*
G01X20736Y3698D01*
G01Y3198D01*
G01X20776Y3158D01*
G36*
G01X11789Y9384D02*
G01X12239Y9384D01*
G01X12289Y9314D01*
G01Y8834D01*
G01X12239Y8784D01*
G01X11789D01*
G01X11739Y8834D01*
G01Y9314D01*
G01X11789Y9384D01*
G37*
G01X11789Y9384D02*
G01X12239Y9384D01*
G01X12289Y9314D01*
G01Y8834D01*
G01X12239Y8784D01*
G01X11789D01*
G01X11739Y8834D01*
G01Y9314D01*
G01X11789Y9384D01*
G36*
G01X11789Y10344D02*
G01X12239Y10344D01*
G01X12289Y10294D01*
G01Y9814D01*
G01X12239Y9744D01*
G01X11789D01*
G01X11739Y9814D01*
G01Y10294D01*
G01X11789Y10344D01*
G37*
G01X11789Y10344D02*
G01X12239Y10344D01*
G01X12289Y10294D01*
G01Y9814D01*
G01X12239Y9744D01*
G01X11789D01*
G01X11739Y9814D01*
G01Y10294D01*
G01X11789Y10344D01*
G36*
G01X12239Y12663D02*
G01X11789Y12663D01*
G01X11739Y12733D01*
G01Y13213D01*
G01X11789Y13263D01*
G01X12239D01*
G01X12289Y13213D01*
G01Y12733D01*
G01X12239Y12663D01*
G37*
G01X12239Y12663D02*
G01X11789Y12663D01*
G01X11739Y12733D01*
G01Y13213D01*
G01X11789Y13263D01*
G01X12239D01*
G01X12289Y13213D01*
G01Y12733D01*
G01X12239Y12663D01*
G36*
G01X12239Y11703D02*
G01X11789Y11703D01*
G01X11739Y11753D01*
G01Y12233D01*
G01X11789Y12303D01*
G01X12239D01*
G01X12289Y12233D01*
G01Y11753D01*
G01X12239Y11703D01*
G37*
G01X12239Y11703D02*
G01X11789Y11703D01*
G01X11739Y11753D01*
G01Y12233D01*
G01X11789Y12303D01*
G01X12239D01*
G01X12289Y12233D01*
G01Y11753D01*
G01X12239Y11703D01*
G04 PolygonModel End*

G04 Pad Start*
G36*
G01X22005Y14804D02*
G01X22005Y13804D01*
G01X22275D01*
G01Y14804D01*
G01X22005D01*
G37*
G36*
G01X21505Y14804D02*
G01X21505Y13804D01*
G01X21775D01*
G01Y14804D01*
G01X21505D01*
G37*
G36*
G01X21005Y14804D02*
G01X21005Y13804D01*
G01X21275D01*
G01Y14804D01*
G01X21005D01*
G37*
G36*
G01X20505Y14804D02*
G01X20505Y13804D01*
G01X20775D01*
G01Y14804D01*
G01X20505D01*
G37*
G36*
G01X20005Y14804D02*
G01X20005Y13804D01*
G01X20275D01*
G01Y14804D01*
G01X20005D01*
G37*
G36*
G01X19505Y14804D02*
G01X19505Y13804D01*
G01X19775D01*
G01Y14804D01*
G01X19505D01*
G37*
G36*
G01X19005Y14804D02*
G01X19005Y13804D01*
G01X19275D01*
G01Y14804D01*
G01X19005D01*
G37*
G36*
G01X18505Y14804D02*
G01X18505Y13804D01*
G01X18775D01*
G01Y14804D01*
G01X18505D01*
G37*
G36*
G01X18005Y14804D02*
G01X18005Y13804D01*
G01X18275D01*
G01Y14804D01*
G01X18005D01*
G37*
G36*
G01X17505Y14804D02*
G01X17505Y13804D01*
G01X17775D01*
G01Y14804D01*
G01X17505D01*
G37*
G36*
G01X17005Y14804D02*
G01X17005Y13804D01*
G01X17275D01*
G01Y14804D01*
G01X17005D01*
G37*
G36*
G01X16505Y14804D02*
G01X16505Y13804D01*
G01X16775D01*
G01Y14804D01*
G01X16505D01*
G37*
G36*
G01X16005Y14804D02*
G01X16005Y13804D01*
G01X16275D01*
G01Y14804D01*
G01X16005D01*
G37*
G36*
G01X15505Y14804D02*
G01X15505Y13804D01*
G01X15775D01*
G01Y14804D01*
G01X15505D01*
G37*
G36*
G01X15005Y14804D02*
G01X15005Y13804D01*
G01X15275D01*
G01Y14804D01*
G01X15005D01*
G37*
G36*
G01X14505Y14804D02*
G01X14505Y13804D01*
G01X14775D01*
G01Y14804D01*
G01X14505D01*
G37*
G36*
G01X22390Y13419D02*
G01X23390Y13419D01*
G01Y13689D01*
G01X22390D01*
G01Y13419D01*
G37*
G36*
G01X22390Y12919D02*
G01X23390Y12919D01*
G01Y13189D01*
G01X22390D01*
G01Y12919D01*
G37*
G36*
G01X22390Y12419D02*
G01X23390Y12419D01*
G01Y12689D01*
G01X22390D01*
G01Y12419D01*
G37*
G36*
G01X22390Y11919D02*
G01X23390Y11919D01*
G01Y12189D01*
G01X22390D01*
G01Y11919D01*
G37*
G36*
G01X22390Y11419D02*
G01X23390Y11419D01*
G01Y11689D01*
G01X22390D01*
G01Y11419D01*
G37*
G36*
G01X22390Y10919D02*
G01X23390Y10919D01*
G01Y11189D01*
G01X22390D01*
G01Y10919D01*
G37*
G36*
G01X22390Y10419D02*
G01X23390Y10419D01*
G01Y10689D01*
G01X22390D01*
G01Y10419D01*
G37*
G36*
G01X22390Y9919D02*
G01X23390Y9919D01*
G01Y10189D01*
G01X22390D01*
G01Y9919D01*
G37*
G36*
G01X22390Y9419D02*
G01X23390Y9419D01*
G01Y9689D01*
G01X22390D01*
G01Y9419D01*
G37*
G36*
G01X22390Y8919D02*
G01X23390Y8919D01*
G01Y9189D01*
G01X22390D01*
G01Y8919D01*
G37*
G36*
G01X22390Y8419D02*
G01X23390Y8419D01*
G01Y8689D01*
G01X22390D01*
G01Y8419D01*
G37*
G36*
G01X22390Y7919D02*
G01X23390Y7919D01*
G01Y8189D01*
G01X22390D01*
G01Y7919D01*
G37*
G36*
G01X22390Y7419D02*
G01X23390Y7419D01*
G01Y7689D01*
G01X22390D01*
G01Y7419D01*
G37*
G36*
G01X22390Y6919D02*
G01X23390Y6919D01*
G01Y7189D01*
G01X22390D01*
G01Y6919D01*
G37*
G36*
G01X22390Y6419D02*
G01X23390Y6419D01*
G01Y6689D01*
G01X22390D01*
G01Y6419D01*
G37*
G36*
G01X22390Y5919D02*
G01X23390Y5919D01*
G01Y6189D01*
G01X22390D01*
G01Y5919D01*
G37*
G36*
G01X13390Y13419D02*
G01X14390Y13419D01*
G01Y13689D01*
G01X13390D01*
G01Y13419D01*
G37*
G36*
G01X13390Y12919D02*
G01X14390Y12919D01*
G01Y13189D01*
G01X13390D01*
G01Y12919D01*
G37*
G36*
G01X13390Y12419D02*
G01X14390Y12419D01*
G01Y12689D01*
G01X13390D01*
G01Y12419D01*
G37*
G36*
G01X13390Y11919D02*
G01X14390Y11919D01*
G01Y12189D01*
G01X13390D01*
G01Y11919D01*
G37*
G36*
G01X13390Y11419D02*
G01X14390Y11419D01*
G01Y11689D01*
G01X13390D01*
G01Y11419D01*
G37*
G36*
G01X13390Y10919D02*
G01X14390Y10919D01*
G01Y11189D01*
G01X13390D01*
G01Y10919D01*
G37*
G36*
G01X13390Y10419D02*
G01X14390Y10419D01*
G01Y10689D01*
G01X13390D01*
G01Y10419D01*
G37*
G36*
G01X13390Y9919D02*
G01X14390Y9919D01*
G01Y10189D01*
G01X13390D01*
G01Y9919D01*
G37*
G36*
G01X13390Y5919D02*
G01X14390Y5919D01*
G01Y6189D01*
G01X13390D01*
G01Y5919D01*
G37*
G36*
G01X13390Y6419D02*
G01X14390Y6419D01*
G01Y6689D01*
G01X13390D01*
G01Y6419D01*
G37*
G36*
G01X13390Y6919D02*
G01X14390Y6919D01*
G01Y7189D01*
G01X13390D01*
G01Y6919D01*
G37*
G36*
G01X13390Y7419D02*
G01X14390Y7419D01*
G01Y7689D01*
G01X13390D01*
G01Y7419D01*
G37*
G36*
G01X13390Y7919D02*
G01X14390Y7919D01*
G01Y8189D01*
G01X13390D01*
G01Y7919D01*
G37*
G36*
G01X13390Y8419D02*
G01X14390Y8419D01*
G01Y8689D01*
G01X13390D01*
G01Y8419D01*
G37*
G36*
G01X13390Y8919D02*
G01X14390Y8919D01*
G01Y9189D01*
G01X13390D01*
G01Y8919D01*
G37*
G36*
G01X13390Y9419D02*
G01X14390Y9419D01*
G01Y9689D01*
G01X13390D01*
G01Y9419D01*
G37*
G36*
G01X22005Y5804D02*
G01X22005Y4804D01*
G01X22275D01*
G01Y5804D01*
G01X22005D01*
G37*
G36*
G01X21505Y5804D02*
G01X21505Y4804D01*
G01X21775D01*
G01Y5804D01*
G01X21505D01*
G37*
G36*
G01X21005Y5804D02*
G01X21005Y4804D01*
G01X21275D01*
G01Y5804D01*
G01X21005D01*
G37*
G36*
G01X20505Y5804D02*
G01X20505Y4804D01*
G01X20775D01*
G01Y5804D01*
G01X20505D01*
G37*
G36*
G01X20005Y5804D02*
G01X20005Y4804D01*
G01X20275D01*
G01Y5804D01*
G01X20005D01*
G37*
G36*
G01X19505Y5804D02*
G01X19505Y4804D01*
G01X19775D01*
G01Y5804D01*
G01X19505D01*
G37*
G36*
G01X19005Y5804D02*
G01X19005Y4804D01*
G01X19275D01*
G01Y5804D01*
G01X19005D01*
G37*
G36*
G01X18505Y5804D02*
G01X18505Y4804D01*
G01X18775D01*
G01Y5804D01*
G01X18505D01*
G37*
G36*
G01X18005Y5804D02*
G01X18005Y4804D01*
G01X18275D01*
G01Y5804D01*
G01X18005D01*
G37*
G36*
G01X17505Y5804D02*
G01X17505Y4804D01*
G01X17775D01*
G01Y5804D01*
G01X17505D01*
G37*
G36*
G01X17005Y5804D02*
G01X17005Y4804D01*
G01X17275D01*
G01Y5804D01*
G01X17005D01*
G37*
G36*
G01X16505Y5804D02*
G01X16505Y4804D01*
G01X16775D01*
G01Y5804D01*
G01X16505D01*
G37*
G36*
G01X16005Y5804D02*
G01X16005Y4804D01*
G01X16275D01*
G01Y5804D01*
G01X16005D01*
G37*
G36*
G01X15505Y5804D02*
G01X15505Y4804D01*
G01X15775D01*
G01Y5804D01*
G01X15505D01*
G37*
G36*
G01X15005Y5804D02*
G01X15005Y4804D01*
G01X15275D01*
G01Y5804D01*
G01X15005D01*
G37*
G36*
G01X14505Y5804D02*
G01X14505Y4804D01*
G01X14775D01*
G01Y5804D01*
G01X14505D01*
G37*
G36*
G01X15640Y7054D02*
G01X21140Y7054D01*
G01Y12554D01*
G01X15640D01*
G01Y7054D01*
G37*
G36*
G01X26245Y13943D02*
G01X25571Y13943D01*
G01Y13743D01*
G01X26245D01*
G01Y13943D01*
G37*
G36*
G01X26245Y13443D02*
G01X25571Y13443D01*
G01Y13243D01*
G01X26245D01*
G01Y13443D01*
G37*
G36*
G01X27120Y13043D02*
G01X25571Y13043D01*
G01Y12643D01*
G01X27120D01*
G01Y13043D01*
G37*
G36*
G01X26245Y12443D02*
G01X25571Y12443D01*
G01Y12243D01*
G01X26245D01*
G01Y12443D01*
G37*
G36*
G01X26245Y11943D02*
G01X25571Y11943D01*
G01Y11743D01*
G01X26245D01*
G01Y11943D01*
G37*
G36*
G01X27120Y11943D02*
G01X26445Y11943D01*
G01Y11743D01*
G01X27120D01*
G01Y11943D01*
G37*
G36*
G01X27120Y12443D02*
G01X26445Y12443D01*
G01Y12243D01*
G01X27120D01*
G01Y12443D01*
G37*
G36*
G01X27120Y13443D02*
G01X26445Y13443D01*
G01Y13243D01*
G01X27120D01*
G01Y13443D01*
G37*
G36*
G01X27120Y13943D02*
G01X26445Y13943D01*
G01Y13743D01*
G01X27120D01*
G01Y13943D01*
G37*
G36*
G01X26240Y10981D02*
G01X25565Y10981D01*
G01Y10781D01*
G01X26240D01*
G01Y10981D01*
G37*
G36*
G01X26240Y10481D02*
G01X25565Y10481D01*
G01Y10281D01*
G01X26240D01*
G01Y10481D01*
G37*
G36*
G01X27115Y10081D02*
G01X25565Y10081D01*
G01Y9681D01*
G01X27115D01*
G01Y10081D01*
G37*
G36*
G01X26240Y9481D02*
G01X25565Y9481D01*
G01Y9281D01*
G01X26240D01*
G01Y9481D01*
G37*
G36*
G01X26240Y8981D02*
G01X25565Y8981D01*
G01Y8781D01*
G01X26240D01*
G01Y8981D01*
G37*
G36*
G01X27115Y8981D02*
G01X26440Y8981D01*
G01Y8781D01*
G01X27115D01*
G01Y8981D01*
G37*
G36*
G01X27115Y9481D02*
G01X26440Y9481D01*
G01Y9281D01*
G01X27115D01*
G01Y9481D01*
G37*
G36*
G01X27115Y10481D02*
G01X26440Y10481D01*
G01Y10281D01*
G01X27115D01*
G01Y10481D01*
G37*
G36*
G01X27115Y10981D02*
G01X26440Y10981D01*
G01Y10781D01*
G01X27115D01*
G01Y10981D01*
G37*
G36*
G01X8968Y13901D02*
G01X8968Y13226D01*
G01X9168D01*
G01Y13901D01*
G01X8968D01*
G37*
G36*
G01X9468Y13901D02*
G01X9468Y13226D01*
G01X9668D01*
G01Y13901D01*
G01X9468D01*
G37*
G36*
G01X9868Y14776D02*
G01X9868Y13226D01*
G01X10268D01*
G01Y14776D01*
G01X9868D01*
G37*
G36*
G01X10468Y13901D02*
G01X10468Y13226D01*
G01X10668D01*
G01Y13901D01*
G01X10468D01*
G37*
G36*
G01X10968Y13901D02*
G01X10968Y13226D01*
G01X11168D01*
G01Y13901D01*
G01X10968D01*
G37*
G36*
G01X10968Y14776D02*
G01X10968Y14101D01*
G01X11168D01*
G01Y14776D01*
G01X10968D01*
G37*
G36*
G01X10468Y14776D02*
G01X10468Y14101D01*
G01X10668D01*
G01Y14776D01*
G01X10468D01*
G37*
G36*
G01X9468Y14776D02*
G01X9468Y14101D01*
G01X9668D01*
G01Y14776D01*
G01X9468D01*
G37*
G36*
G01X8968Y14776D02*
G01X8968Y14101D01*
G01X9168D01*
G01Y14776D01*
G01X8968D01*
G37*
G36*
G01X25873Y15640D02*
G01X27373Y15640D01*
G01Y16140D01*
G01X25873D01*
G01Y15640D01*
G37*
G36*
G01X25873Y16590D02*
G01X27373Y16590D01*
G01Y17090D01*
G01X25873D01*
G01Y16590D01*
G37*
G36*
G01X25873Y17540D02*
G01X27373Y17540D01*
G01Y18040D01*
G01X25873D01*
G01Y17540D01*
G37*
G36*
G01X23173Y17540D02*
G01X24673Y17540D01*
G01Y18040D01*
G01X23173D01*
G01Y17540D01*
G37*
G36*
G01X23173Y15640D02*
G01X24673Y15640D01*
G01Y16140D01*
G01X23173D01*
G01Y15640D01*
G37*
G54D11*
G01X30556Y1143D03*
G01X1219Y17932D03*
G54D12*
G01X30000Y5100D03*
G01X30000Y6100D03*
G01X30000Y7100D03*
G01X30000Y8100D03*
G01X30000Y9100D03*
G01X30000Y10100D03*
G01X30000Y11100D03*
G01X30000Y12100D03*
G01X30000Y13100D03*
G01X30000Y14100D03*
G36*
G01X28476Y2199D02*
G01X31476Y2199D01*
G01Y3499D01*
G01X28476D01*
G01Y2199D01*
G37*
G36*
G01X28463Y15800D02*
G01X31463Y15800D01*
G01Y17100D01*
G01X28463D01*
G01Y15800D01*
G37*
G36*
G01X21623Y17445D02*
G01X22523Y17445D01*
G01Y18245D01*
G01X21623D01*
G01Y17445D01*
G37*
G36*
G01X21623Y16045D02*
G01X22523Y16045D01*
G01Y16845D01*
G01X21623D01*
G01Y16045D01*
G37*
G04 Pad End*

M02*
