G04 Layer: DrillDrawingLayer*
G04 EasyEDA Pro v1.8.39, 2022-10-27 11:15:30*
G04 Gerber Generator version 0.3*
G04 Scale: 100 percent, Rotated: No, Reflected: No*
G04 Dimensions in millimeters*
G04 Leading zeros omitted, absolute positions, 3 integers and 3 decimals*
%FSLAX33Y33*%
%MOMM*%
%ADD10C,0.254*%
G75*


G04 Image Start*
G36*
G01X14812Y10435D02*
G01X14812Y10399D01*
G01X14848D01*
G01X15174D01*
G01Y10073D01*
G01X14848D01*
G01Y10399D01*
G01X14812D01*
G01Y10037D01*
G01X15211D01*
G01Y10435D01*
G37*
G36*
G01X16971Y910D02*
G01X16971Y874D01*
G01X17007D01*
G01X17333D01*
G01Y548D01*
G01X17007D01*
G01Y874D01*
G01X16971D01*
G01Y512D01*
G01X17370D01*
G01Y910D01*
G37*
G36*
G01X3896Y3950D02*
G01X3876Y3949D01*
G01X3856Y3946D01*
G01X3837Y3941D01*
G01X3819Y3934D01*
G01X3801Y3926D01*
G01X3785Y3916D01*
G01X3769Y3904D01*
G01X3755Y3891D01*
G01X3742Y3877D01*
G01X3731Y3862D01*
G01X3721Y3846D01*
G01X3712Y3828D01*
G01X3706Y3809D01*
G01X3701Y3791D01*
G01X3698Y3771D01*
G01X3697Y3751D01*
G01X3730D01*
G01X3731Y3767D01*
G01X3734Y3784D01*
G01X3738Y3800D01*
G01X3743Y3815D01*
G01X3750Y3829D01*
G01X3759Y3843D01*
G01X3768Y3856D01*
G01X3779Y3868D01*
G01X3791Y3879D01*
G01X3803Y3888D01*
G01X3817Y3896D01*
G01X3832Y3903D01*
G01X3847Y3909D01*
G01X3863Y3913D01*
G01X3880Y3916D01*
G01X3896Y3917D01*
G01X3913Y3916D01*
G01X3930Y3913D01*
G01X3946Y3909D01*
G01X3961Y3903D01*
G01X3976Y3896D01*
G01X3989Y3888D01*
G01X4002Y3879D01*
G01X4014Y3868D01*
G01X4024Y3856D01*
G01X4034Y3843D01*
G01X4043Y3829D01*
G01X4049Y3815D01*
G01X4055Y3800D01*
G01X4059Y3784D01*
G01X4061Y3767D01*
G01X4062Y3751D01*
G01X4061Y3733D01*
G01X4059Y3717D01*
G01X4055Y3701D01*
G01X4049Y3686D01*
G01X4043Y3671D01*
G01X4034Y3658D01*
G01X4024Y3645D01*
G01X4014Y3633D01*
G01X4002Y3622D01*
G01X3989Y3612D01*
G01X3976Y3604D01*
G01X3961Y3597D01*
G01X3946Y3592D01*
G01X3930Y3587D01*
G01X3913Y3585D01*
G01X3896Y3584D01*
G01X3880Y3585D01*
G01X3863Y3587D01*
G01X3847Y3592D01*
G01X3832Y3597D01*
G01X3817Y3604D01*
G01X3803Y3612D01*
G01X3791Y3622D01*
G01X3779Y3633D01*
G01X3768Y3645D01*
G01X3759Y3658D01*
G01X3750Y3671D01*
G01X3743Y3686D01*
G01X3738Y3701D01*
G01X3734Y3717D01*
G01X3731Y3733D01*
G01X3730Y3751D01*
G01X3697D01*
G01X3698Y3730D01*
G01X3701Y3710D01*
G01X3706Y3691D01*
G01X3712Y3673D01*
G01X3721Y3656D01*
G01X3731Y3639D01*
G01X3742Y3624D01*
G01X3755Y3609D01*
G01X3769Y3597D01*
G01X3785Y3585D01*
G01X3801Y3575D01*
G01X3819Y3567D01*
G01X3837Y3560D01*
G01X3856Y3555D01*
G01X3876Y3552D01*
G01X3896Y3551D01*
G01X3917Y3552D01*
G01X3936Y3555D01*
G01X3956Y3560D01*
G01X3974Y3567D01*
G01X3991Y3575D01*
G01X4008Y3585D01*
G01X4023Y3597D01*
G01X4038Y3609D01*
G01X4050Y3624D01*
G01X4061Y3639D01*
G01X4072Y3656D01*
G01X4080Y3673D01*
G01X4087Y3691D01*
G01X4092Y3710D01*
G01X4094Y3730D01*
G01X4096Y3751D01*
G01X4094Y3771D01*
G01X4092Y3791D01*
G01X4087Y3809D01*
G01X4080Y3828D01*
G01X4072Y3846D01*
G01X4061Y3862D01*
G01X4050Y3877D01*
G01X4038Y3891D01*
G01X4023Y3904D01*
G01X4008Y3916D01*
G01X3991Y3926D01*
G01X3974Y3934D01*
G01X3956Y3941D01*
G01X3936Y3946D01*
G01X3917Y3949D01*
G37*
G36*
G01X3896Y15649D02*
G01X3876Y15648D01*
G01X3856Y15645D01*
G01X3837Y15640D01*
G01X3819Y15633D01*
G01X3801Y15625D01*
G01X3785Y15615D01*
G01X3769Y15604D01*
G01X3755Y15591D01*
G01X3742Y15576D01*
G01X3731Y15561D01*
G01X3721Y15545D01*
G01X3712Y15527D01*
G01X3706Y15509D01*
G01X3701Y15490D01*
G01X3698Y15470D01*
G01X3697Y15450D01*
G01X3730D01*
G01X3731Y15467D01*
G01X3734Y15483D01*
G01X3738Y15499D01*
G01X3743Y15514D01*
G01X3750Y15529D01*
G01X3759Y15542D01*
G01X3768Y15555D01*
G01X3779Y15567D01*
G01X3791Y15578D01*
G01X3803Y15587D01*
G01X3817Y15596D01*
G01X3832Y15603D01*
G01X3847Y15608D01*
G01X3863Y15612D01*
G01X3880Y15615D01*
G01X3896Y15616D01*
G01X3913Y15615D01*
G01X3930Y15612D01*
G01X3946Y15608D01*
G01X3961Y15603D01*
G01X3976Y15596D01*
G01X3989Y15587D01*
G01X4002Y15578D01*
G01X4014Y15567D01*
G01X4024Y15555D01*
G01X4034Y15542D01*
G01X4043Y15529D01*
G01X4049Y15514D01*
G01X4055Y15499D01*
G01X4059Y15483D01*
G01X4061Y15467D01*
G01X4062Y15450D01*
G01X4061Y15433D01*
G01X4059Y15416D01*
G01X4055Y15400D01*
G01X4049Y15385D01*
G01X4043Y15371D01*
G01X4034Y15357D01*
G01X4024Y15344D01*
G01X4014Y15332D01*
G01X4002Y15321D01*
G01X3989Y15312D01*
G01X3976Y15304D01*
G01X3961Y15296D01*
G01X3946Y15291D01*
G01X3930Y15287D01*
G01X3913Y15284D01*
G01X3896D01*
G01X3880D01*
G01X3863Y15287D01*
G01X3847Y15291D01*
G01X3832Y15296D01*
G01X3817Y15304D01*
G01X3803Y15312D01*
G01X3791Y15321D01*
G01X3779Y15332D01*
G01X3768Y15344D01*
G01X3759Y15357D01*
G01X3750Y15371D01*
G01X3743Y15385D01*
G01X3738Y15400D01*
G01X3734Y15416D01*
G01X3731Y15433D01*
G01X3730Y15450D01*
G01X3697D01*
G01X3698Y15429D01*
G01X3701Y15410D01*
G01X3706Y15390D01*
G01X3712Y15372D01*
G01X3721Y15355D01*
G01X3731Y15338D01*
G01X3742Y15323D01*
G01X3755Y15309D01*
G01X3769Y15296D01*
G01X3785Y15284D01*
G01X3801Y15275D01*
G01X3819Y15266D01*
G01X3837Y15259D01*
G01X3856Y15254D01*
G01X3876Y15251D01*
G01X3896Y15250D01*
G01X3917Y15251D01*
G01X3936Y15254D01*
G01X3956Y15259D01*
G01X3974Y15266D01*
G01X3991Y15275D01*
G01X4008Y15284D01*
G01X4023Y15296D01*
G01X4038Y15309D01*
G01X4050Y15323D01*
G01X4061Y15338D01*
G01X4072Y15355D01*
G01X4080Y15372D01*
G01X4087Y15390D01*
G01X4092Y15410D01*
G01X4094Y15429D01*
G01X4096Y15450D01*
G01X4094Y15470D01*
G01X4092Y15490D01*
G01X4087Y15509D01*
G01X4080Y15527D01*
G01X4072Y15545D01*
G01X4061Y15561D01*
G01X4050Y15576D01*
G01X4038Y15591D01*
G01X4023Y15604D01*
G01X4008Y15615D01*
G01X3991Y15625D01*
G01X3974Y15633D01*
G01X3956Y15640D01*
G01X3936Y15645D01*
G01X3917Y15648D01*
G37*
G36*
G01X23982Y12187D02*
G01X24001Y12153D01*
G01X24039D01*
G01X24323D01*
G01X24252Y12031D01*
G01X24181Y11908D01*
G01X24110Y12031D01*
G01X24039Y12153D01*
G01X24001D01*
G01X24181Y11841D01*
G01X24280Y12014D01*
G01X24380Y12187D01*
G37*
G36*
G01X26522Y18486D02*
G01X26541Y18453D01*
G01X26579D01*
G01X26863D01*
G01X26792Y18330D01*
G01X26721Y18207D01*
G01X26650Y18330D01*
G01X26579Y18453D01*
G01X26541D01*
G01X26721Y18141D01*
G01X26820Y18313D01*
G01X26920Y18486D01*
G37*
G36*
G01X27792Y16632D02*
G01X27811Y16598D01*
G01X27849D01*
G01X28133D01*
G01X28062Y16476D01*
G01X27991Y16353D01*
G01X27920Y16476D01*
G01X27849Y16598D01*
G01X27811D01*
G01X27991Y16286D01*
G01X28090Y16459D01*
G01X28190Y16632D01*
G37*
G36*
G01X27792Y15692D02*
G01X27811Y15659D01*
G01X27849D01*
G01X28133D01*
G01X28062Y15536D01*
G01X27991Y15413D01*
G01X27920Y15536D01*
G01X27849Y15659D01*
G01X27811D01*
G01X27991Y15347D01*
G01X28090Y15519D01*
G01X28190Y15692D01*
G37*
G36*
G01X21518Y15616D02*
G01X21537Y15582D01*
G01X21575D01*
G01X21859D01*
G01X21788Y15460D01*
G01X21717Y15337D01*
G01X21646Y15460D01*
G01X21575Y15582D01*
G01X21537D01*
G01X21717Y15270D01*
G01X21817Y15443D01*
G01X21917Y15616D01*
G37*
G36*
G01X21086Y17953D02*
G01X21105Y17919D01*
G01X21143D01*
G01X21427D01*
G01X21356Y17797D01*
G01X21285Y17674D01*
G01X21214Y17797D01*
G01X21143Y17919D01*
G01X21105D01*
G01X21285Y17607D01*
G01X21385Y17780D01*
G01X21485Y17953D01*
G37*
G36*
G01X13745Y14676D02*
G01X13764Y14643D01*
G01X13803D01*
G01X14086D01*
G01X14016Y14520D01*
G01X13945Y14397D01*
G01X13873Y14520D01*
G01X13803Y14643D01*
G01X13764D01*
G01X13845Y14503D01*
G01X13945Y14331D01*
G01X14144Y14676D01*
G37*
G36*
G01X20756Y13330D02*
G01X20775Y13296D01*
G01X20813D01*
G01X21097D01*
G01X21026Y13174D01*
G01X20955Y13051D01*
G01X20884Y13174D01*
G01X20813Y13296D01*
G01X20775D01*
G01X20955Y12984D01*
G01X21055Y13157D01*
G01X21155Y13330D01*
G37*
G36*
G01X27559Y12676D02*
G01X27502Y12546D01*
G01X27360Y12561D01*
G01X27444Y12446D01*
G01X27391Y12373D01*
G01X27433D01*
G01X27472Y12426D01*
G01X27486Y12446D01*
G01X27472Y12466D01*
G01X27433Y12519D01*
G01X27498Y12512D01*
G01X27522Y12509D01*
G01X27533Y12532D01*
G01X27559Y12592D01*
G01X27585Y12532D01*
G01X27596Y12509D01*
G01X27620Y12512D01*
G01X27685Y12519D01*
G01X27646Y12466D01*
G01X27632Y12446D01*
G01X27646Y12426D01*
G01X27685Y12373D01*
G01X27620Y12380D01*
G01X27596Y12383D01*
G01X27585Y12360D01*
G01X27559Y12300D01*
G01X27533Y12360D01*
G01X27522Y12383D01*
G01X27498Y12380D01*
G01X27433Y12373D01*
G01X27391D01*
G01X27360Y12331D01*
G01X27502Y12346D01*
G01X27559Y12216D01*
G01X27616Y12346D01*
G01X27759Y12331D01*
G01X27674Y12446D01*
G01X27759Y12561D01*
G01X27616Y12546D01*
G37*
G36*
G01X27559Y12041D02*
G01X27502Y11911D01*
G01X27360Y11926D01*
G01X27444Y11811D01*
G01X27391Y11738D01*
G01X27433D01*
G01X27472Y11791D01*
G01X27486Y11811D01*
G01X27472Y11831D01*
G01X27433Y11884D01*
G01X27498Y11877D01*
G01X27522Y11874D01*
G01X27533Y11897D01*
G01X27559Y11957D01*
G01X27585Y11897D01*
G01X27596Y11874D01*
G01X27620Y11877D01*
G01X27685Y11884D01*
G01X27646Y11831D01*
G01X27632Y11811D01*
G01X27646Y11791D01*
G01X27685Y11738D01*
G01X27620Y11745D01*
G01X27596Y11748D01*
G01X27585Y11725D01*
G01X27559Y11665D01*
G01X27533Y11725D01*
G01X27522Y11748D01*
G01X27498Y11745D01*
G01X27433Y11738D01*
G01X27391D01*
G01X27360Y11696D01*
G01X27502Y11711D01*
G01X27559Y11581D01*
G01X27616Y11711D01*
G01X27759Y11696D01*
G01X27674Y11811D01*
G01X27759Y11926D01*
G01X27616Y11911D01*
G37*
G36*
G01X28016Y13083D02*
G01X27959Y12952D01*
G01X27817Y12968D01*
G01X27901Y12852D01*
G01X27848Y12780D01*
G01X27890D01*
G01X27929Y12832D01*
G01X27944Y12852D01*
G01X27929Y12873D01*
G01X27890Y12925D01*
G01X27955Y12918D01*
G01X27980Y12915D01*
G01X27990Y12938D01*
G01X28016Y12998D01*
G01X28043Y12938D01*
G01X28053Y12915D01*
G01X28078Y12918D01*
G01X28142Y12925D01*
G01X28104Y12873D01*
G01X28089Y12852D01*
G01X28104Y12832D01*
G01X28142Y12780D01*
G01X28078Y12786D01*
G01X28053Y12789D01*
G01X28043Y12767D01*
G01X28016Y12707D01*
G01X27990Y12767D01*
G01X27980Y12789D01*
G01X27955Y12786D01*
G01X27890Y12780D01*
G01X27848D01*
G01X27817Y12737D01*
G01X27959Y12753D01*
G01X28016Y12622D01*
G01X28074Y12753D01*
G01X28216Y12737D01*
G01X28132Y12852D01*
G01X28216Y12968D01*
G01X28074Y12952D01*
G37*
G36*
G01X27965Y11533D02*
G01X27908Y11403D01*
G01X27766Y11418D01*
G01X27850Y11303D01*
G01X27797Y11230D01*
G01X27839D01*
G01X27878Y11283D01*
G01X27893Y11303D01*
G01X27878Y11323D01*
G01X27839Y11376D01*
G01X27904Y11369D01*
G01X27929Y11366D01*
G01X27939Y11389D01*
G01X27965Y11449D01*
G01X27992Y11389D01*
G01X28002Y11366D01*
G01X28027Y11369D01*
G01X28091Y11376D01*
G01X28053Y11323D01*
G01X28038Y11303D01*
G01X28053Y11283D01*
G01X28091Y11230D01*
G01X28027Y11237D01*
G01X28002Y11240D01*
G01X27992Y11217D01*
G01X27965Y11157D01*
G01X27939Y11217D01*
G01X27929Y11240D01*
G01X27904Y11237D01*
G01X27839Y11230D01*
G01X27797D01*
G01X27766Y11188D01*
G01X27908Y11203D01*
G01X27965Y11073D01*
G01X28023Y11203D01*
G01X28165Y11188D01*
G01X28081Y11303D01*
G01X28165Y11418D01*
G01X28023Y11403D01*
G37*
G36*
G01X28016Y10136D02*
G01X27959Y10006D01*
G01X27817Y10021D01*
G01X27901Y9906D01*
G01X27848Y9833D01*
G01X27890D01*
G01X27929Y9886D01*
G01X27944Y9906D01*
G01X27929Y9926D01*
G01X27890Y9979D01*
G01X27955Y9972D01*
G01X27980Y9969D01*
G01X27990Y9992D01*
G01X28016Y10052D01*
G01X28043Y9992D01*
G01X28053Y9969D01*
G01X28078Y9972D01*
G01X28142Y9979D01*
G01X28104Y9926D01*
G01X28089Y9906D01*
G01X28104Y9886D01*
G01X28142Y9833D01*
G01X28078Y9840D01*
G01X28053Y9843D01*
G01X28043Y9820D01*
G01X28016Y9760D01*
G01X27990Y9820D01*
G01X27980Y9843D01*
G01X27955Y9840D01*
G01X27890Y9833D01*
G01X27848D01*
G01X27817Y9791D01*
G01X27959Y9806D01*
G01X28016Y9676D01*
G01X28074Y9806D01*
G01X28216Y9791D01*
G01X28132Y9906D01*
G01X28216Y10021D01*
G01X28074Y10006D01*
G37*
G36*
G01X27559Y9603D02*
G01X27502Y9472D01*
G01X27360Y9488D01*
G01X27444Y9373D01*
G01X27391Y9300D01*
G01X27433D01*
G01X27472Y9352D01*
G01X27486Y9373D01*
G01X27472Y9393D01*
G01X27433Y9445D01*
G01X27498Y9439D01*
G01X27522Y9436D01*
G01X27533Y9458D01*
G01X27559Y9518D01*
G01X27585Y9458D01*
G01X27596Y9436D01*
G01X27620Y9438D01*
G01X27685Y9445D01*
G01X27646Y9393D01*
G01X27632Y9373D01*
G01X27646Y9352D01*
G01X27685Y9300D01*
G01X27620Y9307D01*
G01X27596Y9310D01*
G01X27585Y9287D01*
G01X27559Y9227D01*
G01X27533Y9287D01*
G01X27522Y9310D01*
G01X27498Y9307D01*
G01X27433Y9300D01*
G01X27391D01*
G01X27360Y9257D01*
G01X27502Y9273D01*
G01X27559Y9142D01*
G01X27616Y9273D01*
G01X27759Y9257D01*
G01X27674Y9373D01*
G01X27759Y9488D01*
G01X27616Y9472D01*
G37*
G36*
G01X27559Y9019D02*
G01X27502Y8888D01*
G01X27360Y8904D01*
G01X27444Y8788D01*
G01X27391Y8716D01*
G01X27433D01*
G01X27472Y8768D01*
G01X27486Y8788D01*
G01X27472Y8809D01*
G01X27433Y8861D01*
G01X27498Y8854D01*
G01X27522Y8851D01*
G01X27533Y8874D01*
G01X27559Y8934D01*
G01X27585Y8874D01*
G01X27596Y8851D01*
G01X27620Y8854D01*
G01X27685Y8861D01*
G01X27646Y8809D01*
G01X27632Y8788D01*
G01X27646Y8768D01*
G01X27685Y8716D01*
G01X27620Y8722D01*
G01X27596Y8725D01*
G01X27585Y8703D01*
G01X27559Y8643D01*
G01X27533Y8703D01*
G01X27522Y8725D01*
G01X27498Y8722D01*
G01X27433Y8716D01*
G01X27391D01*
G01X27360Y8673D01*
G01X27502Y8689D01*
G01X27559Y8558D01*
G01X27616Y8689D01*
G01X27759Y8673D01*
G01X27674Y8788D01*
G01X27759Y8904D01*
G01X27616Y8888D01*
G37*
G36*
G01X23978Y9984D02*
G01X23920Y9853D01*
G01X23778Y9869D01*
G01X23862Y9754D01*
G01X23809Y9681D01*
G01X23852D01*
G01X23890Y9733D01*
G01X23905Y9754D01*
G01X23890Y9774D01*
G01X23852Y9826D01*
G01X23916Y9820D01*
G01X23941Y9817D01*
G01X23951Y9839D01*
G01X23978Y9899D01*
G01X24004Y9839D01*
G01X24014Y9817D01*
G01X24039Y9819D01*
G01X24104Y9826D01*
G01X24065Y9774D01*
G01X24050Y9754D01*
G01X24065Y9733D01*
G01X24104Y9681D01*
G01X24039Y9688D01*
G01X24014Y9691D01*
G01X24004Y9668D01*
G01X23978Y9608D01*
G01X23951Y9668D01*
G01X23941Y9691D01*
G01X23916Y9688D01*
G01X23852Y9681D01*
G01X23809D01*
G01X23778Y9638D01*
G01X23920Y9654D01*
G01X23978Y9523D01*
G01X24035Y9654D01*
G01X24177Y9638D01*
G01X24093Y9754D01*
G01X24177Y9869D01*
G01X24035Y9853D01*
G37*
G36*
G01X23978Y7952D02*
G01X23920Y7821D01*
G01X23778Y7837D01*
G01X23862Y7722D01*
G01X23809Y7649D01*
G01X23852D01*
G01X23890Y7701D01*
G01X23905Y7722D01*
G01X23890Y7742D01*
G01X23852Y7794D01*
G01X23916Y7788D01*
G01X23941Y7785D01*
G01X23951Y7807D01*
G01X23978Y7867D01*
G01X24004Y7807D01*
G01X24014Y7785D01*
G01X24039Y7787D01*
G01X24104Y7794D01*
G01X24065Y7742D01*
G01X24050Y7722D01*
G01X24065Y7701D01*
G01X24104Y7649D01*
G01X24039Y7656D01*
G01X24014Y7659D01*
G01X24004Y7636D01*
G01X23978Y7576D01*
G01X23951Y7636D01*
G01X23941Y7659D01*
G01X23916Y7656D01*
G01X23852Y7649D01*
G01X23809D01*
G01X23778Y7606D01*
G01X23920Y7622D01*
G01X23978Y7491D01*
G01X24035Y7622D01*
G01X24177Y7606D01*
G01X24093Y7722D01*
G01X24177Y7837D01*
G01X24035Y7821D01*
G37*
G36*
G01X23927Y6682D02*
G01X23869Y6551D01*
G01X23728Y6567D01*
G01X23811Y6452D01*
G01X23759Y6379D01*
G01X23801D01*
G01X23839Y6431D01*
G01X23854Y6452D01*
G01X23839Y6472D01*
G01X23801Y6524D01*
G01X23865Y6518D01*
G01X23890Y6515D01*
G01X23900Y6537D01*
G01X23927Y6597D01*
G01X23953Y6537D01*
G01X23963Y6515D01*
G01X23988Y6517D01*
G01X24053Y6524D01*
G01X24014Y6472D01*
G01X23999Y6452D01*
G01X24014Y6431D01*
G01X24053Y6379D01*
G01X23988Y6386D01*
G01X23963Y6389D01*
G01X23953Y6366D01*
G01X23927Y6306D01*
G01X23900Y6366D01*
G01X23890Y6389D01*
G01X23865Y6386D01*
G01X23801Y6379D01*
G01X23759D01*
G01X23728Y6336D01*
G01X23869Y6352D01*
G01X23927Y6221D01*
G01X23984Y6352D01*
G01X24126Y6336D01*
G01X24042Y6452D01*
G01X24126Y6567D01*
G01X23984Y6551D01*
G37*
G36*
G01X21666Y4675D02*
G01X21609Y4545D01*
G01X21467Y4560D01*
G01X21551Y4445D01*
G01X21498Y4372D01*
G01X21540D01*
G01X21579Y4425D01*
G01X21594Y4445D01*
G01X21579Y4465D01*
G01X21540Y4518D01*
G01X21605Y4511D01*
G01X21630Y4508D01*
G01X21640Y4531D01*
G01X21666Y4591D01*
G01X21693Y4531D01*
G01X21703Y4508D01*
G01X21728Y4511D01*
G01X21792Y4518D01*
G01X21754Y4465D01*
G01X21739Y4445D01*
G01X21754Y4425D01*
G01X21792Y4372D01*
G01X21728Y4379D01*
G01X21703Y4382D01*
G01X21693Y4359D01*
G01X21666Y4299D01*
G01X21640Y4359D01*
G01X21630Y4382D01*
G01X21605Y4379D01*
G01X21540Y4372D01*
G01X21498D01*
G01X21467Y4330D01*
G01X21609Y4345D01*
G01X21666Y4215D01*
G01X21724Y4345D01*
G01X21866Y4330D01*
G01X21782Y4445D01*
G01X21866Y4560D01*
G01X21724Y4545D01*
G37*
G36*
G01X23825Y13895D02*
G01X23768Y13765D01*
G01X23626Y13781D01*
G01X23710Y13665D01*
G01X23657Y13593D01*
G01X23699D01*
G01X23738Y13645D01*
G01X23753Y13665D01*
G01X23738Y13686D01*
G01X23699Y13738D01*
G01X23764Y13731D01*
G01X23789Y13728D01*
G01X23799Y13751D01*
G01X23825Y13811D01*
G01X23852Y13751D01*
G01X23862Y13728D01*
G01X23887Y13731D01*
G01X23951Y13738D01*
G01X23913Y13686D01*
G01X23898Y13665D01*
G01X23913Y13645D01*
G01X23951Y13593D01*
G01X23887Y13599D01*
G01X23862Y13602D01*
G01X23852Y13579D01*
G01X23825Y13519D01*
G01X23799Y13579D01*
G01X23789Y13602D01*
G01X23764Y13599D01*
G01X23699Y13593D01*
G01X23657D01*
G01X23626Y13550D01*
G01X23768Y13566D01*
G01X23825Y13435D01*
G01X23883Y13566D01*
G01X24025Y13550D01*
G01X23941Y13665D01*
G01X24025Y13781D01*
G01X23883Y13765D01*
G37*
G36*
G01X27026Y8307D02*
G01X26968Y8177D01*
G01X26826Y8193D01*
G01X26910Y8077D01*
G01X26857Y8005D01*
G01X26900D01*
G01X26938Y8057D01*
G01X26953Y8077D01*
G01X26938Y8098D01*
G01X26900Y8150D01*
G01X26964Y8143D01*
G01X26989Y8140D01*
G01X26999Y8163D01*
G01X27026Y8223D01*
G01X27052Y8163D01*
G01X27062Y8140D01*
G01X27087Y8143D01*
G01X27152Y8150D01*
G01X27113Y8098D01*
G01X27098Y8077D01*
G01X27113Y8057D01*
G01X27152Y8005D01*
G01X27087Y8011D01*
G01X27062Y8014D01*
G01X27052Y7991D01*
G01X27026Y7931D01*
G01X26999Y7991D01*
G01X26989Y8014D01*
G01X26964Y8011D01*
G01X26900Y8005D01*
G01X26857D01*
G01X26826Y7962D01*
G01X26968Y7978D01*
G01X27026Y7847D01*
G01X27083Y7978D01*
G01X27225Y7962D01*
G01X27141Y8077D01*
G01X27225Y8193D01*
G01X27083Y8177D01*
G37*
G36*
G01X27813Y7012D02*
G01X27756Y6881D01*
G01X27614Y6897D01*
G01X27698Y6782D01*
G01X27645Y6709D01*
G01X27687D01*
G01X27726Y6761D01*
G01X27740Y6782D01*
G01X27726Y6802D01*
G01X27687Y6854D01*
G01X27752Y6848D01*
G01X27776Y6845D01*
G01X27787Y6868D01*
G01X27813Y6928D01*
G01X27839Y6868D01*
G01X27850Y6845D01*
G01X27874Y6847D01*
G01X27939Y6854D01*
G01X27900Y6802D01*
G01X27886Y6782D01*
G01X27900Y6761D01*
G01X27939Y6709D01*
G01X27874Y6716D01*
G01X27850Y6719D01*
G01X27839Y6696D01*
G01X27813Y6636D01*
G01X27787Y6696D01*
G01X27776Y6719D01*
G01X27752Y6716D01*
G01X27687Y6709D01*
G01X27645D01*
G01X27614Y6666D01*
G01X27756Y6682D01*
G01X27813Y6552D01*
G01X27870Y6682D01*
G01X28013Y6666D01*
G01X27928Y6782D01*
G01X28013Y6897D01*
G01X27870Y6881D01*
G37*
G36*
G01X26010Y6758D02*
G01X25952Y6627D01*
G01X25810Y6643D01*
G01X25894Y6528D01*
G01X25841Y6455D01*
G01X25884D01*
G01X25922Y6507D01*
G01X25937Y6528D01*
G01X25922Y6548D01*
G01X25884Y6600D01*
G01X25948Y6594D01*
G01X25973Y6591D01*
G01X25983Y6614D01*
G01X26010Y6674D01*
G01X26036Y6614D01*
G01X26046Y6591D01*
G01X26071Y6593D01*
G01X26136Y6600D01*
G01X26097Y6548D01*
G01X26082Y6528D01*
G01X26097Y6507D01*
G01X26136Y6455D01*
G01X26071Y6462D01*
G01X26046Y6465D01*
G01X26036Y6442D01*
G01X26010Y6382D01*
G01X25983Y6442D01*
G01X25973Y6465D01*
G01X25948Y6462D01*
G01X25884Y6455D01*
G01X25841D01*
G01X25810Y6412D01*
G01X25952Y6428D01*
G01X26010Y6298D01*
G01X26067Y6428D01*
G01X26209Y6412D01*
G01X26125Y6528D01*
G01X26209Y6643D01*
G01X26067Y6627D01*
G37*
G36*
G01X28016Y8587D02*
G01X27959Y8456D01*
G01X27817Y8472D01*
G01X27901Y8357D01*
G01X27848Y8284D01*
G01X27890D01*
G01X27929Y8336D01*
G01X27944Y8357D01*
G01X27929Y8377D01*
G01X27890Y8429D01*
G01X27955Y8423D01*
G01X27980Y8420D01*
G01X27990Y8442D01*
G01X28016Y8502D01*
G01X28043Y8442D01*
G01X28053Y8420D01*
G01X28078Y8422D01*
G01X28142Y8429D01*
G01X28104Y8377D01*
G01X28089Y8357D01*
G01X28104Y8336D01*
G01X28142Y8284D01*
G01X28078Y8291D01*
G01X28053Y8294D01*
G01X28043Y8271D01*
G01X28016Y8211D01*
G01X27990Y8271D01*
G01X27980Y8294D01*
G01X27955Y8291D01*
G01X27890Y8284D01*
G01X27848D01*
G01X27817Y8241D01*
G01X27959Y8257D01*
G01X28016Y8126D01*
G01X28074Y8257D01*
G01X28216Y8241D01*
G01X28132Y8357D01*
G01X28216Y8472D01*
G01X28074Y8456D01*
G37*
G36*
G01X22581Y14403D02*
G01X22523Y14273D01*
G01X22381Y14289D01*
G01X22465Y14173D01*
G01X22412Y14101D01*
G01X22455D01*
G01X22493Y14153D01*
G01X22508Y14173D01*
G01X22493Y14194D01*
G01X22455Y14246D01*
G01X22519Y14239D01*
G01X22544Y14236D01*
G01X22554Y14259D01*
G01X22581Y14319D01*
G01X22607Y14259D01*
G01X22617Y14236D01*
G01X22642Y14239D01*
G01X22707Y14246D01*
G01X22668Y14194D01*
G01X22653Y14173D01*
G01X22668Y14153D01*
G01X22707Y14101D01*
G01X22642Y14107D01*
G01X22617Y14110D01*
G01X22607Y14087D01*
G01X22581Y14027D01*
G01X22554Y14087D01*
G01X22544Y14110D01*
G01X22519Y14107D01*
G01X22455Y14101D01*
G01X22412D01*
G01X22381Y14058D01*
G01X22523Y14074D01*
G01X22581Y13943D01*
G01X22638Y14074D01*
G01X22780Y14058D01*
G01X22696Y14173D01*
G01X22780Y14289D01*
G01X22638Y14273D01*
G37*
G36*
G01X20218Y15572D02*
G01X20161Y15441D01*
G01X20019Y15457D01*
G01X20103Y15342D01*
G01X20050Y15269D01*
G01X20092D01*
G01X20131Y15321D01*
G01X20146Y15342D01*
G01X20131Y15362D01*
G01X20092Y15414D01*
G01X20157Y15408D01*
G01X20182Y15405D01*
G01X20192Y15427D01*
G01X20218Y15487D01*
G01X20245Y15427D01*
G01X20255Y15405D01*
G01X20280Y15407D01*
G01X20344Y15414D01*
G01X20306Y15362D01*
G01X20291Y15342D01*
G01X20306Y15321D01*
G01X20344Y15269D01*
G01X20280Y15276D01*
G01X20255Y15279D01*
G01X20245Y15256D01*
G01X20218Y15196D01*
G01X20192Y15256D01*
G01X20182Y15279D01*
G01X20157Y15276D01*
G01X20092Y15269D01*
G01X20050D01*
G01X20019Y15226D01*
G01X20161Y15242D01*
G01X20218Y15111D01*
G01X20276Y15242D01*
G01X20418Y15226D01*
G01X20334Y15342D01*
G01X20418Y15457D01*
G01X20276Y15441D01*
G37*
G36*
G01X18593Y15496D02*
G01X18535Y15365D01*
G01X18394Y15381D01*
G01X18477Y15265D01*
G01X18425Y15193D01*
G01X18467D01*
G01X18505Y15245D01*
G01X18520Y15265D01*
G01X18505Y15286D01*
G01X18467Y15338D01*
G01X18531Y15331D01*
G01X18556Y15328D01*
G01X18566Y15351D01*
G01X18593Y15411D01*
G01X18619Y15351D01*
G01X18629Y15328D01*
G01X18654Y15331D01*
G01X18719Y15338D01*
G01X18680Y15286D01*
G01X18665Y15265D01*
G01X18680Y15245D01*
G01X18719Y15193D01*
G01X18654Y15199D01*
G01X18629Y15202D01*
G01X18619Y15180D01*
G01X18593Y15120D01*
G01X18566Y15180D01*
G01X18556Y15202D01*
G01X18531Y15199D01*
G01X18467Y15193D01*
G01X18425D01*
G01X18394Y15150D01*
G01X18535Y15166D01*
G01X18593Y15035D01*
G01X18650Y15166D01*
G01X18792Y15150D01*
G01X18708Y15265D01*
G01X18792Y15381D01*
G01X18650Y15365D01*
G37*
G36*
G01X19152Y17426D02*
G01X19094Y17295D01*
G01X18952Y17311D01*
G01X19036Y17196D01*
G01X18983Y17123D01*
G01X19026D01*
G01X19064Y17175D01*
G01X19079Y17196D01*
G01X19064Y17216D01*
G01X19026Y17268D01*
G01X19090Y17262D01*
G01X19115Y17259D01*
G01X19125Y17282D01*
G01X19152Y17342D01*
G01X19178Y17282D01*
G01X19188Y17259D01*
G01X19213Y17261D01*
G01X19278Y17268D01*
G01X19239Y17216D01*
G01X19224Y17196D01*
G01X19239Y17175D01*
G01X19278Y17123D01*
G01X19213Y17130D01*
G01X19188Y17133D01*
G01X19178Y17110D01*
G01X19152Y17050D01*
G01X19125Y17110D01*
G01X19115Y17133D01*
G01X19090Y17130D01*
G01X19026Y17123D01*
G01X18983D01*
G01X18952Y17080D01*
G01X19094Y17096D01*
G01X19152Y16966D01*
G01X19209Y17096D01*
G01X19351Y17080D01*
G01X19267Y17196D01*
G01X19351Y17311D01*
G01X19209Y17295D01*
G37*
G36*
G01X18059Y17375D02*
G01X18002Y17245D01*
G01X17860Y17260D01*
G01X17944Y17145D01*
G01X17891Y17072D01*
G01X17933D01*
G01X17972Y17125D01*
G01X17987Y17145D01*
G01X17972Y17165D01*
G01X17933Y17218D01*
G01X17998Y17211D01*
G01X18023Y17208D01*
G01X18033Y17231D01*
G01X18059Y17291D01*
G01X18086Y17231D01*
G01X18096Y17208D01*
G01X18121Y17211D01*
G01X18185Y17218D01*
G01X18147Y17165D01*
G01X18132Y17145D01*
G01X18147Y17125D01*
G01X18185Y17072D01*
G01X18121Y17079D01*
G01X18096Y17082D01*
G01X18086Y17059D01*
G01X18059Y16999D01*
G01X18033Y17059D01*
G01X18023Y17082D01*
G01X17998Y17079D01*
G01X17933Y17072D01*
G01X17891D01*
G01X17860Y17030D01*
G01X18002Y17045D01*
G01X18059Y16915D01*
G01X18117Y17045D01*
G01X18259Y17030D01*
G01X18175Y17145D01*
G01X18259Y17260D01*
G01X18117Y17245D01*
G37*
G36*
G01X12776Y13362D02*
G01X12719Y13231D01*
G01X12577Y13247D01*
G01X12661Y13132D01*
G01X12608Y13059D01*
G01X12650D01*
G01X12689Y13111D01*
G01X12704Y13132D01*
G01X12689Y13152D01*
G01X12650Y13204D01*
G01X12715Y13198D01*
G01X12740Y13195D01*
G01X12750Y13218D01*
G01X12776Y13278D01*
G01X12803Y13218D01*
G01X12813Y13195D01*
G01X12838Y13197D01*
G01X12902Y13204D01*
G01X12864Y13152D01*
G01X12849Y13132D01*
G01X12864Y13111D01*
G01X12902Y13059D01*
G01X12838Y13066D01*
G01X12813Y13069D01*
G01X12803Y13046D01*
G01X12776Y12986D01*
G01X12750Y13046D01*
G01X12740Y13069D01*
G01X12715Y13066D01*
G01X12650Y13059D01*
G01X12608D01*
G01X12577Y13016D01*
G01X12719Y13032D01*
G01X12776Y12902D01*
G01X12834Y13032D01*
G01X12975Y13016D01*
G01X12892Y13132D01*
G01X12975Y13247D01*
G01X12834Y13231D01*
G37*
G36*
G01X21768Y7827D02*
G01X21710Y7697D01*
G01X21569Y7712D01*
G01X21652Y7597D01*
G01X21599Y7524D01*
G01X21642D01*
G01X21680Y7577D01*
G01X21695Y7597D01*
G01X21680Y7617D01*
G01X21642Y7670D01*
G01X21706Y7663D01*
G01X21731Y7660D01*
G01X21741Y7683D01*
G01X21768Y7743D01*
G01X21794Y7683D01*
G01X21804Y7660D01*
G01X21829Y7663D01*
G01X21894Y7670D01*
G01X21855Y7617D01*
G01X21840Y7597D01*
G01X21855Y7577D01*
G01X21894Y7524D01*
G01X21829Y7531D01*
G01X21804Y7534D01*
G01X21794Y7511D01*
G01X21768Y7451D01*
G01X21741Y7511D01*
G01X21731Y7534D01*
G01X21706Y7531D01*
G01X21642Y7524D01*
G01X21599D01*
G01X21569Y7482D01*
G01X21710Y7498D01*
G01X21768Y7367D01*
G01X21825Y7498D01*
G01X21967Y7482D01*
G01X21883Y7597D01*
G01X21967Y7712D01*
G01X21825Y7697D01*
G37*
G36*
G01X6934Y15902D02*
G01X6877Y15771D01*
G01X6735Y15787D01*
G01X6819Y15672D01*
G01X6766Y15599D01*
G01X6808D01*
G01X6847Y15651D01*
G01X6862Y15672D01*
G01X6847Y15692D01*
G01X6808Y15744D01*
G01X6873Y15738D01*
G01X6898Y15735D01*
G01X6908Y15758D01*
G01X6934Y15818D01*
G01X6961Y15758D01*
G01X6971Y15735D01*
G01X6996Y15737D01*
G01X7060Y15744D01*
G01X7022Y15692D01*
G01X7007Y15672D01*
G01X7022Y15651D01*
G01X7060Y15599D01*
G01X6996Y15606D01*
G01X6971Y15609D01*
G01X6961Y15586D01*
G01X6934Y15526D01*
G01X6908Y15586D01*
G01X6898Y15609D01*
G01X6873Y15606D01*
G01X6808Y15599D01*
G01X6766D01*
G01X6735Y15556D01*
G01X6877Y15572D01*
G01X6934Y15442D01*
G01X6992Y15572D01*
G01X7134Y15556D01*
G01X7050Y15672D01*
G01X7134Y15787D01*
G01X6992Y15771D01*
G37*
G36*
G01X7518Y15445D02*
G01X7461Y15314D01*
G01X7319Y15330D01*
G01X7403Y15215D01*
G01X7350Y15142D01*
G01X7392D01*
G01X7431Y15194D01*
G01X7446Y15215D01*
G01X7431Y15235D01*
G01X7392Y15287D01*
G01X7457Y15281D01*
G01X7482Y15278D01*
G01X7492Y15300D01*
G01X7518Y15360D01*
G01X7545Y15300D01*
G01X7555Y15278D01*
G01X7580Y15280D01*
G01X7644Y15287D01*
G01X7606Y15235D01*
G01X7591Y15215D01*
G01X7606Y15194D01*
G01X7644Y15142D01*
G01X7580Y15149D01*
G01X7555Y15152D01*
G01X7545Y15129D01*
G01X7518Y15069D01*
G01X7492Y15129D01*
G01X7482Y15152D01*
G01X7457Y15149D01*
G01X7392Y15142D01*
G01X7350D01*
G01X7319Y15099D01*
G01X7461Y15115D01*
G01X7518Y14984D01*
G01X7576Y15115D01*
G01X7718Y15099D01*
G01X7634Y15215D01*
G01X7718Y15330D01*
G01X7576Y15314D01*
G37*
G36*
G01X12929Y7317D02*
G01X12871Y7186D01*
G01X12729Y7202D01*
G01X12813Y7087D01*
G01X12760Y7014D01*
G01X12803D01*
G01X12841Y7066D01*
G01X12856Y7087D01*
G01X12841Y7107D01*
G01X12803Y7159D01*
G01X12867Y7153D01*
G01X12892Y7150D01*
G01X12902Y7172D01*
G01X12929Y7232D01*
G01X12955Y7172D01*
G01X12965Y7150D01*
G01X12990Y7152D01*
G01X13055Y7159D01*
G01X13016Y7107D01*
G01X13001Y7087D01*
G01X13016Y7066D01*
G01X13055Y7014D01*
G01X12990Y7021D01*
G01X12965Y7024D01*
G01X12955Y7001D01*
G01X12929Y6941D01*
G01X12902Y7001D01*
G01X12892Y7024D01*
G01X12867Y7021D01*
G01X12803Y7014D01*
G01X12760D01*
G01X12729Y6971D01*
G01X12871Y6987D01*
G01X12929Y6856D01*
G01X12986Y6987D01*
G01X13128Y6971D01*
G01X13044Y7087D01*
G01X13128Y7202D01*
G01X12986Y7186D01*
G37*
G36*
G01X12878Y6682D02*
G01X12820Y6551D01*
G01X12679Y6567D01*
G01X12762Y6452D01*
G01X12710Y6379D01*
G01X12752D01*
G01X12790Y6431D01*
G01X12805Y6452D01*
G01X12790Y6472D01*
G01X12752Y6524D01*
G01X12816Y6518D01*
G01X12841Y6515D01*
G01X12851Y6537D01*
G01X12878Y6597D01*
G01X12904Y6537D01*
G01X12914Y6515D01*
G01X12939Y6517D01*
G01X13004Y6524D01*
G01X12965Y6472D01*
G01X12950Y6452D01*
G01X12965Y6431D01*
G01X13004Y6379D01*
G01X12939Y6386D01*
G01X12914Y6389D01*
G01X12904Y6366D01*
G01X12878Y6306D01*
G01X12851Y6366D01*
G01X12841Y6389D01*
G01X12816Y6386D01*
G01X12752Y6379D01*
G01X12710D01*
G01X12679Y6336D01*
G01X12820Y6352D01*
G01X12878Y6221D01*
G01X12935Y6352D01*
G01X13077Y6336D01*
G01X12993Y6452D01*
G01X13077Y6567D01*
G01X12935Y6551D01*
G37*
G36*
G01X12116Y4345D02*
G01X12058Y4214D01*
G01X11917Y4230D01*
G01X12000Y4115D01*
G01X11948Y4042D01*
G01X11990D01*
G01X12028Y4094D01*
G01X12043Y4115D01*
G01X12028Y4135D01*
G01X11990Y4187D01*
G01X12054Y4181D01*
G01X12079Y4178D01*
G01X12089Y4201D01*
G01X12116Y4261D01*
G01X12142Y4201D01*
G01X12152Y4178D01*
G01X12177Y4180D01*
G01X12242Y4187D01*
G01X12203Y4135D01*
G01X12188Y4115D01*
G01X12203Y4094D01*
G01X12242Y4042D01*
G01X12177Y4049D01*
G01X12152Y4052D01*
G01X12142Y4029D01*
G01X12116Y3969D01*
G01X12089Y4029D01*
G01X12079Y4052D01*
G01X12054Y4049D01*
G01X11990Y4042D01*
G01X11948D01*
G01X11917Y3999D01*
G01X12058Y4015D01*
G01X12116Y3885D01*
G01X12173Y4015D01*
G01X12315Y3999D01*
G01X12231Y4115D01*
G01X12315Y4230D01*
G01X12173Y4214D01*
G37*
G36*
G01X15697Y4523D02*
G01X15640Y4392D01*
G01X15498Y4408D01*
G01X15582Y4293D01*
G01X15529Y4220D01*
G01X15571D01*
G01X15610Y4272D01*
G01X15625Y4293D01*
G01X15610Y4313D01*
G01X15571Y4365D01*
G01X15636Y4359D01*
G01X15661Y4356D01*
G01X15671Y4378D01*
G01X15697Y4438D01*
G01X15724Y4378D01*
G01X15734Y4356D01*
G01X15759Y4358D01*
G01X15823Y4365D01*
G01X15785Y4313D01*
G01X15770Y4293D01*
G01X15785Y4272D01*
G01X15823Y4220D01*
G01X15759Y4227D01*
G01X15734Y4230D01*
G01X15724Y4207D01*
G01X15697Y4147D01*
G01X15671Y4207D01*
G01X15661Y4230D01*
G01X15636Y4227D01*
G01X15571Y4220D01*
G01X15529D01*
G01X15498Y4177D01*
G01X15640Y4193D01*
G01X15697Y4062D01*
G01X15755Y4193D01*
G01X15896Y4177D01*
G01X15813Y4293D01*
G01X15896Y4408D01*
G01X15755Y4392D01*
G37*
G36*
G01X16205Y4218D02*
G01X16148Y4087D01*
G01X16006Y4103D01*
G01X16090Y3988D01*
G01X16037Y3915D01*
G01X16079D01*
G01X16118Y3967D01*
G01X16133Y3988D01*
G01X16118Y4008D01*
G01X16079Y4060D01*
G01X16144Y4054D01*
G01X16169Y4051D01*
G01X16179Y4074D01*
G01X16205Y4134D01*
G01X16232Y4074D01*
G01X16242Y4051D01*
G01X16267Y4053D01*
G01X16331Y4060D01*
G01X16293Y4008D01*
G01X16278Y3988D01*
G01X16293Y3967D01*
G01X16331Y3915D01*
G01X16267Y3922D01*
G01X16242Y3925D01*
G01X16232Y3902D01*
G01X16205Y3842D01*
G01X16179Y3902D01*
G01X16169Y3925D01*
G01X16144Y3922D01*
G01X16079Y3915D01*
G01X16037D01*
G01X16006Y3872D01*
G01X16148Y3888D01*
G01X16205Y3758D01*
G01X16263Y3888D01*
G01X16404Y3872D01*
G01X16321Y3988D01*
G01X16404Y4103D01*
G01X16263Y4087D01*
G37*
G36*
G01X18644Y6580D02*
G01X18586Y6450D01*
G01X18444Y6465D01*
G01X18528Y6350D01*
G01X18475Y6277D01*
G01X18518D01*
G01X18556Y6330D01*
G01X18571Y6350D01*
G01X18556Y6370D01*
G01X18518Y6423D01*
G01X18582Y6416D01*
G01X18607Y6413D01*
G01X18617Y6436D01*
G01X18644Y6496D01*
G01X18670Y6436D01*
G01X18680Y6413D01*
G01X18705Y6416D01*
G01X18770Y6423D01*
G01X18731Y6370D01*
G01X18716Y6350D01*
G01X18731Y6330D01*
G01X18770Y6277D01*
G01X18705Y6284D01*
G01X18680Y6287D01*
G01X18670Y6264D01*
G01X18644Y6204D01*
G01X18617Y6264D01*
G01X18607Y6287D01*
G01X18582Y6284D01*
G01X18518Y6277D01*
G01X18475D01*
G01X18444Y6235D01*
G01X18586Y6250D01*
G01X18644Y6120D01*
G01X18701Y6250D01*
G01X18843Y6235D01*
G01X18759Y6350D01*
G01X18843Y6465D01*
G01X18701Y6450D01*
G37*
G36*
G01X12014Y3253D02*
G01X11957Y3122D01*
G01X11815Y3138D01*
G01X11899Y3023D01*
G01X11846Y2950D01*
G01X11888D01*
G01X11927Y3002D01*
G01X11942Y3023D01*
G01X11927Y3043D01*
G01X11888Y3095D01*
G01X11953Y3089D01*
G01X11978Y3086D01*
G01X11988Y3108D01*
G01X12014Y3168D01*
G01X12041Y3108D01*
G01X12051Y3086D01*
G01X12076Y3088D01*
G01X12140Y3095D01*
G01X12102Y3043D01*
G01X12087Y3023D01*
G01X12102Y3002D01*
G01X12140Y2950D01*
G01X12076Y2957D01*
G01X12051Y2960D01*
G01X12041Y2937D01*
G01X12014Y2877D01*
G01X11988Y2937D01*
G01X11978Y2960D01*
G01X11953Y2957D01*
G01X11888Y2950D01*
G01X11846D01*
G01X11815Y2907D01*
G01X11957Y2923D01*
G01X12014Y2792D01*
G01X12072Y2923D01*
G01X12213Y2907D01*
G01X12130Y3023D01*
G01X12213Y3138D01*
G01X12072Y3122D01*
G37*
G36*
G01X12268Y3786D02*
G01X12211Y3656D01*
G01X12069Y3671D01*
G01X12153Y3556D01*
G01X12100Y3483D01*
G01X12142D01*
G01X12181Y3536D01*
G01X12196Y3556D01*
G01X12181Y3576D01*
G01X12142Y3629D01*
G01X12207Y3622D01*
G01X12232Y3619D01*
G01X12242Y3642D01*
G01X12268Y3702D01*
G01X12295Y3642D01*
G01X12305Y3619D01*
G01X12330Y3622D01*
G01X12394Y3629D01*
G01X12356Y3576D01*
G01X12341Y3556D01*
G01X12356Y3536D01*
G01X12394Y3483D01*
G01X12330Y3490D01*
G01X12305Y3493D01*
G01X12295Y3470D01*
G01X12268Y3410D01*
G01X12242Y3470D01*
G01X12232Y3493D01*
G01X12207Y3490D01*
G01X12142Y3483D01*
G01X12100D01*
G01X12069Y3441D01*
G01X12211Y3456D01*
G01X12268Y3326D01*
G01X12326Y3456D01*
G01X12467Y3441D01*
G01X12384Y3556D01*
G01X12467Y3671D01*
G01X12326Y3656D01*
G37*
G36*
G01X12268Y2719D02*
G01X12211Y2589D01*
G01X12069Y2605D01*
G01X12153Y2489D01*
G01X12100Y2417D01*
G01X12142D01*
G01X12181Y2469D01*
G01X12196Y2489D01*
G01X12181Y2510D01*
G01X12142Y2562D01*
G01X12207Y2555D01*
G01X12232Y2552D01*
G01X12242Y2575D01*
G01X12268Y2635D01*
G01X12295Y2575D01*
G01X12305Y2552D01*
G01X12330Y2555D01*
G01X12394Y2562D01*
G01X12356Y2510D01*
G01X12341Y2489D01*
G01X12356Y2469D01*
G01X12394Y2417D01*
G01X12330Y2423D01*
G01X12305Y2426D01*
G01X12295Y2403D01*
G01X12268Y2343D01*
G01X12242Y2403D01*
G01X12232Y2426D01*
G01X12207Y2423D01*
G01X12142Y2417D01*
G01X12100D01*
G01X12069Y2374D01*
G01X12211Y2390D01*
G01X12268Y2259D01*
G01X12326Y2390D01*
G01X12467Y2374D01*
G01X12384Y2489D01*
G01X12467Y2605D01*
G01X12326Y2589D01*
G37*
G36*
G01X15977Y3024D02*
G01X15919Y2894D01*
G01X15777Y2909D01*
G01X15861Y2794D01*
G01X15808Y2721D01*
G01X15851D01*
G01X15889Y2774D01*
G01X15904Y2794D01*
G01X15889Y2814D01*
G01X15851Y2867D01*
G01X15915Y2860D01*
G01X15940Y2857D01*
G01X15950Y2880D01*
G01X15977Y2940D01*
G01X16003Y2880D01*
G01X16013Y2857D01*
G01X16038Y2860D01*
G01X16103Y2867D01*
G01X16064Y2814D01*
G01X16049Y2794D01*
G01X16064Y2774D01*
G01X16103Y2721D01*
G01X16038Y2728D01*
G01X16013Y2731D01*
G01X16003Y2708D01*
G01X15977Y2648D01*
G01X15950Y2708D01*
G01X15940Y2731D01*
G01X15915Y2728D01*
G01X15851Y2721D01*
G01X15808D01*
G01X15777Y2679D01*
G01X15919Y2694D01*
G01X15977Y2564D01*
G01X16034Y2694D01*
G01X16176Y2679D01*
G01X16092Y2794D01*
G01X16176Y2909D01*
G01X16034Y2894D01*
G37*
G36*
G01X18618Y4320D02*
G01X18561Y4189D01*
G01X18419Y4205D01*
G01X18503Y4089D01*
G01X18450Y4017D01*
G01X18492D01*
G01X18531Y4069D01*
G01X18546Y4089D01*
G01X18531Y4110D01*
G01X18492Y4162D01*
G01X18557Y4155D01*
G01X18582Y4152D01*
G01X18592Y4175D01*
G01X18618Y4235D01*
G01X18645Y4175D01*
G01X18655Y4152D01*
G01X18680Y4155D01*
G01X18744Y4162D01*
G01X18706Y4110D01*
G01X18691Y4089D01*
G01X18706Y4069D01*
G01X18744Y4017D01*
G01X18680Y4023D01*
G01X18655Y4026D01*
G01X18645Y4004D01*
G01X18618Y3944D01*
G01X18592Y4004D01*
G01X18582Y4026D01*
G01X18557Y4023D01*
G01X18492Y4017D01*
G01X18450D01*
G01X18419Y3974D01*
G01X18561Y3990D01*
G01X18618Y3859D01*
G01X18676Y3990D01*
G01X18818Y3974D01*
G01X18734Y4089D01*
G01X18818Y4205D01*
G01X18676Y4189D01*
G37*
G36*
G01X12776Y11762D02*
G01X12719Y11631D01*
G01X12577Y11647D01*
G01X12661Y11532D01*
G01X12608Y11459D01*
G01X12650D01*
G01X12689Y11511D01*
G01X12704Y11532D01*
G01X12689Y11552D01*
G01X12650Y11604D01*
G01X12715Y11598D01*
G01X12740Y11595D01*
G01X12750Y11617D01*
G01X12776Y11677D01*
G01X12803Y11617D01*
G01X12813Y11595D01*
G01X12838Y11597D01*
G01X12902Y11604D01*
G01X12864Y11552D01*
G01X12849Y11532D01*
G01X12864Y11511D01*
G01X12902Y11459D01*
G01X12838Y11466D01*
G01X12813Y11469D01*
G01X12803Y11446D01*
G01X12776Y11386D01*
G01X12750Y11446D01*
G01X12740Y11469D01*
G01X12715Y11466D01*
G01X12650Y11459D01*
G01X12608D01*
G01X12577Y11416D01*
G01X12719Y11432D01*
G01X12776Y11301D01*
G01X12834Y11432D01*
G01X12975Y11416D01*
G01X12892Y11532D01*
G01X12975Y11647D01*
G01X12834Y11631D01*
G37*
G36*
G01X12725Y11178D02*
G01X12668Y11047D01*
G01X12526Y11063D01*
G01X12610Y10947D01*
G01X12557Y10875D01*
G01X12599D01*
G01X12638Y10927D01*
G01X12653Y10947D01*
G01X12638Y10968D01*
G01X12599Y11020D01*
G01X12664Y11013D01*
G01X12689Y11010D01*
G01X12699Y11033D01*
G01X12725Y11093D01*
G01X12752Y11033D01*
G01X12762Y11010D01*
G01X12787Y11013D01*
G01X12851Y11020D01*
G01X12813Y10968D01*
G01X12798Y10947D01*
G01X12813Y10927D01*
G01X12851Y10875D01*
G01X12787Y10881D01*
G01X12762Y10884D01*
G01X12752Y10862D01*
G01X12725Y10802D01*
G01X12699Y10862D01*
G01X12689Y10884D01*
G01X12664Y10881D01*
G01X12599Y10875D01*
G01X12557D01*
G01X12526Y10832D01*
G01X12668Y10848D01*
G01X12725Y10717D01*
G01X12783Y10848D01*
G01X12925Y10832D01*
G01X12841Y10947D01*
G01X12925Y11063D01*
G01X12783Y11047D01*
G37*
G36*
G01X12776Y9476D02*
G01X12719Y9345D01*
G01X12577Y9361D01*
G01X12661Y9246D01*
G01X12608Y9173D01*
G01X12650D01*
G01X12689Y9225D01*
G01X12704Y9246D01*
G01X12689Y9266D01*
G01X12650Y9318D01*
G01X12715Y9312D01*
G01X12740Y9309D01*
G01X12750Y9331D01*
G01X12776Y9391D01*
G01X12803Y9331D01*
G01X12813Y9309D01*
G01X12838Y9311D01*
G01X12902Y9318D01*
G01X12864Y9266D01*
G01X12849Y9246D01*
G01X12864Y9225D01*
G01X12902Y9173D01*
G01X12838Y9180D01*
G01X12813Y9183D01*
G01X12803Y9160D01*
G01X12776Y9100D01*
G01X12750Y9160D01*
G01X12740Y9183D01*
G01X12715Y9180D01*
G01X12650Y9173D01*
G01X12608D01*
G01X12577Y9130D01*
G01X12719Y9146D01*
G01X12776Y9015D01*
G01X12834Y9146D01*
G01X12975Y9130D01*
G01X12892Y9246D01*
G01X12975Y9361D01*
G01X12834Y9345D01*
G37*
G36*
G01X12979Y14429D02*
G01X12922Y14298D01*
G01X12780Y14314D01*
G01X12864Y14199D01*
G01X12811Y14126D01*
G01X12853D01*
G01X12892Y14178D01*
G01X12907Y14199D01*
G01X12892Y14219D01*
G01X12853Y14271D01*
G01X12918Y14265D01*
G01X12943Y14262D01*
G01X12953Y14284D01*
G01X12979Y14344D01*
G01X13006Y14284D01*
G01X13016Y14262D01*
G01X13041Y14264D01*
G01X13105Y14271D01*
G01X13067Y14219D01*
G01X13052Y14199D01*
G01X13067Y14178D01*
G01X13105Y14126D01*
G01X13041Y14133D01*
G01X13016Y14136D01*
G01X13006Y14113D01*
G01X12979Y14053D01*
G01X12953Y14113D01*
G01X12943Y14136D01*
G01X12918Y14133D01*
G01X12853Y14126D01*
G01X12811D01*
G01X12780Y14083D01*
G01X12922Y14099D01*
G01X12979Y13968D01*
G01X13037Y14099D01*
G01X13179Y14083D01*
G01X13095Y14199D01*
G01X13179Y14314D01*
G01X13037Y14298D01*
G37*
G36*
G01X8357Y8028D02*
G01X8299Y7897D01*
G01X8157Y7913D01*
G01X8241Y7798D01*
G01X8188Y7725D01*
G01X8231D01*
G01X8269Y7777D01*
G01X8284Y7798D01*
G01X8269Y7818D01*
G01X8231Y7870D01*
G01X8295Y7864D01*
G01X8320Y7861D01*
G01X8330Y7884D01*
G01X8357Y7944D01*
G01X8383Y7884D01*
G01X8393Y7861D01*
G01X8418Y7863D01*
G01X8483Y7870D01*
G01X8444Y7818D01*
G01X8429Y7798D01*
G01X8444Y7777D01*
G01X8483Y7725D01*
G01X8418Y7732D01*
G01X8393Y7735D01*
G01X8383Y7712D01*
G01X8357Y7652D01*
G01X8330Y7712D01*
G01X8320Y7735D01*
G01X8295Y7732D01*
G01X8231Y7725D01*
G01X8188D01*
G01X8157Y7682D01*
G01X8299Y7698D01*
G01X8357Y7568D01*
G01X8414Y7698D01*
G01X8556Y7682D01*
G01X8472Y7798D01*
G01X8556Y7913D01*
G01X8414Y7897D01*
G37*
G36*
G01X3480Y10162D02*
G01X3422Y10031D01*
G01X3281Y10047D01*
G01X3364Y9931D01*
G01X3312Y9859D01*
G01X3354D01*
G01X3392Y9911D01*
G01X3407Y9931D01*
G01X3392Y9952D01*
G01X3354Y10004D01*
G01X3418Y9997D01*
G01X3443Y9994D01*
G01X3453Y10017D01*
G01X3480Y10077D01*
G01X3506Y10017D01*
G01X3516Y9994D01*
G01X3541Y9997D01*
G01X3606Y10004D01*
G01X3567Y9952D01*
G01X3552Y9931D01*
G01X3567Y9911D01*
G01X3606Y9859D01*
G01X3541Y9865D01*
G01X3516Y9868D01*
G01X3506Y9846D01*
G01X3480Y9786D01*
G01X3453Y9846D01*
G01X3443Y9868D01*
G01X3418Y9865D01*
G01X3354Y9859D01*
G01X3312D01*
G01X3281Y9816D01*
G01X3422Y9832D01*
G01X3480Y9701D01*
G01X3537Y9832D01*
G01X3679Y9816D01*
G01X3595Y9931D01*
G01X3679Y10047D01*
G01X3537Y10031D01*
G37*
G36*
G01X3480Y9552D02*
G01X3422Y9421D01*
G01X3281Y9437D01*
G01X3364Y9322D01*
G01X3312Y9249D01*
G01X3354D01*
G01X3392Y9301D01*
G01X3407Y9322D01*
G01X3392Y9342D01*
G01X3354Y9394D01*
G01X3418Y9388D01*
G01X3443Y9385D01*
G01X3453Y9408D01*
G01X3480Y9468D01*
G01X3506Y9408D01*
G01X3516Y9385D01*
G01X3541Y9387D01*
G01X3606Y9394D01*
G01X3567Y9342D01*
G01X3552Y9322D01*
G01X3567Y9301D01*
G01X3606Y9249D01*
G01X3541Y9256D01*
G01X3516Y9259D01*
G01X3506Y9236D01*
G01X3480Y9176D01*
G01X3453Y9236D01*
G01X3443Y9259D01*
G01X3418Y9256D01*
G01X3354Y9249D01*
G01X3312D01*
G01X3281Y9206D01*
G01X3422Y9222D01*
G01X3480Y9092D01*
G01X3537Y9222D01*
G01X3679Y9206D01*
G01X3595Y9322D01*
G01X3679Y9437D01*
G01X3537Y9421D01*
G37*
G36*
G01X10592Y1983D02*
G01X10534Y1852D01*
G01X10393Y1868D01*
G01X10476Y1753D01*
G01X10424Y1680D01*
G01X10466D01*
G01X10504Y1732D01*
G01X10519Y1753D01*
G01X10504Y1773D01*
G01X10466Y1825D01*
G01X10530Y1819D01*
G01X10555Y1816D01*
G01X10565Y1838D01*
G01X10592Y1898D01*
G01X10618Y1838D01*
G01X10628Y1816D01*
G01X10653Y1818D01*
G01X10718Y1825D01*
G01X10679Y1773D01*
G01X10664Y1753D01*
G01X10679Y1732D01*
G01X10718Y1680D01*
G01X10653Y1687D01*
G01X10628Y1690D01*
G01X10618Y1667D01*
G01X10592Y1607D01*
G01X10565Y1667D01*
G01X10555Y1690D01*
G01X10530Y1687D01*
G01X10466Y1680D01*
G01X10424D01*
G01X10393Y1637D01*
G01X10534Y1653D01*
G01X10592Y1522D01*
G01X10649Y1653D01*
G01X10791Y1637D01*
G01X10707Y1753D01*
G01X10791Y1868D01*
G01X10649Y1852D01*
G37*
G36*
G01X26674Y5381D02*
G01X26705Y5313D01*
G01X26742D01*
G01X26859Y5259D01*
G01X26873Y5253D01*
G01X26887Y5259D01*
G01X27005Y5313D01*
G01X26951Y5195D01*
G01X26944Y5182D01*
G01X26951Y5168D01*
G01X27005Y5050D01*
G01X26887Y5104D01*
G01X26873Y5110D01*
G01X26859Y5104D01*
G01X26742Y5050D01*
G01X26795Y5168D01*
G01X26802Y5182D01*
G01X26795Y5195D01*
G01X26742Y5313D01*
G01X26705D01*
G01X26766Y5182D01*
G01X26674Y4982D01*
G01X26873Y5074D01*
G01X27073Y4982D01*
G01X26981Y5182D01*
G01X27073Y5381D01*
G01X26873Y5289D01*
G37*
G36*
G01X25810Y5508D02*
G01X25841Y5440D01*
G01X25878D01*
G01X25996Y5386D01*
G01X26010Y5380D01*
G01X26023Y5386D01*
G01X26141Y5440D01*
G01X26087Y5322D01*
G01X26081Y5309D01*
G01X26087Y5295D01*
G01X26141Y5177D01*
G01X26023Y5231D01*
G01X26010Y5237D01*
G01X25996Y5231D01*
G01X25878Y5177D01*
G01X25932Y5295D01*
G01X25938Y5309D01*
G01X25932Y5322D01*
G01X25878Y5440D01*
G01X25841D01*
G01X25902Y5309D01*
G01X25810Y5109D01*
G01X26010Y5201D01*
G01X26209Y5109D01*
G01X26117Y5309D01*
G01X26209Y5508D01*
G01X26010Y5416D01*
G37*
G36*
G01X29801Y4196D02*
G01X29832Y4128D01*
G01X29868D01*
G01X29986Y4074D01*
G01X30000Y4067D01*
G01X30014Y4074D01*
G01X30132Y4128D01*
G01X30078Y4010D01*
G01X30071Y3996D01*
G01X30078Y3982D01*
G01X30132Y3864D01*
G01X30014Y3919D01*
G01X30000Y3925D01*
G01X29986Y3919D01*
G01X29868Y3864D01*
G01X29922Y3982D01*
G01X29929Y3996D01*
G01X29922Y4010D01*
G01X29868Y4128D01*
G01X29832D01*
G01X29892Y3996D01*
G01X29801Y3797D01*
G01X30000Y3888D01*
G01X30200Y3797D01*
G01X30108Y3996D01*
G01X30200Y4196D01*
G01X30000Y4104D01*
G37*
G36*
G01X27715Y4924D02*
G01X27746Y4856D01*
G01X27783D01*
G01X27901Y4802D01*
G01X27915Y4796D01*
G01X27928Y4802D01*
G01X28046Y4856D01*
G01X27992Y4738D01*
G01X27986Y4724D01*
G01X27992Y4711D01*
G01X28046Y4593D01*
G01X27928Y4647D01*
G01X27915Y4653D01*
G01X27901Y4647D01*
G01X27783Y4593D01*
G01X27837Y4711D01*
G01X27843Y4724D01*
G01X27837Y4738D01*
G01X27783Y4856D01*
G01X27746D01*
G01X27807Y4724D01*
G01X27715Y4525D01*
G01X27915Y4617D01*
G01X28114Y4525D01*
G01X28022Y4724D01*
G01X28114Y4924D01*
G01X27915Y4832D01*
G37*
G36*
G01X24947Y3476D02*
G01X24978Y3408D01*
G01X25014D01*
G01X25132Y3354D01*
G01X25146Y3348D01*
G01X25160Y3354D01*
G01X25278Y3408D01*
G01X25224Y3290D01*
G01X25217Y3277D01*
G01X25224Y3263D01*
G01X25278Y3145D01*
G01X25160Y3199D01*
G01X25146Y3205D01*
G01X25132Y3199D01*
G01X25014Y3145D01*
G01X25068Y3263D01*
G01X25075Y3277D01*
G01X25068Y3290D01*
G01X25014Y3408D01*
G01X24978D01*
G01X25038Y3277D01*
G01X24947Y3077D01*
G01X25146Y3169D01*
G01X25346Y3077D01*
G01X25254Y3277D01*
G01X25346Y3476D01*
G01X25146Y3384D01*
G37*
G36*
G01X24794Y2867D02*
G01X24825Y2799D01*
G01X24862D01*
G01X24980Y2745D01*
G01X24994Y2738D01*
G01X25007Y2745D01*
G01X25125Y2799D01*
G01X25071Y2681D01*
G01X25065Y2667D01*
G01X25071Y2653D01*
G01X25125Y2535D01*
G01X25007Y2589D01*
G01X24994Y2596D01*
G01X24980Y2589D01*
G01X24862Y2535D01*
G01X24916Y2653D01*
G01X24922Y2667D01*
G01X24916Y2681D01*
G01X24862Y2799D01*
G01X24825D01*
G01X24886Y2667D01*
G01X24794Y2468D01*
G01X24994Y2559D01*
G01X25193Y2468D01*
G01X25101Y2667D01*
G01X25193Y2867D01*
G01X24994Y2775D01*
G37*
G36*
G01X24794Y2232D02*
G01X24825Y2164D01*
G01X24862D01*
G01X24980Y2110D01*
G01X24994Y2103D01*
G01X25007Y2110D01*
G01X25125Y2164D01*
G01X25071Y2046D01*
G01X25065Y2032D01*
G01X25071Y2018D01*
G01X25125Y1900D01*
G01X25007Y1954D01*
G01X24994Y1961D01*
G01X24980Y1954D01*
G01X24862Y1900D01*
G01X24916Y2018D01*
G01X24922Y2032D01*
G01X24916Y2046D01*
G01X24862Y2164D01*
G01X24825D01*
G01X24886Y2032D01*
G01X24794Y1833D01*
G01X24994Y1924D01*
G01X25193Y1833D01*
G01X25101Y2032D01*
G01X25193Y2232D01*
G01X24994Y2140D01*
G37*
G36*
G01X24058Y3857D02*
G01X24089Y3789D01*
G01X24125D01*
G01X24243Y3735D01*
G01X24257Y3729D01*
G01X24271Y3735D01*
G01X24389Y3789D01*
G01X24335Y3671D01*
G01X24328Y3658D01*
G01X24335Y3644D01*
G01X24389Y3526D01*
G01X24271Y3580D01*
G01X24257Y3586D01*
G01X24243Y3580D01*
G01X24125Y3526D01*
G01X24179Y3644D01*
G01X24186Y3658D01*
G01X24179Y3671D01*
G01X24125Y3789D01*
G01X24089D01*
G01X24149Y3658D01*
G01X24058Y3458D01*
G01X24257Y3550D01*
G01X24457Y3458D01*
G01X24365Y3658D01*
G01X24457Y3857D01*
G01X24257Y3765D01*
G37*
G36*
G01X22839Y16583D02*
G01X22870Y16515D01*
G01X22906D01*
G01X23024Y16461D01*
G01X23038Y16454D01*
G01X23052Y16461D01*
G01X23169Y16515D01*
G01X23116Y16397D01*
G01X23109Y16383D01*
G01X23116Y16369D01*
G01X23169Y16251D01*
G01X23052Y16305D01*
G01X23038Y16312D01*
G01X23024Y16305D01*
G01X22906Y16251D01*
G01X22960Y16369D01*
G01X22967Y16383D01*
G01X22960Y16397D01*
G01X22906Y16515D01*
G01X22870D01*
G01X22930Y16383D01*
G01X22839Y16184D01*
G01X23038Y16275D01*
G01X23237Y16184D01*
G01X23145Y16383D01*
G01X23237Y16583D01*
G01X23038Y16491D01*
G37*
G36*
G01X9986Y4187D02*
G01X10017Y4119D01*
G01X10054D01*
G01X10172Y4066D01*
G01X10185Y4059D01*
G01X10199Y4066D01*
G01X10317Y4119D01*
G01X10263Y4002D01*
G01X10257Y3988D01*
G01X10263Y3974D01*
G01X10317Y3856D01*
G01X10199Y3910D01*
G01X10185Y3917D01*
G01X10172Y3910D01*
G01X10054Y3856D01*
G01X10108Y3974D01*
G01X10114Y3988D01*
G01X10108Y4002D01*
G01X10054Y4119D01*
G01X10017D01*
G01X10078Y3988D01*
G01X9986Y3789D01*
G01X10185Y3880D01*
G01X10385Y3789D01*
G01X10293Y3988D01*
G01X10385Y4187D01*
G01X10185Y4095D01*
G37*
G36*
G01X17886Y3933D02*
G01X17917Y3865D01*
G01X17953D01*
G01X18071Y3812D01*
G01X18085Y3805D01*
G01X18099Y3812D01*
G01X18216Y3865D01*
G01X18163Y3748D01*
G01X18156Y3734D01*
G01X18163Y3720D01*
G01X18216Y3602D01*
G01X18099Y3656D01*
G01X18085Y3663D01*
G01X18071Y3656D01*
G01X17953Y3602D01*
G01X18007Y3720D01*
G01X18014Y3734D01*
G01X18007Y3748D01*
G01X17953Y3865D01*
G01X17917D01*
G01X17977Y3734D01*
G01X17886Y3535D01*
G01X18085Y3626D01*
G01X18284Y3535D01*
G01X18192Y3734D01*
G01X18284Y3933D01*
G01X18085Y3841D01*
G37*
G36*
G01X12563Y10371D02*
G01X12594Y10303D01*
G01X12631D01*
G01X12749Y10249D01*
G01X12762Y10243D01*
G01X12776Y10249D01*
G01X12894Y10303D01*
G01X12840Y10185D01*
G01X12834Y10172D01*
G01X12840Y10158D01*
G01X12894Y10040D01*
G01X12776Y10094D01*
G01X12762Y10101D01*
G01X12749Y10094D01*
G01X12631Y10040D01*
G01X12685Y10158D01*
G01X12691Y10172D01*
G01X12685Y10185D01*
G01X12631Y10303D01*
G01X12594D01*
G01X12655Y10172D01*
G01X12563Y9973D01*
G01X12762Y10064D01*
G01X12962Y9973D01*
G01X12870Y10172D01*
G01X12962Y10371D01*
G01X12762Y10279D01*
G37*
G36*
G01X4271Y6778D02*
G01X4302Y6710D01*
G01X4339D01*
G01X4457Y6656D01*
G01X4470Y6650D01*
G01X4484Y6656D01*
G01X4602Y6710D01*
G01X4548Y6592D01*
G01X4542Y6579D01*
G01X4548Y6565D01*
G01X4602Y6447D01*
G01X4484Y6501D01*
G01X4470Y6507D01*
G01X4457Y6501D01*
G01X4339Y6447D01*
G01X4393Y6565D01*
G01X4399Y6579D01*
G01X4393Y6592D01*
G01X4339Y6710D01*
G01X4302D01*
G01X4363Y6579D01*
G01X4271Y6379D01*
G01X4470Y6471D01*
G01X4670Y6379D01*
G01X4578Y6579D01*
G01X4670Y6778D01*
G01X4470Y6686D01*
G37*
G36*
G01X3738Y6778D02*
G01X3769Y6710D01*
G01X3805D01*
G01X3923Y6656D01*
G01X3937Y6650D01*
G01X3951Y6656D01*
G01X4069Y6710D01*
G01X4015Y6592D01*
G01X4008Y6579D01*
G01X4015Y6565D01*
G01X4069Y6447D01*
G01X3951Y6501D01*
G01X3937Y6507D01*
G01X3923Y6501D01*
G01X3805Y6447D01*
G01X3859Y6565D01*
G01X3866Y6579D01*
G01X3859Y6592D01*
G01X3805Y6710D01*
G01X3769D01*
G01X3829Y6579D01*
G01X3738Y6379D01*
G01X3937Y6471D01*
G01X4137Y6379D01*
G01X4045Y6579D01*
G01X4137Y6778D01*
G01X3937Y6686D01*
G37*
G36*
G01X3509Y13636D02*
G01X3540Y13568D01*
G01X3577D01*
G01X3695Y13514D01*
G01X3708Y13508D01*
G01X3722Y13514D01*
G01X3840Y13568D01*
G01X3786Y13450D01*
G01X3780Y13437D01*
G01X3786Y13423D01*
G01X3840Y13305D01*
G01X3722Y13359D01*
G01X3708Y13365D01*
G01X3695Y13359D01*
G01X3577Y13305D01*
G01X3631Y13423D01*
G01X3637Y13437D01*
G01X3631Y13450D01*
G01X3577Y13568D01*
G01X3540D01*
G01X3601Y13437D01*
G01X3509Y13237D01*
G01X3708Y13329D01*
G01X3908Y13237D01*
G01X3816Y13437D01*
G01X3908Y13636D01*
G01X3708Y13544D01*
G37*
G36*
G01X2925Y7540D02*
G01X2956Y7472D01*
G01X2993D01*
G01X3110Y7418D01*
G01X3124Y7412D01*
G01X3138Y7418D01*
G01X3256Y7472D01*
G01X3202Y7354D01*
G01X3195Y7341D01*
G01X3202Y7327D01*
G01X3256Y7209D01*
G01X3138Y7263D01*
G01X3124Y7269D01*
G01X3110Y7263D01*
G01X2993Y7209D01*
G01X3046Y7327D01*
G01X3053Y7341D01*
G01X3046Y7354D01*
G01X2993Y7472D01*
G01X2956D01*
G01X3017Y7341D01*
G01X2925Y7141D01*
G01X3124Y7233D01*
G01X3324Y7141D01*
G01X3232Y7341D01*
G01X3324Y7540D01*
G01X3124Y7448D01*
G37*
G36*
G01X614Y936D02*
G01X645Y868D01*
G01X681D01*
G01X799Y814D01*
G01X813Y808D01*
G01X827Y814D01*
G01X944Y868D01*
G01X891Y750D01*
G01X884Y737D01*
G01X891Y723D01*
G01X944Y605D01*
G01X827Y659D01*
G01X813Y665D01*
G01X799Y659D01*
G01X681Y605D01*
G01X735Y723D01*
G01X742Y737D01*
G01X735Y750D01*
G01X681Y868D01*
G01X645D01*
G01X705Y737D01*
G01X614Y537D01*
G01X813Y629D01*
G01X1012Y537D01*
G01X920Y737D01*
G01X1012Y936D01*
G01X813Y844D01*
G37*
G36*
G01X3662Y2359D02*
G01X3693Y2291D01*
G01X3729D01*
G01X3847Y2237D01*
G01X3861Y2230D01*
G01X3875Y2237D01*
G01X3992Y2291D01*
G01X3939Y2173D01*
G01X3932Y2159D01*
G01X3939Y2145D01*
G01X3992Y2027D01*
G01X3875Y2081D01*
G01X3861Y2088D01*
G01X3847Y2081D01*
G01X3729Y2027D01*
G01X3783Y2145D01*
G01X3790Y2159D01*
G01X3783Y2173D01*
G01X3729Y2291D01*
G01X3693D01*
G01X3753Y2159D01*
G01X3662Y1960D01*
G01X3861Y2051D01*
G01X4060Y1960D01*
G01X3968Y2159D01*
G01X4060Y2359D01*
G01X3861Y2267D01*
G37*
G36*
G01X7116Y936D02*
G01X7147Y868D01*
G01X7184D01*
G01X7301Y814D01*
G01X7315Y808D01*
G01X7329Y814D01*
G01X7447Y868D01*
G01X7393Y750D01*
G01X7386Y737D01*
G01X7393Y723D01*
G01X7447Y605D01*
G01X7329Y659D01*
G01X7315Y665D01*
G01X7301Y659D01*
G01X7184Y605D01*
G01X7237Y723D01*
G01X7244Y737D01*
G01X7237Y750D01*
G01X7184Y868D01*
G01X7147D01*
G01X7208Y737D01*
G01X7116Y537D01*
G01X7315Y629D01*
G01X7515Y537D01*
G01X7423Y737D01*
G01X7515Y936D01*
G01X7315Y844D01*
G37*
G36*
G01X3001Y18589D02*
G01X3032Y18521D01*
G01X3069D01*
G01X3187Y18467D01*
G01X3200Y18461D01*
G01X3214Y18467D01*
G01X3332Y18521D01*
G01X3278Y18403D01*
G01X3272Y18390D01*
G01X3278Y18376D01*
G01X3332Y18258D01*
G01X3214Y18312D01*
G01X3200Y18318D01*
G01X3187Y18312D01*
G01X3069Y18258D01*
G01X3123Y18376D01*
G01X3129Y18390D01*
G01X3123Y18403D01*
G01X3069Y18521D01*
G01X3032D01*
G01X3093Y18390D01*
G01X3001Y18190D01*
G01X3200Y18282D01*
G01X3400Y18190D01*
G01X3308Y18390D01*
G01X3400Y18589D01*
G01X3200Y18497D01*
G37*
G36*
G01X8545Y18589D02*
G01X8576Y18521D01*
G01X8613D01*
G01X8730Y18467D01*
G01X8745Y18461D01*
G01X8758Y18467D01*
G01X8876Y18521D01*
G01X8822Y18403D01*
G01X8816Y18390D01*
G01X8822Y18376D01*
G01X8876Y18258D01*
G01X8758Y18312D01*
G01X8745Y18318D01*
G01X8730Y18312D01*
G01X8613Y18258D01*
G01X8667Y18376D01*
G01X8673Y18390D01*
G01X8667Y18403D01*
G01X8613Y18521D01*
G01X8576D01*
G01X8637Y18390D01*
G01X8545Y18190D01*
G01X8745Y18282D01*
G01X8944Y18190D01*
G01X8852Y18390D01*
G01X8944Y18589D01*
G01X8745Y18497D01*
G37*
G36*
G01X16997Y17573D02*
G01X17028Y17505D01*
G01X17064D01*
G01X17182Y17451D01*
G01X17196Y17445D01*
G01X17210Y17451D01*
G01X17327Y17505D01*
G01X17274Y17387D01*
G01X17267Y17374D01*
G01X17274Y17360D01*
G01X17327Y17242D01*
G01X17210Y17296D01*
G01X17196Y17302D01*
G01X17182Y17296D01*
G01X17064Y17242D01*
G01X17118Y17360D01*
G01X17125Y17374D01*
G01X17118Y17387D01*
G01X17064Y17505D01*
G01X17028D01*
G01X17088Y17374D01*
G01X16997Y17174D01*
G01X17196Y17266D01*
G01X17395Y17174D01*
G01X17303Y17374D01*
G01X17395Y17573D01*
G01X17196Y17481D01*
G37*
G36*
G01X15777Y835D02*
G01X15808Y767D01*
G01X15845D01*
G01X15963Y713D01*
G01X15977Y706D01*
G01X15990Y713D01*
G01X16108Y767D01*
G01X16054Y649D01*
G01X16048Y635D01*
G01X16054Y621D01*
G01X16108Y503D01*
G01X15990Y557D01*
G01X15977Y564D01*
G01X15963Y557D01*
G01X15845Y503D01*
G01X15899Y621D01*
G01X15905Y635D01*
G01X15899Y649D01*
G01X15845Y767D01*
G01X15808D01*
G01X15869Y635D01*
G01X15777Y436D01*
G01X15977Y527D01*
G01X16176Y436D01*
G01X16084Y635D01*
G01X16176Y835D01*
G01X15977Y743D01*
G37*
G36*
G01X18749Y835D02*
G01X18780Y767D01*
G01X18817D01*
G01X18935Y713D01*
G01X18948Y706D01*
G01X18962Y713D01*
G01X19080Y767D01*
G01X19026Y649D01*
G01X19020Y635D01*
G01X19026Y621D01*
G01X19080Y503D01*
G01X18962Y557D01*
G01X18948Y564D01*
G01X18935Y557D01*
G01X18817Y503D01*
G01X18871Y621D01*
G01X18877Y635D01*
G01X18871Y649D01*
G01X18817Y767D01*
G01X18780D01*
G01X18841Y635D01*
G01X18749Y436D01*
G01X18948Y527D01*
G01X19148Y436D01*
G01X19056Y635D01*
G01X19148Y835D01*
G01X18948Y743D01*
G37*
G36*
G01X23942Y983D02*
G01X23973Y915D01*
G01X24010D01*
G01X24128Y862D01*
G01X24142Y855D01*
G01X24155Y862D01*
G01X24273Y915D01*
G01X24219Y798D01*
G01X24213Y784D01*
G01X24219Y770D01*
G01X24273Y652D01*
G01X24155Y706D01*
G01X24142Y713D01*
G01X24128Y706D01*
G01X24010Y652D01*
G01X24064Y770D01*
G01X24071Y784D01*
G01X24064Y798D01*
G01X24010Y915D01*
G01X23973D01*
G01X24034Y784D01*
G01X23942Y584D01*
G01X24142Y676D01*
G01X24341Y584D01*
G01X24249Y784D01*
G01X24341Y983D01*
G01X24142Y892D01*
G37*
G36*
G01X23931Y4645D02*
G01X23962Y4577D01*
G01X23998D01*
G01X24116Y4523D01*
G01X24130Y4516D01*
G01X24144Y4523D01*
G01X24262Y4577D01*
G01X24208Y4459D01*
G01X24201Y4445D01*
G01X24208Y4431D01*
G01X24262Y4313D01*
G01X24144Y4367D01*
G01X24130Y4374D01*
G01X24116Y4367D01*
G01X23998Y4313D01*
G01X24052Y4431D01*
G01X24059Y4445D01*
G01X24052Y4459D01*
G01X23998Y4577D01*
G01X23962D01*
G01X24022Y4445D01*
G01X23931Y4246D01*
G01X24130Y4337D01*
G01X24330Y4246D01*
G01X24238Y4445D01*
G01X24330Y4645D01*
G01X24130Y4553D01*
G37*
G36*
G01X21899Y3502D02*
G01X21930Y3434D01*
G01X21966D01*
G01X22084Y3380D01*
G01X22098Y3373D01*
G01X22112Y3380D01*
G01X22230Y3434D01*
G01X22176Y3316D01*
G01X22169Y3302D01*
G01X22176Y3288D01*
G01X22230Y3170D01*
G01X22112Y3224D01*
G01X22098Y3231D01*
G01X22084Y3224D01*
G01X21966Y3170D01*
G01X22020Y3288D01*
G01X22027Y3302D01*
G01X22020Y3316D01*
G01X21966Y3434D01*
G01X21930D01*
G01X21990Y3302D01*
G01X21899Y3103D01*
G01X22098Y3194D01*
G01X22298Y3103D01*
G01X22206Y3302D01*
G01X22298Y3502D01*
G01X22098Y3410D01*
G37*
G36*
G01X28579Y911D02*
G01X28610Y843D01*
G01X28647D01*
G01X28764Y789D01*
G01X28778Y782D01*
G01X28792Y789D01*
G01X28910Y843D01*
G01X28856Y725D01*
G01X28849Y711D01*
G01X28856Y697D01*
G01X28910Y580D01*
G01X28792Y633D01*
G01X28778Y640D01*
G01X28764Y633D01*
G01X28647Y580D01*
G01X28700Y697D01*
G01X28707Y711D01*
G01X28700Y725D01*
G01X28647Y843D01*
G01X28610D01*
G01X28671Y711D01*
G01X28579Y512D01*
G01X28778Y604D01*
G01X28978Y512D01*
G01X28886Y711D01*
G01X28978Y911D01*
G01X28778Y819D01*
G37*
G36*
G01X29801Y18455D02*
G01X29832Y18388D01*
G01X29868D01*
G01X29986Y18333D01*
G01X30000Y18327D01*
G01X30014Y18333D01*
G01X30132Y18388D01*
G01X30078Y18270D01*
G01X30071Y18256D01*
G01X30078Y18242D01*
G01X30132Y18124D01*
G01X30014Y18178D01*
G01X30000Y18184D01*
G01X29986Y18178D01*
G01X29868Y18124D01*
G01X29922Y18242D01*
G01X29929Y18256D01*
G01X29922Y18270D01*
G01X29868Y18388D01*
G01X29832D01*
G01X29892Y18256D01*
G01X29801Y18056D01*
G01X30000Y18148D01*
G01X30200Y18056D01*
G01X30108Y18256D01*
G01X30200Y18455D01*
G01X30000Y18364D01*
G37*
G36*
G01X22737Y18742D02*
G01X22768Y18674D01*
G01X22805D01*
G01X22922Y18620D01*
G01X22936Y18613D01*
G01X22950Y18620D01*
G01X23068Y18674D01*
G01X23014Y18556D01*
G01X23007Y18542D01*
G01X23014Y18528D01*
G01X23068Y18410D01*
G01X22950Y18464D01*
G01X22936Y18471D01*
G01X22922Y18464D01*
G01X22805Y18410D01*
G01X22858Y18528D01*
G01X22865Y18542D01*
G01X22858Y18556D01*
G01X22805Y18674D01*
G01X22768D01*
G01X22829Y18542D01*
G01X22737Y18343D01*
G01X22936Y18434D01*
G01X23136Y18343D01*
G01X23044Y18542D01*
G01X23136Y18742D01*
G01X22936Y18650D01*
G37*
G36*
G01X20172Y7870D02*
G01X20203Y7802D01*
G01X20239D01*
G01X20357Y7749D01*
G01X20371Y7742D01*
G01X20385Y7749D01*
G01X20502Y7802D01*
G01X20449Y7685D01*
G01X20442Y7671D01*
G01X20449Y7657D01*
G01X20502Y7539D01*
G01X20385Y7593D01*
G01X20371Y7600D01*
G01X20357Y7593D01*
G01X20239Y7539D01*
G01X20293Y7657D01*
G01X20300Y7671D01*
G01X20293Y7685D01*
G01X20239Y7802D01*
G01X20203D01*
G01X20263Y7671D01*
G01X20172Y7472D01*
G01X20371Y7563D01*
G01X20570Y7472D01*
G01X20478Y7671D01*
G01X20570Y7870D01*
G01X20371Y7778D01*
G37*
G36*
G01X18063Y7870D02*
G01X18094Y7802D01*
G01X18131D01*
G01X18249Y7749D01*
G01X18263Y7742D01*
G01X18276Y7749D01*
G01X18394Y7802D01*
G01X18340Y7685D01*
G01X18334Y7671D01*
G01X18340Y7657D01*
G01X18394Y7539D01*
G01X18276Y7593D01*
G01X18263Y7600D01*
G01X18249Y7593D01*
G01X18131Y7539D01*
G01X18185Y7657D01*
G01X18191Y7671D01*
G01X18185Y7685D01*
G01X18131Y7802D01*
G01X18094D01*
G01X18155Y7671D01*
G01X18063Y7472D01*
G01X18263Y7563D01*
G01X18462Y7472D01*
G01X18370Y7671D01*
G01X18462Y7870D01*
G01X18263Y7778D01*
G37*
G36*
G01X18444Y6550D02*
G01X18475Y6482D01*
G01X18512D01*
G01X18630Y6428D01*
G01X18644Y6421D01*
G01X18657Y6428D01*
G01X18775Y6482D01*
G01X18721Y6364D01*
G01X18715Y6350D01*
G01X18721Y6336D01*
G01X18775Y6218D01*
G01X18657Y6272D01*
G01X18644Y6279D01*
G01X18630Y6272D01*
G01X18512Y6218D01*
G01X18566Y6336D01*
G01X18572Y6350D01*
G01X18566Y6364D01*
G01X18512Y6482D01*
G01X18475D01*
G01X18536Y6350D01*
G01X18444Y6151D01*
G01X18644Y6242D01*
G01X18843Y6151D01*
G01X18751Y6350D01*
G01X18843Y6550D01*
G01X18644Y6458D01*
G37*
G36*
G01X19130Y7870D02*
G01X19161Y7802D01*
G01X19198D01*
G01X19316Y7749D01*
G01X19329Y7742D01*
G01X19343Y7749D01*
G01X19461Y7802D01*
G01X19407Y7685D01*
G01X19401Y7671D01*
G01X19407Y7657D01*
G01X19461Y7539D01*
G01X19343Y7593D01*
G01X19329Y7600D01*
G01X19316Y7593D01*
G01X19198Y7539D01*
G01X19252Y7657D01*
G01X19258Y7671D01*
G01X19252Y7685D01*
G01X19198Y7802D01*
G01X19161D01*
G01X19222Y7671D01*
G01X19130Y7472D01*
G01X19329Y7563D01*
G01X19529Y7472D01*
G01X19437Y7671D01*
G01X19529Y7870D01*
G01X19329Y7778D01*
G37*
G36*
G01X20172Y8988D02*
G01X20203Y8920D01*
G01X20239D01*
G01X20357Y8866D01*
G01X20371Y8860D01*
G01X20385Y8866D01*
G01X20502Y8920D01*
G01X20449Y8802D01*
G01X20442Y8788D01*
G01X20449Y8775D01*
G01X20502Y8657D01*
G01X20385Y8711D01*
G01X20371Y8717D01*
G01X20357Y8711D01*
G01X20239Y8657D01*
G01X20293Y8775D01*
G01X20300Y8788D01*
G01X20293Y8802D01*
G01X20239Y8920D01*
G01X20203D01*
G01X20263Y8788D01*
G01X20172Y8589D01*
G01X20371Y8681D01*
G01X20570Y8589D01*
G01X20478Y8788D01*
G01X20570Y8988D01*
G01X20371Y8896D01*
G37*
G36*
G01X17022Y7870D02*
G01X17053Y7802D01*
G01X17090D01*
G01X17207Y7749D01*
G01X17221Y7742D01*
G01X17235Y7749D01*
G01X17353Y7802D01*
G01X17299Y7685D01*
G01X17292Y7671D01*
G01X17299Y7657D01*
G01X17353Y7539D01*
G01X17235Y7593D01*
G01X17221Y7600D01*
G01X17207Y7593D01*
G01X17090Y7539D01*
G01X17143Y7657D01*
G01X17150Y7671D01*
G01X17143Y7685D01*
G01X17090Y7802D01*
G01X17053D01*
G01X17114Y7671D01*
G01X17022Y7472D01*
G01X17221Y7563D01*
G01X17421Y7472D01*
G01X17329Y7671D01*
G01X17421Y7870D01*
G01X17221Y7778D01*
G37*
G36*
G01X18063Y8988D02*
G01X18094Y8920D01*
G01X18131D01*
G01X18249Y8866D01*
G01X18263Y8860D01*
G01X18276Y8866D01*
G01X18394Y8920D01*
G01X18340Y8802D01*
G01X18334Y8788D01*
G01X18340Y8775D01*
G01X18394Y8657D01*
G01X18276Y8711D01*
G01X18263Y8717D01*
G01X18249Y8711D01*
G01X18131Y8657D01*
G01X18185Y8775D01*
G01X18191Y8788D01*
G01X18185Y8802D01*
G01X18131Y8920D01*
G01X18094D01*
G01X18155Y8788D01*
G01X18063Y8589D01*
G01X18263Y8681D01*
G01X18462Y8589D01*
G01X18370Y8788D01*
G01X18462Y8988D01*
G01X18263Y8896D01*
G37*
G36*
G01X19130Y8988D02*
G01X19161Y8920D01*
G01X19198D01*
G01X19316Y8866D01*
G01X19329Y8860D01*
G01X19343Y8866D01*
G01X19461Y8920D01*
G01X19407Y8802D01*
G01X19401Y8788D01*
G01X19407Y8775D01*
G01X19461Y8657D01*
G01X19343Y8711D01*
G01X19329Y8717D01*
G01X19316Y8711D01*
G01X19198Y8657D01*
G01X19252Y8775D01*
G01X19258Y8788D01*
G01X19252Y8802D01*
G01X19198Y8920D01*
G01X19161D01*
G01X19222Y8788D01*
G01X19130Y8589D01*
G01X19329Y8681D01*
G01X19529Y8589D01*
G01X19437Y8788D01*
G01X19529Y8988D01*
G01X19329Y8896D01*
G37*
G36*
G01X17047Y10029D02*
G01X17078Y9961D01*
G01X17115D01*
G01X17233Y9908D01*
G01X17247Y9901D01*
G01X17260Y9908D01*
G01X17378Y9961D01*
G01X17324Y9844D01*
G01X17318Y9830D01*
G01X17324Y9816D01*
G01X17378Y9698D01*
G01X17260Y9752D01*
G01X17247Y9759D01*
G01X17233Y9752D01*
G01X17115Y9698D01*
G01X17169Y9816D01*
G01X17175Y9830D01*
G01X17169Y9844D01*
G01X17115Y9961D01*
G01X17078D01*
G01X17139Y9830D01*
G01X17047Y9631D01*
G01X17247Y9722D01*
G01X17446Y9631D01*
G01X17354Y9830D01*
G01X17446Y10029D01*
G01X17247Y9937D01*
G37*
G36*
G01X18089Y10029D02*
G01X18120Y9961D01*
G01X18156D01*
G01X18274Y9908D01*
G01X18288Y9901D01*
G01X18302Y9908D01*
G01X18420Y9961D01*
G01X18366Y9844D01*
G01X18359Y9830D01*
G01X18366Y9816D01*
G01X18420Y9698D01*
G01X18302Y9752D01*
G01X18288Y9759D01*
G01X18274Y9752D01*
G01X18156Y9698D01*
G01X18210Y9816D01*
G01X18217Y9830D01*
G01X18210Y9844D01*
G01X18156Y9961D01*
G01X18120D01*
G01X18180Y9830D01*
G01X18089Y9631D01*
G01X18288Y9722D01*
G01X18488Y9631D01*
G01X18396Y9830D01*
G01X18488Y10029D01*
G01X18288Y9937D01*
G37*
G36*
G01X19130Y10029D02*
G01X19161Y9961D01*
G01X19198D01*
G01X19316Y9908D01*
G01X19329Y9901D01*
G01X19343Y9908D01*
G01X19461Y9961D01*
G01X19407Y9844D01*
G01X19401Y9830D01*
G01X19407Y9816D01*
G01X19461Y9698D01*
G01X19343Y9752D01*
G01X19329Y9759D01*
G01X19316Y9752D01*
G01X19198Y9698D01*
G01X19252Y9816D01*
G01X19258Y9830D01*
G01X19252Y9844D01*
G01X19198Y9961D01*
G01X19161D01*
G01X19222Y9830D01*
G01X19130Y9631D01*
G01X19329Y9722D01*
G01X19529Y9631D01*
G01X19437Y9830D01*
G01X19529Y10029D01*
G01X19329Y9937D01*
G37*
G36*
G01X17022Y8988D02*
G01X17053Y8920D01*
G01X17090D01*
G01X17207Y8866D01*
G01X17221Y8860D01*
G01X17235Y8866D01*
G01X17353Y8920D01*
G01X17299Y8802D01*
G01X17292Y8788D01*
G01X17299Y8775D01*
G01X17353Y8657D01*
G01X17235Y8711D01*
G01X17221Y8717D01*
G01X17207Y8711D01*
G01X17090Y8657D01*
G01X17143Y8775D01*
G01X17150Y8788D01*
G01X17143Y8802D01*
G01X17090Y8920D01*
G01X17053D01*
G01X17114Y8788D01*
G01X17022Y8589D01*
G01X17221Y8681D01*
G01X17421Y8589D01*
G01X17329Y8788D01*
G01X17421Y8988D01*
G01X17221Y8896D01*
G37*
G36*
G01X18089Y11071D02*
G01X18120Y11003D01*
G01X18156D01*
G01X18274Y10949D01*
G01X18288Y10942D01*
G01X18302Y10949D01*
G01X18420Y11003D01*
G01X18366Y10885D01*
G01X18359Y10871D01*
G01X18366Y10857D01*
G01X18420Y10740D01*
G01X18302Y10793D01*
G01X18288Y10800D01*
G01X18274Y10793D01*
G01X18156Y10740D01*
G01X18210Y10857D01*
G01X18217Y10871D01*
G01X18210Y10885D01*
G01X18156Y11003D01*
G01X18120D01*
G01X18180Y10871D01*
G01X18089Y10672D01*
G01X18288Y10764D01*
G01X18488Y10672D01*
G01X18396Y10871D01*
G01X18488Y11071D01*
G01X18288Y10979D01*
G37*
G36*
G01X19130Y11071D02*
G01X19161Y11003D01*
G01X19198D01*
G01X19316Y10949D01*
G01X19329Y10942D01*
G01X19343Y10949D01*
G01X19461Y11003D01*
G01X19407Y10885D01*
G01X19401Y10871D01*
G01X19407Y10857D01*
G01X19461Y10740D01*
G01X19343Y10793D01*
G01X19329Y10800D01*
G01X19316Y10793D01*
G01X19198Y10740D01*
G01X19252Y10857D01*
G01X19258Y10871D01*
G01X19252Y10885D01*
G01X19198Y11003D01*
G01X19161D01*
G01X19222Y10871D01*
G01X19130Y10672D01*
G01X19329Y10764D01*
G01X19529Y10672D01*
G01X19437Y10871D01*
G01X19529Y11071D01*
G01X19329Y10979D01*
G37*
G36*
G01X20197Y11071D02*
G01X20228Y11003D01*
G01X20265D01*
G01X20382Y10949D01*
G01X20396Y10942D01*
G01X20410Y10949D01*
G01X20528Y11003D01*
G01X20474Y10885D01*
G01X20467Y10871D01*
G01X20474Y10857D01*
G01X20528Y10740D01*
G01X20410Y10793D01*
G01X20396Y10800D01*
G01X20382Y10793D01*
G01X20265Y10740D01*
G01X20318Y10857D01*
G01X20325Y10871D01*
G01X20318Y10885D01*
G01X20265Y11003D01*
G01X20228D01*
G01X20289Y10871D01*
G01X20197Y10672D01*
G01X20396Y10764D01*
G01X20596Y10672D01*
G01X20504Y10871D01*
G01X20596Y11071D01*
G01X20396Y10979D01*
G37*
G36*
G01X20197Y12138D02*
G01X20228Y12070D01*
G01X20265D01*
G01X20382Y12016D01*
G01X20396Y12009D01*
G01X20410Y12016D01*
G01X20528Y12070D01*
G01X20474Y11952D01*
G01X20467Y11938D01*
G01X20474Y11924D01*
G01X20528Y11806D01*
G01X20410Y11860D01*
G01X20396Y11867D01*
G01X20382Y11860D01*
G01X20265Y11806D01*
G01X20318Y11924D01*
G01X20325Y11938D01*
G01X20318Y11952D01*
G01X20265Y12070D01*
G01X20228D01*
G01X20289Y11938D01*
G01X20197Y11739D01*
G01X20396Y11830D01*
G01X20596Y11739D01*
G01X20504Y11938D01*
G01X20596Y12138D01*
G01X20396Y12046D01*
G37*
G36*
G01X17022Y11071D02*
G01X17053Y11003D01*
G01X17090D01*
G01X17207Y10949D01*
G01X17221Y10942D01*
G01X17235Y10949D01*
G01X17353Y11003D01*
G01X17299Y10885D01*
G01X17292Y10871D01*
G01X17299Y10857D01*
G01X17353Y10740D01*
G01X17235Y10793D01*
G01X17221Y10800D01*
G01X17207Y10793D01*
G01X17090Y10740D01*
G01X17143Y10857D01*
G01X17150Y10871D01*
G01X17143Y10885D01*
G01X17090Y11003D01*
G01X17053D01*
G01X17114Y10871D01*
G01X17022Y10672D01*
G01X17221Y10764D01*
G01X17421Y10672D01*
G01X17329Y10871D01*
G01X17421Y11071D01*
G01X17221Y10979D01*
G37*
G36*
G01X20197Y10029D02*
G01X20228Y9961D01*
G01X20265D01*
G01X20382Y9908D01*
G01X20396Y9901D01*
G01X20410Y9908D01*
G01X20528Y9961D01*
G01X20474Y9844D01*
G01X20467Y9830D01*
G01X20474Y9816D01*
G01X20528Y9698D01*
G01X20410Y9752D01*
G01X20396Y9759D01*
G01X20382Y9752D01*
G01X20265Y9698D01*
G01X20318Y9816D01*
G01X20325Y9830D01*
G01X20318Y9844D01*
G01X20265Y9961D01*
G01X20228D01*
G01X20289Y9830D01*
G01X20197Y9631D01*
G01X20396Y9722D01*
G01X20596Y9631D01*
G01X20504Y9830D01*
G01X20596Y10029D01*
G01X20396Y9937D01*
G37*
G36*
G01X17022Y12163D02*
G01X17053Y12095D01*
G01X17090D01*
G01X17207Y12041D01*
G01X17221Y12035D01*
G01X17235Y12041D01*
G01X17353Y12095D01*
G01X17299Y11977D01*
G01X17292Y11963D01*
G01X17299Y11950D01*
G01X17353Y11832D01*
G01X17235Y11886D01*
G01X17221Y11892D01*
G01X17207Y11886D01*
G01X17090Y11832D01*
G01X17143Y11950D01*
G01X17150Y11963D01*
G01X17143Y11977D01*
G01X17090Y12095D01*
G01X17053D01*
G01X17114Y11963D01*
G01X17022Y11764D01*
G01X17221Y11856D01*
G01X17421Y11764D01*
G01X17329Y11963D01*
G01X17421Y12163D01*
G01X17221Y12071D01*
G37*
G36*
G01X18089Y12163D02*
G01X18120Y12095D01*
G01X18156D01*
G01X18274Y12041D01*
G01X18288Y12035D01*
G01X18302Y12041D01*
G01X18420Y12095D01*
G01X18366Y11977D01*
G01X18359Y11963D01*
G01X18366Y11950D01*
G01X18420Y11832D01*
G01X18302Y11886D01*
G01X18288Y11892D01*
G01X18274Y11886D01*
G01X18156Y11832D01*
G01X18210Y11950D01*
G01X18217Y11963D01*
G01X18210Y11977D01*
G01X18156Y12095D01*
G01X18120D01*
G01X18180Y11963D01*
G01X18089Y11764D01*
G01X18288Y11856D01*
G01X18488Y11764D01*
G01X18396Y11963D01*
G01X18488Y12163D01*
G01X18288Y12071D01*
G37*
G36*
G01X19130Y12163D02*
G01X19161Y12095D01*
G01X19198D01*
G01X19316Y12041D01*
G01X19329Y12035D01*
G01X19343Y12041D01*
G01X19461Y12095D01*
G01X19407Y11977D01*
G01X19401Y11963D01*
G01X19407Y11950D01*
G01X19461Y11832D01*
G01X19343Y11886D01*
G01X19329Y11892D01*
G01X19316Y11886D01*
G01X19198Y11832D01*
G01X19252Y11950D01*
G01X19258Y11963D01*
G01X19252Y11977D01*
G01X19198Y12095D01*
G01X19161D01*
G01X19222Y11963D01*
G01X19130Y11764D01*
G01X19329Y11856D01*
G01X19529Y11764D01*
G01X19437Y11963D01*
G01X19529Y12163D01*
G01X19329Y12071D01*
G37*
G36*
G01X26217Y911D02*
G01X26248Y843D01*
G01X26284D01*
G01X26402Y789D01*
G01X26416Y782D01*
G01X26430Y789D01*
G01X26548Y843D01*
G01X26494Y725D01*
G01X26487Y711D01*
G01X26494Y697D01*
G01X26548Y580D01*
G01X26430Y633D01*
G01X26416Y640D01*
G01X26402Y633D01*
G01X26284Y580D01*
G01X26338Y697D01*
G01X26345Y711D01*
G01X26338Y725D01*
G01X26284Y843D01*
G01X26248D01*
G01X26308Y711D01*
G01X26217Y512D01*
G01X26416Y604D01*
G01X26616Y512D01*
G01X26524Y711D01*
G01X26616Y911D01*
G01X26416Y819D01*
G37*
G36*
G01X21035Y16938D02*
G01X21066Y16870D01*
G01X21103D01*
G01X21221Y16816D01*
G01X21234Y16810D01*
G01X21248Y16816D01*
G01X21366Y16870D01*
G01X21312Y16752D01*
G01X21306Y16739D01*
G01X21312Y16725D01*
G01X21366Y16607D01*
G01X21248Y16661D01*
G01X21234Y16667D01*
G01X21221Y16661D01*
G01X21103Y16607D01*
G01X21157Y16725D01*
G01X21163Y16739D01*
G01X21157Y16752D01*
G01X21103Y16870D01*
G01X21066D01*
G01X21127Y16739D01*
G01X21035Y16539D01*
G01X21234Y16631D01*
G01X21434Y16539D01*
G01X21342Y16739D01*
G01X21434Y16938D01*
G01X21234Y16846D01*
G37*
G04 Image End*
G54D10*

M02*
