G04 Layer: InnerLayer1*
G04 EasyEDA Pro v1.8.39, 2022-10-27 11:15:30*
G04 Gerber Generator version 0.3*
G04 Scale: 100 percent, Rotated: No, Reflected: No*
G04 Dimensions in millimeters*
G04 Leading zeros omitted, absolute positions, 3 integers and 3 decimals*
%FSLAX33Y33*%
%MOMM*%
%ADD999C,0.2032*%
%ADD10C,0.254*%
%ADD11O,3.79984X1.80086*%
%ADD12C,0.450002*%
%ADD13C,0.599999*%
%ADD14C,0.650001*%
%ADD15C,0.5053*%
%ADD16C,0.499999*%
G75*


G04 Copper Start*
G36*
G01X358Y358D02*
G01X358Y3042D01*
G01X1000D01*
G03X1358Y3400I0J358D01*
G01Y15800D01*
G03X1000Y16158I-358J0D01*
G01X358D01*
G01Y18842D01*
G01X2286D01*
G01X26288D01*
G03X26038Y18313I433J-528D01*
G03X26721Y17630I683J0D01*
G03X27404Y18313I0J683D01*
G03X27154Y18842I-683J0D01*
G01X31342D01*
G01Y762D01*
G01Y358D01*
G01X17726D01*
G03X17829Y711I-555J353D01*
G03X17170Y1369I-658J0D01*
G03X16512Y711I0J-658D01*
G03X16615Y358I658J0D01*
G01X358D01*
G37*
%LPC*%
G36*
G01X1638Y15450D02*
G03X2897Y14191I1259J0D01*
G01X4896D01*
G03X6154Y15450I0J1259D01*
G03X4896Y16708I-1259J0D01*
G01X2897D01*
G03X1638Y15450I0J-1259D01*
G37*
G36*
G01X4896Y2492D02*
G03X6154Y3750I0J1259D01*
G03X4896Y5009I-1259J0D01*
G01X2897D01*
G03X1638Y3750I0J-1259D01*
G03X2897Y2492I1259J0D01*
G01X4896D01*
G37*
G36*
G01X24385Y2032D02*
G03X24994Y1424I608J0D01*
G03X25602Y2032I0J608D01*
G03X25512Y2350I-608J0D01*
G03X25602Y2667I-519J318D01*
G03X25575Y2846I-608J0D01*
G03X25754Y3277I-429J431D01*
G03X25146Y3885I-608J0D01*
G03X24847Y3806I0J-608D01*
G03X24257Y4266I-590J-148D01*
G03X23649Y3658I0J-608D01*
G03X24257Y3049I608J0D01*
G03X24556Y3128I0J608D01*
G03X24565Y3098I590J148D01*
G03X24385Y2667I429J-431D01*
G03X24475Y2350I608J0D01*
G03X24385Y2032I519J-317D01*
G37*
G36*
G01X11685Y2489D02*
G03X12268Y1906I583J0D01*
G03X12851Y2489I0J583D01*
G03X12595Y2972I-583J0D01*
G03X12597Y3023I-581J51D01*
G03X12595Y3073I-583J0D01*
G03X12851Y3556I-327J483D01*
G03X12268Y4139I-583J0D01*
G03X11685Y3556I0J-583D01*
G03X11687Y3505I583J0D01*
G03X11431Y3023I327J-483D01*
G03X11687Y2540I583J0D01*
G03X11685Y2489I581J-51D01*
G37*
G36*
G01X12762Y9564D02*
G03X13371Y10172I0J608D01*
G03X13194Y10600I-608J0D01*
G03X13309Y10947I-469J347D01*
G03X13253Y11196I-583J0D01*
G03X13359Y11532I-477J336D01*
G03X12776Y12115I-583J0D01*
G03X12193Y11532I0J-583D01*
G03X12249Y11283I583J0D01*
G03X12142Y10947I477J-336D01*
G03X12292Y10557I583J0D01*
G03X12154Y10172I470J-385D01*
G03X12762Y9564I608J0D01*
G37*
G36*
G01X7518Y14631D02*
G03X8102Y15215I0J583D01*
G03X7518Y15798I-583J0D01*
G01X7504D01*
G03X6934Y16255I-569J-126D01*
G03X6351Y15672I0J-583D01*
G03X6934Y15089I583J0D01*
G01X6949D01*
G03X7518Y14631I569J126D01*
G37*
G36*
G01X26873Y4573D02*
G03X27481Y5182I0J608D01*
G03X26873Y5790I-608J0D01*
G03X26503Y5664I0J-608D01*
G03X26010Y5917I-493J-355D01*
G03X25401Y5309I0J-608D01*
G03X26010Y4700I608J0D01*
G03X26380Y4826I0J608D01*
G03X26873Y4573I493J355D01*
G37*
G36*
G01X16205Y3405D02*
G03X16788Y3988I0J583D01*
G03X16210Y4571I-583J0D01*
G03X15697Y4876I-512J-278D01*
G03X15114Y4293I0J-583D01*
G03X15693Y3709I583J0D01*
G03X16205Y3405I512J278D01*
G37*
G36*
G01X3329Y6579D02*
G03X3937Y5970I608J0D01*
G03X4204Y6032I0J608D01*
G03X4470Y5970I267J547D01*
G03X5079Y6579I0J608D01*
G03X4470Y7187I-608J0D01*
G03X4204Y7125I0J-608D01*
G03X3937Y7187I-267J-547D01*
G03X3329Y6579I0J-608D01*
G37*
G36*
G01X27559Y11228D02*
G03X28142Y11811I0J583D01*
G03X28048Y12129I-583J0D01*
G03X28142Y12446I-489J318D01*
G03X27559Y13029I-583J0D01*
G03X26976Y12446I0J-583D01*
G03X27070Y12129I583J0D01*
G03X26976Y11811I489J-317D01*
G03X27559Y11228I583J0D01*
G37*
G36*
G01X3480Y8739D02*
G03X4063Y9322I0J583D01*
G03X3977Y9627I-583J0D01*
G03X4063Y9931I-497J305D01*
G03X3480Y10515I-583J0D01*
G03X2897Y9931I0J-583D01*
G03X2983Y9627I583J0D01*
G03X2897Y9322I497J-305D01*
G03X3480Y8739I583J0D01*
G37*
G36*
G01X27559Y8205D02*
G03X28142Y8788I0J583D01*
G03X28064Y9081I-583J0D01*
G03X28142Y9373I-505J292D01*
G03X27559Y9956I-583J0D01*
G03X26976Y9373I0J-583D01*
G03X27054Y9081I583J0D01*
G03X26976Y8788I505J-292D01*
G03X27559Y8205I583J0D01*
G37*
G36*
G01X20602Y17780D02*
G03X21285Y17097I683J0D01*
G03X21968Y17780I0J683D01*
G03X21285Y18463I-683J0D01*
G03X20602Y17780I0J-683D01*
G37*
G36*
G01X13286Y14503D02*
G03X13945Y13845I658J0D01*
G03X14603Y14503I0J658D01*
G03X13945Y15162I-658J0D01*
G03X13286Y14503I0J-658D01*
G37*
G36*
G01X21717Y14785D02*
G03X22375Y15443I0J658D01*
G03X21717Y16101I-658J0D01*
G03X21059Y15443I0J-658D01*
G03X21717Y14785I658J0D01*
G37*
G36*
G01X20955Y12499D02*
G03X21613Y13157I0J658D01*
G03X20955Y13815I-658J0D01*
G03X20297Y13157I0J-658D01*
G03X20955Y12499I658J0D01*
G37*
G36*
G01X15011Y9578D02*
G03X15670Y10236I0J658D01*
G03X15011Y10894I-658J0D01*
G03X14353Y10236I0J-658D01*
G03X15011Y9578I658J0D01*
G37*
G36*
G01X24181Y11356D02*
G03X24839Y12014I0J658D01*
G03X24181Y12672I-658J0D01*
G03X23523Y12014I0J-658D01*
G03X24181Y11356I658J0D01*
G37*
G36*
G01X17477Y3734D02*
G03X18085Y3126I608J0D01*
G03X18693Y3734I0J608D01*
G03X18085Y4342I-608J0D01*
G03X17477Y3734I0J-608D01*
G37*
G36*
G01X23038Y15775D02*
G03X23646Y16383I0J608D01*
G03X23038Y16991I-608J0D01*
G03X22430Y16383I0J-608D01*
G03X23038Y15775I608J0D01*
G37*
G36*
G01X9577Y3988D02*
G03X10185Y3380I608J0D01*
G03X10794Y3988I0J608D01*
G03X10185Y4596I-608J0D01*
G03X9577Y3988I0J-608D01*
G37*
G36*
G01X18035Y6350D02*
G03X18644Y5742I608J0D01*
G03X19252Y6350I0J608D01*
G03X18644Y6958I-608J0D01*
G03X18035Y6350I0J-608D01*
G37*
G36*
G01X12776Y12549D02*
G03X13359Y13132I0J583D01*
G03X12776Y13715I-583J0D01*
G03X12193Y13132I0J-583D01*
G03X12776Y12549I583J0D01*
G37*
G36*
G01X10009Y1753D02*
G03X10592Y1169I583J0D01*
G03X11175Y1753I0J583D01*
G03X10592Y2336I-583J0D01*
G03X10009Y1753I0J-583D01*
G37*
G36*
G01X12878Y5868D02*
G03X13461Y6452I0J583D01*
G03X12878Y7035I-583J0D01*
G03X12295Y6452I0J-583D01*
G03X12878Y5868I583J0D01*
G37*
G36*
G01X19635Y15342D02*
G03X20218Y14758I583J0D01*
G03X20802Y15342I0J583D01*
G03X20218Y15925I-583J0D01*
G03X19635Y15342I0J-583D01*
G37*
G36*
G01X21997Y14173D02*
G03X22581Y13590I583J0D01*
G03X23164Y14173I0J583D01*
G03X22581Y14756I-583J0D01*
G03X21997Y14173I0J-583D01*
G37*
G36*
G01X23978Y9170D02*
G03X24561Y9754I0J583D01*
G03X23978Y10337I-583J0D01*
G03X23394Y9754I0J-583D01*
G03X23978Y9170I583J0D01*
G37*
G36*
G01X18010Y15265D02*
G03X18593Y14682I583J0D01*
G03X19176Y15265I0J583D01*
G03X18593Y15849I-583J0D01*
G03X18010Y15265I0J-583D01*
G37*
G36*
G01X23978Y7138D02*
G03X24561Y7722I0J583D01*
G03X23978Y8305I-583J0D01*
G03X23394Y7722I0J-583D01*
G03X23978Y7138I583J0D01*
G37*
G36*
G01X21666Y3862D02*
G03X22249Y4445I0J583D01*
G03X21666Y5028I-583J0D01*
G03X21083Y4445I0J-583D01*
G03X21666Y3862I583J0D01*
G37*
G36*
G01X26010Y5945D02*
G03X26593Y6528I0J583D01*
G03X26010Y7111I-583J0D01*
G03X25426Y6528I0J-583D01*
G03X26010Y5945I583J0D01*
G37*
G36*
G01X21768Y7014D02*
G03X22351Y7597I0J583D01*
G03X21768Y8180I-583J0D01*
G03X21185Y7597I0J-583D01*
G03X21768Y7014I583J0D01*
G37*
%LPD*%
G54D999*
G01X358Y358D02*
G01X358Y3042D01*
G01X1000D01*
G03X1358Y3400I0J358D01*
G01Y15800D01*
G03X1000Y16158I-358J0D01*
G01X358D01*
G01Y18842D01*
G01X2286D01*
G01X26288D01*
G03X26038Y18313I433J-528D01*
G03X26721Y17630I683J0D01*
G03X27404Y18313I0J683D01*
G03X27154Y18842I-683J0D01*
G01X31342D01*
G01Y762D01*
G01Y358D01*
G01X17726D01*
G03X17829Y711I-555J353D01*
G03X17170Y1369I-658J0D01*
G03X16512Y711I0J-658D01*
G03X16615Y358I658J0D01*
G01X358D01*
G01X1638Y15450D02*
G03X2897Y14191I1259J0D01*
G01X4896D01*
G03X6154Y15450I0J1259D01*
G03X4896Y16708I-1259J0D01*
G01X2897D01*
G03X1638Y15450I0J-1259D01*
G01X4896Y2492D02*
G03X6154Y3750I0J1259D01*
G03X4896Y5009I-1259J0D01*
G01X2897D01*
G03X1638Y3750I0J-1259D01*
G03X2897Y2492I1259J0D01*
G01X4896D01*
G01X24385Y2032D02*
G03X24994Y1424I608J0D01*
G03X25602Y2032I0J608D01*
G03X25512Y2350I-608J0D01*
G03X25602Y2667I-519J318D01*
G03X25575Y2846I-608J0D01*
G03X25754Y3277I-429J431D01*
G03X25146Y3885I-608J0D01*
G03X24847Y3806I0J-608D01*
G03X24257Y4266I-590J-148D01*
G03X23649Y3658I0J-608D01*
G03X24257Y3049I608J0D01*
G03X24556Y3128I0J608D01*
G03X24565Y3098I590J148D01*
G03X24385Y2667I429J-431D01*
G03X24475Y2350I608J0D01*
G03X24385Y2032I519J-317D01*
G01X11685Y2489D02*
G03X12268Y1906I583J0D01*
G03X12851Y2489I0J583D01*
G03X12595Y2972I-583J0D01*
G03X12597Y3023I-581J51D01*
G03X12595Y3073I-583J0D01*
G03X12851Y3556I-327J483D01*
G03X12268Y4139I-583J0D01*
G03X11685Y3556I0J-583D01*
G03X11687Y3505I583J0D01*
G03X11431Y3023I327J-483D01*
G03X11687Y2540I583J0D01*
G03X11685Y2489I581J-51D01*
G01X12762Y9564D02*
G03X13371Y10172I0J608D01*
G03X13194Y10600I-608J0D01*
G03X13309Y10947I-469J347D01*
G03X13253Y11196I-583J0D01*
G03X13359Y11532I-477J336D01*
G03X12776Y12115I-583J0D01*
G03X12193Y11532I0J-583D01*
G03X12249Y11283I583J0D01*
G03X12142Y10947I477J-336D01*
G03X12292Y10557I583J0D01*
G03X12154Y10172I470J-385D01*
G03X12762Y9564I608J0D01*
G01X7518Y14631D02*
G03X8102Y15215I0J583D01*
G03X7518Y15798I-583J0D01*
G01X7504D01*
G03X6934Y16255I-569J-126D01*
G03X6351Y15672I0J-583D01*
G03X6934Y15089I583J0D01*
G01X6949D01*
G03X7518Y14631I569J126D01*
G01X26873Y4573D02*
G03X27481Y5182I0J608D01*
G03X26873Y5790I-608J0D01*
G03X26503Y5664I0J-608D01*
G03X26010Y5917I-493J-355D01*
G03X25401Y5309I0J-608D01*
G03X26010Y4700I608J0D01*
G03X26380Y4826I0J608D01*
G03X26873Y4573I493J355D01*
G01X16205Y3405D02*
G03X16788Y3988I0J583D01*
G03X16210Y4571I-583J0D01*
G03X15697Y4876I-512J-278D01*
G03X15114Y4293I0J-583D01*
G03X15693Y3709I583J0D01*
G03X16205Y3405I512J278D01*
G01X3329Y6579D02*
G03X3937Y5970I608J0D01*
G03X4204Y6032I0J608D01*
G03X4470Y5970I267J547D01*
G03X5079Y6579I0J608D01*
G03X4470Y7187I-608J0D01*
G03X4204Y7125I0J-608D01*
G03X3937Y7187I-267J-547D01*
G03X3329Y6579I0J-608D01*
G01X27559Y11228D02*
G03X28142Y11811I0J583D01*
G03X28048Y12129I-583J0D01*
G03X28142Y12446I-489J318D01*
G03X27559Y13029I-583J0D01*
G03X26976Y12446I0J-583D01*
G03X27070Y12129I583J0D01*
G03X26976Y11811I489J-317D01*
G03X27559Y11228I583J0D01*
G01X3480Y8739D02*
G03X4063Y9322I0J583D01*
G03X3977Y9627I-583J0D01*
G03X4063Y9931I-497J305D01*
G03X3480Y10515I-583J0D01*
G03X2897Y9931I0J-583D01*
G03X2983Y9627I583J0D01*
G03X2897Y9322I497J-305D01*
G03X3480Y8739I583J0D01*
G01X27559Y8205D02*
G03X28142Y8788I0J583D01*
G03X28064Y9081I-583J0D01*
G03X28142Y9373I-505J292D01*
G03X27559Y9956I-583J0D01*
G03X26976Y9373I0J-583D01*
G03X27054Y9081I583J0D01*
G03X26976Y8788I505J-292D01*
G03X27559Y8205I583J0D01*
G01X20602Y17780D02*
G03X21285Y17097I683J0D01*
G03X21968Y17780I0J683D01*
G03X21285Y18463I-683J0D01*
G03X20602Y17780I0J-683D01*
G01X13286Y14503D02*
G03X13945Y13845I658J0D01*
G03X14603Y14503I0J658D01*
G03X13945Y15162I-658J0D01*
G03X13286Y14503I0J-658D01*
G01X21717Y14785D02*
G03X22375Y15443I0J658D01*
G03X21717Y16101I-658J0D01*
G03X21059Y15443I0J-658D01*
G03X21717Y14785I658J0D01*
G01X20955Y12499D02*
G03X21613Y13157I0J658D01*
G03X20955Y13815I-658J0D01*
G03X20297Y13157I0J-658D01*
G03X20955Y12499I658J0D01*
G01X15011Y9578D02*
G03X15670Y10236I0J658D01*
G03X15011Y10894I-658J0D01*
G03X14353Y10236I0J-658D01*
G03X15011Y9578I658J0D01*
G01X24181Y11356D02*
G03X24839Y12014I0J658D01*
G03X24181Y12672I-658J0D01*
G03X23523Y12014I0J-658D01*
G03X24181Y11356I658J0D01*
G01X17477Y3734D02*
G03X18085Y3126I608J0D01*
G03X18693Y3734I0J608D01*
G03X18085Y4342I-608J0D01*
G03X17477Y3734I0J-608D01*
G01X23038Y15775D02*
G03X23646Y16383I0J608D01*
G03X23038Y16991I-608J0D01*
G03X22430Y16383I0J-608D01*
G03X23038Y15775I608J0D01*
G01X9577Y3988D02*
G03X10185Y3380I608J0D01*
G03X10794Y3988I0J608D01*
G03X10185Y4596I-608J0D01*
G03X9577Y3988I0J-608D01*
G01X18035Y6350D02*
G03X18644Y5742I608J0D01*
G03X19252Y6350I0J608D01*
G03X18644Y6958I-608J0D01*
G03X18035Y6350I0J-608D01*
G01X12776Y12549D02*
G03X13359Y13132I0J583D01*
G03X12776Y13715I-583J0D01*
G03X12193Y13132I0J-583D01*
G03X12776Y12549I583J0D01*
G01X10009Y1753D02*
G03X10592Y1169I583J0D01*
G03X11175Y1753I0J583D01*
G03X10592Y2336I-583J0D01*
G03X10009Y1753I0J-583D01*
G01X12878Y5868D02*
G03X13461Y6452I0J583D01*
G03X12878Y7035I-583J0D01*
G03X12295Y6452I0J-583D01*
G03X12878Y5868I583J0D01*
G01X19635Y15342D02*
G03X20218Y14758I583J0D01*
G03X20802Y15342I0J583D01*
G03X20218Y15925I-583J0D01*
G03X19635Y15342I0J-583D01*
G01X21997Y14173D02*
G03X22581Y13590I583J0D01*
G03X23164Y14173I0J583D01*
G03X22581Y14756I-583J0D01*
G03X21997Y14173I0J-583D01*
G01X23978Y9170D02*
G03X24561Y9754I0J583D01*
G03X23978Y10337I-583J0D01*
G03X23394Y9754I0J-583D01*
G03X23978Y9170I583J0D01*
G01X18010Y15265D02*
G03X18593Y14682I583J0D01*
G03X19176Y15265I0J583D01*
G03X18593Y15849I-583J0D01*
G03X18010Y15265I0J-583D01*
G01X23978Y7138D02*
G03X24561Y7722I0J583D01*
G03X23978Y8305I-583J0D01*
G03X23394Y7722I0J-583D01*
G03X23978Y7138I583J0D01*
G01X21666Y3862D02*
G03X22249Y4445I0J583D01*
G03X21666Y5028I-583J0D01*
G03X21083Y4445I0J-583D01*
G03X21666Y3862I583J0D01*
G01X26010Y5945D02*
G03X26593Y6528I0J583D01*
G03X26010Y7111I-583J0D01*
G03X25426Y6528I0J-583D01*
G03X26010Y5945I583J0D01*
G01X21768Y7014D02*
G03X22351Y7597I0J583D01*
G03X21768Y8180I-583J0D01*
G03X21185Y7597I0J-583D01*
G03X21768Y7014I583J0D01*
G54D10*
G01X3896Y15450D02*
G01X3896Y16609D01*
G01X3896Y15450D02*
G01X3896Y14290D01*
G01X3896Y15450D02*
G01X6055Y15450D01*
G01X3896Y15450D02*
G01X1737Y15450D01*
G01X3896Y3750D02*
G01X3896Y4910D01*
G01X3896Y3750D02*
G01X3896Y2591D01*
G01X3896Y3750D02*
G01X6055Y3750D01*
G01X3896Y3750D02*
G01X1737Y3750D01*
G04 Copper End*

G04 Pad Start*
G54D11*
G01X3896Y3750D03*
G01X3896Y15450D03*
G04 Pad End*

G04 Via Start*
G54D12*
G01X27559Y12446D03*
G01X27559Y11811D03*
G01X28016Y12852D03*
G01X27965Y11303D03*
G01X28016Y9906D03*
G01X27559Y9373D03*
G01X27559Y8788D03*
G54D13*
G01X24181Y12014D03*
G54D12*
G01X23978Y9754D03*
G01X23978Y7722D03*
G01X23927Y6452D03*
G01X21666Y4445D03*
G54D14*
G01X26721Y18313D03*
G01X27991Y16459D03*
G01X27991Y15519D03*
G54D12*
G01X23825Y13665D03*
G01X27026Y8077D03*
G01X27813Y6782D03*
G01X26010Y6528D03*
G54D16*
G01X26873Y5182D03*
G01X26010Y5309D03*
G01X30000Y3996D03*
G01X27915Y4724D03*
G01X25146Y3277D03*
G01X24994Y2667D03*
G01X24994Y2032D03*
G01X24257Y3658D03*
G54D12*
G01X28016Y8357D03*
G54D13*
G01X21717Y15443D03*
G54D14*
G01X21285Y17780D03*
G54D16*
G01X23038Y16383D03*
G54D12*
G01X22581Y14173D03*
G01X20218Y15342D03*
G01X18593Y15265D03*
G01X19152Y17196D03*
G01X18059Y17145D03*
G54D13*
G01X13945Y14503D03*
G54D12*
G01X12776Y13132D03*
G54D13*
G01X15011Y10236D03*
G54D12*
G01X21768Y7597D03*
G54D13*
G01X20955Y13157D03*
G54D12*
G01X6934Y15672D03*
G01X7518Y15215D03*
G01X12929Y7087D03*
G01X12878Y6452D03*
G01X12116Y4115D03*
G01X15697Y4293D03*
G01X16205Y3988D03*
G01X18644Y6350D03*
G54D13*
G01X17170Y711D03*
G54D16*
G01X10185Y3988D03*
G54D12*
G01X12014Y3023D03*
G01X12268Y3556D03*
G01X12268Y2489D03*
G01X15977Y2794D03*
G54D16*
G01X18085Y3734D03*
G54D12*
G01X18618Y4089D03*
G01X12776Y11532D03*
G01X12725Y10947D03*
G01X12776Y9246D03*
G01X12979Y14199D03*
G01X8357Y7798D03*
G54D16*
G01X12762Y10172D03*
G54D12*
G01X3480Y9931D03*
G01X3480Y9322D03*
G54D16*
G01X4470Y6579D03*
G01X3937Y6579D03*
G01X3708Y13437D03*
G01X3124Y7341D03*
G01X813Y737D03*
G01X3861Y2159D03*
G01X7315Y737D03*
G01X3200Y18390D03*
G01X8745Y18390D03*
G01X17196Y17374D03*
G01X15977Y635D03*
G01X18948Y635D03*
G01X24142Y784D03*
G01X24130Y4445D03*
G01X22098Y3302D03*
G01X28778Y711D03*
G01X30000Y18256D03*
G01X22936Y18542D03*
G01X20371Y7671D03*
G01X18263Y7671D03*
G01X18644Y6350D03*
G01X19329Y7671D03*
G01X20371Y8788D03*
G01X17221Y7671D03*
G01X18263Y8788D03*
G01X19329Y8788D03*
G01X17247Y9830D03*
G01X18288Y9830D03*
G01X19329Y9830D03*
G01X17221Y8788D03*
G01X18288Y10871D03*
G01X19329Y10871D03*
G01X20396Y10871D03*
G01X20396Y11938D03*
G01X17221Y10871D03*
G01X20396Y9830D03*
G01X17221Y11963D03*
G01X18288Y11963D03*
G01X19329Y11963D03*
G01X26416Y711D03*
G01X21234Y16739D03*
G54D12*
G01X10592Y1753D03*
G04 Via End*

M02*
