;TYPE=PLATED
;Layer: PTH_Through
;EasyEDA Pro v1.8.39, 2022-11-10 11:17:14
;Gerber Generator version 0.3
M48
METRIC,LZ,000.000
;Hole size 1 = 0.300 METRIC
T01C0.300
;Hole size 2 = 0.500 METRIC
T02C0.500
;Hole size 3 = 0.610 METRIC
T03C0.610
;Hole size 4 = 0.899 METRIC
T04C0.899
%
G05
G90
T01
X077013Y016891
X077089Y013970
X076519Y014300
X076519Y013665
X071159Y015265
X071794Y015265
X071794Y017247
X071134Y017247
X067934Y017094
X067273Y017094
X067934Y015088
X067273Y015088
X066384Y014275
X065724Y014275
X043346Y022073
X043245Y023927
X043524Y026340
X043520Y028151
X043600Y018059
X044489Y022022
X040375Y019787
X040638Y018907
X039638Y025476
X045146Y025738
X036565Y016002
X037530Y016713
X039181Y018491
X032094Y016535
X035218Y015926
X035217Y017424
X033415Y016002
X033412Y017424
X031002Y016688
X032686Y031364
X037272Y031504
X021784Y029936
X021756Y042266
X021149Y029936
X021121Y042469
X030996Y018981
X025233Y016231
X037651Y028379
X039048Y028151
X041892Y029014
X039632Y026906
X014771Y025425
X007800Y025425
X015840Y016652
X014467Y023952
X014924Y023444
X015635Y016002
X015483Y023089
X015459Y018201
X012841Y041580
X003658Y041148
X012231Y041885
X003607Y041808
X024344Y018999
X025081Y019787
X021647Y019450
X021682Y016118
X021796Y022786
X022393Y029250
X020285Y024907
X029404Y019700
X026762Y013654
X018634Y031409
X015886Y013259
X015886Y010262
X007910Y013995
X007910Y012499
X007910Y011001
X007910Y009504
X007910Y016995
X012152Y016817
X012050Y015217
X007976Y035509
X007974Y037001
X007973Y038499
X007969Y039999
X011963Y043409
X005334Y025908
X016078Y026086
X015809Y039251
X015809Y036253
X027135Y030114
X023835Y030335
X024724Y026805
X024750Y025992
X018679Y026881
X021245Y027084
X019263Y030005
X020051Y030005
X018298Y044889
X007986Y042781
X012964Y034485
X012837Y024696
X013294Y019312
X011262Y028278
X041260Y032012
X041006Y030691
X022134Y049284
X021499Y049284
X047153Y030005
X047178Y029141
X051445Y024239
X064946Y030291
X064374Y027516
X063231Y030157
X060767Y036736
X061504Y036863
X058735Y035593
X058202Y034780
X058684Y034272
X058887Y033332
X058430Y032647
X057973Y033155
X061681Y039657
X057262Y045270
X064221Y048293
X063510Y048293
X073569Y043848
X074153Y043111
X073797Y045880
X068374Y046290
X067879Y044000
X065568Y043340
X064821Y042756
X073975Y040394
X073289Y040941
X077099Y038997
X078064Y040038
X078445Y043467
X083398Y046058
X083398Y043054
X078293Y047074
X076769Y050579
X068743Y051620
X072045Y050681
X075702Y049995
X069454Y050477
X089926Y051900
X085176Y051900
X080147Y051900
X089875Y036939
X088148Y027719
X053833Y035060
X076388Y037650
X076515Y040495
X074888Y038324
X047965Y036736
X049134Y037574
X054569Y037346
X060335Y031580
X062443Y031834
X056855Y031504
X053071Y040749
X062545Y039657
X057922Y045270
X056627Y042857
X055179Y043086
X051521Y047506
X048067Y046799
X048651Y048598
X050429Y048826
X042352Y045245
X042403Y047506
X040218Y045804
X041488Y045804
X040853Y045804
X041488Y047785
X040371Y047785
X041057Y048369
X040828Y044686
X045756Y042222
X041895Y048369
X047432Y026271
X042377Y035771
X042479Y034326
X043038Y036812
X042657Y039835
X039930Y039835
X038034Y038285
X036916Y037473
X032979Y040698
X012101Y040876
X016302Y046750
X005116Y049868
X000823Y052179
X020787Y044813
X023327Y045474
X039126Y045474
X031557Y045499
X027341Y042527
X041692Y042451
X043418Y008001
X043317Y010117
X047838Y022283
X047838Y019896
X047838Y021165
X030541Y028516
X019568Y019388
X020914Y014867
X028636Y009939
X027435Y009939
X025699Y010667
X030926Y009590
X032083Y009590
X033207Y009590
X034964Y009613
X037936Y009817
X036819Y009817
X039660Y013216
X039355Y015781
X042987Y015298
X043012Y011565
X045099Y011708
X047330Y012377
X045679Y009355
X045502Y007805
X045933Y003513
X044256Y004822
X038732Y003505
X039431Y004503
X038745Y007729
X032751Y003437
X023734Y003386
X015022Y003386
X056500Y011869
X056500Y012644
X050378Y011641
X051699Y011336
X065415Y003919
X067070Y002844
X068537Y004431
X090002Y005875
X083551Y005240
X073797Y016314
X069428Y015248
X065618Y019058
X061011Y016459
X061925Y015672
X073826Y003053
X069409Y003053
X071781Y000886
X073826Y001595
X069403Y001582
X090231Y000922
X061326Y000897
X068489Y008948
X072400Y010752
X071968Y012835
X068920Y021420
X090147Y021971
X085126Y022614
X060259Y029446
X061504Y028786
X062443Y025154
X057567Y024773
X068031Y024722
X076363Y024646
X083830Y025154
X082306Y027541
X075905Y028735
X068006Y028354
X059827Y035796
X051191Y037117
X053428Y037117
X052282Y037117
X059243Y039911
X059802Y038997
X066025Y030107
X067015Y032062
X067015Y033204
X067015Y034347
X065923Y036533
X071816Y035669
X077480Y035136
X078953Y029853
X072273Y029624
X083271Y034755
X083271Y031737
X088984Y033200
X056413Y022377
X055103Y024163
X050582Y027719
X049108Y032266
X043800Y032545
X054087Y031758
X058964Y046718
X054780Y046665
X051846Y045718
X052639Y049182
X058024Y048674
X055941Y049842
X062570Y050630
X062570Y051395
X031770Y034265
X030345Y034265
X022870Y034475
X049058Y017762
X054392Y016416
X001179Y001100
X019187Y000795
X039406Y000846
X049083Y008999
X020965Y050350
X044308Y050401
X060996Y052179
X057211Y052179
X012456Y052367
X012744Y039267
X012732Y036267
X045552Y048674
X012685Y013251
X012710Y010263
X062763Y007874
X075895Y015850
X076667Y012616
X057414Y036187
X018298Y034536
X004354Y038854
X004379Y043858
X015631Y050309
X033335Y050385
X024089Y052341
X034097Y052367
X045578Y052341
X050810Y040038
T02
X076962Y010897
X076200Y010973
X073939Y008611
X074893Y008560
X054878Y004674
X054853Y005563
X056427Y006299
X059348Y004648
X086095Y003150
X050382Y017043
X048067Y027846
X044515Y016561
X038622Y016586
X048731Y014986
X015457Y044577
X018302Y043536
X018171Y046921
X018146Y050985
X040726Y012581
X042835Y031910
X052563Y034348
X044308Y043696
X044308Y045321
X049515Y043416
X050328Y043416
X048702Y043416
X048702Y044229
X050328Y044229
X049515Y044229
X050328Y042603
X048702Y042603
X049515Y042603
X032040Y025636
X033284Y025636
X034503Y025636
X035748Y025636
X037018Y025636
X038288Y025636
X030820Y025636
X030820Y024417
X032040Y024417
X033284Y024417
X034503Y024417
X035748Y024417
X037018Y024417
X038288Y024417
X030820Y023147
X032040Y023147
X033284Y023147
X034503Y023147
X035748Y023147
X037018Y023147
X038288Y023147
X038288Y021877
X037018Y021877
X035748Y021877
X034503Y021877
X033284Y021877
X032040Y021877
X030820Y021877
X037018Y019388
X037018Y020632
X035748Y020632
X034503Y020632
X033284Y020632
X032040Y020632
X030820Y020632
X035748Y019388
X034503Y019388
X033284Y019388
X032040Y019388
X060945Y033917
X061758Y033917
X061758Y034729
X060945Y034729
T03
X078658Y005969G85X080548Y005969
X078658Y021971G85X080548Y021971
T04
X003621Y006251G85X002821Y006251
X003621Y020749G85X002821Y020749
X010083Y006251G85X008282Y006251
X010083Y020749G85X008282Y020749
X003621Y032251G85X002821Y032251
X003621Y046749G85X002821Y046749
X010083Y032251G85X008282Y032251
X010083Y046749G85X008282Y046749
M30