G04 Layer: BottomLayer*
G04 EasyEDA Pro v1.8.39, 2022-11-10 11:17:13*
G04 Gerber Generator version 0.3*
G04 Scale: 100 percent, Rotated: No, Reflected: No*
G04 Dimensions in millimeters*
G04 Leading zeros omitted, absolute positions, 3 integers and 3 decimals*
%FSLAX33Y33*%
%MOMM*%
%ADD999C,0.2032*%
%ADD10C,0.254*%
%ADD11O,2.70002X1.50114*%
%ADD12O,3.29946X1.50114*%
%ADD13O,2.99974X1.19888*%
%ADD14C,0.699999*%
%ADD15C,0.499999*%
%ADD16C,0.50038*%
%ADD17C,0.2082*%
%ADD18C,0.2032*%
%ADD19C,0.508*%
%ADD20C,0.700001*%
%ADD21C,0.762*%
%ADD22C,0.127*%
%ADD23C,0.800001*%
%ADD24C,0.299999*%
%ADD25C,0.399999*%
%ADD26C,0.600001*%
%ADD27C,0.25*%
G75*


G04 Copper Start*
G36*
G01X358Y358D02*
G01X358Y11455D01*
G01Y11456D01*
G01X347Y16155D01*
G01Y24967D01*
G01X358Y26617D01*
G01Y26618D01*
G01Y26619D01*
G01Y52642D01*
G01X61450D01*
G01Y45778D01*
G03X61555Y45525I358J0D01*
G01X62554Y44526D01*
G01Y42005D01*
G03X62659Y41751I358J0D01*
G01X63067Y41343D01*
G03X63321Y41238I253J253D01*
G01X72143D01*
G01Y39861D01*
G03X72248Y39608I358J0D01*
G01X72432Y39424D01*
G03X72685Y39319I253J253D01*
G01X75070D01*
G01Y38470D01*
G03X75428Y38112I358J0D01*
G01X75880D01*
G01Y37985D01*
G03X75780Y37650I508J-334D01*
G03X76388Y37042I608J0D01*
G03X76996Y37650I0J608D01*
G03X76896Y37985I-608J0D01*
G01Y38112D01*
G01X90842D01*
G01Y20932D01*
G01X80250D01*
G01X80238D01*
G03X79880Y20574I0J-358D01*
G01Y7366D01*
G03X80238Y7008I358J0D01*
G01X80250D01*
G01X90842D01*
G01Y4572D01*
G01Y3302D01*
G01Y358D01*
G01X358D01*
G37*
%LPC*%
G36*
G01X40018Y12581D02*
G03X40726Y11873I708J0D01*
G03X40988Y11922I0J708D01*
G01X43571D01*
G03X44036Y12115I0J658D01*
G01X46957Y15036D01*
G03X47150Y15502I-465J465D01*
G01Y28252D01*
G03X46957Y28718I-658J0D01*
G01X43485Y32191D01*
G03X42835Y32618I-650J-281D01*
G03X42126Y31910I0J-708D01*
G03X42554Y31260I708J0D01*
G01X45834Y27980D01*
G01Y15774D01*
G01X43298Y13239D01*
G01X40988D01*
G03X40726Y13289I-261J-658D01*
G03X40018Y12581I0J-708D01*
G37*
G36*
G01X73468Y8037D02*
G03X73990Y7821I523J523D01*
G01X74627D01*
G01X74893D01*
G03X75632Y8560I0J739D01*
G01Y8565D01*
G01X77313Y10246D01*
G03X77701Y10897I-351J651D01*
G03X76962Y11636I-739J0D01*
G01X76527D01*
G03X76200Y11712I-327J-663D01*
G03X75484Y11157I0J-739D01*
G01X74210Y9883D01*
G01Y12489D01*
G03X74246Y12645I-322J156D01*
G01Y13332D01*
G01X74627D01*
G01X74829Y13130D01*
G01Y12645D01*
G03X75188Y12287I358J0D01*
G01X75788D01*
G03X76146Y12645I0J358D01*
G01Y13150D01*
G01X76166Y13170D01*
G03X76519Y13057I353J495D01*
G03X77127Y13665I0J608D01*
G03X77037Y13983I-608J0D01*
G03X77127Y14300I-519J318D01*
G03X76519Y14908I-608J0D01*
G03X76151Y14785I0J-608D01*
G01X76146Y14790D01*
G01Y15345D01*
G03X75788Y15704I-358J0D01*
G01X75188D01*
G03X74829Y15345I0J-358D01*
G01Y14810D01*
G01X74645Y14626D01*
G01X74646Y14645D01*
G01Y15345D01*
G03X74288Y15704I-358J0D01*
G01X73288D01*
G03X72929Y15345I0J-358D01*
G01Y14645D01*
G03X72931Y14608I358J0D01*
G01X71901D01*
G03X71576Y14473I0J-460D01*
G01X71101Y13998D01*
G01X66926D01*
G03X66992Y14275I-541J277D01*
G03X66886Y14619I-608J0D01*
G03X67273Y14479I388J469D01*
G03X67603Y14577I0J608D01*
G03X67934Y14479I330J511D01*
G03X68542Y15088I0J608D01*
G03X68241Y15612I-608J0D01*
G01Y16569D01*
G03X68542Y17094I-307J525D01*
G03X67934Y17702I-608J0D01*
G03X67603Y17605I0J-608D01*
G03X67273Y17702I-330J-511D01*
G03X66665Y17094I0J-608D01*
G03X66966Y16569I608J0D01*
G01Y15612D01*
G03X66665Y15088I307J-525D01*
G03X66772Y14743I608J0D01*
G03X66384Y14883I-388J-469D01*
G03X66054Y14785I0J-608D01*
G03X65724Y14883I-330J-511D01*
G03X65116Y14275I0J-608D01*
G03X65416Y13750I608J0D01*
G01Y13620D01*
G03X65551Y13294I460J0D01*
G01X65988Y12858D01*
G03X66313Y12723I325J325D01*
G01X71439D01*
G03X71764Y12858I0J460D01*
G01X72239Y13332D01*
G01X72929D01*
G01Y12645D01*
G03X72986Y12453I358J0D01*
G01Y8952D01*
G03X73165Y8519I612J0D01*
G01X73214Y8471D01*
G03X73417Y8088I726J140D01*
G01X73468Y8037D01*
G37*
G36*
G01X47992Y14986D02*
G03X48731Y14247I739J0D01*
G01X51449D01*
G03X51972Y14463I0J739D01*
G01X53089Y15581D01*
G03X53306Y16104I-523J523D01*
G01Y34251D01*
G03X53240Y34556I-739J0D01*
G03X52563Y35057I-677J-207D01*
G03X51871Y34501I0J-708D01*
G03X51827Y34251I695J-251D01*
G01Y16410D01*
G01X51143Y15725D01*
G01X48731D01*
G03X47992Y14986I0J-739D01*
G37*
G36*
G01X64374Y26908D02*
G03X64982Y27516I0J608D01*
G01Y29683D01*
G03X65376Y29861I-37J607D01*
G03X65554Y30291I-430J430D01*
G03X64982Y30898I-608J0D01*
G01Y35171D01*
G03X64804Y35601I-608J0D01*
G01X64064Y36341D01*
G03X63634Y36519I-430J-430D01*
G01X62005D01*
G03X62112Y36863I-501J344D01*
G03X61504Y37471I-608J0D01*
G01X61492D01*
G01X61395Y37568D01*
G03X61097Y37691I-298J-298D01*
G01X60411D01*
G03X60113Y37568I0J-422D01*
G01X58945Y36399D01*
G03X58832Y36193I298J-298D01*
G03X58735Y36201I-97J-600D01*
G03X58127Y35593I0J-608D01*
G03X58163Y35387I608J0D01*
G03X57593Y34780I39J-607D01*
G03X57597Y34717I608J0D01*
G03X57551Y34526I376J-190D01*
G01Y33593D01*
G03X57365Y33155I422J-438D01*
G03X57828Y32564I608J0D01*
G03X58430Y32039I603J83D01*
G03X59038Y32647I0J608D01*
G03X59031Y32741I-608J0D01*
G03X59495Y33332I-143J591D01*
G01Y33344D01*
G01X59541Y33390D01*
G03X59665Y33688I-298J298D01*
G01Y35582D01*
G01Y35926D01*
G01X60159Y36421D01*
G03X60337Y36001I608J11D01*
G01X60858Y35481D01*
G03X61288Y35302I430J430D01*
G01X63382D01*
G01X63766Y34919D01*
G01Y30290D01*
G01Y27516D01*
G03X64374Y26908I608J0D01*
G37*
G36*
G01X21784Y29328D02*
G03X22392Y29936I0J608D01*
G03X22205Y30374I-608J0D01*
G01Y41855D01*
G03X22365Y42266I-449J410D01*
G03X21756Y42874I-608J0D01*
G03X21594Y42852I0J-608D01*
G03X21454Y42978I-473J-383D01*
G01X22432Y43956D01*
G03X22555Y44254I-298J298D01*
G01Y48845D01*
G03X22742Y49284I-422J438D01*
G03X22134Y49892I-608J0D01*
G03X21816Y49802I0J-608D01*
G03X21499Y49892I-317J-519D01*
G03X20890Y49284I0J-608D01*
G03X21077Y48845I608J0D01*
G01Y44632D01*
G01X18965Y42521D01*
G03X18842Y42222I298J-298D01*
G01Y30443D01*
G03X18655Y30005I422J-438D01*
G03X19263Y29397I608J0D01*
G03X19657Y29542I0J608D01*
G03X20051Y29397I394J464D01*
G03X20583Y29712I0J608D01*
G03X21149Y29328I565J224D01*
G03X21466Y29417I0J608D01*
G03X21784Y29328I318J519D01*
G37*
G36*
G01X60767Y29649D02*
G03X61126Y29798I0J508D01*
G01X62566Y31238D01*
G03X63051Y31834I-123J596D01*
G03X62443Y32442I-608J0D01*
G03X61848Y31957I0J-608D01*
G01X60556Y30666D01*
G01X57447D01*
G01X54341Y33772D01*
G01Y34726D01*
G03X54441Y35060I-508J334D01*
G03X53833Y35668I-608J0D01*
G03X53225Y35060I0J-608D01*
G03X53325Y34726I608J0D01*
G01Y33561D01*
G03X53473Y33202I508J0D01*
G01X56877Y29798D01*
G03X57236Y29649I359J359D01*
G01X60767D01*
G37*
G36*
G01X47616Y39605D02*
G03X48049Y39426I433J433D01*
G01X50810D01*
G03X51422Y40038I0J612D01*
G03X50810Y40650I-612J0D01*
G01X48303D01*
G01X47653Y41300D01*
G01Y45720D01*
G01X48122Y46189D01*
G01X48137Y46191D01*
G01X50815D01*
G03X51245Y46369I0J608D01*
G01X51951Y47076D01*
G03X52129Y47506I-430J430D01*
G03X51521Y48114I-608J0D01*
G03X51091Y47936I0J-608D01*
G01X50563Y47407D01*
G01X48137D01*
G03X48067Y47411I-70J-608D01*
G01X47866D01*
G03X47433Y47232I0J-612D01*
G01X46608Y46407D01*
G03X46429Y45974I433J-433D01*
G01Y41046D01*
G03X46608Y40614I612J0D01*
G01X47616Y39605D01*
G37*
G36*
G01X57461Y31119D02*
G03X57821Y30970I359J359D01*
G01X60234D01*
G03X60291Y30973I0J508D01*
G03X60335Y30972I44J607D01*
G03X60943Y31580I0J608D01*
G03X60335Y32188I-608J0D01*
G03X59883Y31986I0J-608D01*
G01X58031D01*
G01X55712Y34305D01*
G01Y36711D01*
G03X55564Y37070I-508J0D01*
G01X55165Y37469D01*
G03X54569Y37954I-596J-123D01*
G03X53961Y37346I0J-608D01*
G03X54446Y36750I608J0D01*
G01X54696Y36500D01*
G01Y34094D01*
G03X54845Y33735I508J0D01*
G01X57461Y31119D01*
G37*
G36*
G01X50382Y16335D02*
G03X51090Y17043I0J708D01*
G01Y25531D01*
G03X50883Y26031I-708J0D01*
G01X48568Y28347D01*
G03X48067Y28554I-501J-501D01*
G03X47359Y27846I0J-708D01*
G03X47566Y27345I708J0D01*
G01X49674Y25237D01*
G01Y17043D01*
G03X50382Y16335I708J0D01*
G37*
G36*
G01X61681Y39049D02*
G03X62113Y39229I0J608D01*
G03X62545Y39049I432J428D01*
G03X63153Y39657I0J608D01*
G03X62545Y40265I-608J0D01*
G01X62533D01*
G01X58344Y44454D01*
G01Y44832D01*
G03X58530Y45270I-422J438D01*
G03X57922Y45879I-608J0D01*
G03X57592Y45781I0J-608D01*
G03X57262Y45879I-330J-511D01*
G03X56654Y45270I0J-608D01*
G03X56840Y44832I608J0D01*
G01Y44077D01*
G03X56964Y43778I422J0D01*
G01X61073Y39669D01*
G01Y39657D01*
G03X61681Y39049I608J0D01*
G37*
G36*
G01X44515Y15853D02*
G03X45223Y16561I0J708D01*
G03X44515Y17269I-708J0D01*
G03X44198Y17194I0J-708D01*
G01X38985D01*
G03X38910Y17233I-363J-608D01*
G01X39611Y17934D01*
G03X39789Y18364I-430J430D01*
G01Y18491D01*
G03X39181Y19099I-608J0D01*
G03X38589Y18633I0J-608D01*
G01X37100Y17143D01*
G03X36922Y16713I430J-430D01*
G03X37530Y16105I608J0D01*
G03X37960Y16283I0J608D01*
G01X37975Y16298D01*
G03X38622Y15878I647J288D01*
G03X38985Y15978I0J708D01*
G01X44112D01*
G03X44515Y15853I402J583D01*
G37*
G36*
G01X15635Y15394D02*
G03X16243Y16002I0J608D01*
G03X16218Y16175I-608J0D01*
G03X16448Y16652I-378J476D01*
G03X15840Y17260I-608J0D01*
G01X15828D01*
G01X15494Y17594D01*
G03X16067Y18201I-35J607D01*
G03X15881Y18639I-608J0D01*
G01Y22629D01*
G03X16091Y23089I-398J460D01*
G03X15483Y23697I-608J0D01*
G01X15477D01*
G03X15069Y24035I-553J-253D01*
G03X14467Y24560I-603J-83D01*
G03X13858Y23952I0J-608D01*
G03X14045Y23514I608J0D01*
G01Y17170D01*
G03X14168Y16872I422J0D01*
G01X15027Y16014D01*
G01Y16002D01*
G03X15635Y15394I608J0D01*
G37*
G36*
G01X7192Y25425D02*
G03X7800Y24817I608J0D01*
G03X8134Y24917I0J608D01*
G01X14437D01*
G03X14771Y24817I334J508D01*
G03X15380Y25425I0J608D01*
G03X15371Y25528I-608J0D01*
G01X15837D01*
G03X16078Y25478I241J558D01*
G03X16686Y26086I0J608D01*
G03X16078Y26694I-608J0D01*
G03X15837Y26644I0J-608D01*
G01X5512D01*
G03X5117Y26480I0J-558D01*
G01X5110Y26473D01*
G03X4726Y25908I224J-565D01*
G03X5334Y25300I608J0D01*
G03X5809Y25528I0J608D01*
G01X7201D01*
G03X7192Y25425I599J-102D01*
G37*
G36*
G01X3049Y41148D02*
G03X3658Y40540I608J0D01*
G03X4253Y41022I0J608D01*
G01X12598D01*
G03X12841Y40972I243J557D01*
G03X13449Y41580I0J608D01*
G03X12841Y42188I-608J0D01*
G03X12761Y42183I0J-608D01*
G03X12231Y42493I-530J-298D01*
G03X11731Y42230I0J-608D01*
G01X4045D01*
G03X3607Y42417I-438J-422D01*
G03X2999Y41808I0J-608D01*
G03X3124Y41439I608J0D01*
G03X3049Y41148I534J-291D01*
G37*
G36*
G01X42254Y19178D02*
G03X42684Y19357I0J608D01*
G01X44919Y21592D01*
G03X45098Y22022I-430J430D01*
G03X44489Y22630I-608J0D01*
G03X44059Y22452I0J-608D01*
G01X42002Y20395D01*
G01X40375D01*
G03X39766Y19787I0J-608D01*
G03X40375Y19178I608J0D01*
G01X42254D01*
G37*
G36*
G01X40828Y44078D02*
G03X41333Y44347I0J608D01*
G03X41380Y44388I-251J339D01*
G01X41868Y44876D01*
G03X42352Y44637I484J369D01*
G03X42960Y45245I0J608D01*
G03X42824Y45628I-608J0D01*
G01Y47067D01*
G03X43011Y47506I-422J438D01*
G03X42446Y48112I-608J0D01*
G03X42503Y48369I-551J257D01*
G03X41895Y48977I-608J0D01*
G03X41476Y48810I0J-608D01*
G03X41057Y48977I-419J-441D01*
G03X40449Y48388I0J-608D01*
G03X40371Y48393I-78J-603D01*
G03X39763Y47785I0J-608D01*
G03X39797Y47584I608J0D01*
G01Y46242D01*
G03X39610Y45804I422J-438D01*
G03X40218Y45196I608J0D01*
G03X40536Y45285I0J608D01*
G03X40601Y45250I318J519D01*
G03X40220Y44686I227J-564D01*
G03X40828Y44078I608J0D01*
G37*
G36*
G01X23736Y18999D02*
G03X24344Y18391I608J0D01*
G01X28703D01*
G03X29133Y18569I0J608D01*
G01X29834Y19270D01*
G03X30012Y19700I-430J430D01*
G03X29404Y20308I-608J0D01*
G03X28974Y20130I0J-608D01*
G01X28451Y19607D01*
G01X24344D01*
G03X23736Y18999I0J-608D01*
G37*
G36*
G01X39784Y26298D02*
G03X40214Y26476I0J608D01*
G01X42322Y28584D01*
G03X42501Y29014I-430J430D01*
G03X41892Y29623I-608J0D01*
G03X41462Y29444I0J-608D01*
G01X39522Y27504D01*
G03X39024Y26906I109J-598D01*
G03X39632Y26298I608J0D01*
G01X39784D01*
G37*
G36*
G01X18302Y42777D02*
G03X19060Y43536I0J758D01*
G03X18838Y44072I-758J0D01*
G01X17797Y45113D01*
G03X17261Y45335I-536J-536D01*
G01X15457D01*
G03X14699Y44577I0J-758D01*
G03X15457Y43819I758J0D01*
G01X16947D01*
G01X17766Y43000D01*
G03X18302Y42777I536J536D01*
G37*
G36*
G01X39030Y25476D02*
G03X39638Y24868I608J0D01*
G01X44884D01*
G03X45314Y25046I0J608D01*
G01X45576Y25308D01*
G03X45754Y25738I-430J430D01*
G03X45146Y26346I-608J0D01*
G03X44716Y26168I0J-608D01*
G01X44632Y26084D01*
G01X39638D01*
G03X39030Y25476I0J-608D01*
G37*
G36*
G01X10082Y45640D02*
G03X11191Y46749I0J1109D01*
G03X10082Y47858I-1109J0D01*
G01X8284D01*
G03X7175Y46749I0J-1109D01*
G03X8284Y45640I1109J0D01*
G01X10082D01*
G37*
G36*
G01X10082Y5142D02*
G03X11191Y6251I0J1109D01*
G03X10082Y7360I-1109J0D01*
G01X8284D01*
G03X7175Y6251I0J-1109D01*
G03X8284Y5142I1109J0D01*
G01X10082D01*
G37*
G36*
G01X7175Y32251D02*
G03X8284Y31142I1109J0D01*
G01X10082D01*
G03X11191Y32251I0J1109D01*
G03X10082Y33360I-1109J0D01*
G01X8284D01*
G03X7175Y32251I0J-1109D01*
G37*
G36*
G01X7175Y20749D02*
G03X8284Y19640I1109J0D01*
G01X10082D01*
G03X11191Y20749I0J1109D01*
G03X10082Y21858I-1109J0D01*
G01X8284D01*
G03X7175Y20749I0J-1109D01*
G37*
G36*
G01X18171Y46163D02*
G03X18929Y46921I0J758D01*
G03X18904Y47116I-758J0D01*
G01Y50985D01*
G03X18146Y51744I-758J0D01*
G03X17388Y50985I0J-758D01*
G01Y46947D01*
G03X17610Y46411I758J0D01*
G01X17635Y46385D01*
G03X18171Y46163I536J536D01*
G37*
G36*
G01X1513Y32251D02*
G03X2622Y31142I1109J0D01*
G01X3821D01*
G03X4930Y32251I0J1109D01*
G03X3821Y33360I-1109J0D01*
G01X2622D01*
G03X1513Y32251I0J-1109D01*
G37*
G36*
G01X3821Y5142D02*
G03X4930Y6251I0J1109D01*
G03X3821Y7360I-1109J0D01*
G01X2622D01*
G03X1513Y6251I0J-1109D01*
G03X2622Y5142I1109J0D01*
G01X3821D01*
G37*
G36*
G01X3821Y19640D02*
G03X4930Y20749I0J1109D01*
G03X3821Y21858I-1109J0D01*
G01X2622D01*
G03X1513Y20749I0J-1109D01*
G03X2622Y19640I1109J0D01*
G01X3821D01*
G37*
G36*
G01X1513Y46749D02*
G03X2622Y45640I1109J0D01*
G01X3821D01*
G03X4930Y46749I0J1109D01*
G03X3821Y47858I-1109J0D01*
G01X2622D01*
G03X1513Y46749I0J-1109D01*
G37*
G36*
G01X80503Y21013D02*
G03X81461Y21971I0J958D01*
G03X80503Y22929I-958J0D01*
G01X78702D01*
G03X77745Y21971I0J-958D01*
G03X78702Y21013I958J0D01*
G01X80503D01*
G37*
G36*
G01X77745Y5969D02*
G03X78702Y5011I958J0D01*
G01X80503D01*
G03X81461Y5969I0J958D01*
G03X80503Y6927I-958J0D01*
G01X78702D01*
G03X77745Y5969I0J-958D01*
G37*
G36*
G01X71159Y14657D02*
G03X71477Y14747I0J608D01*
G03X71794Y14657I318J519D01*
G03X72403Y15265I0J608D01*
G03X72102Y15790I-608J0D01*
G01Y16722D01*
G03X72403Y17247I-307J525D01*
G03X71794Y17855I-608J0D01*
G03X71464Y17757I0J-608D01*
G03X71134Y17855I-330J-511D01*
G03X70526Y17247I0J-608D01*
G03X70827Y16722I608J0D01*
G01Y15774D01*
G03X70551Y15265I333J-509D01*
G03X71159Y14657I608J0D01*
G37*
G36*
G01X43600Y43696D02*
G03X44308Y42988I708J0D01*
G03X45016Y43696I0J708D01*
G03X44966Y43957I-708J0D01*
G01Y45060D01*
G03X45016Y45321I-658J261D01*
G03X44308Y46029I-708J0D01*
G03X43600Y45321I0J-708D01*
G03X43650Y45060I708J0D01*
G01Y43957D01*
G03X43600Y43696I658J-261D01*
G37*
G36*
G01X31002Y16080D02*
G03X31610Y16688I0J608D01*
G03X31604Y16774I-608J0D01*
G01Y18981D01*
G03X30996Y19590I-608J0D01*
G03X30388Y18981I0J-608D01*
G01Y16694D01*
G03X30566Y16264I608J0D01*
G01X30572Y16258D01*
G03X31002Y16080I430J430D01*
G37*
G36*
G01X87452Y32192D02*
G03X88460Y33200I0J1008D01*
G03X87452Y34208I-1008J0D01*
G03X86444Y33200I0J-1008D01*
G03X87452Y32192I1008J0D01*
G37*
G36*
G01X80444Y33200D02*
G03X81452Y32192I1008J0D01*
G03X82460Y33200I0J1008D01*
G03X81452Y34208I-1008J0D01*
G03X80444Y33200I0J-1008D01*
G37*
G36*
G01X37449Y27721D02*
G03X37879Y27543I430J430D01*
G01X39048D01*
G03X39656Y28151I0J608D01*
G03X39048Y28759I-608J0D01*
G01X38131D01*
G01X38081Y28809D01*
G03X37651Y28988I-430J-430D01*
G03X37042Y28379I0J-608D01*
G03X37221Y27949I608J0D01*
G01X37449Y27721D01*
G37*
G36*
G01X34610Y15926D02*
G03X35218Y15318I608J0D01*
G03X35827Y15926I0J608D01*
G01Y17423D01*
G03X35648Y17854I-608J0D01*
G03X35217Y18033I-431J-429D01*
G03X34609Y17424I0J-608D01*
G03X34610Y17380I608J0D01*
G01Y15926D01*
G37*
G36*
G01X32985Y15572D02*
G03X33415Y15394I430J430D01*
G03X34023Y16002I0J608D01*
G03X34020Y16064I-608J0D01*
G01Y17424D01*
G03X33412Y18033I-608J0D01*
G03X32804Y17424I0J-608D01*
G01Y16005D01*
G03X32982Y15575I608J0D01*
G01X32985Y15572D01*
G37*
%LPD*%
G36*
G01X75530Y38571D02*
G01X75530Y39677D01*
G03X75428Y39779I-102J0D01*
G01X72727D01*
G01X72603Y39903D01*
G01Y41596D01*
G03X72501Y41698I-102J0D01*
G01X63363D01*
G01X63014Y42047D01*
G01Y44675D01*
G03X62984Y44747I-102J0D01*
G01X61910Y45821D01*
G01Y52642D01*
G01X90842D01*
G01Y38571D01*
G01X76896D01*
G01Y40021D01*
G03X77123Y40495I-381J474D01*
G03X76515Y41103I-608J0D01*
G03X75908Y40536I0J-608D01*
G03X75880Y40368I480J-167D01*
G01Y38571D01*
G01X75530D01*
G37*
%LPC*%
G36*
G01X86444Y44800D02*
G03X87452Y43792I1008J0D01*
G03X88460Y44800I0J1008D01*
G03X87452Y45808I-1008J0D01*
G03X86444Y44800I0J-1008D01*
G37*
G36*
G01X81452Y43792D02*
G03X82460Y44800I0J1008D01*
G03X81452Y45808I-1008J0D01*
G03X80444Y44800I0J-1008D01*
G03X81452Y43792I1008J0D01*
G37*
%LPD*%
G54D999*
G01X358Y358D02*
G01X358Y11455D01*
G01Y11456D01*
G01X347Y16155D01*
G01Y24967D01*
G01X358Y26617D01*
G01Y26618D01*
G01Y26619D01*
G01Y52642D01*
G01X61450D01*
G01Y45778D01*
G03X61555Y45525I358J0D01*
G01X62554Y44526D01*
G01Y42005D01*
G03X62659Y41751I358J0D01*
G01X63067Y41343D01*
G03X63321Y41238I253J253D01*
G01X72143D01*
G01Y39861D01*
G03X72248Y39608I358J0D01*
G01X72432Y39424D01*
G03X72685Y39319I253J253D01*
G01X75070D01*
G01Y38470D01*
G03X75428Y38112I358J0D01*
G01X75880D01*
G01Y37985D01*
G03X75780Y37650I508J-334D01*
G03X76388Y37042I608J0D01*
G03X76996Y37650I0J608D01*
G03X76896Y37985I-608J0D01*
G01Y38112D01*
G01X90842D01*
G01Y20932D01*
G01X80250D01*
G01X80238D01*
G03X79880Y20574I0J-358D01*
G01Y7366D01*
G03X80238Y7008I358J0D01*
G01X80250D01*
G01X90842D01*
G01Y4572D01*
G01Y3302D01*
G01Y358D01*
G01X358D01*
G01X40018Y12581D02*
G03X40726Y11873I708J0D01*
G03X40988Y11922I0J708D01*
G01X43571D01*
G03X44036Y12115I0J658D01*
G01X46957Y15036D01*
G03X47150Y15502I-465J465D01*
G01Y28252D01*
G03X46957Y28718I-658J0D01*
G01X43485Y32191D01*
G03X42835Y32618I-650J-281D01*
G03X42126Y31910I0J-708D01*
G03X42554Y31260I708J0D01*
G01X45834Y27980D01*
G01Y15774D01*
G01X43298Y13239D01*
G01X40988D01*
G03X40726Y13289I-261J-658D01*
G03X40018Y12581I0J-708D01*
G01X73468Y8037D02*
G03X73990Y7821I523J523D01*
G01X74627D01*
G01X74893D01*
G03X75632Y8560I0J739D01*
G01Y8565D01*
G01X77313Y10246D01*
G03X77701Y10897I-351J651D01*
G03X76962Y11636I-739J0D01*
G01X76527D01*
G03X76200Y11712I-327J-663D01*
G03X75484Y11157I0J-739D01*
G01X74210Y9883D01*
G01Y12489D01*
G03X74246Y12645I-322J156D01*
G01Y13332D01*
G01X74627D01*
G01X74829Y13130D01*
G01Y12645D01*
G03X75188Y12287I358J0D01*
G01X75788D01*
G03X76146Y12645I0J358D01*
G01Y13150D01*
G01X76166Y13170D01*
G03X76519Y13057I353J495D01*
G03X77127Y13665I0J608D01*
G03X77037Y13983I-608J0D01*
G03X77127Y14300I-519J318D01*
G03X76519Y14908I-608J0D01*
G03X76151Y14785I0J-608D01*
G01X76146Y14790D01*
G01Y15345D01*
G03X75788Y15704I-358J0D01*
G01X75188D01*
G03X74829Y15345I0J-358D01*
G01Y14810D01*
G01X74645Y14626D01*
G01X74646Y14645D01*
G01Y15345D01*
G03X74288Y15704I-358J0D01*
G01X73288D01*
G03X72929Y15345I0J-358D01*
G01Y14645D01*
G03X72931Y14608I358J0D01*
G01X71901D01*
G03X71576Y14473I0J-460D01*
G01X71101Y13998D01*
G01X66926D01*
G03X66992Y14275I-541J277D01*
G03X66886Y14619I-608J0D01*
G03X67273Y14479I388J469D01*
G03X67603Y14577I0J608D01*
G03X67934Y14479I330J511D01*
G03X68542Y15088I0J608D01*
G03X68241Y15612I-608J0D01*
G01Y16569D01*
G03X68542Y17094I-307J525D01*
G03X67934Y17702I-608J0D01*
G03X67603Y17605I0J-608D01*
G03X67273Y17702I-330J-511D01*
G03X66665Y17094I0J-608D01*
G03X66966Y16569I608J0D01*
G01Y15612D01*
G03X66665Y15088I307J-525D01*
G03X66772Y14743I608J0D01*
G03X66384Y14883I-388J-469D01*
G03X66054Y14785I0J-608D01*
G03X65724Y14883I-330J-511D01*
G03X65116Y14275I0J-608D01*
G03X65416Y13750I608J0D01*
G01Y13620D01*
G03X65551Y13294I460J0D01*
G01X65988Y12858D01*
G03X66313Y12723I325J325D01*
G01X71439D01*
G03X71764Y12858I0J460D01*
G01X72239Y13332D01*
G01X72929D01*
G01Y12645D01*
G03X72986Y12453I358J0D01*
G01Y8952D01*
G03X73165Y8519I612J0D01*
G01X73214Y8471D01*
G03X73417Y8088I726J140D01*
G01X73468Y8037D01*
G01X47992Y14986D02*
G03X48731Y14247I739J0D01*
G01X51449D01*
G03X51972Y14463I0J739D01*
G01X53089Y15581D01*
G03X53306Y16104I-523J523D01*
G01Y34251D01*
G03X53240Y34556I-739J0D01*
G03X52563Y35057I-677J-207D01*
G03X51871Y34501I0J-708D01*
G03X51827Y34251I695J-251D01*
G01Y16410D01*
G01X51143Y15725D01*
G01X48731D01*
G03X47992Y14986I0J-739D01*
G01X64374Y26908D02*
G03X64982Y27516I0J608D01*
G01Y29683D01*
G03X65376Y29861I-37J607D01*
G03X65554Y30291I-430J430D01*
G03X64982Y30898I-608J0D01*
G01Y35171D01*
G03X64804Y35601I-608J0D01*
G01X64064Y36341D01*
G03X63634Y36519I-430J-430D01*
G01X62005D01*
G03X62112Y36863I-501J344D01*
G03X61504Y37471I-608J0D01*
G01X61492D01*
G01X61395Y37568D01*
G03X61097Y37691I-298J-298D01*
G01X60411D01*
G03X60113Y37568I0J-422D01*
G01X58945Y36399D01*
G03X58832Y36193I298J-298D01*
G03X58735Y36201I-97J-600D01*
G03X58127Y35593I0J-608D01*
G03X58163Y35387I608J0D01*
G03X57593Y34780I39J-607D01*
G03X57597Y34717I608J0D01*
G03X57551Y34526I376J-190D01*
G01Y33593D01*
G03X57365Y33155I422J-438D01*
G03X57828Y32564I608J0D01*
G03X58430Y32039I603J83D01*
G03X59038Y32647I0J608D01*
G03X59031Y32741I-608J0D01*
G03X59495Y33332I-143J591D01*
G01Y33344D01*
G01X59541Y33390D01*
G03X59665Y33688I-298J298D01*
G01Y35582D01*
G01Y35926D01*
G01X60159Y36421D01*
G03X60337Y36001I608J11D01*
G01X60858Y35481D01*
G03X61288Y35302I430J430D01*
G01X63382D01*
G01X63766Y34919D01*
G01Y30290D01*
G01Y27516D01*
G03X64374Y26908I608J0D01*
G01X21784Y29328D02*
G03X22392Y29936I0J608D01*
G03X22205Y30374I-608J0D01*
G01Y41855D01*
G03X22365Y42266I-449J410D01*
G03X21756Y42874I-608J0D01*
G03X21594Y42852I0J-608D01*
G03X21454Y42978I-473J-383D01*
G01X22432Y43956D01*
G03X22555Y44254I-298J298D01*
G01Y48845D01*
G03X22742Y49284I-422J438D01*
G03X22134Y49892I-608J0D01*
G03X21816Y49802I0J-608D01*
G03X21499Y49892I-317J-519D01*
G03X20890Y49284I0J-608D01*
G03X21077Y48845I608J0D01*
G01Y44632D01*
G01X18965Y42521D01*
G03X18842Y42222I298J-298D01*
G01Y30443D01*
G03X18655Y30005I422J-438D01*
G03X19263Y29397I608J0D01*
G03X19657Y29542I0J608D01*
G03X20051Y29397I394J464D01*
G03X20583Y29712I0J608D01*
G03X21149Y29328I565J224D01*
G03X21466Y29417I0J608D01*
G03X21784Y29328I318J519D01*
G01X60767Y29649D02*
G03X61126Y29798I0J508D01*
G01X62566Y31238D01*
G03X63051Y31834I-123J596D01*
G03X62443Y32442I-608J0D01*
G03X61848Y31957I0J-608D01*
G01X60556Y30666D01*
G01X57447D01*
G01X54341Y33772D01*
G01Y34726D01*
G03X54441Y35060I-508J334D01*
G03X53833Y35668I-608J0D01*
G03X53225Y35060I0J-608D01*
G03X53325Y34726I608J0D01*
G01Y33561D01*
G03X53473Y33202I508J0D01*
G01X56877Y29798D01*
G03X57236Y29649I359J359D01*
G01X60767D01*
G01X47616Y39605D02*
G03X48049Y39426I433J433D01*
G01X50810D01*
G03X51422Y40038I0J612D01*
G03X50810Y40650I-612J0D01*
G01X48303D01*
G01X47653Y41300D01*
G01Y45720D01*
G01X48122Y46189D01*
G01X48137Y46191D01*
G01X50815D01*
G03X51245Y46369I0J608D01*
G01X51951Y47076D01*
G03X52129Y47506I-430J430D01*
G03X51521Y48114I-608J0D01*
G03X51091Y47936I0J-608D01*
G01X50563Y47407D01*
G01X48137D01*
G03X48067Y47411I-70J-608D01*
G01X47866D01*
G03X47433Y47232I0J-612D01*
G01X46608Y46407D01*
G03X46429Y45974I433J-433D01*
G01Y41046D01*
G03X46608Y40614I612J0D01*
G01X47616Y39605D01*
G01X57461Y31119D02*
G03X57821Y30970I359J359D01*
G01X60234D01*
G03X60291Y30973I0J508D01*
G03X60335Y30972I44J607D01*
G03X60943Y31580I0J608D01*
G03X60335Y32188I-608J0D01*
G03X59883Y31986I0J-608D01*
G01X58031D01*
G01X55712Y34305D01*
G01Y36711D01*
G03X55564Y37070I-508J0D01*
G01X55165Y37469D01*
G03X54569Y37954I-596J-123D01*
G03X53961Y37346I0J-608D01*
G03X54446Y36750I608J0D01*
G01X54696Y36500D01*
G01Y34094D01*
G03X54845Y33735I508J0D01*
G01X57461Y31119D01*
G01X50382Y16335D02*
G03X51090Y17043I0J708D01*
G01Y25531D01*
G03X50883Y26031I-708J0D01*
G01X48568Y28347D01*
G03X48067Y28554I-501J-501D01*
G03X47359Y27846I0J-708D01*
G03X47566Y27345I708J0D01*
G01X49674Y25237D01*
G01Y17043D01*
G03X50382Y16335I708J0D01*
G01X61681Y39049D02*
G03X62113Y39229I0J608D01*
G03X62545Y39049I432J428D01*
G03X63153Y39657I0J608D01*
G03X62545Y40265I-608J0D01*
G01X62533D01*
G01X58344Y44454D01*
G01Y44832D01*
G03X58530Y45270I-422J438D01*
G03X57922Y45879I-608J0D01*
G03X57592Y45781I0J-608D01*
G03X57262Y45879I-330J-511D01*
G03X56654Y45270I0J-608D01*
G03X56840Y44832I608J0D01*
G01Y44077D01*
G03X56964Y43778I422J0D01*
G01X61073Y39669D01*
G01Y39657D01*
G03X61681Y39049I608J0D01*
G01X44515Y15853D02*
G03X45223Y16561I0J708D01*
G03X44515Y17269I-708J0D01*
G03X44198Y17194I0J-708D01*
G01X38985D01*
G03X38910Y17233I-363J-608D01*
G01X39611Y17934D01*
G03X39789Y18364I-430J430D01*
G01Y18491D01*
G03X39181Y19099I-608J0D01*
G03X38589Y18633I0J-608D01*
G01X37100Y17143D01*
G03X36922Y16713I430J-430D01*
G03X37530Y16105I608J0D01*
G03X37960Y16283I0J608D01*
G01X37975Y16298D01*
G03X38622Y15878I647J288D01*
G03X38985Y15978I0J708D01*
G01X44112D01*
G03X44515Y15853I402J583D01*
G01X15635Y15394D02*
G03X16243Y16002I0J608D01*
G03X16218Y16175I-608J0D01*
G03X16448Y16652I-378J476D01*
G03X15840Y17260I-608J0D01*
G01X15828D01*
G01X15494Y17594D01*
G03X16067Y18201I-35J607D01*
G03X15881Y18639I-608J0D01*
G01Y22629D01*
G03X16091Y23089I-398J460D01*
G03X15483Y23697I-608J0D01*
G01X15477D01*
G03X15069Y24035I-553J-253D01*
G03X14467Y24560I-603J-83D01*
G03X13858Y23952I0J-608D01*
G03X14045Y23514I608J0D01*
G01Y17170D01*
G03X14168Y16872I422J0D01*
G01X15027Y16014D01*
G01Y16002D01*
G03X15635Y15394I608J0D01*
G01X7192Y25425D02*
G03X7800Y24817I608J0D01*
G03X8134Y24917I0J608D01*
G01X14437D01*
G03X14771Y24817I334J508D01*
G03X15380Y25425I0J608D01*
G03X15371Y25528I-608J0D01*
G01X15837D01*
G03X16078Y25478I241J558D01*
G03X16686Y26086I0J608D01*
G03X16078Y26694I-608J0D01*
G03X15837Y26644I0J-608D01*
G01X5512D01*
G03X5117Y26480I0J-558D01*
G01X5110Y26473D01*
G03X4726Y25908I224J-565D01*
G03X5334Y25300I608J0D01*
G03X5809Y25528I0J608D01*
G01X7201D01*
G03X7192Y25425I599J-102D01*
G01X3049Y41148D02*
G03X3658Y40540I608J0D01*
G03X4253Y41022I0J608D01*
G01X12598D01*
G03X12841Y40972I243J557D01*
G03X13449Y41580I0J608D01*
G03X12841Y42188I-608J0D01*
G03X12761Y42183I0J-608D01*
G03X12231Y42493I-530J-298D01*
G03X11731Y42230I0J-608D01*
G01X4045D01*
G03X3607Y42417I-438J-422D01*
G03X2999Y41808I0J-608D01*
G03X3124Y41439I608J0D01*
G03X3049Y41148I534J-291D01*
G01X42254Y19178D02*
G03X42684Y19357I0J608D01*
G01X44919Y21592D01*
G03X45098Y22022I-430J430D01*
G03X44489Y22630I-608J0D01*
G03X44059Y22452I0J-608D01*
G01X42002Y20395D01*
G01X40375D01*
G03X39766Y19787I0J-608D01*
G03X40375Y19178I608J0D01*
G01X42254D01*
G01X40828Y44078D02*
G03X41333Y44347I0J608D01*
G03X41380Y44388I-251J339D01*
G01X41868Y44876D01*
G03X42352Y44637I484J369D01*
G03X42960Y45245I0J608D01*
G03X42824Y45628I-608J0D01*
G01Y47067D01*
G03X43011Y47506I-422J438D01*
G03X42446Y48112I-608J0D01*
G03X42503Y48369I-551J257D01*
G03X41895Y48977I-608J0D01*
G03X41476Y48810I0J-608D01*
G03X41057Y48977I-419J-441D01*
G03X40449Y48388I0J-608D01*
G03X40371Y48393I-78J-603D01*
G03X39763Y47785I0J-608D01*
G03X39797Y47584I608J0D01*
G01Y46242D01*
G03X39610Y45804I422J-438D01*
G03X40218Y45196I608J0D01*
G03X40536Y45285I0J608D01*
G03X40601Y45250I318J519D01*
G03X40220Y44686I227J-564D01*
G03X40828Y44078I608J0D01*
G01X23736Y18999D02*
G03X24344Y18391I608J0D01*
G01X28703D01*
G03X29133Y18569I0J608D01*
G01X29834Y19270D01*
G03X30012Y19700I-430J430D01*
G03X29404Y20308I-608J0D01*
G03X28974Y20130I0J-608D01*
G01X28451Y19607D01*
G01X24344D01*
G03X23736Y18999I0J-608D01*
G01X39784Y26298D02*
G03X40214Y26476I0J608D01*
G01X42322Y28584D01*
G03X42501Y29014I-430J430D01*
G03X41892Y29623I-608J0D01*
G03X41462Y29444I0J-608D01*
G01X39522Y27504D01*
G03X39024Y26906I109J-598D01*
G03X39632Y26298I608J0D01*
G01X39784D01*
G01X18302Y42777D02*
G03X19060Y43536I0J758D01*
G03X18838Y44072I-758J0D01*
G01X17797Y45113D01*
G03X17261Y45335I-536J-536D01*
G01X15457D01*
G03X14699Y44577I0J-758D01*
G03X15457Y43819I758J0D01*
G01X16947D01*
G01X17766Y43000D01*
G03X18302Y42777I536J536D01*
G01X39030Y25476D02*
G03X39638Y24868I608J0D01*
G01X44884D01*
G03X45314Y25046I0J608D01*
G01X45576Y25308D01*
G03X45754Y25738I-430J430D01*
G03X45146Y26346I-608J0D01*
G03X44716Y26168I0J-608D01*
G01X44632Y26084D01*
G01X39638D01*
G03X39030Y25476I0J-608D01*
G01X10082Y45640D02*
G03X11191Y46749I0J1109D01*
G03X10082Y47858I-1109J0D01*
G01X8284D01*
G03X7175Y46749I0J-1109D01*
G03X8284Y45640I1109J0D01*
G01X10082D01*
G01X10082Y5142D02*
G03X11191Y6251I0J1109D01*
G03X10082Y7360I-1109J0D01*
G01X8284D01*
G03X7175Y6251I0J-1109D01*
G03X8284Y5142I1109J0D01*
G01X10082D01*
G01X7175Y32251D02*
G03X8284Y31142I1109J0D01*
G01X10082D01*
G03X11191Y32251I0J1109D01*
G03X10082Y33360I-1109J0D01*
G01X8284D01*
G03X7175Y32251I0J-1109D01*
G01X7175Y20749D02*
G03X8284Y19640I1109J0D01*
G01X10082D01*
G03X11191Y20749I0J1109D01*
G03X10082Y21858I-1109J0D01*
G01X8284D01*
G03X7175Y20749I0J-1109D01*
G01X18171Y46163D02*
G03X18929Y46921I0J758D01*
G03X18904Y47116I-758J0D01*
G01Y50985D01*
G03X18146Y51744I-758J0D01*
G03X17388Y50985I0J-758D01*
G01Y46947D01*
G03X17610Y46411I758J0D01*
G01X17635Y46385D01*
G03X18171Y46163I536J536D01*
G01X1513Y32251D02*
G03X2622Y31142I1109J0D01*
G01X3821D01*
G03X4930Y32251I0J1109D01*
G03X3821Y33360I-1109J0D01*
G01X2622D01*
G03X1513Y32251I0J-1109D01*
G01X3821Y5142D02*
G03X4930Y6251I0J1109D01*
G03X3821Y7360I-1109J0D01*
G01X2622D01*
G03X1513Y6251I0J-1109D01*
G03X2622Y5142I1109J0D01*
G01X3821D01*
G01X3821Y19640D02*
G03X4930Y20749I0J1109D01*
G03X3821Y21858I-1109J0D01*
G01X2622D01*
G03X1513Y20749I0J-1109D01*
G03X2622Y19640I1109J0D01*
G01X3821D01*
G01X1513Y46749D02*
G03X2622Y45640I1109J0D01*
G01X3821D01*
G03X4930Y46749I0J1109D01*
G03X3821Y47858I-1109J0D01*
G01X2622D01*
G03X1513Y46749I0J-1109D01*
G01X80503Y21013D02*
G03X81461Y21971I0J958D01*
G03X80503Y22929I-958J0D01*
G01X78702D01*
G03X77745Y21971I0J-958D01*
G03X78702Y21013I958J0D01*
G01X80503D01*
G01X77745Y5969D02*
G03X78702Y5011I958J0D01*
G01X80503D01*
G03X81461Y5969I0J958D01*
G03X80503Y6927I-958J0D01*
G01X78702D01*
G03X77745Y5969I0J-958D01*
G01X71159Y14657D02*
G03X71477Y14747I0J608D01*
G03X71794Y14657I318J519D01*
G03X72403Y15265I0J608D01*
G03X72102Y15790I-608J0D01*
G01Y16722D01*
G03X72403Y17247I-307J525D01*
G03X71794Y17855I-608J0D01*
G03X71464Y17757I0J-608D01*
G03X71134Y17855I-330J-511D01*
G03X70526Y17247I0J-608D01*
G03X70827Y16722I608J0D01*
G01Y15774D01*
G03X70551Y15265I333J-509D01*
G03X71159Y14657I608J0D01*
G01X43600Y43696D02*
G03X44308Y42988I708J0D01*
G03X45016Y43696I0J708D01*
G03X44966Y43957I-708J0D01*
G01Y45060D01*
G03X45016Y45321I-658J261D01*
G03X44308Y46029I-708J0D01*
G03X43600Y45321I0J-708D01*
G03X43650Y45060I708J0D01*
G01Y43957D01*
G03X43600Y43696I658J-261D01*
G01X31002Y16080D02*
G03X31610Y16688I0J608D01*
G03X31604Y16774I-608J0D01*
G01Y18981D01*
G03X30996Y19590I-608J0D01*
G03X30388Y18981I0J-608D01*
G01Y16694D01*
G03X30566Y16264I608J0D01*
G01X30572Y16258D01*
G03X31002Y16080I430J430D01*
G01X87452Y32192D02*
G03X88460Y33200I0J1008D01*
G03X87452Y34208I-1008J0D01*
G03X86444Y33200I0J-1008D01*
G03X87452Y32192I1008J0D01*
G01X80444Y33200D02*
G03X81452Y32192I1008J0D01*
G03X82460Y33200I0J1008D01*
G03X81452Y34208I-1008J0D01*
G03X80444Y33200I0J-1008D01*
G01X37449Y27721D02*
G03X37879Y27543I430J430D01*
G01X39048D01*
G03X39656Y28151I0J608D01*
G03X39048Y28759I-608J0D01*
G01X38131D01*
G01X38081Y28809D01*
G03X37651Y28988I-430J-430D01*
G03X37042Y28379I0J-608D01*
G03X37221Y27949I608J0D01*
G01X37449Y27721D01*
G01X34610Y15926D02*
G03X35218Y15318I608J0D01*
G03X35827Y15926I0J608D01*
G01Y17423D01*
G03X35648Y17854I-608J0D01*
G03X35217Y18033I-431J-429D01*
G03X34609Y17424I0J-608D01*
G03X34610Y17380I608J0D01*
G01Y15926D01*
G01X32985Y15572D02*
G03X33415Y15394I430J430D01*
G03X34023Y16002I0J608D01*
G03X34020Y16064I-608J0D01*
G01Y17424D01*
G03X33412Y18033I-608J0D01*
G03X32804Y17424I0J-608D01*
G01Y16005D01*
G03X32982Y15575I608J0D01*
G01X32985Y15572D01*
G01X75530Y38571D02*
G01X75530Y39677D01*
G03X75428Y39779I-102J0D01*
G01X72727D01*
G01X72603Y39903D01*
G01Y41596D01*
G03X72501Y41698I-102J0D01*
G01X63363D01*
G01X63014Y42047D01*
G01Y44675D01*
G03X62984Y44747I-102J0D01*
G01X61910Y45821D01*
G01Y52642D01*
G01X90842D01*
G01Y38571D01*
G01X76896D01*
G01Y40021D01*
G03X77123Y40495I-381J474D01*
G03X76515Y41103I-608J0D01*
G03X75908Y40536I0J-608D01*
G03X75880Y40368I480J-167D01*
G01Y38571D01*
G01X75530D01*
G01X86444Y44800D02*
G03X87452Y43792I1008J0D01*
G03X88460Y44800I0J1008D01*
G03X87452Y45808I-1008J0D01*
G03X86444Y44800I0J-1008D01*
G01X81452Y43792D02*
G03X82460Y44800I0J1008D01*
G03X81452Y45808I-1008J0D01*
G03X80444Y44800I0J-1008D01*
G03X81452Y43792I1008J0D01*
G54D10*
G01X3221Y46749D02*
G01X3221Y47759D01*
G01X3221Y46749D02*
G01X3221Y45740D01*
G01X3221Y46749D02*
G01X4830Y46749D01*
G01X3221Y46749D02*
G01X1612Y46749D01*
G01X3221Y20749D02*
G01X3221Y21759D01*
G01X3221Y20749D02*
G01X3221Y19740D01*
G01X3221Y20749D02*
G01X4830Y20749D01*
G01X3221Y20749D02*
G01X1612Y20749D01*
G01X9183Y6251D02*
G01X9183Y7260D01*
G01X9183Y6251D02*
G01X9183Y5241D01*
G01X9183Y6251D02*
G01X11092Y6251D01*
G01X9183Y6251D02*
G01X7274Y6251D01*
G01X9183Y32251D02*
G01X9183Y33260D01*
G01X9183Y32251D02*
G01X9183Y31241D01*
G01X9183Y32251D02*
G01X11092Y32251D01*
G01X9183Y32251D02*
G01X7274Y32251D01*
G01X3221Y6251D02*
G01X3221Y7260D01*
G01X3221Y6251D02*
G01X3221Y5241D01*
G01X3221Y6251D02*
G01X4830Y6251D01*
G01X3221Y6251D02*
G01X1612Y6251D01*
G01X9183Y20749D02*
G01X9183Y21759D01*
G01X9183Y20749D02*
G01X9183Y19740D01*
G01X9183Y20749D02*
G01X11092Y20749D01*
G01X9183Y20749D02*
G01X7274Y20749D01*
G01X79603Y5969D02*
G01X79603Y5110D01*
G01X79603Y5969D02*
G01X79603Y6828D01*
G01X79603Y5969D02*
G01X77844Y5969D01*
G01X79603Y5969D02*
G01X81362Y5969D01*
G01X79603Y21971D02*
G01X79603Y21112D01*
G01X79603Y21971D02*
G01X79603Y22830D01*
G01X79603Y21971D02*
G01X77844Y21971D01*
G01X79603Y21971D02*
G01X81362Y21971D01*
G01X3221Y32251D02*
G01X3221Y33260D01*
G01X3221Y32251D02*
G01X3221Y31241D01*
G01X3221Y32251D02*
G01X4830Y32251D01*
G01X3221Y32251D02*
G01X1612Y32251D01*
G01X73788Y14995D02*
G01X73029Y14995D01*
G01X73788Y14995D02*
G01X74547Y14995D01*
G01X73788Y14995D02*
G01X73788Y15604D01*
G01X9183Y46749D02*
G01X9183Y47759D01*
G01X9183Y46749D02*
G01X9183Y45740D01*
G01X9183Y46749D02*
G01X11092Y46749D01*
G01X9183Y46749D02*
G01X7274Y46749D01*
G04 Copper End*

G04 Pad Start*
G54D11*
G01X3221Y6251D03*
G01X3221Y20749D03*
G54D12*
G01X9183Y6251D03*
G01X9183Y20749D03*
G54D11*
G01X3221Y32251D03*
G01X3221Y46749D03*
G54D12*
G01X9183Y32251D03*
G01X9183Y46749D03*
G36*
G01X73288Y15345D02*
G01X73288Y14645D01*
G01X74288D01*
G01Y15345D01*
G01X73288D01*
G37*
G36*
G01X75188Y15345D02*
G01X75188Y14645D01*
G01X75788D01*
G01Y15345D01*
G01X75188D01*
G37*
G36*
G01X75188Y13345D02*
G01X75188Y12645D01*
G01X75788D01*
G01Y13345D01*
G01X75188D01*
G37*
G36*
G01X73288Y13345D02*
G01X73288Y12645D01*
G01X73888D01*
G01Y13345D01*
G01X73288D01*
G37*
G54D13*
G01X79603Y5969D03*
G01X79603Y21971D03*
G04 Pad End*

G04 Via Start*
G54D14*
G01X76962Y10897D03*
G01X76200Y10973D03*
G54D15*
G01X77013Y16891D03*
G54D16*
G01X77089Y13970D03*
G54D15*
G01X76519Y14300D03*
G01X76519Y13665D03*
G54D14*
G01X73939Y8611D03*
G01X74893Y8560D03*
G54D15*
G01X71159Y15265D03*
G01X71794Y15265D03*
G01X71794Y17247D03*
G01X71134Y17247D03*
G01X67934Y17094D03*
G01X67273Y17094D03*
G01X67934Y15088D03*
G01X67273Y15088D03*
G54D14*
G01X54878Y4674D03*
G01X54853Y5563D03*
G01X56427Y6299D03*
G01X59348Y4648D03*
G01X86095Y3150D03*
G54D15*
G01X66384Y14275D03*
G01X65724Y14275D03*
G54D14*
G01X50382Y17043D03*
G01X48067Y27846D03*
G54D15*
G01X43346Y22073D03*
G01X43245Y23927D03*
G01X43524Y26340D03*
G01X43520Y28151D03*
G01X43600Y18059D03*
G01X44489Y22022D03*
G01X40375Y19787D03*
G01X40638Y18907D03*
G54D14*
G01X44515Y16561D03*
G01X38622Y16586D03*
G54D15*
G01X39638Y25476D03*
G01X45146Y25738D03*
G01X36565Y16002D03*
G01X37530Y16713D03*
G01X39181Y18491D03*
G01X32094Y16535D03*
G01X35218Y15926D03*
G01X35217Y17424D03*
G01X33415Y16002D03*
G01X33412Y17424D03*
G54D14*
G01X48731Y14986D03*
G54D15*
G01X31002Y16688D03*
G01X32686Y31364D03*
G01X37272Y31504D03*
G01X21784Y29936D03*
G01X21756Y42266D03*
G01X21149Y29936D03*
G01X21121Y42469D03*
G01X30996Y18981D03*
G01X25233Y16231D03*
G01X37651Y28379D03*
G01X39048Y28151D03*
G01X41892Y29014D03*
G01X39632Y26906D03*
G01X14771Y25425D03*
G01X7800Y25425D03*
G01X15840Y16652D03*
G01X14467Y23952D03*
G01X14924Y23444D03*
G01X15635Y16002D03*
G01X15483Y23089D03*
G01X15459Y18201D03*
G01X12841Y41580D03*
G01X3658Y41148D03*
G01X12231Y41885D03*
G01X3607Y41808D03*
G01X24344Y18999D03*
G01X25081Y19787D03*
G01X21647Y19450D03*
G01X21682Y16118D03*
G01X21796Y22786D03*
G01X22393Y29250D03*
G01X20285Y24907D03*
G01X29404Y19700D03*
G01X26762Y13654D03*
G01X18634Y31409D03*
G01X15886Y13259D03*
G01X15886Y10262D03*
G01X7910Y13995D03*
G01X7910Y12499D03*
G01X7910Y11001D03*
G01X7910Y9504D03*
G01X7910Y16995D03*
G01X12152Y16817D03*
G01X12050Y15217D03*
G54D14*
G01X15457Y44577D03*
G01X18302Y43536D03*
G54D15*
G01X7976Y35509D03*
G01X7974Y37001D03*
G01X7973Y38499D03*
G01X7969Y39999D03*
G01X11963Y43409D03*
G01X5334Y25908D03*
G01X16078Y26086D03*
G01X15809Y39251D03*
G01X15809Y36253D03*
G01X27135Y30114D03*
G01X23835Y30335D03*
G01X24724Y26805D03*
G01X24750Y25992D03*
G01X18679Y26881D03*
G01X21245Y27084D03*
G01X19263Y30005D03*
G01X20051Y30005D03*
G01X18298Y44889D03*
G01X7986Y42781D03*
G54D14*
G01X18171Y46921D03*
G54D15*
G01X12964Y34485D03*
G54D14*
G01X18146Y50985D03*
G54D15*
G01X12837Y24696D03*
G01X13294Y19312D03*
G01X11262Y28278D03*
G54D14*
G01X40726Y12581D03*
G01X42835Y31910D03*
G54D15*
G01X41260Y32012D03*
G01X41006Y30691D03*
G01X22134Y49284D03*
G01X21499Y49284D03*
G01X47153Y30005D03*
G01X47178Y29141D03*
G01X51445Y24239D03*
G01X64946Y30291D03*
G01X64374Y27516D03*
G01X63231Y30157D03*
G01X60767Y36736D03*
G01X61504Y36863D03*
G01X58735Y35593D03*
G01X58202Y34780D03*
G01X58684Y34272D03*
G01X58887Y33332D03*
G01X58430Y32647D03*
G01X57973Y33155D03*
G01X61681Y39657D03*
G01X57262Y45270D03*
G01X64221Y48293D03*
G01X63510Y48293D03*
G01X73569Y43848D03*
G01X74153Y43111D03*
G01X73797Y45880D03*
G01X68374Y46290D03*
G01X67879Y44000D03*
G01X65568Y43340D03*
G01X64821Y42756D03*
G01X73975Y40394D03*
G01X73289Y40941D03*
G01X77099Y38997D03*
G01X78064Y40038D03*
G01X78445Y43467D03*
G01X83398Y46058D03*
G01X83398Y43054D03*
G01X78293Y47074D03*
G01X76769Y50579D03*
G01X68743Y51620D03*
G01X72045Y50681D03*
G01X75702Y49995D03*
G01X69454Y50477D03*
G01X89926Y51900D03*
G01X85176Y51900D03*
G01X80147Y51900D03*
G01X89875Y36939D03*
G01X88148Y27719D03*
G54D14*
G01X52563Y34348D03*
G54D15*
G01X53833Y35060D03*
G01X76388Y37650D03*
G01X76515Y40495D03*
G01X74888Y38324D03*
G01X47965Y36736D03*
G01X49134Y37574D03*
G01X54569Y37346D03*
G01X60335Y31580D03*
G01X62443Y31834D03*
G01X56855Y31504D03*
G01X53071Y40749D03*
G01X62545Y39657D03*
G01X57922Y45270D03*
G01X56627Y42857D03*
G01X55179Y43086D03*
G01X51521Y47506D03*
G01X48067Y46799D03*
G54D14*
G01X44308Y43696D03*
G01X44308Y45321D03*
G54D15*
G01X48651Y48598D03*
G01X50429Y48826D03*
G01X42352Y45245D03*
G01X42403Y47506D03*
G01X40218Y45804D03*
G01X41488Y45804D03*
G01X40853Y45804D03*
G01X41488Y47785D03*
G01X40371Y47785D03*
G01X41057Y48369D03*
G01X40828Y44686D03*
G01X45756Y42222D03*
G01X41895Y48369D03*
G01X47432Y26271D03*
G01X42377Y35771D03*
G01X42479Y34326D03*
G01X43038Y36812D03*
G01X42657Y39835D03*
G01X39930Y39835D03*
G01X38034Y38285D03*
G01X36916Y37473D03*
G01X32979Y40698D03*
G01X12101Y40876D03*
G01X16302Y46750D03*
G01X5116Y49868D03*
G01X823Y52179D03*
G01X20787Y44813D03*
G01X23327Y45474D03*
G01X39126Y45474D03*
G01X31557Y45499D03*
G01X27341Y42527D03*
G01X41692Y42451D03*
G54D14*
G01X49515Y43416D03*
G01X50328Y43416D03*
G01X48702Y43416D03*
G01X48702Y44229D03*
G01X50328Y44229D03*
G01X49515Y44229D03*
G01X50328Y42603D03*
G01X48702Y42603D03*
G01X49515Y42603D03*
G01X32040Y25636D03*
G01X33284Y25636D03*
G01X34503Y25636D03*
G01X35748Y25636D03*
G01X37018Y25636D03*
G01X38288Y25636D03*
G01X30820Y25636D03*
G01X30820Y24417D03*
G01X32040Y24417D03*
G01X33284Y24417D03*
G01X34503Y24417D03*
G01X35748Y24417D03*
G01X37018Y24417D03*
G01X38288Y24417D03*
G01X30820Y23147D03*
G01X32040Y23147D03*
G01X33284Y23147D03*
G01X34503Y23147D03*
G01X35748Y23147D03*
G01X37018Y23147D03*
G01X38288Y23147D03*
G01X38288Y21877D03*
G01X37018Y21877D03*
G01X35748Y21877D03*
G01X34503Y21877D03*
G01X33284Y21877D03*
G01X32040Y21877D03*
G01X30820Y21877D03*
G01X37018Y19388D03*
G01X37018Y20632D03*
G01X35748Y20632D03*
G01X34503Y20632D03*
G01X33284Y20632D03*
G01X32040Y20632D03*
G01X30820Y20632D03*
G01X35748Y19388D03*
G01X34503Y19388D03*
G01X33284Y19388D03*
G01X32040Y19388D03*
G54D15*
G01X43418Y8001D03*
G01X43317Y10117D03*
G01X47838Y22283D03*
G01X47838Y19896D03*
G01X47838Y21165D03*
G01X30541Y28516D03*
G01X19568Y19388D03*
G01X20914Y14867D03*
G01X28636Y9939D03*
G01X27435Y9939D03*
G01X25699Y10667D03*
G01X30926Y9590D03*
G01X32083Y9590D03*
G01X33207Y9590D03*
G01X34964Y9613D03*
G01X37936Y9817D03*
G01X36819Y9817D03*
G01X39660Y13216D03*
G01X39355Y15781D03*
G01X42987Y15298D03*
G01X43012Y11565D03*
G01X45099Y11708D03*
G01X47330Y12377D03*
G01X45679Y9355D03*
G01X45502Y7805D03*
G01X45933Y3513D03*
G01X44256Y4822D03*
G01X38732Y3505D03*
G01X39431Y4503D03*
G01X38745Y7729D03*
G01X32751Y3437D03*
G01X23734Y3386D03*
G01X15022Y3386D03*
G01X56500Y11869D03*
G01X56500Y12644D03*
G01X50378Y11641D03*
G01X51699Y11336D03*
G01X65415Y3919D03*
G01X67070Y2844D03*
G01X68537Y4431D03*
G01X90002Y5875D03*
G01X83551Y5240D03*
G01X73797Y16314D03*
G01X69428Y15248D03*
G01X65618Y19058D03*
G01X61011Y16459D03*
G01X61925Y15672D03*
G01X73826Y3053D03*
G01X69409Y3053D03*
G01X71781Y886D03*
G01X73826Y1595D03*
G01X69403Y1582D03*
G01X90231Y922D03*
G01X61326Y897D03*
G01X68489Y8948D03*
G01X72400Y10752D03*
G01X71968Y12835D03*
G01X68920Y21420D03*
G01X90147Y21971D03*
G01X85126Y22614D03*
G01X60259Y29446D03*
G01X61504Y28786D03*
G01X62443Y25154D03*
G01X57567Y24773D03*
G01X68031Y24722D03*
G01X76363Y24646D03*
G01X83830Y25154D03*
G01X82306Y27541D03*
G01X75905Y28735D03*
G01X68006Y28354D03*
G54D14*
G01X60945Y33917D03*
G01X61758Y33917D03*
G01X61758Y34729D03*
G01X60945Y34729D03*
G54D15*
G01X59827Y35796D03*
G01X51191Y37117D03*
G01X53428Y37117D03*
G01X52282Y37117D03*
G01X59243Y39911D03*
G01X59802Y38997D03*
G01X66025Y30107D03*
G01X67015Y32062D03*
G01X67015Y33204D03*
G01X67015Y34347D03*
G01X65923Y36533D03*
G01X71816Y35669D03*
G01X77480Y35136D03*
G01X78953Y29853D03*
G01X72273Y29624D03*
G01X83271Y34755D03*
G01X83271Y31737D03*
G01X88984Y33200D03*
G01X56413Y22377D03*
G01X55103Y24163D03*
G01X50582Y27719D03*
G01X49108Y32266D03*
G01X43800Y32545D03*
G01X54087Y31758D03*
G01X58964Y46718D03*
G01X54780Y46665D03*
G01X51846Y45718D03*
G01X52639Y49182D03*
G01X58024Y48674D03*
G01X55941Y49842D03*
G01X62570Y50630D03*
G01X62570Y51395D03*
G01X31770Y34265D03*
G01X30345Y34265D03*
G01X22870Y34475D03*
G01X49058Y17762D03*
G01X54392Y16416D03*
G01X1179Y1100D03*
G01X19187Y795D03*
G01X39406Y846D03*
G01X49083Y8999D03*
G01X20965Y50350D03*
G01X44308Y50401D03*
G01X60996Y52179D03*
G01X57211Y52179D03*
G01X12456Y52367D03*
G01X12744Y39267D03*
G01X12732Y36267D03*
G01X45552Y48674D03*
G01X12685Y13251D03*
G01X12710Y10263D03*
G01X62763Y7874D03*
G01X75895Y15850D03*
G01X76667Y12616D03*
G01X57414Y36187D03*
G01X18298Y34536D03*
G01X4354Y38854D03*
G01X4379Y43858D03*
G01X15631Y50309D03*
G01X33335Y50385D03*
G01X24089Y52341D03*
G01X34097Y52367D03*
G01X45578Y52341D03*
G01X50810Y40038D03*
G04 Via End*

G04 Track Start*
G54D18*
G01X76519Y14300D02*
G01X76493Y14300D01*
G01X76341Y14148D01*
G01X76519Y13665D02*
G01X76392Y13792D01*
G01X76138D01*
G01X75488Y13142D01*
G01X76341Y14148D02*
G01X76138Y14148D01*
G01X75488Y14798D01*
G01X75488Y14995D02*
G01X75488Y14798D01*
G01X75488Y14995D02*
G01X75488Y15072D01*
G01X75488Y14798D02*
G01X75467Y14798D01*
G01X74817Y14148D01*
G01X75488Y12995D02*
G01X75488Y13142D01*
G01X75467D01*
G01X74817Y13792D01*
G01X71794Y17247D02*
G01X71642Y17094D01*
G01X71134Y17247D02*
G01X71286Y17094D01*
G01X67934Y17094D02*
G01X67781Y16942D01*
G01Y15240D01*
G01X67934Y15088D02*
G01X67781Y15240D01*
G01X67273Y17094D02*
G01X67426Y16942D01*
G01Y15240D01*
G01X67273Y15088D02*
G01X67426Y15240D01*
G01X66384Y14275D02*
G01X66232Y14122D01*
G01X65724Y14275D02*
G01X65876Y14122D01*
G54D19*
G01X73588Y12995D02*
G01X73598Y12985D01*
G01X73598Y8952D02*
G01X73598Y12985D01*
G01X73939Y8611D02*
G01X73598Y8952D01*
G54D18*
G01X71286Y17094D02*
G01X71286Y15392D01*
G01X71159Y15265D01*
G01X71794Y15265D02*
G01X71794Y15291D01*
G01X71642Y15443D01*
G01X71642Y17094D02*
G01X71642Y15443D01*
G01X66232Y14122D02*
G01X66232Y13767D01*
G01X65876Y14122D02*
G01X65876Y13620D01*
G01X66232Y13767D02*
G01X66460Y13538D01*
G01X65876Y13620D02*
G01X66313Y13183D01*
G01X71439D01*
G01X72048Y13792D01*
G01X74817D01*
G01X66460Y13538D02*
G01X71292Y13538D01*
G01X71901Y14148D01*
G01X74817D01*
G54D20*
G01X50382Y25531D02*
G01X50382Y17043D01*
G01X48067Y27846D02*
G01X50382Y25531D01*
G54D15*
G01X40375Y19787D02*
G01X42254Y19787D01*
G01X44489Y22022D01*
G01X38622Y16586D02*
G01X44489Y16586D01*
G01X44515Y16561D01*
G01X44884Y25476D02*
G01X39638Y25476D01*
G01X45146Y25738D02*
G01X44884Y25476D01*
G01X37530Y16713D02*
G01X39181Y18364D01*
G01Y18491D01*
G01X35218Y15926D02*
G01X35218Y17423D01*
G01X33412Y17424D02*
G01X33412Y16005D01*
G01X33415Y16002D01*
G54D21*
G01X48731Y14986D02*
G01X51449Y14986D01*
G01X52567Y16104D02*
G01X51449Y14986D01*
G54D22*
G01X21784Y42238D02*
G01X21784Y29936D01*
G01X21756Y42266D02*
G01X21784Y42238D01*
G01X21149Y42442D02*
G01X21149Y29936D01*
G01X21121Y42469D02*
G01X21149Y42442D01*
G54D15*
G01X30996Y18981D02*
G01X30996Y16694D01*
G01X31002Y16688D01*
G01X37651Y28379D02*
G01X37879Y28151D01*
G01X39048D01*
G01X41892Y29014D02*
G01X39784Y26906D01*
G01X39632D01*
G54D22*
G01X12155Y41808D02*
G01X12231Y41885D01*
G01X3607Y41808D02*
G01X12155Y41808D01*
G54D15*
G01X24344Y18999D02*
G01X28703Y18999D01*
G01X29404Y19700D01*
G54D22*
G01X14924Y23444D02*
G01X14924Y17568D01*
G01X15840Y16652D01*
G01X15483Y23089D02*
G01X15459Y23065D01*
G01Y18201D01*
G01X15635Y16002D02*
G01X14467Y17170D01*
G01Y23952D01*
G54D23*
G01X15457Y44577D02*
G01X17261Y44577D01*
G01X18302Y43536D01*
G54D24*
G01X7800Y25425D02*
G01X14771Y25425D01*
G54D25*
G01X5334Y25908D02*
G01X5512Y26086D01*
G01X16078D01*
G54D23*
G01X18146Y50985D02*
G01X18146Y46947D01*
G54D26*
G01X40726Y12581D02*
G01X43571Y12581D01*
G54D15*
G01X64945Y30290D02*
G01X64374Y30290D01*
G01X64374Y27516D02*
G01X64374Y30290D01*
G01X60767Y36431D02*
G01X60767Y36736D01*
G01X61288Y35911D02*
G01X60767Y36431D01*
G54D22*
G01X61097Y37269D02*
G01X61504Y36863D01*
G01X60411Y37269D02*
G01X61097Y37269D01*
G01X60411Y37269D02*
G01X59243Y36101D01*
G01X59243Y33688D02*
G01X58887Y33332D01*
G01X58735Y35593D02*
G01X59232Y35593D01*
G01X59243Y35582D01*
G01X59243Y36101D02*
G01X59243Y35582D01*
G01Y33688D01*
G01X58430Y32647D02*
G01X58430Y34018D01*
G01X58684Y34272D01*
G01X58202Y34780D02*
G01X58202Y34755D01*
G01X57973Y34526D01*
G01Y33155D01*
G54D21*
G01X52567Y34251D02*
G01X52567Y16104D01*
G54D24*
G01X76388Y37650D02*
G01X76388Y40368D01*
G01X76515Y40495D01*
G01X55204Y36711D02*
G01X54569Y37346D01*
G01X60767Y30157D02*
G01X62443Y31834D01*
G01X60335Y31580D02*
G01X60234Y31478D01*
G01X57821D01*
G01X55204Y34094D01*
G01Y36711D01*
G01X53833Y35060D02*
G01X53833Y33561D01*
G01X57236Y30157D01*
G01X60767D01*
G54D22*
G01X57922Y45270D02*
G01X57922Y44280D01*
G01X62545Y39657D01*
G01X61681Y39657D02*
G01X57262Y44077D01*
G01Y45270D01*
G54D15*
G01X48067Y46799D02*
G01X50815Y46799D01*
G01X51521Y47506D01*
G54D26*
G01X44308Y45321D02*
G01X44308Y43696D01*
G54D22*
G01X41895Y48369D02*
G01X41895Y48191D01*
G01X41946Y48141D02*
G01X41895Y48191D01*
G01X22134Y49284D02*
G01X22134Y44254D01*
G01X20051Y42172D01*
G01Y30005D01*
G01X21499Y49284D02*
G01X21499Y44458D01*
G01X19263Y42222D01*
G01Y30005D01*
G01X42403Y45296D02*
G01X42403Y47506D01*
G01X42352Y45245D02*
G01X42403Y45296D01*
G01X41488Y47785D02*
G01X41488Y45804D01*
G01X41057Y48369D02*
G01X40930Y48242D01*
G01Y45880D01*
G01X40853Y45804D01*
G01X40371Y47785D02*
G01X40218Y47633D01*
G01Y45804D01*
G01X40828Y44686D02*
G01X41082Y44686D01*
G01X41946Y45550D01*
G01Y48141D01*
G54D23*
G01X18146Y46947D02*
G01X18171Y46921D01*
G54D22*
G01X3658Y41148D02*
G01X3954Y41444D01*
G01X12705D01*
G01X12841Y41580D01*
G54D15*
G01X73788Y14995D02*
G01X73788Y16305D01*
G01X73797Y16314D01*
G54D26*
G01X42835Y31910D02*
G01X46492Y28252D01*
G01Y15502D01*
G01X43571Y12581D01*
G54D27*
G01X74576Y8611D02*
G01X74627Y8560D01*
G54D15*
G01X64374Y30290D02*
G01X64374Y35171D01*
G01X63634Y35911D01*
G01X61288D01*
G54D20*
G01X76200Y10871D02*
G01X76200Y10973D01*
G01X73939Y8611D02*
G01X76200Y10871D01*
G01X74893Y8560D02*
G01X74893Y8828D01*
G01X76962Y10897D01*
G54D21*
G01X76200Y10973D02*
G01X76276Y10897D01*
G01X76962D01*
G01X73990Y8560D02*
G01X73939Y8611D01*
G01X74893Y8560D02*
G01X74627Y8560D01*
G01X73990D01*
G54D19*
G01X48067Y46799D02*
G01X47866Y46799D01*
G01X47041Y45974D01*
G01Y41046D01*
G01X48049Y40038D01*
G01X50810D01*
G04 Track End*

M02*
