G04 Layer: BottomSilkscreenLayer*
G04 EasyEDA Pro v1.8.39, 2022-11-10 11:17:13*
G04 Gerber Generator version 0.3*
G04 Scale: 100 percent, Rotated: No, Reflected: No*
G04 Dimensions in millimeters*
G04 Leading zeros omitted, absolute positions, 3 integers and 3 decimals*
%FSLAX33Y33*%
%MOMM*%
%ADD10C,0.0762*%
%ADD11C,0.127*%
%ADD12C,0.254*%
G75*


G04 Text Start*
G04 //text: U15*
G54D10*
G01X76070Y16530D02*
G01X76070Y16210D01*
G01X76050Y16144D01*
G01X76007Y16101D01*
G01X75941Y16080D01*
G01X75898D01*
G01X75834Y16101D01*
G01X75791Y16144D01*
G01X75771Y16210D01*
G01Y16530D01*
G01X75590Y16443D02*
G01X75547Y16466D01*
G01X75484Y16530D01*
G01Y16080D01*
G01X75047Y16530D02*
G01X75263Y16530D01*
G01X75283Y16337D01*
G01X75263Y16360D01*
G01X75197Y16380D01*
G01X75133D01*
G01X75070Y16360D01*
G01X75026Y16316D01*
G01X75006Y16253D01*
G01Y16210D01*
G01X75026Y16144D01*
G01X75070Y16101D01*
G01X75133Y16080D01*
G01X75197D01*
G01X75263Y16101D01*
G01X75283Y16123D01*
G01X75306Y16167D01*
G04 Text End*

G04 PolygonModel Start*
G54D11*
G01X72887Y12471D02*
G01X76189Y12471D01*
G01X76189Y12471D02*
G01X76189Y15519D01*
G01X76189Y15519D02*
G01X72887Y15519D01*
G01X72887Y15519D02*
G01X72887Y12471D01*
G54D12*
G01X72887Y15519D02*
G01X73064Y15519D01*
G01X72887Y15342D01*
G01Y15519D01*
G04 PolygonModel End*

M02*
