G04 Layer: TopPasteMaskLayer*
G04 EasyEDA Pro v1.8.39, 2022-11-10 11:17:13*
G04 Gerber Generator version 0.3*
G04 Scale: 100 percent, Rotated: No, Reflected: No*
G04 Dimensions in millimeters*
G04 Leading zeros omitted, absolute positions, 3 integers and 3 decimals*
%FSLAX33Y33*%
%MOMM*%
%ADD10C,0.0254*%
%ADD11C,0.650001*%
%ADD12O,2.999994X1.499997*%
%ADD13O,1.499997X2.999994*%
G75*


G04 PolygonModel Start*
G36*
G01X11093Y8849D02*
G03X11093Y9149I-0J150D01*
G01X8792D01*
G03Y8849I0J-150D01*
G01X11093D01*
G37*
G54D10*
G01X11093Y8849D02*
G03X11093Y9149I-0J150D01*
G01X8792D01*
G03Y8849I0J-150D01*
G01X11093D01*
G36*
G01X11093Y9350D02*
G03X11093Y9649I-0J150D01*
G01X8792D01*
G03Y9350I0J-150D01*
G01X11093D01*
G37*
G01X11093Y9350D02*
G03X11093Y9649I-0J150D01*
G01X8792D01*
G03Y9350I0J-150D01*
G01X11093D01*
G36*
G01X11093Y9850D02*
G03X11093Y10150I-0J150D01*
G01X8792D01*
G03Y9850I0J-150D01*
G01X11093D01*
G37*
G01X11093Y9850D02*
G03X11093Y10150I-0J150D01*
G01X8792D01*
G03Y9850I0J-150D01*
G01X11093D01*
G36*
G01X11093Y10350D02*
G03X11093Y10650I-0J150D01*
G01X8792D01*
G03Y10350I0J-150D01*
G01X11093D01*
G37*
G01X11093Y10350D02*
G03X11093Y10650I-0J150D01*
G01X8792D01*
G03Y10350I0J-150D01*
G01X11093D01*
G36*
G01X11093Y10851D02*
G03X11093Y11151I-0J150D01*
G01X8792D01*
G03Y10851I0J-150D01*
G01X11093D01*
G37*
G01X11093Y10851D02*
G03X11093Y11151I-0J150D01*
G01X8792D01*
G03Y10851I0J-150D01*
G01X11093D01*
G36*
G01X11093Y11351D02*
G03X11093Y11651I-0J150D01*
G01X8792D01*
G03Y11351I0J-150D01*
G01X11093D01*
G37*
G01X11093Y11351D02*
G03X11093Y11651I-0J150D01*
G01X8792D01*
G03Y11351I0J-150D01*
G01X11093D01*
G36*
G01X11093Y11849D02*
G03X11093Y12149I-0J150D01*
G01X8792D01*
G03Y11849I0J-150D01*
G01X11093D01*
G37*
G01X11093Y11849D02*
G03X11093Y12149I-0J150D01*
G01X8792D01*
G03Y11849I0J-150D01*
G01X11093D01*
G36*
G01X11093Y12349D02*
G03X11093Y12649I-0J150D01*
G01X8792D01*
G03Y12349I0J-150D01*
G01X11093D01*
G37*
G01X11093Y12349D02*
G03X11093Y12649I-0J150D01*
G01X8792D01*
G03Y12349I0J-150D01*
G01X11093D01*
G36*
G01X11093Y12850D02*
G03X11093Y13149I-0J150D01*
G01X8792D01*
G03Y12850I0J-150D01*
G01X11093D01*
G37*
G01X11093Y12850D02*
G03X11093Y13149I-0J150D01*
G01X8792D01*
G03Y12850I0J-150D01*
G01X11093D01*
G36*
G01X11093Y17851D02*
G03X11093Y18151I-0J150D01*
G01X8792D01*
G03Y17851I0J-150D01*
G01X11093D01*
G37*
G01X11093Y17851D02*
G03X11093Y18151I-0J150D01*
G01X8792D01*
G03Y17851I0J-150D01*
G01X11093D01*
G36*
G01X11093Y17351D02*
G03X11093Y17650I-0J150D01*
G01X8792D01*
G03Y17351I0J-150D01*
G01X11093D01*
G37*
G01X11093Y17351D02*
G03X11093Y17650I-0J150D01*
G01X8792D01*
G03Y17351I0J-150D01*
G01X11093D01*
G36*
G01X11093Y16850D02*
G03X11093Y17150I-0J150D01*
G01X8792D01*
G03Y16850I0J-150D01*
G01X11093D01*
G37*
G01X11093Y16850D02*
G03X11093Y17150I-0J150D01*
G01X8792D01*
G03Y16850I0J-150D01*
G01X11093D01*
G36*
G01X11093Y16350D02*
G03X11093Y16650I-0J150D01*
G01X8792D01*
G03Y16350I0J-150D01*
G01X11093D01*
G37*
G01X11093Y16350D02*
G03X11093Y16650I-0J150D01*
G01X8792D01*
G03Y16350I0J-150D01*
G01X11093D01*
G36*
G01X11093Y15850D02*
G03X11093Y16149I-0J150D01*
G01X8792D01*
G03Y15850I0J-150D01*
G01X11093D01*
G37*
G01X11093Y15850D02*
G03X11093Y16149I-0J150D01*
G01X8792D01*
G03Y15850I0J-150D01*
G01X11093D01*
G36*
G01X11093Y15349D02*
G03X11093Y15649I-0J150D01*
G01X8792D01*
G03Y15349I0J-150D01*
G01X11093D01*
G37*
G01X11093Y15349D02*
G03X11093Y15649I-0J150D01*
G01X8792D01*
G03Y15349I0J-150D01*
G01X11093D01*
G36*
G01X11093Y14849D02*
G03X11093Y15151I-0J151D01*
G01X8792D01*
G03Y14849I0J-151D01*
G01X11093D01*
G37*
G01X11093Y14849D02*
G03X11093Y15151I-0J151D01*
G01X8792D01*
G03Y14849I0J-151D01*
G01X11093D01*
G36*
G01X11093Y14351D02*
G03X11093Y14651I-0J150D01*
G01X8792D01*
G03Y14351I0J-150D01*
G01X11093D01*
G37*
G01X11093Y14351D02*
G03X11093Y14651I-0J150D01*
G01X8792D01*
G03Y14351I0J-150D01*
G01X11093D01*
G36*
G01X11093Y13851D02*
G03X11093Y14150I-0J150D01*
G01X8792D01*
G03Y13851I0J-150D01*
G01X11093D01*
G37*
G01X11093Y13851D02*
G03X11093Y14150I-0J150D01*
G01X8792D01*
G03Y13851I0J-150D01*
G01X11093D01*
G36*
G01X11093Y13350D02*
G03X11093Y13650I-0J150D01*
G01X8792D01*
G03Y13350I0J-150D01*
G01X11093D01*
G37*
G01X11093Y13350D02*
G03X11093Y13650I-0J150D01*
G01X8792D01*
G03Y13350I0J-150D01*
G01X11093D01*
G36*
G01X10082Y21501D02*
G02X10082Y20000I-0J-751D01*
G01X8281D01*
G02Y21501I0J751D01*
G01X10082D01*
G37*
G01X10082Y21501D02*
G02X10082Y20000I-0J-751D01*
G01X8281D01*
G02Y21501I0J751D01*
G01X10082D01*
G36*
G01X10082Y7000D02*
G02X10082Y5499I0J-751D01*
G01X8281D01*
G02Y7000I0J751D01*
G01X10082D01*
G37*
G01X10082Y7000D02*
G02X10082Y5499I0J-751D01*
G01X8281D01*
G02Y7000I0J751D01*
G01X10082D01*
G36*
G01X3821Y21501D02*
G02X3821Y20000I-0J-751D01*
G01X2622D01*
G02Y21501I0J751D01*
G01X3821D01*
G37*
G01X3821Y21501D02*
G02X3821Y20000I-0J-751D01*
G01X2622D01*
G02Y21501I0J751D01*
G01X3821D01*
G36*
G01X3821Y7000D02*
G02X3821Y5499I0J-751D01*
G01X2622D01*
G02Y7000I0J751D01*
G01X3821D01*
G37*
G01X3821Y7000D02*
G02X3821Y5499I0J-751D01*
G01X2622D01*
G02Y7000I0J751D01*
G01X3821D01*
G36*
G01X16899Y18228D02*
G01X16899Y17768D01*
G01X16859Y17728D01*
G01X16358D01*
G01X16318Y17768D01*
G01Y18228D01*
G01X16358Y18268D01*
G01X16859D01*
G01X16899Y18228D01*
G37*
G01X16899Y18228D02*
G01X16899Y17768D01*
G01X16859Y17728D01*
G01X16358D01*
G01X16318Y17768D01*
G01Y18228D01*
G01X16358Y18268D01*
G01X16859D01*
G01X16899Y18228D01*
G36*
G01X17169Y18228D02*
G01X17169Y17768D01*
G01X17209Y17728D01*
G01X17709D01*
G01X17749Y17768D01*
G01Y18228D01*
G01X17709Y18268D01*
G01X17209D01*
G01X17169Y18228D01*
G37*
G01X17169Y18228D02*
G01X17169Y17768D01*
G01X17209Y17728D01*
G01X17709D01*
G01X17749Y17768D01*
G01Y18228D01*
G01X17709Y18268D01*
G01X17209D01*
G01X17169Y18228D01*
G36*
G01X17169Y16497D02*
G01X17169Y16957D01*
G01X17209Y16997D01*
G01X17709D01*
G01X17749Y16957D01*
G01Y16497D01*
G01X17709Y16457D01*
G01X17209D01*
G01X17169Y16497D01*
G37*
G01X17169Y16497D02*
G01X17169Y16957D01*
G01X17209Y16997D01*
G01X17709D01*
G01X17749Y16957D01*
G01Y16497D01*
G01X17709Y16457D01*
G01X17209D01*
G01X17169Y16497D01*
G36*
G01X16899Y16497D02*
G01X16899Y16957D01*
G01X16859Y16997D01*
G01X16358D01*
G01X16318Y16957D01*
G01Y16497D01*
G01X16358Y16457D01*
G01X16859D01*
G01X16899Y16497D01*
G37*
G01X16899Y16497D02*
G01X16899Y16957D01*
G01X16859Y16997D01*
G01X16358D01*
G01X16318Y16957D01*
G01Y16497D01*
G01X16358Y16457D01*
G01X16859D01*
G01X16899Y16497D01*
G36*
G01X17169Y15377D02*
G01X17169Y15837D01*
G01X17209Y15877D01*
G01X17709D01*
G01X17749Y15837D01*
G01Y15377D01*
G01X17709Y15337D01*
G01X17209D01*
G01X17169Y15377D01*
G37*
G01X17169Y15377D02*
G01X17169Y15837D01*
G01X17209Y15877D01*
G01X17709D01*
G01X17749Y15837D01*
G01Y15377D01*
G01X17709Y15337D01*
G01X17209D01*
G01X17169Y15377D01*
G36*
G01X16899Y15377D02*
G01X16899Y15837D01*
G01X16859Y15877D01*
G01X16358D01*
G01X16318Y15837D01*
G01Y15377D01*
G01X16358Y15337D01*
G01X16859D01*
G01X16899Y15377D01*
G37*
G01X16899Y15377D02*
G01X16899Y15837D01*
G01X16859Y15877D01*
G01X16358D01*
G01X16318Y15837D01*
G01Y15377D01*
G01X16358Y15337D01*
G01X16859D01*
G01X16899Y15377D01*
G36*
G01X28286Y11235D02*
G01X27826Y11235D01*
G01X27786Y11275D01*
G01Y11775D01*
G01X27826Y11815D01*
G01X28286D01*
G01X28326Y11775D01*
G01Y11275D01*
G01X28286Y11235D01*
G37*
G01X28286Y11235D02*
G01X27826Y11235D01*
G01X27786Y11275D01*
G01Y11775D01*
G01X27826Y11815D01*
G01X28286D01*
G01X28326Y11775D01*
G01Y11275D01*
G01X28286Y11235D01*
G36*
G01X28286Y10965D02*
G01X27826Y10965D01*
G01X27786Y10925D01*
G01Y10424D01*
G01X27826Y10384D01*
G01X28286D01*
G01X28326Y10424D01*
G01Y10925D01*
G01X28286Y10965D01*
G37*
G01X28286Y10965D02*
G01X27826Y10965D01*
G01X27786Y10925D01*
G01Y10424D01*
G01X27826Y10384D01*
G01X28286D01*
G01X28326Y10424D01*
G01Y10925D01*
G01X28286Y10965D01*
G36*
G01X45562Y21312D02*
G01X45562Y20852D01*
G01X45522Y20812D01*
G01X45021D01*
G01X44981Y20852D01*
G01Y21312D01*
G01X45021Y21352D01*
G01X45522D01*
G01X45562Y21312D01*
G37*
G01X45562Y21312D02*
G01X45562Y20852D01*
G01X45522Y20812D01*
G01X45021D01*
G01X44981Y20852D01*
G01Y21312D01*
G01X45021Y21352D01*
G01X45522D01*
G01X45562Y21312D01*
G36*
G01X45832Y21312D02*
G01X45832Y20852D01*
G01X45872Y20812D01*
G01X46373D01*
G01X46413Y20852D01*
G01Y21312D01*
G01X46373Y21352D01*
G01X45872D01*
G01X45832Y21312D01*
G37*
G01X45832Y21312D02*
G01X45832Y20852D01*
G01X45872Y20812D01*
G01X46373D01*
G01X46413Y20852D01*
G01Y21312D01*
G01X46373Y21352D01*
G01X45872D01*
G01X45832Y21312D01*
G36*
G01X29934Y32961D02*
G01X30394Y32961D01*
G01X30434Y32921D01*
G01Y32421D01*
G01X30394Y32381D01*
G01X29934D01*
G01X29894Y32421D01*
G01Y32921D01*
G01X29934Y32961D01*
G37*
G01X29934Y32961D02*
G01X30394Y32961D01*
G01X30434Y32921D01*
G01Y32421D01*
G01X30394Y32381D01*
G01X29934D01*
G01X29894Y32421D01*
G01Y32921D01*
G01X29934Y32961D01*
G36*
G01X29934Y33231D02*
G01X30394Y33231D01*
G01X30434Y33271D01*
G01Y33772D01*
G01X30394Y33812D01*
G01X29934D01*
G01X29894Y33772D01*
G01Y33271D01*
G01X29934Y33231D01*
G37*
G01X29934Y33231D02*
G01X30394Y33231D01*
G01X30434Y33271D01*
G01Y33772D01*
G01X30394Y33812D01*
G01X29934D01*
G01X29894Y33772D01*
G01Y33271D01*
G01X29934Y33231D01*
G36*
G01X45877Y30026D02*
G01X45877Y30476D01*
G01X45947Y30526D01*
G01X46427D01*
G01X46477Y30476D01*
G01Y30026D01*
G01X46427Y29976D01*
G01X45947D01*
G01X45877Y30026D01*
G37*
G01X45877Y30026D02*
G01X45877Y30476D01*
G01X45947Y30526D01*
G01X46427D01*
G01X46477Y30476D01*
G01Y30026D01*
G01X46427Y29976D01*
G01X45947D01*
G01X45877Y30026D01*
G36*
G01X44917Y30026D02*
G01X44917Y30476D01*
G01X44967Y30526D01*
G01X45447D01*
G01X45517Y30476D01*
G01Y30026D01*
G01X45447Y29976D01*
G01X44967D01*
G01X44917Y30026D01*
G37*
G01X44917Y30026D02*
G01X44917Y30476D01*
G01X44967Y30526D01*
G01X45447D01*
G01X45517Y30476D01*
G01Y30026D01*
G01X45447Y29976D01*
G01X44967D01*
G01X44917Y30026D01*
G36*
G01X32522Y33276D02*
G01X32072Y33276D01*
G01X32022Y33346D01*
G01Y33826D01*
G01X32072Y33876D01*
G01X32522D01*
G01X32572Y33826D01*
G01Y33346D01*
G01X32522Y33276D01*
G37*
G01X32522Y33276D02*
G01X32072Y33276D01*
G01X32022Y33346D01*
G01Y33826D01*
G01X32072Y33876D01*
G01X32522D01*
G01X32572Y33826D01*
G01Y33346D01*
G01X32522Y33276D01*
G36*
G01X32522Y32316D02*
G01X32072Y32316D01*
G01X32022Y32366D01*
G01Y32846D01*
G01X32072Y32916D01*
G01X32522D01*
G01X32572Y32846D01*
G01Y32366D01*
G01X32522Y32316D01*
G37*
G01X32522Y32316D02*
G01X32072Y32316D01*
G01X32022Y32366D01*
G01Y32846D01*
G01X32072Y32916D01*
G01X32522D01*
G01X32572Y32846D01*
G01Y32366D01*
G01X32522Y32316D01*
G36*
G01X31844Y10920D02*
G01X32294Y10920D01*
G01X32344Y10850D01*
G01Y10370D01*
G01X32294Y10320D01*
G01X31844D01*
G01X31794Y10370D01*
G01Y10850D01*
G01X31844Y10920D01*
G37*
G01X31844Y10920D02*
G01X32294Y10920D01*
G01X32344Y10850D01*
G01Y10370D01*
G01X32294Y10320D01*
G01X31844D01*
G01X31794Y10370D01*
G01Y10850D01*
G01X31844Y10920D01*
G36*
G01X31844Y11880D02*
G01X32294Y11880D01*
G01X32344Y11830D01*
G01Y11350D01*
G01X32294Y11280D01*
G01X31844D01*
G01X31794Y11350D01*
G01Y11830D01*
G01X31844Y11880D01*
G37*
G01X31844Y11880D02*
G01X32294Y11880D01*
G01X32344Y11830D01*
G01Y11350D01*
G01X32294Y11280D01*
G01X31844D01*
G01X31794Y11350D01*
G01Y11830D01*
G01X31844Y11880D01*
G36*
G01X34739Y10920D02*
G01X35189Y10920D01*
G01X35239Y10850D01*
G01Y10370D01*
G01X35189Y10320D01*
G01X34739D01*
G01X34689Y10370D01*
G01Y10850D01*
G01X34739Y10920D01*
G37*
G01X34739Y10920D02*
G01X35189Y10920D01*
G01X35239Y10850D01*
G01Y10370D01*
G01X35189Y10320D01*
G01X34739D01*
G01X34689Y10370D01*
G01Y10850D01*
G01X34739Y10920D01*
G36*
G01X34739Y11880D02*
G01X35189Y11880D01*
G01X35239Y11830D01*
G01Y11350D01*
G01X35189Y11280D01*
G01X34739D01*
G01X34689Y11350D01*
G01Y11830D01*
G01X34739Y11880D01*
G37*
G01X34739Y11880D02*
G01X35189Y11880D01*
G01X35239Y11830D01*
G01Y11350D01*
G01X35189Y11280D01*
G01X34739D01*
G01X34689Y11350D01*
G01Y11830D01*
G01X34739Y11880D01*
G36*
G01X36594Y10920D02*
G01X37044Y10920D01*
G01X37094Y10850D01*
G01Y10370D01*
G01X37044Y10320D01*
G01X36594D01*
G01X36544Y10370D01*
G01Y10850D01*
G01X36594Y10920D01*
G37*
G01X36594Y10920D02*
G01X37044Y10920D01*
G01X37094Y10850D01*
G01Y10370D01*
G01X37044Y10320D01*
G01X36594D01*
G01X36544Y10370D01*
G01Y10850D01*
G01X36594Y10920D01*
G36*
G01X36594Y11880D02*
G01X37044Y11880D01*
G01X37094Y11830D01*
G01Y11350D01*
G01X37044Y11280D01*
G01X36594D01*
G01X36544Y11350D01*
G01Y11830D01*
G01X36594Y11880D01*
G37*
G01X36594Y11880D02*
G01X37044Y11880D01*
G01X37094Y11830D01*
G01Y11350D01*
G01X37044Y11280D01*
G01X36594D01*
G01X36544Y11350D01*
G01Y11830D01*
G01X36594Y11880D01*
G36*
G01X45877Y19689D02*
G01X45877Y20139D01*
G01X45947Y20189D01*
G01X46427D01*
G01X46477Y20139D01*
G01Y19689D01*
G01X46427Y19639D01*
G01X45947D01*
G01X45877Y19689D01*
G37*
G01X45877Y19689D02*
G01X45877Y20139D01*
G01X45947Y20189D01*
G01X46427D01*
G01X46477Y20139D01*
G01Y19689D01*
G01X46427Y19639D01*
G01X45947D01*
G01X45877Y19689D01*
G36*
G01X44917Y19689D02*
G01X44917Y20139D01*
G01X44967Y20189D01*
G01X45447D01*
G01X45517Y20139D01*
G01Y19689D01*
G01X45447Y19639D01*
G01X44967D01*
G01X44917Y19689D01*
G37*
G01X44917Y19689D02*
G01X44917Y20139D01*
G01X44967Y20189D01*
G01X45447D01*
G01X45517Y20139D01*
G01Y19689D01*
G01X45447Y19639D01*
G01X44967D01*
G01X44917Y19689D01*
G36*
G01X45877Y28926D02*
G01X45877Y29376D01*
G01X45947Y29426D01*
G01X46427D01*
G01X46477Y29376D01*
G01Y28926D01*
G01X46427Y28876D01*
G01X45947D01*
G01X45877Y28926D01*
G37*
G01X45877Y28926D02*
G01X45877Y29376D01*
G01X45947Y29426D01*
G01X46427D01*
G01X46477Y29376D01*
G01Y28926D01*
G01X46427Y28876D01*
G01X45947D01*
G01X45877Y28926D01*
G36*
G01X44917Y28926D02*
G01X44917Y29376D01*
G01X44967Y29426D01*
G01X45447D01*
G01X45517Y29376D01*
G01Y28926D01*
G01X45447Y28876D01*
G01X44967D01*
G01X44917Y28926D01*
G37*
G01X44917Y28926D02*
G01X44917Y29376D01*
G01X44967Y29426D01*
G01X45447D01*
G01X45517Y29376D01*
G01Y28926D01*
G01X45447Y28876D01*
G01X44967D01*
G01X44917Y28926D01*
G36*
G01X22767Y19675D02*
G01X22767Y19225D01*
G01X22697Y19175D01*
G01X22217D01*
G01X22167Y19225D01*
G01Y19675D01*
G01X22217Y19725D01*
G01X22697D01*
G01X22767Y19675D01*
G37*
G01X22767Y19675D02*
G01X22767Y19225D01*
G01X22697Y19175D01*
G01X22217D01*
G01X22167Y19225D01*
G01Y19675D01*
G01X22217Y19725D01*
G01X22697D01*
G01X22767Y19675D01*
G36*
G01X23727Y19675D02*
G01X23727Y19225D01*
G01X23677Y19175D01*
G01X23197D01*
G01X23127Y19225D01*
G01Y19675D01*
G01X23197Y19725D01*
G01X23677D01*
G01X23727Y19675D01*
G37*
G01X23727Y19675D02*
G01X23727Y19225D01*
G01X23677Y19175D01*
G01X23197D01*
G01X23127Y19225D01*
G01Y19675D01*
G01X23197Y19725D01*
G01X23677D01*
G01X23727Y19675D01*
G36*
G01X40117Y32193D02*
G01X40117Y32643D01*
G01X40187Y32693D01*
G01X40667D01*
G01X40717Y32643D01*
G01Y32193D01*
G01X40667Y32143D01*
G01X40187D01*
G01X40117Y32193D01*
G37*
G01X40117Y32193D02*
G01X40117Y32643D01*
G01X40187Y32693D01*
G01X40667D01*
G01X40717Y32643D01*
G01Y32193D01*
G01X40667Y32143D01*
G01X40187D01*
G01X40117Y32193D01*
G36*
G01X39157Y32193D02*
G01X39157Y32643D01*
G01X39207Y32693D01*
G01X39687D01*
G01X39757Y32643D01*
G01Y32193D01*
G01X39687Y32143D01*
G01X39207D01*
G01X39157Y32193D01*
G37*
G01X39157Y32193D02*
G01X39157Y32643D01*
G01X39207Y32693D01*
G01X39687D01*
G01X39757Y32643D01*
G01Y32193D01*
G01X39687Y32143D01*
G01X39207D01*
G01X39157Y32193D01*
G36*
G01X31430Y33276D02*
G01X30980Y33276D01*
G01X30930Y33346D01*
G01Y33826D01*
G01X30980Y33876D01*
G01X31430D01*
G01X31480Y33826D01*
G01Y33346D01*
G01X31430Y33276D01*
G37*
G01X31430Y33276D02*
G01X30980Y33276D01*
G01X30930Y33346D01*
G01Y33826D01*
G01X30980Y33876D01*
G01X31430D01*
G01X31480Y33826D01*
G01Y33346D01*
G01X31430Y33276D01*
G36*
G01X31430Y32316D02*
G01X30980Y32316D01*
G01X30930Y32366D01*
G01Y32846D01*
G01X30980Y32916D01*
G01X31430D01*
G01X31480Y32846D01*
G01Y32366D01*
G01X31430Y32316D01*
G37*
G01X31430Y32316D02*
G01X30980Y32316D01*
G01X30930Y32366D01*
G01Y32846D01*
G01X30980Y32916D01*
G01X31430D01*
G01X31480Y32846D01*
G01Y32366D01*
G01X31430Y32316D01*
G36*
G01X30701Y10920D02*
G01X31151Y10920D01*
G01X31201Y10850D01*
G01Y10370D01*
G01X31151Y10320D01*
G01X30701D01*
G01X30651Y10370D01*
G01Y10850D01*
G01X30701Y10920D01*
G37*
G01X30701Y10920D02*
G01X31151Y10920D01*
G01X31201Y10850D01*
G01Y10370D01*
G01X31151Y10320D01*
G01X30701D01*
G01X30651Y10370D01*
G01Y10850D01*
G01X30701Y10920D01*
G36*
G01X30701Y11880D02*
G01X31151Y11880D01*
G01X31201Y11830D01*
G01Y11350D01*
G01X31151Y11280D01*
G01X30701D01*
G01X30651Y11350D01*
G01Y11830D01*
G01X30701Y11880D01*
G37*
G01X30701Y11880D02*
G01X31151Y11880D01*
G01X31201Y11830D01*
G01Y11350D01*
G01X31151Y11280D01*
G01X30701D01*
G01X30651Y11350D01*
G01Y11830D01*
G01X30701Y11880D01*
G36*
G01X45324Y17300D02*
G01X44874Y17300D01*
G01X44824Y17370D01*
G01Y17850D01*
G01X44874Y17900D01*
G01X45324D01*
G01X45374Y17850D01*
G01Y17370D01*
G01X45324Y17300D01*
G37*
G01X45324Y17300D02*
G01X44874Y17300D01*
G01X44824Y17370D01*
G01Y17850D01*
G01X44874Y17900D01*
G01X45324D01*
G01X45374Y17850D01*
G01Y17370D01*
G01X45324Y17300D01*
G36*
G01X45324Y16340D02*
G01X44874Y16340D01*
G01X44824Y16390D01*
G01Y16870D01*
G01X44874Y16940D01*
G01X45324D01*
G01X45374Y16870D01*
G01Y16390D01*
G01X45324Y16340D01*
G37*
G01X45324Y16340D02*
G01X44874Y16340D01*
G01X44824Y16390D01*
G01Y16870D01*
G01X44874Y16940D01*
G01X45324D01*
G01X45374Y16870D01*
G01Y16390D01*
G01X45324Y16340D01*
G36*
G01X45877Y22025D02*
G01X45877Y22475D01*
G01X45947Y22525D01*
G01X46427D01*
G01X46477Y22475D01*
G01Y22025D01*
G01X46427Y21975D01*
G01X45947D01*
G01X45877Y22025D01*
G37*
G01X45877Y22025D02*
G01X45877Y22475D01*
G01X45947Y22525D01*
G01X46427D01*
G01X46477Y22475D01*
G01Y22025D01*
G01X46427Y21975D01*
G01X45947D01*
G01X45877Y22025D01*
G36*
G01X44917Y22025D02*
G01X44917Y22475D01*
G01X44967Y22525D01*
G01X45447D01*
G01X45517Y22475D01*
G01Y22025D01*
G01X45447Y21975D01*
G01X44967D01*
G01X44917Y22025D01*
G37*
G01X44917Y22025D02*
G01X44917Y22475D01*
G01X44967Y22525D01*
G01X45447D01*
G01X45517Y22475D01*
G01Y22025D01*
G01X45447Y21975D01*
G01X44967D01*
G01X44917Y22025D01*
G36*
G01X37711Y10920D02*
G01X38161Y10920D01*
G01X38211Y10850D01*
G01Y10370D01*
G01X38161Y10320D01*
G01X37711D01*
G01X37661Y10370D01*
G01Y10850D01*
G01X37711Y10920D01*
G37*
G01X37711Y10920D02*
G01X38161Y10920D01*
G01X38211Y10850D01*
G01Y10370D01*
G01X38161Y10320D01*
G01X37711D01*
G01X37661Y10370D01*
G01Y10850D01*
G01X37711Y10920D01*
G36*
G01X37711Y11880D02*
G01X38161Y11880D01*
G01X38211Y11830D01*
G01Y11350D01*
G01X38161Y11280D01*
G01X37711D01*
G01X37661Y11350D01*
G01Y11830D01*
G01X37711Y11880D01*
G37*
G01X37711Y11880D02*
G01X38161Y11880D01*
G01X38211Y11830D01*
G01Y11350D01*
G01X38161Y11280D01*
G01X37711D01*
G01X37661Y11350D01*
G01Y11830D01*
G01X37711Y11880D01*
G36*
G01X32987Y10920D02*
G01X33437Y10920D01*
G01X33487Y10850D01*
G01Y10370D01*
G01X33437Y10320D01*
G01X32987D01*
G01X32937Y10370D01*
G01Y10850D01*
G01X32987Y10920D01*
G37*
G01X32987Y10920D02*
G01X33437Y10920D01*
G01X33487Y10850D01*
G01Y10370D01*
G01X33437Y10320D01*
G01X32987D01*
G01X32937Y10370D01*
G01Y10850D01*
G01X32987Y10920D01*
G36*
G01X32987Y11880D02*
G01X33437Y11880D01*
G01X33487Y11830D01*
G01Y11350D01*
G01X33437Y11280D01*
G01X32987D01*
G01X32937Y11350D01*
G01Y11830D01*
G01X32987Y11880D01*
G37*
G01X32987Y11880D02*
G01X33437Y11880D01*
G01X33487Y11830D01*
G01Y11350D01*
G01X33437Y11280D01*
G01X32987D01*
G01X32937Y11350D01*
G01Y11830D01*
G01X32987Y11880D01*
G36*
G01X28999Y10920D02*
G01X29449Y10920D01*
G01X29499Y10850D01*
G01Y10370D01*
G01X29449Y10320D01*
G01X28999D01*
G01X28949Y10370D01*
G01Y10850D01*
G01X28999Y10920D01*
G37*
G01X28999Y10920D02*
G01X29449Y10920D01*
G01X29499Y10850D01*
G01Y10370D01*
G01X29449Y10320D01*
G01X28999D01*
G01X28949Y10370D01*
G01Y10850D01*
G01X28999Y10920D01*
G36*
G01X28999Y11880D02*
G01X29449Y11880D01*
G01X29499Y11830D01*
G01Y11350D01*
G01X29449Y11280D01*
G01X28999D01*
G01X28949Y11350D01*
G01Y11830D01*
G01X28999Y11880D01*
G37*
G01X28999Y11880D02*
G01X29449Y11880D01*
G01X29499Y11830D01*
G01Y11350D01*
G01X29449Y11280D01*
G01X28999D01*
G01X28949Y11350D01*
G01Y11830D01*
G01X28999Y11880D01*
G36*
G01X46062Y31428D02*
G01X46062Y31704D01*
G01X46336Y31998D01*
G01X46839D01*
G01X46903Y31934D01*
G01Y31198D01*
G01X46839Y31134D01*
G01X46336D01*
G01X46062Y31428D01*
G37*
G01X46062Y31428D02*
G01X46062Y31704D01*
G01X46336Y31998D01*
G01X46839D01*
G01X46903Y31934D01*
G01Y31198D01*
G01X46839Y31134D01*
G01X46336D01*
G01X46062Y31428D01*
G36*
G01X45546Y31416D02*
G01X45546Y31693D01*
G01X45272Y31987D01*
G01X44769D01*
G01X44705Y31923D01*
G01Y31187D01*
G01X44769Y31123D01*
G01X45272D01*
G01X45546Y31416D01*
G37*
G01X45546Y31416D02*
G01X45546Y31693D01*
G01X45272Y31987D01*
G01X44769D01*
G01X44705Y31923D01*
G01Y31187D01*
G01X44769Y31123D01*
G01X45272D01*
G01X45546Y31416D01*
G36*
G01X46062Y27708D02*
G01X46062Y27984D01*
G01X46336Y28278D01*
G01X46839D01*
G01X46903Y28214D01*
G01Y27478D01*
G01X46839Y27414D01*
G01X46336D01*
G01X46062Y27708D01*
G37*
G01X46062Y27708D02*
G01X46062Y27984D01*
G01X46336Y28278D01*
G01X46839D01*
G01X46903Y28214D01*
G01Y27478D01*
G01X46839Y27414D01*
G01X46336D01*
G01X46062Y27708D01*
G36*
G01X45546Y27696D02*
G01X45546Y27973D01*
G01X45272Y28267D01*
G01X44769D01*
G01X44705Y28203D01*
G01Y27467D01*
G01X44769Y27403D01*
G01X45272D01*
G01X45546Y27696D01*
G37*
G01X45546Y27696D02*
G01X45546Y27973D01*
G01X45272Y28267D01*
G01X44769D01*
G01X44705Y28203D01*
G01Y27467D01*
G01X44769Y27403D01*
G01X45272D01*
G01X45546Y27696D01*
G36*
G01X40290Y33621D02*
G01X40290Y33898D01*
G01X40564Y34191D01*
G01X41067D01*
G01X41131Y34127D01*
G01Y33391D01*
G01X41067Y33327D01*
G01X40564D01*
G01X40290Y33621D01*
G37*
G01X40290Y33621D02*
G01X40290Y33898D01*
G01X40564Y34191D01*
G01X41067D01*
G01X41131Y34127D01*
G01Y33391D01*
G01X41067Y33327D01*
G01X40564D01*
G01X40290Y33621D01*
G36*
G01X39774Y33610D02*
G01X39774Y33886D01*
G01X39500Y34180D01*
G01X38997D01*
G01X38933Y34116D01*
G01Y33380D01*
G01X38997Y33316D01*
G01X39500D01*
G01X39774Y33610D01*
G37*
G01X39774Y33610D02*
G01X39774Y33886D01*
G01X39500Y34180D01*
G01X38997D01*
G01X38933Y34116D01*
G01Y33380D01*
G01X38997Y33316D01*
G01X39500D01*
G01X39774Y33610D01*
G36*
G01X47433Y16392D02*
G01X47433Y16669D01*
G01X47708Y16963D01*
G01X48211D01*
G01X48275Y16899D01*
G01Y16163D01*
G01X48211Y16099D01*
G01X47708D01*
G01X47433Y16392D01*
G37*
G01X47433Y16392D02*
G01X47433Y16669D01*
G01X47708Y16963D01*
G01X48211D01*
G01X48275Y16899D01*
G01Y16163D01*
G01X48211Y16099D01*
G01X47708D01*
G01X47433Y16392D01*
G36*
G01X46918Y16381D02*
G01X46918Y16658D01*
G01X46644Y16951D01*
G01X46140D01*
G01X46076Y16887D01*
G01Y16151D01*
G01X46140Y16087D01*
G01X46644D01*
G01X46918Y16381D01*
G37*
G01X46918Y16381D02*
G01X46918Y16658D01*
G01X46644Y16951D01*
G01X46140D01*
G01X46076Y16887D01*
G01Y16151D01*
G01X46140Y16087D01*
G01X46644D01*
G01X46918Y16381D01*
G36*
G01X47433Y13624D02*
G01X47433Y13900D01*
G01X47708Y14194D01*
G01X48211D01*
G01X48275Y14130D01*
G01Y13394D01*
G01X48211Y13330D01*
G01X47708D01*
G01X47433Y13624D01*
G37*
G01X47433Y13624D02*
G01X47433Y13900D01*
G01X47708Y14194D01*
G01X48211D01*
G01X48275Y14130D01*
G01Y13394D01*
G01X48211Y13330D01*
G01X47708D01*
G01X47433Y13624D01*
G36*
G01X46918Y13613D02*
G01X46918Y13889D01*
G01X46644Y14183D01*
G01X46140D01*
G01X46076Y14119D01*
G01Y13383D01*
G01X46140Y13319D01*
G01X46644D01*
G01X46918Y13613D01*
G37*
G01X46918Y13613D02*
G01X46918Y13889D01*
G01X46644Y14183D01*
G01X46140D01*
G01X46076Y14119D01*
G01Y13383D01*
G01X46140Y13319D01*
G01X46644D01*
G01X46918Y13613D01*
G36*
G01X40729Y35285D02*
G01X40729Y34835D01*
G01X40659Y34785D01*
G01X40179D01*
G01X40129Y34835D01*
G01Y35285D01*
G01X40179Y35335D01*
G01X40659D01*
G01X40729Y35285D01*
G37*
G01X40729Y35285D02*
G01X40729Y34835D01*
G01X40659Y34785D01*
G01X40179D01*
G01X40129Y34835D01*
G01Y35285D01*
G01X40179Y35335D01*
G01X40659D01*
G01X40729Y35285D01*
G36*
G01X41689Y35285D02*
G01X41689Y34835D01*
G01X41639Y34785D01*
G01X41159D01*
G01X41089Y34835D01*
G01Y35285D01*
G01X41159Y35335D01*
G01X41639D01*
G01X41689Y35285D01*
G37*
G01X41689Y35285D02*
G01X41689Y34835D01*
G01X41639Y34785D01*
G01X41159D01*
G01X41089Y34835D01*
G01Y35285D01*
G01X41159Y35335D01*
G01X41639D01*
G01X41689Y35285D01*
G36*
G01X44874Y13067D02*
G01X45324Y13067D01*
G01X45374Y12997D01*
G01Y12517D01*
G01X45324Y12467D01*
G01X44874D01*
G01X44824Y12517D01*
G01Y12997D01*
G01X44874Y13067D01*
G37*
G01X44874Y13067D02*
G01X45324Y13067D01*
G01X45374Y12997D01*
G01Y12517D01*
G01X45324Y12467D01*
G01X44874D01*
G01X44824Y12517D01*
G01Y12997D01*
G01X44874Y13067D01*
G36*
G01X44874Y14027D02*
G01X45324Y14027D01*
G01X45374Y13977D01*
G01Y13497D01*
G01X45324Y13427D01*
G01X44874D01*
G01X44824Y13497D01*
G01Y13977D01*
G01X44874Y14027D01*
G37*
G01X44874Y14027D02*
G01X45324Y14027D01*
G01X45374Y13977D01*
G01Y13497D01*
G01X45324Y13427D01*
G01X44874D01*
G01X44824Y13497D01*
G01Y13977D01*
G01X44874Y14027D01*
G36*
G01X45877Y26026D02*
G01X45877Y26476D01*
G01X45947Y26526D01*
G01X46427D01*
G01X46477Y26476D01*
G01Y26026D01*
G01X46427Y25976D01*
G01X45947D01*
G01X45877Y26026D01*
G37*
G01X45877Y26026D02*
G01X45877Y26476D01*
G01X45947Y26526D01*
G01X46427D01*
G01X46477Y26476D01*
G01Y26026D01*
G01X46427Y25976D01*
G01X45947D01*
G01X45877Y26026D01*
G36*
G01X44917Y26026D02*
G01X44917Y26476D01*
G01X44967Y26526D01*
G01X45447D01*
G01X45517Y26476D01*
G01Y26026D01*
G01X45447Y25976D01*
G01X44967D01*
G01X44917Y26026D01*
G37*
G01X44917Y26026D02*
G01X44917Y26476D01*
G01X44967Y26526D01*
G01X45447D01*
G01X45517Y26476D01*
G01Y26026D01*
G01X45447Y25976D01*
G01X44967D01*
G01X44917Y26026D01*
G36*
G01X22767Y16354D02*
G01X22767Y15904D01*
G01X22697Y15854D01*
G01X22217D01*
G01X22167Y15904D01*
G01Y16354D01*
G01X22217Y16404D01*
G01X22697D01*
G01X22767Y16354D01*
G37*
G01X22767Y16354D02*
G01X22767Y15904D01*
G01X22697Y15854D01*
G01X22217D01*
G01X22167Y15904D01*
G01Y16354D01*
G01X22217Y16404D01*
G01X22697D01*
G01X22767Y16354D01*
G36*
G01X23727Y16354D02*
G01X23727Y15904D01*
G01X23677Y15854D01*
G01X23197D01*
G01X23127Y15904D01*
G01Y16354D01*
G01X23197Y16404D01*
G01X23677D01*
G01X23727Y16354D01*
G37*
G01X23727Y16354D02*
G01X23727Y15904D01*
G01X23677Y15854D01*
G01X23197D01*
G01X23127Y15904D01*
G01Y16354D01*
G01X23197Y16404D01*
G01X23677D01*
G01X23727Y16354D01*
G36*
G01X22767Y23542D02*
G01X22767Y23092D01*
G01X22697Y23042D01*
G01X22217D01*
G01X22167Y23092D01*
G01Y23542D01*
G01X22217Y23592D01*
G01X22697D01*
G01X22767Y23542D01*
G37*
G01X22767Y23542D02*
G01X22767Y23092D01*
G01X22697Y23042D01*
G01X22217D01*
G01X22167Y23092D01*
G01Y23542D01*
G01X22217Y23592D01*
G01X22697D01*
G01X22767Y23542D01*
G36*
G01X23727Y23542D02*
G01X23727Y23092D01*
G01X23677Y23042D01*
G01X23197D01*
G01X23127Y23092D01*
G01Y23542D01*
G01X23197Y23592D01*
G01X23677D01*
G01X23727Y23542D01*
G37*
G01X23727Y23542D02*
G01X23727Y23092D01*
G01X23677Y23042D01*
G01X23197D01*
G01X23127Y23092D01*
G01Y23542D01*
G01X23197Y23592D01*
G01X23677D01*
G01X23727Y23542D01*
G36*
G01X22767Y28851D02*
G01X22767Y28401D01*
G01X22697Y28351D01*
G01X22217D01*
G01X22167Y28401D01*
G01Y28851D01*
G01X22217Y28901D01*
G01X22697D01*
G01X22767Y28851D01*
G37*
G01X22767Y28851D02*
G01X22767Y28401D01*
G01X22697Y28351D01*
G01X22217D01*
G01X22167Y28401D01*
G01Y28851D01*
G01X22217Y28901D01*
G01X22697D01*
G01X22767Y28851D01*
G36*
G01X23727Y28851D02*
G01X23727Y28401D01*
G01X23677Y28351D01*
G01X23197D01*
G01X23127Y28401D01*
G01Y28851D01*
G01X23197Y28901D01*
G01X23677D01*
G01X23727Y28851D01*
G37*
G01X23727Y28851D02*
G01X23727Y28401D01*
G01X23677Y28351D01*
G01X23197D01*
G01X23127Y28401D01*
G01Y28851D01*
G01X23197Y28901D01*
G01X23677D01*
G01X23727Y28851D01*
G36*
G01X37809Y36759D02*
G01X38259Y36759D01*
G01X38309Y36689D01*
G01Y36209D01*
G01X38259Y36159D01*
G01X37809D01*
G01X37759Y36209D01*
G01Y36689D01*
G01X37809Y36759D01*
G37*
G01X37809Y36759D02*
G01X38259Y36759D01*
G01X38309Y36689D01*
G01Y36209D01*
G01X38259Y36159D01*
G01X37809D01*
G01X37759Y36209D01*
G01Y36689D01*
G01X37809Y36759D01*
G36*
G01X37809Y37719D02*
G01X38259Y37719D01*
G01X38309Y37669D01*
G01Y37189D01*
G01X38259Y37119D01*
G01X37809D01*
G01X37759Y37189D01*
G01Y37669D01*
G01X37809Y37719D01*
G37*
G01X37809Y37719D02*
G01X38259Y37719D01*
G01X38309Y37669D01*
G01Y37189D01*
G01X38259Y37119D01*
G01X37809D01*
G01X37759Y37189D01*
G01Y37669D01*
G01X37809Y37719D01*
G36*
G01X38601Y34830D02*
G01X38601Y35290D01*
G01X38641Y35330D01*
G01X39141D01*
G01X39181Y35290D01*
G01Y34830D01*
G01X39141Y34790D01*
G01X38641D01*
G01X38601Y34830D01*
G37*
G01X38601Y34830D02*
G01X38601Y35290D01*
G01X38641Y35330D01*
G01X39141D01*
G01X39181Y35290D01*
G01Y34830D01*
G01X39141Y34790D01*
G01X38641D01*
G01X38601Y34830D01*
G36*
G01X38331Y34830D02*
G01X38331Y35290D01*
G01X38291Y35330D01*
G01X37790D01*
G01X37750Y35290D01*
G01Y34830D01*
G01X37790Y34790D01*
G01X38291D01*
G01X38331Y34830D01*
G37*
G01X38331Y34830D02*
G01X38331Y35290D01*
G01X38291Y35330D01*
G01X37790D01*
G01X37750Y35290D01*
G01Y34830D01*
G01X37790Y34790D01*
G01X38291D01*
G01X38331Y34830D01*
G36*
G01X17290Y31082D02*
G01X17290Y31532D01*
G01X17360Y31582D01*
G01X17840D01*
G01X17890Y31532D01*
G01Y31082D01*
G01X17840Y31032D01*
G01X17360D01*
G01X17290Y31082D01*
G37*
G01X17290Y31082D02*
G01X17290Y31532D01*
G01X17360Y31582D01*
G01X17840D01*
G01X17890Y31532D01*
G01Y31082D01*
G01X17840Y31032D01*
G01X17360D01*
G01X17290Y31082D01*
G36*
G01X16330Y31082D02*
G01X16330Y31532D01*
G01X16380Y31582D01*
G01X16860D01*
G01X16930Y31532D01*
G01Y31082D01*
G01X16860Y31032D01*
G01X16380D01*
G01X16330Y31082D01*
G37*
G01X16330Y31082D02*
G01X16330Y31532D01*
G01X16380Y31582D01*
G01X16860D01*
G01X16930Y31532D01*
G01Y31082D01*
G01X16860Y31032D01*
G01X16380D01*
G01X16330Y31082D01*
G36*
G01X24128Y31458D02*
G01X24128Y31918D01*
G01X24168Y31958D01*
G01X24669D01*
G01X24709Y31918D01*
G01Y31458D01*
G01X24669Y31418D01*
G01X24168D01*
G01X24128Y31458D01*
G37*
G01X24128Y31458D02*
G01X24128Y31918D01*
G01X24168Y31958D01*
G01X24669D01*
G01X24709Y31918D01*
G01Y31458D01*
G01X24669Y31418D01*
G01X24168D01*
G01X24128Y31458D01*
G36*
G01X23858Y31458D02*
G01X23858Y31918D01*
G01X23818Y31958D01*
G01X23318D01*
G01X23278Y31918D01*
G01Y31458D01*
G01X23318Y31418D01*
G01X23818D01*
G01X23858Y31458D01*
G37*
G01X23858Y31458D02*
G01X23858Y31918D01*
G01X23818Y31958D01*
G01X23318D01*
G01X23278Y31918D01*
G01Y31458D01*
G01X23318Y31418D01*
G01X23818D01*
G01X23858Y31458D01*
G36*
G01X24128Y32703D02*
G01X24128Y33163D01*
G01X24168Y33203D01*
G01X24669D01*
G01X24709Y33163D01*
G01Y32703D01*
G01X24669Y32663D01*
G01X24168D01*
G01X24128Y32703D01*
G37*
G01X24128Y32703D02*
G01X24128Y33163D01*
G01X24168Y33203D01*
G01X24669D01*
G01X24709Y33163D01*
G01Y32703D01*
G01X24669Y32663D01*
G01X24168D01*
G01X24128Y32703D01*
G36*
G01X23858Y32703D02*
G01X23858Y33163D01*
G01X23818Y33203D01*
G01X23318D01*
G01X23278Y33163D01*
G01Y32703D01*
G01X23318Y32663D01*
G01X23818D01*
G01X23858Y32703D01*
G37*
G01X23858Y32703D02*
G01X23858Y33163D01*
G01X23818Y33203D01*
G01X23318D01*
G01X23278Y33163D01*
G01Y32703D01*
G01X23318Y32663D01*
G01X23818D01*
G01X23858Y32703D01*
G36*
G01X26683Y10965D02*
G01X27143Y10965D01*
G01X27183Y10925D01*
G01Y10424D01*
G01X27143Y10384D01*
G01X26683D01*
G01X26643Y10424D01*
G01Y10925D01*
G01X26683Y10965D01*
G37*
G01X26683Y10965D02*
G01X27143Y10965D01*
G01X27183Y10925D01*
G01Y10424D01*
G01X27143Y10384D01*
G01X26683D01*
G01X26643Y10424D01*
G01Y10925D01*
G01X26683Y10965D01*
G36*
G01X26683Y11235D02*
G01X27143Y11235D01*
G01X27183Y11275D01*
G01Y11775D01*
G01X27143Y11815D01*
G01X26683D01*
G01X26643Y11775D01*
G01Y11275D01*
G01X26683Y11235D01*
G37*
G01X26683Y11235D02*
G01X27143Y11235D01*
G01X27183Y11275D01*
G01Y11775D01*
G01X27143Y11815D01*
G01X26683D01*
G01X26643Y11775D01*
G01Y11275D01*
G01X26683Y11235D01*
G36*
G01X87514Y25086D02*
G01X87055Y25086D01*
G01X87014Y25126D01*
G01Y25627D01*
G01X87055Y25667D01*
G01X87514D01*
G01X87555Y25627D01*
G01Y25126D01*
G01X87514Y25086D01*
G37*
G01X87514Y25086D02*
G01X87055Y25086D01*
G01X87014Y25126D01*
G01Y25627D01*
G01X87055Y25667D01*
G01X87514D01*
G01X87555Y25627D01*
G01Y25126D01*
G01X87514Y25086D01*
G36*
G01X87514Y24816D02*
G01X87055Y24816D01*
G01X87014Y24776D01*
G01Y24276D01*
G01X87055Y24236D01*
G01X87514D01*
G01X87555Y24276D01*
G01Y24776D01*
G01X87514Y24816D01*
G37*
G01X87514Y24816D02*
G01X87055Y24816D01*
G01X87014Y24776D01*
G01Y24276D01*
G01X87055Y24236D01*
G01X87514D01*
G01X87555Y24276D01*
G01Y24776D01*
G01X87514Y24816D01*
G36*
G01X3710Y24137D02*
G01X3250Y24137D01*
G01X3210Y24177D01*
G01Y24678D01*
G01X3250Y24718D01*
G01X3710D01*
G01X3750Y24678D01*
G01Y24177D01*
G01X3710Y24137D01*
G37*
G01X3710Y24137D02*
G01X3250Y24137D01*
G01X3210Y24177D01*
G01Y24678D01*
G01X3250Y24718D01*
G01X3710D01*
G01X3750Y24678D01*
G01Y24177D01*
G01X3710Y24137D01*
G36*
G01X3710Y23867D02*
G01X3250Y23867D01*
G01X3210Y23827D01*
G01Y23326D01*
G01X3250Y23286D01*
G01X3710D01*
G01X3750Y23326D01*
G01Y23827D01*
G01X3710Y23867D01*
G37*
G01X3710Y23867D02*
G01X3250Y23867D01*
G01X3210Y23827D01*
G01Y23326D01*
G01X3250Y23286D01*
G01X3710D01*
G01X3750Y23326D01*
G01Y23827D01*
G01X3710Y23867D01*
G36*
G01X3250Y26204D02*
G01X3710Y26204D01*
G01X3750Y26164D01*
G01Y25663D01*
G01X3710Y25623D01*
G01X3250D01*
G01X3210Y25663D01*
G01Y26164D01*
G01X3250Y26204D01*
G37*
G01X3250Y26204D02*
G01X3710Y26204D01*
G01X3750Y26164D01*
G01Y25663D01*
G01X3710Y25623D01*
G01X3250D01*
G01X3210Y25663D01*
G01Y26164D01*
G01X3250Y26204D01*
G36*
G01X3250Y26474D02*
G01X3710Y26474D01*
G01X3750Y26514D01*
G01Y27014D01*
G01X3710Y27054D01*
G01X3250D01*
G01X3210Y27014D01*
G01Y26514D01*
G01X3250Y26474D01*
G37*
G01X3250Y26474D02*
G01X3710Y26474D01*
G01X3750Y26514D01*
G01Y27014D01*
G01X3710Y27054D01*
G01X3250D01*
G01X3210Y27014D01*
G01Y26514D01*
G01X3250Y26474D01*
G36*
G01X11093Y34849D02*
G03X11093Y35149I-0J150D01*
G01X8792D01*
G03Y34849I0J-150D01*
G01X11093D01*
G37*
G01X11093Y34849D02*
G03X11093Y35149I-0J150D01*
G01X8792D01*
G03Y34849I0J-150D01*
G01X11093D01*
G36*
G01X11093Y35350D02*
G03X11093Y35649I-0J150D01*
G01X8792D01*
G03Y35350I0J-150D01*
G01X11093D01*
G37*
G01X11093Y35350D02*
G03X11093Y35649I-0J150D01*
G01X8792D01*
G03Y35350I0J-150D01*
G01X11093D01*
G36*
G01X11093Y35850D02*
G03X11093Y36150I-0J150D01*
G01X8792D01*
G03Y35850I0J-150D01*
G01X11093D01*
G37*
G01X11093Y35850D02*
G03X11093Y36150I-0J150D01*
G01X8792D01*
G03Y35850I0J-150D01*
G01X11093D01*
G36*
G01X11093Y36350D02*
G03X11093Y36650I-0J150D01*
G01X8792D01*
G03Y36350I0J-150D01*
G01X11093D01*
G37*
G01X11093Y36350D02*
G03X11093Y36650I-0J150D01*
G01X8792D01*
G03Y36350I0J-150D01*
G01X11093D01*
G36*
G01X11093Y36851D02*
G03X11093Y37150I-0J150D01*
G01X8792D01*
G03Y36851I0J-150D01*
G01X11093D01*
G37*
G01X11093Y36851D02*
G03X11093Y37150I-0J150D01*
G01X8792D01*
G03Y36851I0J-150D01*
G01X11093D01*
G36*
G01X11093Y37351D02*
G03X11093Y37651I-0J150D01*
G01X8792D01*
G03Y37351I0J-150D01*
G01X11093D01*
G37*
G01X11093Y37351D02*
G03X11093Y37651I-0J150D01*
G01X8792D01*
G03Y37351I0J-150D01*
G01X11093D01*
G36*
G01X11093Y37849D02*
G03X11093Y38149I-0J150D01*
G01X8792D01*
G03Y37849I0J-150D01*
G01X11093D01*
G37*
G01X11093Y37849D02*
G03X11093Y38149I-0J150D01*
G01X8792D01*
G03Y37849I0J-150D01*
G01X11093D01*
G36*
G01X11093Y38349D02*
G03X11093Y38649I-0J150D01*
G01X8792D01*
G03Y38349I0J-150D01*
G01X11093D01*
G37*
G01X11093Y38349D02*
G03X11093Y38649I-0J150D01*
G01X8792D01*
G03Y38349I0J-150D01*
G01X11093D01*
G36*
G01X11093Y38850D02*
G03X11093Y39149I-0J150D01*
G01X8792D01*
G03Y38850I0J-150D01*
G01X11093D01*
G37*
G01X11093Y38850D02*
G03X11093Y39149I-0J150D01*
G01X8792D01*
G03Y38850I0J-150D01*
G01X11093D01*
G36*
G01X11093Y43851D02*
G03X11093Y44151I-0J150D01*
G01X8792D01*
G03Y43851I0J-150D01*
G01X11093D01*
G37*
G01X11093Y43851D02*
G03X11093Y44151I-0J150D01*
G01X8792D01*
G03Y43851I0J-150D01*
G01X11093D01*
G36*
G01X11093Y43351D02*
G03X11093Y43650I-0J150D01*
G01X8792D01*
G03Y43351I0J-150D01*
G01X11093D01*
G37*
G01X11093Y43351D02*
G03X11093Y43650I-0J150D01*
G01X8792D01*
G03Y43351I0J-150D01*
G01X11093D01*
G36*
G01X11093Y42850D02*
G03X11093Y43150I-0J150D01*
G01X8792D01*
G03Y42850I0J-150D01*
G01X11093D01*
G37*
G01X11093Y42850D02*
G03X11093Y43150I-0J150D01*
G01X8792D01*
G03Y42850I0J-150D01*
G01X11093D01*
G36*
G01X11093Y42350D02*
G03X11093Y42650I-0J150D01*
G01X8792D01*
G03Y42350I0J-150D01*
G01X11093D01*
G37*
G01X11093Y42350D02*
G03X11093Y42650I-0J150D01*
G01X8792D01*
G03Y42350I0J-150D01*
G01X11093D01*
G36*
G01X11093Y41849D02*
G03X11093Y42149I-0J150D01*
G01X8792D01*
G03Y41849I0J-150D01*
G01X11093D01*
G37*
G01X11093Y41849D02*
G03X11093Y42149I-0J150D01*
G01X8792D01*
G03Y41849I0J-150D01*
G01X11093D01*
G36*
G01X11093Y41349D02*
G03X11093Y41649I-0J150D01*
G01X8792D01*
G03Y41349I0J-150D01*
G01X11093D01*
G37*
G01X11093Y41349D02*
G03X11093Y41649I-0J150D01*
G01X8792D01*
G03Y41349I0J-150D01*
G01X11093D01*
G36*
G01X11093Y40849D02*
G03X11093Y41151I-0J151D01*
G01X8792D01*
G03Y40849I0J-151D01*
G01X11093D01*
G37*
G01X11093Y40849D02*
G03X11093Y41151I-0J151D01*
G01X8792D01*
G03Y40849I0J-151D01*
G01X11093D01*
G36*
G01X11093Y40351D02*
G03X11093Y40651I-0J150D01*
G01X8792D01*
G03Y40351I0J-150D01*
G01X11093D01*
G37*
G01X11093Y40351D02*
G03X11093Y40651I-0J150D01*
G01X8792D01*
G03Y40351I0J-150D01*
G01X11093D01*
G36*
G01X11093Y39851D02*
G03X11093Y40150I-0J150D01*
G01X8792D01*
G03Y39851I0J-150D01*
G01X11093D01*
G37*
G01X11093Y39851D02*
G03X11093Y40150I-0J150D01*
G01X8792D01*
G03Y39851I0J-150D01*
G01X11093D01*
G36*
G01X11093Y39350D02*
G03X11093Y39650I-0J150D01*
G01X8792D01*
G03Y39350I0J-150D01*
G01X11093D01*
G37*
G01X11093Y39350D02*
G03X11093Y39650I-0J150D01*
G01X8792D01*
G03Y39350I0J-150D01*
G01X11093D01*
G36*
G01X10082Y47501D02*
G02X10082Y46000I-0J-751D01*
G01X8281D01*
G02Y47501I0J751D01*
G01X10082D01*
G37*
G01X10082Y47501D02*
G02X10082Y46000I-0J-751D01*
G01X8281D01*
G02Y47501I0J751D01*
G01X10082D01*
G36*
G01X10082Y33000D02*
G02X10082Y31499I0J-751D01*
G01X8281D01*
G02Y33000I0J751D01*
G01X10082D01*
G37*
G01X10082Y33000D02*
G02X10082Y31499I0J-751D01*
G01X8281D01*
G02Y33000I0J751D01*
G01X10082D01*
G36*
G01X3821Y47501D02*
G02X3821Y46000I-0J-751D01*
G01X2622D01*
G02Y47501I0J751D01*
G01X3821D01*
G37*
G01X3821Y47501D02*
G02X3821Y46000I-0J-751D01*
G01X2622D01*
G02Y47501I0J751D01*
G01X3821D01*
G36*
G01X3821Y33000D02*
G02X3821Y31499I0J-751D01*
G01X2622D01*
G02Y33000I0J751D01*
G01X3821D01*
G37*
G01X3821Y33000D02*
G02X3821Y31499I0J-751D01*
G01X2622D01*
G02Y33000I0J751D01*
G01X3821D01*
G36*
G01X16999Y45061D02*
G01X16999Y44601D01*
G01X16959Y44561D01*
G01X16458D01*
G01X16418Y44601D01*
G01Y45061D01*
G01X16458Y45101D01*
G01X16959D01*
G01X16999Y45061D01*
G37*
G01X16999Y45061D02*
G01X16999Y44601D01*
G01X16959Y44561D01*
G01X16458D01*
G01X16418Y44601D01*
G01Y45061D01*
G01X16458Y45101D01*
G01X16959D01*
G01X16999Y45061D01*
G36*
G01X17269Y45061D02*
G01X17269Y44601D01*
G01X17309Y44561D01*
G01X17809D01*
G01X17849Y44601D01*
G01Y45061D01*
G01X17809Y45101D01*
G01X17309D01*
G01X17269Y45061D01*
G37*
G01X17269Y45061D02*
G01X17269Y44601D01*
G01X17309Y44561D01*
G01X17809D01*
G01X17849Y44601D01*
G01Y45061D01*
G01X17809Y45101D01*
G01X17309D01*
G01X17269Y45061D01*
G36*
G01X17269Y42315D02*
G01X17269Y42775D01*
G01X17309Y42815D01*
G01X17809D01*
G01X17849Y42775D01*
G01Y42315D01*
G01X17809Y42275D01*
G01X17309D01*
G01X17269Y42315D01*
G37*
G01X17269Y42315D02*
G01X17269Y42775D01*
G01X17309Y42815D01*
G01X17809D01*
G01X17849Y42775D01*
G01Y42315D01*
G01X17809Y42275D01*
G01X17309D01*
G01X17269Y42315D01*
G36*
G01X16999Y42315D02*
G01X16999Y42775D01*
G01X16959Y42815D01*
G01X16458D01*
G01X16418Y42775D01*
G01Y42315D01*
G01X16458Y42275D01*
G01X16959D01*
G01X16999Y42315D01*
G37*
G01X16999Y42315D02*
G01X16999Y42775D01*
G01X16959Y42815D01*
G01X16458D01*
G01X16418Y42775D01*
G01Y42315D01*
G01X16458Y42275D01*
G01X16959D01*
G01X16999Y42315D01*
G36*
G01X17268Y43407D02*
G01X17268Y43867D01*
G01X17308Y43907D01*
G01X17808D01*
G01X17848Y43867D01*
G01Y43407D01*
G01X17808Y43367D01*
G01X17308D01*
G01X17268Y43407D01*
G37*
G01X17268Y43407D02*
G01X17268Y43867D01*
G01X17308Y43907D01*
G01X17808D01*
G01X17848Y43867D01*
G01Y43407D01*
G01X17808Y43367D01*
G01X17308D01*
G01X17268Y43407D01*
G36*
G01X16998Y43407D02*
G01X16998Y43867D01*
G01X16958Y43907D01*
G01X16457D01*
G01X16417Y43867D01*
G01Y43407D01*
G01X16457Y43367D01*
G01X16958D01*
G01X16998Y43407D01*
G37*
G01X16998Y43407D02*
G01X16998Y43867D01*
G01X16958Y43907D01*
G01X16457D01*
G01X16417Y43867D01*
G01Y43407D01*
G01X16457Y43367D01*
G01X16958D01*
G01X16998Y43407D01*
G36*
G01X78374Y50809D02*
G01X78374Y50349D01*
G01X78334Y50309D01*
G01X77833D01*
G01X77793Y50349D01*
G01Y50809D01*
G01X77833Y50849D01*
G01X78334D01*
G01X78374Y50809D01*
G37*
G01X78374Y50809D02*
G01X78374Y50349D01*
G01X78334Y50309D01*
G01X77833D01*
G01X77793Y50349D01*
G01Y50809D01*
G01X77833Y50849D01*
G01X78334D01*
G01X78374Y50809D01*
G36*
G01X78644Y50809D02*
G01X78644Y50349D01*
G01X78684Y50309D01*
G01X79184D01*
G01X79224Y50349D01*
G01Y50809D01*
G01X79184Y50849D01*
G01X78684D01*
G01X78644Y50809D01*
G37*
G01X78644Y50809D02*
G01X78644Y50349D01*
G01X78684Y50309D01*
G01X79184D01*
G01X79224Y50349D01*
G01Y50809D01*
G01X79184Y50849D01*
G01X78684D01*
G01X78644Y50809D01*
G36*
G01X78374Y39227D02*
G01X78374Y38767D01*
G01X78334Y38727D01*
G01X77833D01*
G01X77793Y38767D01*
G01Y39227D01*
G01X77833Y39267D01*
G01X78334D01*
G01X78374Y39227D01*
G37*
G01X78374Y39227D02*
G01X78374Y38767D01*
G01X78334Y38727D01*
G01X77833D01*
G01X77793Y38767D01*
G01Y39227D01*
G01X77833Y39267D01*
G01X78334D01*
G01X78374Y39227D01*
G36*
G01X78644Y39227D02*
G01X78644Y38767D01*
G01X78684Y38727D01*
G01X79184D01*
G01X79224Y38767D01*
G01Y39227D01*
G01X79184Y39267D01*
G01X78684D01*
G01X78644Y39227D01*
G37*
G01X78644Y39227D02*
G01X78644Y38767D01*
G01X78684Y38727D01*
G01X79184D01*
G01X79224Y38767D01*
G01Y39227D01*
G01X79184Y39267D01*
G01X78684D01*
G01X78644Y39227D01*
G36*
G01X75186Y39227D02*
G01X75186Y38767D01*
G01X75146Y38727D01*
G01X74645D01*
G01X74605Y38767D01*
G01Y39227D01*
G01X74645Y39267D01*
G01X75146D01*
G01X75186Y39227D01*
G37*
G01X75186Y39227D02*
G01X75186Y38767D01*
G01X75146Y38727D01*
G01X74645D01*
G01X74605Y38767D01*
G01Y39227D01*
G01X74645Y39267D01*
G01X75146D01*
G01X75186Y39227D01*
G36*
G01X75456Y39227D02*
G01X75456Y38767D01*
G01X75496Y38727D01*
G01X75997D01*
G01X76037Y38767D01*
G01Y39227D01*
G01X75997Y39267D01*
G01X75496D01*
G01X75456Y39227D01*
G37*
G01X75456Y39227D02*
G01X75456Y38767D01*
G01X75496Y38727D01*
G01X75997D01*
G01X76037Y38767D01*
G01Y39227D01*
G01X75997Y39267D01*
G01X75496D01*
G01X75456Y39227D01*
G36*
G01X66128Y49139D02*
G01X65668Y49139D01*
G01X65628Y49179D01*
G01Y49680D01*
G01X65668Y49720D01*
G01X66128D01*
G01X66168Y49680D01*
G01Y49179D01*
G01X66128Y49139D01*
G37*
G01X66128Y49139D02*
G01X65668Y49139D01*
G01X65628Y49179D01*
G01Y49680D01*
G01X65668Y49720D01*
G01X66128D01*
G01X66168Y49680D01*
G01Y49179D01*
G01X66128Y49139D01*
G36*
G01X66128Y48869D02*
G01X65668Y48869D01*
G01X65628Y48829D01*
G01Y48329D01*
G01X65668Y48289D01*
G01X66128D01*
G01X66168Y48329D01*
G01Y48829D01*
G01X66128Y48869D01*
G37*
G01X66128Y48869D02*
G01X65668Y48869D01*
G01X65628Y48829D01*
G01Y48329D01*
G01X65668Y48289D01*
G01X66128D01*
G01X66168Y48329D01*
G01Y48829D01*
G01X66128Y48869D01*
G36*
G01X64460Y42224D02*
G01X63180Y42224D01*
G01X63130Y42274D01*
G01Y43424D01*
G01X63180Y43474D01*
G01X63590Y43479D01*
G01Y43029D01*
G01X64040D01*
G01Y43469D01*
G01X64460Y43474D01*
G01X64510Y43424D01*
G01Y42274D01*
G01X64460Y42224D01*
G37*
G01X64460Y42224D02*
G01X63180Y42224D01*
G01X63130Y42274D01*
G01Y43424D01*
G01X63180Y43474D01*
G01X63590Y43479D01*
G01Y43029D01*
G01X64040D01*
G01Y43469D01*
G01X64460Y43474D01*
G01X64510Y43424D01*
G01Y42274D01*
G01X64460Y42224D01*
G36*
G01X64460Y44374D02*
G01X64040Y44374D01*
G01Y44819D01*
G01X63590D01*
G01Y44379D01*
G01X63180Y44374D01*
G01X63130Y44424D01*
G01Y45574D01*
G01X63180Y45624D01*
G01X64460D01*
G01X64510Y45574D01*
G01Y44424D01*
G01X64460Y44374D01*
G37*
G01X64460Y44374D02*
G01X64040Y44374D01*
G01Y44819D01*
G01X63590D01*
G01Y44379D01*
G01X63180Y44374D01*
G01X63130Y44424D01*
G01Y45574D01*
G01X63180Y45624D01*
G01X64460D01*
G01X64510Y45574D01*
G01Y44424D01*
G01X64460Y44374D01*
G36*
G01X67931Y47056D02*
G01X67471Y47056D01*
G01X67431Y47096D01*
G01Y47597D01*
G01X67471Y47637D01*
G01X67931D01*
G01X67971Y47597D01*
G01Y47096D01*
G01X67931Y47056D01*
G37*
G01X67931Y47056D02*
G01X67471Y47056D01*
G01X67431Y47096D01*
G01Y47597D01*
G01X67471Y47637D01*
G01X67931D01*
G01X67971Y47597D01*
G01Y47096D01*
G01X67931Y47056D01*
G36*
G01X67931Y46786D02*
G01X67471Y46786D01*
G01X67431Y46746D01*
G01Y46246D01*
G01X67471Y46206D01*
G01X67931D01*
G01X67971Y46246D01*
G01Y46746D01*
G01X67931Y46786D01*
G37*
G01X67931Y46786D02*
G01X67471Y46786D01*
G01X67431Y46746D01*
G01Y46246D01*
G01X67471Y46206D01*
G01X67931D01*
G01X67971Y46246D01*
G01Y46746D01*
G01X67931Y46786D01*
G36*
G01X63207Y46327D02*
G01X63207Y47607D01*
G01X63257Y47657D01*
G01X64407D01*
G01X64457Y47607D01*
G01X64462Y47197D01*
G01X64012D01*
G01Y46747D01*
G01X64452D01*
G01X64457Y46327D01*
G01X64407Y46277D01*
G01X63257D01*
G01X63207Y46327D01*
G37*
G01X63207Y46327D02*
G01X63207Y47607D01*
G01X63257Y47657D01*
G01X64407D01*
G01X64457Y47607D01*
G01X64462Y47197D01*
G01X64012D01*
G01Y46747D01*
G01X64452D01*
G01X64457Y46327D01*
G01X64407Y46277D01*
G01X63257D01*
G01X63207Y46327D01*
G36*
G01X65357Y46327D02*
G01X65357Y46747D01*
G01X65802D01*
G01Y47197D01*
G01X65362D01*
G01X65357Y47607D01*
G01X65407Y47657D01*
G01X66557D01*
G01X66607Y47607D01*
G01Y46327D01*
G01X66557Y46277D01*
G01X65407D01*
G01X65357Y46327D01*
G37*
G01X65357Y46327D02*
G01X65357Y46747D01*
G01X65802D01*
G01Y47197D01*
G01X65362D01*
G01X65357Y47607D01*
G01X65407Y47657D01*
G01X66557D01*
G01X66607Y47607D01*
G01Y46327D01*
G01X66557Y46277D01*
G01X65407D01*
G01X65357Y46327D01*
G36*
G01X68319Y48749D02*
G01X68319Y49209D01*
G01X68359Y49249D01*
G01X68859D01*
G01X68899Y49209D01*
G01Y48749D01*
G01X68859Y48709D01*
G01X68359D01*
G01X68319Y48749D01*
G37*
G01X68319Y48749D02*
G01X68319Y49209D01*
G01X68359Y49249D01*
G01X68859D01*
G01X68899Y49209D01*
G01Y48749D01*
G01X68859Y48709D01*
G01X68359D01*
G01X68319Y48749D01*
G36*
G01X68049Y48749D02*
G01X68049Y49209D01*
G01X68009Y49249D01*
G01X67508D01*
G01X67468Y49209D01*
G01Y48749D01*
G01X67508Y48709D01*
G01X68009D01*
G01X68049Y48749D01*
G37*
G01X68049Y48749D02*
G01X68049Y49209D01*
G01X68009Y49249D01*
G01X67508D01*
G01X67468Y49209D01*
G01Y48749D01*
G01X67508Y48709D01*
G01X68009D01*
G01X68049Y48749D01*
G36*
G01X63207Y50442D02*
G01X63207Y51722D01*
G01X63257Y51772D01*
G01X64407D01*
G01X64457Y51722D01*
G01X64462Y51312D01*
G01X64012D01*
G01Y50862D01*
G01X64452D01*
G01X64457Y50442D01*
G01X64407Y50392D01*
G01X63257D01*
G01X63207Y50442D01*
G37*
G01X63207Y50442D02*
G01X63207Y51722D01*
G01X63257Y51772D01*
G01X64407D01*
G01X64457Y51722D01*
G01X64462Y51312D01*
G01X64012D01*
G01Y50862D01*
G01X64452D01*
G01X64457Y50442D01*
G01X64407Y50392D01*
G01X63257D01*
G01X63207Y50442D01*
G36*
G01X65357Y50442D02*
G01X65357Y50862D01*
G01X65802D01*
G01Y51312D01*
G01X65362D01*
G01X65357Y51722D01*
G01X65407Y51772D01*
G01X66557D01*
G01X66607Y51722D01*
G01Y50442D01*
G01X66557Y50392D01*
G01X65407D01*
G01X65357Y50442D01*
G37*
G01X65357Y50442D02*
G01X65357Y50862D01*
G01X65802D01*
G01Y51312D01*
G01X65362D01*
G01X65357Y51722D01*
G01X65407Y51772D01*
G01X66557D01*
G01X66607Y51722D01*
G01Y50442D01*
G01X66557Y50392D01*
G01X65407D01*
G01X65357Y50442D01*
G36*
G01X68364Y50252D02*
G01X68364Y50702D01*
G01X68434Y50752D01*
G01X68914D01*
G01X68964Y50702D01*
G01Y50252D01*
G01X68914Y50202D01*
G01X68434D01*
G01X68364Y50252D01*
G37*
G01X68364Y50252D02*
G01X68364Y50702D01*
G01X68434Y50752D01*
G01X68914D01*
G01X68964Y50702D01*
G01Y50252D01*
G01X68914Y50202D01*
G01X68434D01*
G01X68364Y50252D01*
G36*
G01X67404Y50252D02*
G01X67404Y50702D01*
G01X67454Y50752D01*
G01X67934D01*
G01X68004Y50702D01*
G01Y50252D01*
G01X67934Y50202D01*
G01X67454D01*
G01X67404Y50252D01*
G37*
G01X67404Y50252D02*
G01X67404Y50702D01*
G01X67454Y50752D01*
G01X67934D01*
G01X68004Y50702D01*
G01Y50252D01*
G01X67934Y50202D01*
G01X67454D01*
G01X67404Y50252D01*
G36*
G01X71910Y46770D02*
G01X71910Y46310D01*
G01X71869Y46270D01*
G01X71369D01*
G01X71329Y46310D01*
G01Y46770D01*
G01X71369Y46810D01*
G01X71869D01*
G01X71910Y46770D01*
G37*
G01X71910Y46770D02*
G01X71910Y46310D01*
G01X71869Y46270D01*
G01X71369D01*
G01X71329Y46310D01*
G01Y46770D01*
G01X71369Y46810D01*
G01X71869D01*
G01X71910Y46770D01*
G36*
G01X72180Y46770D02*
G01X72180Y46310D01*
G01X72220Y46270D01*
G01X72720D01*
G01X72760Y46310D01*
G01Y46770D01*
G01X72720Y46810D01*
G01X72220D01*
G01X72180Y46770D01*
G37*
G01X72180Y46770D02*
G01X72180Y46310D01*
G01X72220Y46270D01*
G01X72720D01*
G01X72760Y46310D01*
G01Y46770D01*
G01X72720Y46810D01*
G01X72220D01*
G01X72180Y46770D01*
G36*
G01X69913Y46315D02*
G01X69913Y46765D01*
G01X69983Y46815D01*
G01X70463D01*
G01X70513Y46765D01*
G01Y46315D01*
G01X70463Y46265D01*
G01X69983D01*
G01X69913Y46315D01*
G37*
G01X69913Y46315D02*
G01X69913Y46765D01*
G01X69983Y46815D01*
G01X70463D01*
G01X70513Y46765D01*
G01Y46315D01*
G01X70463Y46265D01*
G01X69983D01*
G01X69913Y46315D01*
G36*
G01X68953Y46315D02*
G01X68953Y46765D01*
G01X69003Y46815D01*
G01X69483D01*
G01X69553Y46765D01*
G01Y46315D01*
G01X69483Y46265D01*
G01X69003D01*
G01X68953Y46315D01*
G37*
G01X68953Y46315D02*
G01X68953Y46765D01*
G01X69003Y46815D01*
G01X69483D01*
G01X69553Y46765D01*
G01Y46315D01*
G01X69483Y46265D01*
G01X69003D01*
G01X68953Y46315D01*
G36*
G01X65974Y45323D02*
G01X65974Y44863D01*
G01X65934Y44823D01*
G01X65433D01*
G01X65393Y44863D01*
G01Y45323D01*
G01X65433Y45363D01*
G01X65934D01*
G01X65974Y45323D01*
G37*
G01X65974Y45323D02*
G01X65974Y44863D01*
G01X65934Y44823D01*
G01X65433D01*
G01X65393Y44863D01*
G01Y45323D01*
G01X65433Y45363D01*
G01X65934D01*
G01X65974Y45323D01*
G36*
G01X66244Y45323D02*
G01X66244Y44863D01*
G01X66284Y44823D01*
G01X66784D01*
G01X66824Y44863D01*
G01Y45323D01*
G01X66784Y45363D01*
G01X66284D01*
G01X66244Y45323D01*
G37*
G01X66244Y45323D02*
G01X66244Y44863D01*
G01X66284Y44823D01*
G01X66784D01*
G01X66824Y44863D01*
G01Y45323D01*
G01X66784Y45363D01*
G01X66284D01*
G01X66244Y45323D01*
G36*
G01X65929Y44149D02*
G01X65929Y43699D01*
G01X65859Y43649D01*
G01X65379D01*
G01X65329Y43699D01*
G01Y44149D01*
G01X65379Y44199D01*
G01X65859D01*
G01X65929Y44149D01*
G37*
G01X65929Y44149D02*
G01X65929Y43699D01*
G01X65859Y43649D01*
G01X65379D01*
G01X65329Y43699D01*
G01Y44149D01*
G01X65379Y44199D01*
G01X65859D01*
G01X65929Y44149D01*
G36*
G01X66889Y44149D02*
G01X66889Y43699D01*
G01X66839Y43649D01*
G01X66359D01*
G01X66289Y43699D01*
G01Y44149D01*
G01X66359Y44199D01*
G01X66839D01*
G01X66889Y44149D01*
G37*
G01X66889Y44149D02*
G01X66889Y43699D01*
G01X66839Y43649D01*
G01X66359D01*
G01X66289Y43699D01*
G01Y44149D01*
G01X66359Y44199D01*
G01X66839D01*
G01X66889Y44149D01*
G36*
G01X65929Y42981D02*
G01X65929Y42531D01*
G01X65859Y42481D01*
G01X65379D01*
G01X65329Y42531D01*
G01Y42981D01*
G01X65379Y43031D01*
G01X65859D01*
G01X65929Y42981D01*
G37*
G01X65929Y42981D02*
G01X65929Y42531D01*
G01X65859Y42481D01*
G01X65379D01*
G01X65329Y42531D01*
G01Y42981D01*
G01X65379Y43031D01*
G01X65859D01*
G01X65929Y42981D01*
G36*
G01X66889Y42981D02*
G01X66889Y42531D01*
G01X66839Y42481D01*
G01X66359D01*
G01X66289Y42531D01*
G01Y42981D01*
G01X66359Y43031D01*
G01X66839D01*
G01X66889Y42981D01*
G37*
G01X66889Y42981D02*
G01X66889Y42531D01*
G01X66839Y42481D01*
G01X66359D01*
G01X66289Y42531D01*
G01Y42981D01*
G01X66359Y43031D01*
G01X66839D01*
G01X66889Y42981D01*
G36*
G01X69850Y51314D02*
G01X71130Y51314D01*
G01X71180Y51264D01*
G01Y50114D01*
G01X71130Y50064D01*
G01X70720Y50059D01*
G01Y50509D01*
G01X70270D01*
G01Y50069D01*
G01X69850Y50064D01*
G01X69800Y50114D01*
G01Y51264D01*
G01X69850Y51314D01*
G37*
G01X69850Y51314D02*
G01X71130Y51314D01*
G01X71180Y51264D01*
G01Y50114D01*
G01X71130Y50064D01*
G01X70720Y50059D01*
G01Y50509D01*
G01X70270D01*
G01Y50069D01*
G01X69850Y50064D01*
G01X69800Y50114D01*
G01Y51264D01*
G01X69850Y51314D01*
G36*
G01X69850Y49164D02*
G01X70270Y49164D01*
G01Y48719D01*
G01X70720D01*
G01Y49159D01*
G01X71130Y49164D01*
G01X71180Y49114D01*
G01Y47964D01*
G01X71130Y47914D01*
G01X69850D01*
G01X69800Y47964D01*
G01Y49114D01*
G01X69850Y49164D01*
G37*
G01X69850Y49164D02*
G01X70270Y49164D01*
G01Y48719D01*
G01X70720D01*
G01Y49159D01*
G01X71130Y49164D01*
G01X71180Y49114D01*
G01Y47964D01*
G01X71130Y47914D01*
G01X69850D01*
G01X69800Y47964D01*
G01Y49114D01*
G01X69850Y49164D01*
G36*
G01X71840Y48514D02*
G01X72300Y48514D01*
G01X72340Y48474D01*
G01Y47973D01*
G01X72300Y47933D01*
G01X71840D01*
G01X71800Y47973D01*
G01Y48474D01*
G01X71840Y48514D01*
G37*
G01X71840Y48514D02*
G01X72300Y48514D01*
G01X72340Y48474D01*
G01Y47973D01*
G01X72300Y47933D01*
G01X71840D01*
G01X71800Y47973D01*
G01Y48474D01*
G01X71840Y48514D01*
G36*
G01X71840Y48784D02*
G01X72300Y48784D01*
G01X72340Y48824D01*
G01Y49324D01*
G01X72300Y49364D01*
G01X71840D01*
G01X71800Y49324D01*
G01Y48824D01*
G01X71840Y48784D01*
G37*
G01X71840Y48784D02*
G01X72300Y48784D01*
G01X72340Y48824D01*
G01Y49324D01*
G01X72300Y49364D01*
G01X71840D01*
G01X71800Y49324D01*
G01Y48824D01*
G01X71840Y48784D01*
G36*
G01X75186Y47278D02*
G01X75186Y46818D01*
G01X75146Y46778D01*
G01X74645D01*
G01X74605Y46818D01*
G01Y47278D01*
G01X74645Y47318D01*
G01X75146D01*
G01X75186Y47278D01*
G37*
G01X75186Y47278D02*
G01X75186Y46818D01*
G01X75146Y46778D01*
G01X74645D01*
G01X74605Y46818D01*
G01Y47278D01*
G01X74645Y47318D01*
G01X75146D01*
G01X75186Y47278D01*
G36*
G01X75456Y47278D02*
G01X75456Y46818D01*
G01X75496Y46778D01*
G01X75997D01*
G01X76037Y46818D01*
G01Y47278D01*
G01X75997Y47318D01*
G01X75496D01*
G01X75456Y47278D01*
G37*
G01X75456Y47278D02*
G01X75456Y46818D01*
G01X75496Y46778D01*
G01X75997D01*
G01X76037Y46818D01*
G01Y47278D01*
G01X75997Y47318D01*
G01X75496D01*
G01X75456Y47278D01*
G36*
G01X75501Y44487D02*
G01X75501Y44937D01*
G01X75571Y44987D01*
G01X76051D01*
G01X76101Y44937D01*
G01Y44487D01*
G01X76051Y44437D01*
G01X75571D01*
G01X75501Y44487D01*
G37*
G01X75501Y44487D02*
G01X75501Y44937D01*
G01X75571Y44987D01*
G01X76051D01*
G01X76101Y44937D01*
G01Y44487D01*
G01X76051Y44437D01*
G01X75571D01*
G01X75501Y44487D01*
G36*
G01X74541Y44487D02*
G01X74541Y44937D01*
G01X74591Y44987D01*
G01X75071D01*
G01X75141Y44937D01*
G01Y44487D01*
G01X75071Y44437D01*
G01X74591D01*
G01X74541Y44487D01*
G37*
G01X74541Y44487D02*
G01X74541Y44937D01*
G01X74591Y44987D01*
G01X75071D01*
G01X75141Y44937D01*
G01Y44487D01*
G01X75071Y44437D01*
G01X74591D01*
G01X74541Y44487D01*
G36*
G01X76336Y49269D02*
G01X76336Y47989D01*
G01X76286Y47939D01*
G01X75136D01*
G01X75086Y47989D01*
G01X75081Y48399D01*
G01X75531D01*
G01Y48849D01*
G01X75091D01*
G01X75086Y49269D01*
G01X75136Y49319D01*
G01X76286D01*
G01X76336Y49269D01*
G37*
G01X76336Y49269D02*
G01X76336Y47989D01*
G01X76286Y47939D01*
G01X75136D01*
G01X75086Y47989D01*
G01X75081Y48399D01*
G01X75531D01*
G01Y48849D01*
G01X75091D01*
G01X75086Y49269D01*
G01X75136Y49319D01*
G01X76286D01*
G01X76336Y49269D01*
G36*
G01X74186Y49269D02*
G01X74186Y48849D01*
G01X73741D01*
G01Y48399D01*
G01X74181D01*
G01X74186Y47989D01*
G01X74136Y47939D01*
G01X72986D01*
G01X72936Y47989D01*
G01Y49269D01*
G01X72986Y49319D01*
G01X74136D01*
G01X74186Y49269D01*
G37*
G01X74186Y49269D02*
G01X74186Y48849D01*
G01X73741D01*
G01Y48399D01*
G01X74181D01*
G01X74186Y47989D01*
G01X74136Y47939D01*
G01X72986D01*
G01X72936Y47989D01*
G01Y49269D01*
G01X72986Y49319D01*
G01X74136D01*
G01X74186Y49269D01*
G36*
G01X75141Y46105D02*
G01X75141Y45655D01*
G01X75071Y45605D01*
G01X74591D01*
G01X74541Y45655D01*
G01Y46105D01*
G01X74591Y46155D01*
G01X75071D01*
G01X75141Y46105D01*
G37*
G01X75141Y46105D02*
G01X75141Y45655D01*
G01X75071Y45605D01*
G01X74591D01*
G01X74541Y45655D01*
G01Y46105D01*
G01X74591Y46155D01*
G01X75071D01*
G01X75141Y46105D01*
G36*
G01X76101Y46105D02*
G01X76101Y45655D01*
G01X76051Y45605D01*
G01X75571D01*
G01X75501Y45655D01*
G01Y46105D01*
G01X75571Y46155D01*
G01X76051D01*
G01X76101Y46105D01*
G37*
G01X76101Y46105D02*
G01X76101Y45655D01*
G01X76051Y45605D01*
G01X75571D01*
G01X75501Y45655D01*
G01Y46105D01*
G01X75571Y46155D01*
G01X76051D01*
G01X76101Y46105D01*
G36*
G01X75456Y41441D02*
G01X75456Y41901D01*
G01X75496Y41941D01*
G01X75997D01*
G01X76037Y41901D01*
G01Y41441D01*
G01X75997Y41401D01*
G01X75496D01*
G01X75456Y41441D01*
G37*
G01X75456Y41441D02*
G01X75456Y41901D01*
G01X75496Y41941D01*
G01X75997D01*
G01X76037Y41901D01*
G01Y41441D01*
G01X75997Y41401D01*
G01X75496D01*
G01X75456Y41441D01*
G36*
G01X75186Y41441D02*
G01X75186Y41901D01*
G01X75146Y41941D01*
G01X74645D01*
G01X74605Y41901D01*
G01Y41441D01*
G01X74645Y41401D01*
G01X75146D01*
G01X75186Y41441D01*
G37*
G01X75186Y41441D02*
G01X75186Y41901D01*
G01X75146Y41941D01*
G01X74645D01*
G01X74605Y41901D01*
G01Y41441D01*
G01X74645Y41401D01*
G01X75146D01*
G01X75186Y41441D01*
G36*
G01X71645Y39921D02*
G01X71645Y40381D01*
G01X71685Y40421D01*
G01X72186D01*
G01X72226Y40381D01*
G01Y39921D01*
G01X72186Y39881D01*
G01X71685D01*
G01X71645Y39921D01*
G37*
G01X71645Y39921D02*
G01X71645Y40381D01*
G01X71685Y40421D01*
G01X72186D01*
G01X72226Y40381D01*
G01Y39921D01*
G01X72186Y39881D01*
G01X71685D01*
G01X71645Y39921D01*
G36*
G01X71375Y39921D02*
G01X71375Y40381D01*
G01X71335Y40421D01*
G01X70834D01*
G01X70794Y40381D01*
G01Y39921D01*
G01X70834Y39881D01*
G01X71335D01*
G01X71375Y39921D01*
G37*
G01X71375Y39921D02*
G01X71375Y40381D01*
G01X71335Y40421D01*
G01X70834D01*
G01X70794Y40381D01*
G01Y39921D01*
G01X70834Y39881D01*
G01X71335D01*
G01X71375Y39921D01*
G36*
G01X71375Y39227D02*
G01X71375Y38767D01*
G01X71335Y38727D01*
G01X70834D01*
G01X70794Y38767D01*
G01Y39227D01*
G01X70834Y39267D01*
G01X71335D01*
G01X71375Y39227D01*
G37*
G01X71375Y39227D02*
G01X71375Y38767D01*
G01X71335Y38727D01*
G01X70834D01*
G01X70794Y38767D01*
G01Y39227D01*
G01X70834Y39267D01*
G01X71335D01*
G01X71375Y39227D01*
G36*
G01X71645Y39227D02*
G01X71645Y38767D01*
G01X71685Y38727D01*
G01X72186D01*
G01X72226Y38767D01*
G01Y39227D01*
G01X72186Y39267D01*
G01X71685D01*
G01X71645Y39227D01*
G37*
G01X71645Y39227D02*
G01X71645Y38767D01*
G01X71685Y38727D01*
G01X72186D01*
G01X72226Y38767D01*
G01Y39227D01*
G01X72186Y39267D01*
G01X71685D01*
G01X71645Y39227D01*
G36*
G01X75141Y40720D02*
G01X75141Y40270D01*
G01X75071Y40220D01*
G01X74591D01*
G01X74541Y40270D01*
G01Y40720D01*
G01X74591Y40770D01*
G01X75071D01*
G01X75141Y40720D01*
G37*
G01X75141Y40720D02*
G01X75141Y40270D01*
G01X75071Y40220D01*
G01X74591D01*
G01X74541Y40270D01*
G01Y40720D01*
G01X74591Y40770D01*
G01X75071D01*
G01X75141Y40720D01*
G36*
G01X76101Y40720D02*
G01X76101Y40270D01*
G01X76051Y40220D01*
G01X75571D01*
G01X75501Y40270D01*
G01Y40720D01*
G01X75571Y40770D01*
G01X76051D01*
G01X76101Y40720D01*
G37*
G01X76101Y40720D02*
G01X76101Y40270D01*
G01X76051Y40220D01*
G01X75571D01*
G01X75501Y40270D01*
G01Y40720D01*
G01X75571Y40770D01*
G01X76051D01*
G01X76101Y40720D01*
G36*
G01X73064Y39440D02*
G01X73514Y39440D01*
G01X73564Y39370D01*
G01Y38890D01*
G01X73514Y38840D01*
G01X73064D01*
G01X73014Y38890D01*
G01Y39370D01*
G01X73064Y39440D01*
G37*
G01X73064Y39440D02*
G01X73514Y39440D01*
G01X73564Y39370D01*
G01Y38890D01*
G01X73514Y38840D01*
G01X73064D01*
G01X73014Y38890D01*
G01Y39370D01*
G01X73064Y39440D01*
G36*
G01X73064Y40400D02*
G01X73514Y40400D01*
G01X73564Y40350D01*
G01Y39870D01*
G01X73514Y39800D01*
G01X73064D01*
G01X73014Y39870D01*
G01Y40350D01*
G01X73064Y40400D01*
G37*
G01X73064Y40400D02*
G01X73514Y40400D01*
G01X73564Y40350D01*
G01Y39870D01*
G01X73514Y39800D01*
G01X73064D01*
G01X73014Y39870D01*
G01Y40350D01*
G01X73064Y40400D01*
G36*
G01X71690Y41076D02*
G01X71690Y41526D01*
G01X71760Y41576D01*
G01X72240D01*
G01X72290Y41526D01*
G01Y41076D01*
G01X72240Y41026D01*
G01X71760D01*
G01X71690Y41076D01*
G37*
G01X71690Y41076D02*
G01X71690Y41526D01*
G01X71760Y41576D01*
G01X72240D01*
G01X72290Y41526D01*
G01Y41076D01*
G01X72240Y41026D01*
G01X71760D01*
G01X71690Y41076D01*
G36*
G01X70730Y41076D02*
G01X70730Y41526D01*
G01X70780Y41576D01*
G01X71260D01*
G01X71330Y41526D01*
G01Y41076D01*
G01X71260Y41026D01*
G01X70780D01*
G01X70730Y41076D01*
G37*
G01X70730Y41076D02*
G01X70730Y41526D01*
G01X70780Y41576D01*
G01X71260D01*
G01X71330Y41526D01*
G01Y41076D01*
G01X71260Y41026D01*
G01X70780D01*
G01X70730Y41076D01*
G36*
G01X65356Y35721D02*
G01X65356Y35261D01*
G01X65316Y35221D01*
G01X64816D01*
G01X64776Y35261D01*
G01Y35721D01*
G01X64816Y35761D01*
G01X65316D01*
G01X65356Y35721D01*
G37*
G01X65356Y35721D02*
G01X65356Y35261D01*
G01X65316Y35221D01*
G01X64816D01*
G01X64776Y35261D01*
G01Y35721D01*
G01X64816Y35761D01*
G01X65316D01*
G01X65356Y35721D01*
G36*
G01X65626Y35721D02*
G01X65626Y35261D01*
G01X65666Y35221D01*
G01X66167D01*
G01X66207Y35261D01*
G01Y35721D01*
G01X66167Y35761D01*
G01X65666D01*
G01X65626Y35721D01*
G37*
G01X65626Y35721D02*
G01X65626Y35261D01*
G01X65666Y35221D01*
G01X66167D01*
G01X66207Y35261D01*
G01Y35721D01*
G01X66167Y35761D01*
G01X65666D01*
G01X65626Y35721D01*
G36*
G01X60611Y38643D02*
G01X60161Y38643D01*
G01X60111Y38713D01*
G01Y39193D01*
G01X60161Y39243D01*
G01X60611D01*
G01X60661Y39193D01*
G01Y38713D01*
G01X60611Y38643D01*
G37*
G01X60611Y38643D02*
G01X60161Y38643D01*
G01X60111Y38713D01*
G01Y39193D01*
G01X60161Y39243D01*
G01X60611D01*
G01X60661Y39193D01*
G01Y38713D01*
G01X60611Y38643D01*
G36*
G01X60611Y37683D02*
G01X60161Y37683D01*
G01X60111Y37733D01*
G01Y38213D01*
G01X60161Y38283D01*
G01X60611D01*
G01X60661Y38213D01*
G01Y37733D01*
G01X60611Y37683D01*
G37*
G01X60611Y37683D02*
G01X60161Y37683D01*
G01X60111Y37733D01*
G01Y38213D01*
G01X60161Y38283D01*
G01X60611D01*
G01X60661Y38213D01*
G01Y37733D01*
G01X60611Y37683D01*
G36*
G01X65311Y34573D02*
G01X65311Y34123D01*
G01X65241Y34073D01*
G01X64761D01*
G01X64711Y34123D01*
G01Y34573D01*
G01X64761Y34623D01*
G01X65241D01*
G01X65311Y34573D01*
G37*
G01X65311Y34573D02*
G01X65311Y34123D01*
G01X65241Y34073D01*
G01X64761D01*
G01X64711Y34123D01*
G01Y34573D01*
G01X64761Y34623D01*
G01X65241D01*
G01X65311Y34573D01*
G36*
G01X66271Y34573D02*
G01X66271Y34123D01*
G01X66221Y34073D01*
G01X65741D01*
G01X65671Y34123D01*
G01Y34573D01*
G01X65741Y34623D01*
G01X66221D01*
G01X66271Y34573D01*
G37*
G01X66271Y34573D02*
G01X66271Y34123D01*
G01X66221Y34073D01*
G01X65741D01*
G01X65671Y34123D01*
G01Y34573D01*
G01X65741Y34623D01*
G01X66221D01*
G01X66271Y34573D01*
G36*
G01X65311Y33430D02*
G01X65311Y32980D01*
G01X65241Y32930D01*
G01X64761D01*
G01X64711Y32980D01*
G01Y33430D01*
G01X64761Y33480D01*
G01X65241D01*
G01X65311Y33430D01*
G37*
G01X65311Y33430D02*
G01X65311Y32980D01*
G01X65241Y32930D01*
G01X64761D01*
G01X64711Y32980D01*
G01Y33430D01*
G01X64761Y33480D01*
G01X65241D01*
G01X65311Y33430D01*
G36*
G01X66271Y33430D02*
G01X66271Y32980D01*
G01X66221Y32930D01*
G01X65741D01*
G01X65671Y32980D01*
G01Y33430D01*
G01X65741Y33480D01*
G01X66221D01*
G01X66271Y33430D01*
G37*
G01X66271Y33430D02*
G01X66271Y32980D01*
G01X66221Y32930D01*
G01X65741D01*
G01X65671Y32980D01*
G01Y33430D01*
G01X65741Y33480D01*
G01X66221D01*
G01X66271Y33430D01*
G36*
G01X65671Y30694D02*
G01X65671Y31144D01*
G01X65741Y31194D01*
G01X66221D01*
G01X66271Y31144D01*
G01Y30694D01*
G01X66221Y30644D01*
G01X65741D01*
G01X65671Y30694D01*
G37*
G01X65671Y30694D02*
G01X65671Y31144D01*
G01X65741Y31194D01*
G01X66221D01*
G01X66271Y31144D01*
G01Y30694D01*
G01X66221Y30644D01*
G01X65741D01*
G01X65671Y30694D01*
G36*
G01X64711Y30694D02*
G01X64711Y31144D01*
G01X64761Y31194D01*
G01X65241D01*
G01X65311Y31144D01*
G01Y30694D01*
G01X65241Y30644D01*
G01X64761D01*
G01X64711Y30694D01*
G37*
G01X64711Y30694D02*
G01X64711Y31144D01*
G01X64761Y31194D01*
G01X65241D01*
G01X65311Y31144D01*
G01Y30694D01*
G01X65241Y30644D01*
G01X64761D01*
G01X64711Y30694D01*
G36*
G01X62934Y30689D02*
G01X62934Y31149D01*
G01X62974Y31189D01*
G01X63475D01*
G01X63515Y31149D01*
G01Y30689D01*
G01X63475Y30649D01*
G01X62974D01*
G01X62934Y30689D01*
G37*
G01X62934Y30689D02*
G01X62934Y31149D01*
G01X62974Y31189D01*
G01X63475D01*
G01X63515Y31149D01*
G01Y30689D01*
G01X63475Y30649D01*
G01X62974D01*
G01X62934Y30689D01*
G36*
G01X62664Y30689D02*
G01X62664Y31149D01*
G01X62624Y31189D01*
G01X62123D01*
G01X62083Y31149D01*
G01Y30689D01*
G01X62123Y30649D01*
G01X62624D01*
G01X62664Y30689D01*
G37*
G01X62664Y30689D02*
G01X62664Y31149D01*
G01X62624Y31189D01*
G01X62123D01*
G01X62083Y31149D01*
G01Y30689D01*
G01X62123Y30649D01*
G01X62624D01*
G01X62664Y30689D01*
G36*
G01X78644Y27895D02*
G01X78644Y28355D01*
G01X78684Y28395D01*
G01X79184D01*
G01X79224Y28355D01*
G01Y27895D01*
G01X79184Y27855D01*
G01X78684D01*
G01X78644Y27895D01*
G37*
G01X78644Y27895D02*
G01X78644Y28355D01*
G01X78684Y28395D01*
G01X79184D01*
G01X79224Y28355D01*
G01Y27895D01*
G01X79184Y27855D01*
G01X78684D01*
G01X78644Y27895D01*
G36*
G01X78374Y27895D02*
G01X78374Y28355D01*
G01X78334Y28395D01*
G01X77833D01*
G01X77793Y28355D01*
G01Y27895D01*
G01X77833Y27855D01*
G01X78334D01*
G01X78374Y27895D01*
G37*
G01X78374Y27895D02*
G01X78374Y28355D01*
G01X78334Y28395D01*
G01X77833D01*
G01X77793Y28355D01*
G01Y27895D01*
G01X77833Y27855D01*
G01X78334D01*
G01X78374Y27895D01*
G36*
G01X78644Y26092D02*
G01X78644Y26552D01*
G01X78684Y26592D01*
G01X79184D01*
G01X79224Y26552D01*
G01Y26092D01*
G01X79184Y26052D01*
G01X78684D01*
G01X78644Y26092D01*
G37*
G01X78644Y26092D02*
G01X78644Y26552D01*
G01X78684Y26592D01*
G01X79184D01*
G01X79224Y26552D01*
G01Y26092D01*
G01X79184Y26052D01*
G01X78684D01*
G01X78644Y26092D01*
G36*
G01X78374Y26092D02*
G01X78374Y26552D01*
G01X78334Y26592D01*
G01X77833D01*
G01X77793Y26552D01*
G01Y26092D01*
G01X77833Y26052D01*
G01X78334D01*
G01X78374Y26092D01*
G37*
G01X78374Y26092D02*
G01X78374Y26552D01*
G01X78334Y26592D01*
G01X77833D01*
G01X77793Y26552D01*
G01Y26092D01*
G01X77833Y26052D01*
G01X78334D01*
G01X78374Y26092D01*
G36*
G01X61324Y38124D02*
G01X61784Y38124D01*
G01X61824Y38084D01*
G01Y37583D01*
G01X61784Y37543D01*
G01X61324D01*
G01X61284Y37583D01*
G01Y38084D01*
G01X61324Y38124D01*
G37*
G01X61324Y38124D02*
G01X61784Y38124D01*
G01X61824Y38084D01*
G01Y37583D01*
G01X61784Y37543D01*
G01X61324D01*
G01X61284Y37583D01*
G01Y38084D01*
G01X61324Y38124D01*
G36*
G01X61324Y38394D02*
G01X61784Y38394D01*
G01X61824Y38434D01*
G01Y38935D01*
G01X61784Y38975D01*
G01X61324D01*
G01X61284Y38935D01*
G01Y38434D01*
G01X61324Y38394D01*
G37*
G01X61324Y38394D02*
G01X61784Y38394D01*
G01X61824Y38434D01*
G01Y38935D01*
G01X61784Y38975D01*
G01X61324D01*
G01X61284Y38935D01*
G01Y38434D01*
G01X61324Y38394D01*
G36*
G01X62442Y38124D02*
G01X62902Y38124D01*
G01X62942Y38084D01*
G01Y37583D01*
G01X62902Y37543D01*
G01X62442D01*
G01X62402Y37583D01*
G01Y38084D01*
G01X62442Y38124D01*
G37*
G01X62442Y38124D02*
G01X62902Y38124D01*
G01X62942Y38084D01*
G01Y37583D01*
G01X62902Y37543D01*
G01X62442D01*
G01X62402Y37583D01*
G01Y38084D01*
G01X62442Y38124D01*
G36*
G01X62442Y38394D02*
G01X62902Y38394D01*
G01X62942Y38434D01*
G01Y38935D01*
G01X62902Y38975D01*
G01X62442D01*
G01X62402Y38935D01*
G01Y38434D01*
G01X62442Y38394D01*
G37*
G01X62442Y38394D02*
G01X62902Y38394D01*
G01X62942Y38434D01*
G01Y38935D01*
G01X62902Y38975D01*
G01X62442D01*
G01X62402Y38935D01*
G01Y38434D01*
G01X62442Y38394D01*
G36*
G01X47114Y36735D02*
G01X47114Y37195D01*
G01X47154Y37235D01*
G01X47654D01*
G01X47694Y37195D01*
G01Y36735D01*
G01X47654Y36695D01*
G01X47154D01*
G01X47114Y36735D01*
G37*
G01X47114Y36735D02*
G01X47114Y37195D01*
G01X47154Y37235D01*
G01X47654D01*
G01X47694Y37195D01*
G01Y36735D01*
G01X47654Y36695D01*
G01X47154D01*
G01X47114Y36735D01*
G36*
G01X46844Y36735D02*
G01X46844Y37195D01*
G01X46804Y37235D01*
G01X46303D01*
G01X46263Y37195D01*
G01Y36735D01*
G01X46303Y36695D01*
G01X46804D01*
G01X46844Y36735D01*
G37*
G01X46844Y36735D02*
G01X46844Y37195D01*
G01X46804Y37235D01*
G01X46303D01*
G01X46263Y37195D01*
G01Y36735D01*
G01X46303Y36695D01*
G01X46804D01*
G01X46844Y36735D01*
G36*
G01X50089Y48186D02*
G01X49629Y48186D01*
G01X49589Y48226D01*
G01Y48726D01*
G01X49629Y48766D01*
G01X50089D01*
G01X50129Y48726D01*
G01Y48226D01*
G01X50089Y48186D01*
G37*
G01X50089Y48186D02*
G01X49629Y48186D01*
G01X49589Y48226D01*
G01Y48726D01*
G01X49629Y48766D01*
G01X50089D01*
G01X50129Y48726D01*
G01Y48226D01*
G01X50089Y48186D01*
G36*
G01X50089Y47916D02*
G01X49629Y47916D01*
G01X49589Y47876D01*
G01Y47375D01*
G01X49629Y47335D01*
G01X50089D01*
G01X50129Y47375D01*
G01Y47876D01*
G01X50089Y47916D01*
G37*
G01X50089Y47916D02*
G01X49629Y47916D01*
G01X49589Y47876D01*
G01Y47375D01*
G01X49629Y47335D01*
G01X50089D01*
G01X50129Y47375D01*
G01Y47876D01*
G01X50089Y47916D01*
G36*
G01X46768Y38987D02*
G01X46318Y38987D01*
G01X46268Y39057D01*
G01Y39537D01*
G01X46318Y39587D01*
G01X46768D01*
G01X46818Y39537D01*
G01Y39057D01*
G01X46768Y38987D01*
G37*
G01X46768Y38987D02*
G01X46318Y38987D01*
G01X46268Y39057D01*
G01Y39537D01*
G01X46318Y39587D01*
G01X46768D01*
G01X46818Y39537D01*
G01Y39057D01*
G01X46768Y38987D01*
G36*
G01X46768Y38027D02*
G01X46318Y38027D01*
G01X46268Y38077D01*
G01Y38557D01*
G01X46318Y38627D01*
G01X46768D01*
G01X46818Y38557D01*
G01Y38077D01*
G01X46768Y38027D01*
G37*
G01X46768Y38027D02*
G01X46318Y38027D01*
G01X46268Y38077D01*
G01Y38557D01*
G01X46318Y38627D01*
G01X46768D01*
G01X46818Y38557D01*
G01Y38077D01*
G01X46768Y38027D01*
G36*
G01X47114Y35566D02*
G01X47114Y36026D01*
G01X47154Y36066D01*
G01X47654D01*
G01X47694Y36026D01*
G01Y35566D01*
G01X47654Y35526D01*
G01X47154D01*
G01X47114Y35566D01*
G37*
G01X47114Y35566D02*
G01X47114Y36026D01*
G01X47154Y36066D01*
G01X47654D01*
G01X47694Y36026D01*
G01Y35566D01*
G01X47654Y35526D01*
G01X47154D01*
G01X47114Y35566D01*
G36*
G01X46844Y35566D02*
G01X46844Y36026D01*
G01X46804Y36066D01*
G01X46303D01*
G01X46263Y36026D01*
G01Y35566D01*
G01X46303Y35526D01*
G01X46804D01*
G01X46844Y35566D01*
G37*
G01X46844Y35566D02*
G01X46844Y36026D01*
G01X46804Y36066D01*
G01X46303D01*
G01X46263Y36026D01*
G01Y35566D01*
G01X46303Y35526D01*
G01X46804D01*
G01X46844Y35566D01*
G36*
G01X45272Y43205D02*
G01X45731Y43205D01*
G01X45772Y43165D01*
G01Y42664D01*
G01X45731Y42624D01*
G01X45272D01*
G01X45231Y42664D01*
G01Y43165D01*
G01X45272Y43205D01*
G37*
G01X45272Y43205D02*
G01X45731Y43205D01*
G01X45772Y43165D01*
G01Y42664D01*
G01X45731Y42624D01*
G01X45272D01*
G01X45231Y42664D01*
G01Y43165D01*
G01X45272Y43205D01*
G36*
G01X45272Y43475D02*
G01X45731Y43475D01*
G01X45772Y43515D01*
G01Y44016D01*
G01X45731Y44056D01*
G01X45272D01*
G01X45231Y44016D01*
G01Y43515D01*
G01X45272Y43475D01*
G37*
G01X45272Y43475D02*
G01X45731Y43475D01*
G01X45772Y43515D01*
G01Y44016D01*
G01X45731Y44056D01*
G01X45272D01*
G01X45231Y44016D01*
G01Y43515D01*
G01X45272Y43475D01*
G36*
G01X47461Y38627D02*
G01X47911Y38627D01*
G01X47961Y38557D01*
G01Y38077D01*
G01X47911Y38027D01*
G01X47461D01*
G01X47411Y38077D01*
G01Y38557D01*
G01X47461Y38627D01*
G37*
G01X47461Y38627D02*
G01X47911Y38627D01*
G01X47961Y38557D01*
G01Y38077D01*
G01X47911Y38027D01*
G01X47461D01*
G01X47411Y38077D01*
G01Y38557D01*
G01X47461Y38627D01*
G36*
G01X47461Y39587D02*
G01X47911Y39587D01*
G01X47961Y39537D01*
G01Y39057D01*
G01X47911Y38987D01*
G01X47461D01*
G01X47411Y39057D01*
G01Y39537D01*
G01X47461Y39587D01*
G37*
G01X47461Y39587D02*
G01X47911Y39587D01*
G01X47961Y39537D01*
G01Y39057D01*
G01X47911Y38987D01*
G01X47461D01*
G01X47411Y39057D01*
G01Y39537D01*
G01X47461Y39587D01*
G36*
G01X48604Y38627D02*
G01X49054Y38627D01*
G01X49104Y38557D01*
G01Y38077D01*
G01X49054Y38027D01*
G01X48604D01*
G01X48554Y38077D01*
G01Y38557D01*
G01X48604Y38627D01*
G37*
G01X48604Y38627D02*
G01X49054Y38627D01*
G01X49104Y38557D01*
G01Y38077D01*
G01X49054Y38027D01*
G01X48604D01*
G01X48554Y38077D01*
G01Y38557D01*
G01X48604Y38627D01*
G36*
G01X48604Y39587D02*
G01X49054Y39587D01*
G01X49104Y39537D01*
G01Y39057D01*
G01X49054Y38987D01*
G01X48604D01*
G01X48554Y39057D01*
G01Y39537D01*
G01X48604Y39587D01*
G37*
G01X48604Y39587D02*
G01X49054Y39587D01*
G01X49104Y39537D01*
G01Y39057D01*
G01X49054Y38987D01*
G01X48604D01*
G01X48554Y39057D01*
G01Y39537D01*
G01X48604Y39587D01*
G36*
G01X49747Y38627D02*
G01X50197Y38627D01*
G01X50247Y38557D01*
G01Y38077D01*
G01X50197Y38027D01*
G01X49747D01*
G01X49697Y38077D01*
G01Y38557D01*
G01X49747Y38627D01*
G37*
G01X49747Y38627D02*
G01X50197Y38627D01*
G01X50247Y38557D01*
G01Y38077D01*
G01X50197Y38027D01*
G01X49747D01*
G01X49697Y38077D01*
G01Y38557D01*
G01X49747Y38627D01*
G36*
G01X49747Y39587D02*
G01X50197Y39587D01*
G01X50247Y39537D01*
G01Y39057D01*
G01X50197Y38987D01*
G01X49747D01*
G01X49697Y39057D01*
G01Y39537D01*
G01X49747Y39587D01*
G37*
G01X49747Y39587D02*
G01X50197Y39587D01*
G01X50247Y39537D01*
G01Y39057D01*
G01X50197Y38987D01*
G01X49747D01*
G01X49697Y39057D01*
G01Y39537D01*
G01X49747Y39587D01*
G36*
G01X50890Y38627D02*
G01X51340Y38627D01*
G01X51390Y38557D01*
G01Y38077D01*
G01X51340Y38027D01*
G01X50890D01*
G01X50840Y38077D01*
G01Y38557D01*
G01X50890Y38627D01*
G37*
G01X50890Y38627D02*
G01X51340Y38627D01*
G01X51390Y38557D01*
G01Y38077D01*
G01X51340Y38027D01*
G01X50890D01*
G01X50840Y38077D01*
G01Y38557D01*
G01X50890Y38627D01*
G36*
G01X50890Y39587D02*
G01X51340Y39587D01*
G01X51390Y39537D01*
G01Y39057D01*
G01X51340Y38987D01*
G01X50890D01*
G01X50840Y39057D01*
G01Y39537D01*
G01X50890Y39587D01*
G37*
G01X50890Y39587D02*
G01X51340Y39587D01*
G01X51390Y39537D01*
G01Y39057D01*
G01X51340Y38987D01*
G01X50890D01*
G01X50840Y39057D01*
G01Y39537D01*
G01X50890Y39587D01*
G36*
G01X53626Y38987D02*
G01X53176Y38987D01*
G01X53126Y39057D01*
G01Y39537D01*
G01X53176Y39587D01*
G01X53626D01*
G01X53676Y39537D01*
G01Y39057D01*
G01X53626Y38987D01*
G37*
G01X53626Y38987D02*
G01X53176Y38987D01*
G01X53126Y39057D01*
G01Y39537D01*
G01X53176Y39587D01*
G01X53626D01*
G01X53676Y39537D01*
G01Y39057D01*
G01X53626Y38987D01*
G36*
G01X53626Y38027D02*
G01X53176Y38027D01*
G01X53126Y38077D01*
G01Y38557D01*
G01X53176Y38627D01*
G01X53626D01*
G01X53676Y38557D01*
G01Y38077D01*
G01X53626Y38027D01*
G37*
G01X53626Y38027D02*
G01X53176Y38027D01*
G01X53126Y38077D01*
G01Y38557D01*
G01X53176Y38627D01*
G01X53626D01*
G01X53676Y38557D01*
G01Y38077D01*
G01X53626Y38027D01*
G36*
G01X54292Y41718D02*
G01X54292Y42168D01*
G01X54362Y42218D01*
G01X54842D01*
G01X54892Y42168D01*
G01Y41718D01*
G01X54842Y41668D01*
G01X54362D01*
G01X54292Y41718D01*
G37*
G01X54292Y41718D02*
G01X54292Y42168D01*
G01X54362Y42218D01*
G01X54842D01*
G01X54892Y42168D01*
G01Y41718D01*
G01X54842Y41668D01*
G01X54362D01*
G01X54292Y41718D01*
G36*
G01X53332Y41718D02*
G01X53332Y42168D01*
G01X53382Y42218D01*
G01X53862D01*
G01X53932Y42168D01*
G01Y41718D01*
G01X53862Y41668D01*
G01X53382D01*
G01X53332Y41718D01*
G37*
G01X53332Y41718D02*
G01X53332Y42168D01*
G01X53382Y42218D01*
G01X53862D01*
G01X53932Y42168D01*
G01Y41718D01*
G01X53862Y41668D01*
G01X53382D01*
G01X53332Y41718D01*
G36*
G01X55584Y43428D02*
G01X56034Y43428D01*
G01X56084Y43358D01*
G01Y42878D01*
G01X56034Y42828D01*
G01X55584D01*
G01X55534Y42878D01*
G01Y43358D01*
G01X55584Y43428D01*
G37*
G01X55584Y43428D02*
G01X56034Y43428D01*
G01X56084Y43358D01*
G01Y42878D01*
G01X56034Y42828D01*
G01X55584D01*
G01X55534Y42878D01*
G01Y43358D01*
G01X55584Y43428D01*
G36*
G01X55584Y44388D02*
G01X56034Y44388D01*
G01X56084Y44338D01*
G01Y43858D01*
G01X56034Y43788D01*
G01X55584D01*
G01X55534Y43858D01*
G01Y44338D01*
G01X55584Y44388D01*
G37*
G01X55584Y44388D02*
G01X56034Y44388D01*
G01X56084Y44338D01*
G01Y43858D01*
G01X56034Y43788D01*
G01X55584D01*
G01X55534Y43858D01*
G01Y44338D01*
G01X55584Y44388D01*
G36*
G01X56034Y46300D02*
G01X55584Y46300D01*
G01X55534Y46370D01*
G01Y46850D01*
G01X55584Y46900D01*
G01X56034D01*
G01X56084Y46850D01*
G01Y46370D01*
G01X56034Y46300D01*
G37*
G01X56034Y46300D02*
G01X55584Y46300D01*
G01X55534Y46370D01*
G01Y46850D01*
G01X55584Y46900D01*
G01X56034D01*
G01X56084Y46850D01*
G01Y46370D01*
G01X56034Y46300D01*
G36*
G01X56034Y45340D02*
G01X55584Y45340D01*
G01X55534Y45390D01*
G01Y45870D01*
G01X55584Y45940D01*
G01X56034D01*
G01X56084Y45870D01*
G01Y45390D01*
G01X56034Y45340D01*
G37*
G01X56034Y45340D02*
G01X55584Y45340D01*
G01X55534Y45390D01*
G01Y45870D01*
G01X55584Y45940D01*
G01X56034D01*
G01X56084Y45870D01*
G01Y45390D01*
G01X56034Y45340D01*
G36*
G01X48674Y36118D02*
G01X49134Y36118D01*
G01X49174Y36078D01*
G01Y35578D01*
G01X49134Y35538D01*
G01X48674D01*
G01X48634Y35578D01*
G01Y36078D01*
G01X48674Y36118D01*
G37*
G01X48674Y36118D02*
G01X49134Y36118D01*
G01X49174Y36078D01*
G01Y35578D01*
G01X49134Y35538D01*
G01X48674D01*
G01X48634Y35578D01*
G01Y36078D01*
G01X48674Y36118D01*
G36*
G01X48674Y36388D02*
G01X49134Y36388D01*
G01X49174Y36428D01*
G01Y36929D01*
G01X49134Y36969D01*
G01X48674D01*
G01X48634Y36929D01*
G01Y36428D01*
G01X48674Y36388D01*
G37*
G01X48674Y36388D02*
G01X49134Y36388D01*
G01X49174Y36428D01*
G01Y36929D01*
G01X49134Y36969D01*
G01X48674D01*
G01X48634Y36929D01*
G01Y36428D01*
G01X48674Y36388D01*
G36*
G01X49844Y36118D02*
G01X50304Y36118D01*
G01X50344Y36078D01*
G01Y35578D01*
G01X50304Y35538D01*
G01X49844D01*
G01X49804Y35578D01*
G01Y36078D01*
G01X49844Y36118D01*
G37*
G01X49844Y36118D02*
G01X50304Y36118D01*
G01X50344Y36078D01*
G01Y35578D01*
G01X50304Y35538D01*
G01X49844D01*
G01X49804Y35578D01*
G01Y36078D01*
G01X49844Y36118D01*
G36*
G01X49844Y36388D02*
G01X50304Y36388D01*
G01X50344Y36428D01*
G01Y36929D01*
G01X50304Y36969D01*
G01X49844D01*
G01X49804Y36929D01*
G01Y36428D01*
G01X49844Y36388D01*
G37*
G01X49844Y36388D02*
G01X50304Y36388D01*
G01X50344Y36428D01*
G01Y36929D01*
G01X50304Y36969D01*
G01X49844D01*
G01X49804Y36929D01*
G01Y36428D01*
G01X49844Y36388D01*
G36*
G01X52028Y38672D02*
G01X52488Y38672D01*
G01X52528Y38632D01*
G01Y38132D01*
G01X52488Y38092D01*
G01X52028D01*
G01X51988Y38132D01*
G01Y38632D01*
G01X52028Y38672D01*
G37*
G01X52028Y38672D02*
G01X52488Y38672D01*
G01X52528Y38632D01*
G01Y38132D01*
G01X52488Y38092D01*
G01X52028D01*
G01X51988Y38132D01*
G01Y38632D01*
G01X52028Y38672D01*
G36*
G01X52028Y38942D02*
G01X52488Y38942D01*
G01X52528Y38982D01*
G01Y39483D01*
G01X52488Y39523D01*
G01X52028D01*
G01X51988Y39483D01*
G01Y38982D01*
G01X52028Y38942D01*
G37*
G01X52028Y38942D02*
G01X52488Y38942D01*
G01X52528Y38982D01*
G01Y39483D01*
G01X52488Y39523D01*
G01X52028D01*
G01X51988Y39483D01*
G01Y38982D01*
G01X52028Y38942D01*
G36*
G01X54314Y38672D02*
G01X54774Y38672D01*
G01X54814Y38632D01*
G01Y38132D01*
G01X54774Y38092D01*
G01X54314D01*
G01X54274Y38132D01*
G01Y38632D01*
G01X54314Y38672D01*
G37*
G01X54314Y38672D02*
G01X54774Y38672D01*
G01X54814Y38632D01*
G01Y38132D01*
G01X54774Y38092D01*
G01X54314D01*
G01X54274Y38132D01*
G01Y38632D01*
G01X54314Y38672D01*
G36*
G01X54314Y38942D02*
G01X54774Y38942D01*
G01X54814Y38982D01*
G01Y39483D01*
G01X54774Y39523D01*
G01X54314D01*
G01X54274Y39483D01*
G01Y38982D01*
G01X54314Y38942D01*
G37*
G01X54314Y38942D02*
G01X54774Y38942D01*
G01X54814Y38982D01*
G01Y39483D01*
G01X54774Y39523D01*
G01X54314D01*
G01X54274Y39483D01*
G01Y38982D01*
G01X54314Y38942D01*
G36*
G01X54247Y40519D02*
G01X54247Y40979D01*
G01X54287Y41019D01*
G01X54788D01*
G01X54828Y40979D01*
G01Y40519D01*
G01X54788Y40479D01*
G01X54287D01*
G01X54247Y40519D01*
G37*
G01X54247Y40519D02*
G01X54247Y40979D01*
G01X54287Y41019D01*
G01X54788D01*
G01X54828Y40979D01*
G01Y40519D01*
G01X54788Y40479D01*
G01X54287D01*
G01X54247Y40519D01*
G36*
G01X53977Y40519D02*
G01X53977Y40979D01*
G01X53937Y41019D01*
G01X53436D01*
G01X53396Y40979D01*
G01Y40519D01*
G01X53436Y40479D01*
G01X53937D01*
G01X53977Y40519D01*
G37*
G01X53977Y40519D02*
G01X53977Y40979D01*
G01X53937Y41019D01*
G01X53436D01*
G01X53396Y40979D01*
G01Y40519D01*
G01X53436Y40479D01*
G01X53937D01*
G01X53977Y40519D01*
G36*
G01X53977Y43341D02*
G01X53977Y42881D01*
G01X53937Y42841D01*
G01X53436D01*
G01X53396Y42881D01*
G01Y43341D01*
G01X53436Y43381D01*
G01X53937D01*
G01X53977Y43341D01*
G37*
G01X53977Y43341D02*
G01X53977Y42881D01*
G01X53937Y42841D01*
G01X53436D01*
G01X53396Y42881D01*
G01Y43341D01*
G01X53436Y43381D01*
G01X53937D01*
G01X53977Y43341D01*
G36*
G01X54247Y43341D02*
G01X54247Y42881D01*
G01X54287Y42841D01*
G01X54788D01*
G01X54828Y42881D01*
G01Y43341D01*
G01X54788Y43381D01*
G01X54287D01*
G01X54247Y43341D01*
G37*
G01X54247Y43341D02*
G01X54247Y42881D01*
G01X54287Y42841D01*
G01X54788D01*
G01X54828Y42881D01*
G01Y43341D01*
G01X54788Y43381D01*
G01X54287D01*
G01X54247Y43341D01*
G36*
G01X54247Y45218D02*
G01X54247Y45678D01*
G01X54287Y45718D01*
G01X54788D01*
G01X54828Y45678D01*
G01Y45218D01*
G01X54788Y45178D01*
G01X54287D01*
G01X54247Y45218D01*
G37*
G01X54247Y45218D02*
G01X54247Y45678D01*
G01X54287Y45718D01*
G01X54788D01*
G01X54828Y45678D01*
G01Y45218D01*
G01X54788Y45178D01*
G01X54287D01*
G01X54247Y45218D01*
G36*
G01X53977Y45218D02*
G01X53977Y45678D01*
G01X53937Y45718D01*
G01X53436D01*
G01X53396Y45678D01*
G01Y45218D01*
G01X53436Y45178D01*
G01X53937D01*
G01X53977Y45218D01*
G37*
G01X53977Y45218D02*
G01X53977Y45678D01*
G01X53937Y45718D01*
G01X53436D01*
G01X53396Y45678D01*
G01Y45218D01*
G01X53436Y45178D01*
G01X53937D01*
G01X53977Y45218D01*
G36*
G01X54247Y44050D02*
G01X54247Y44510D01*
G01X54287Y44550D01*
G01X54788D01*
G01X54828Y44510D01*
G01Y44050D01*
G01X54788Y44010D01*
G01X54287D01*
G01X54247Y44050D01*
G37*
G01X54247Y44050D02*
G01X54247Y44510D01*
G01X54287Y44550D01*
G01X54788D01*
G01X54828Y44510D01*
G01Y44050D01*
G01X54788Y44010D01*
G01X54287D01*
G01X54247Y44050D01*
G36*
G01X53977Y44050D02*
G01X53977Y44510D01*
G01X53937Y44550D01*
G01X53436D01*
G01X53396Y44510D01*
G01Y44050D01*
G01X53436Y44010D01*
G01X53937D01*
G01X53977Y44050D01*
G37*
G01X53977Y44050D02*
G01X53977Y44510D01*
G01X53937Y44550D01*
G01X53436D01*
G01X53396Y44510D01*
G01Y44050D01*
G01X53436Y44010D01*
G01X53937D01*
G01X53977Y44050D01*
G36*
G01X60962Y40497D02*
G01X60962Y40037D01*
G01X60922Y39997D01*
G01X60421D01*
G01X60381Y40037D01*
G01Y40497D01*
G01X60421Y40537D01*
G01X60922D01*
G01X60962Y40497D01*
G37*
G01X60962Y40497D02*
G01X60962Y40037D01*
G01X60922Y39997D01*
G01X60421D01*
G01X60381Y40037D01*
G01Y40497D01*
G01X60421Y40537D01*
G01X60922D01*
G01X60962Y40497D01*
G36*
G01X61232Y40497D02*
G01X61232Y40037D01*
G01X61272Y39997D01*
G01X61773D01*
G01X61813Y40037D01*
G01Y40497D01*
G01X61773Y40537D01*
G01X61272D01*
G01X61232Y40497D01*
G37*
G01X61232Y40497D02*
G01X61232Y40037D01*
G01X61272Y39997D01*
G01X61773D01*
G01X61813Y40037D01*
G01Y40497D01*
G01X61773Y40537D01*
G01X61272D01*
G01X61232Y40497D01*
G36*
G01X63264Y40037D02*
G01X63264Y40497D01*
G01X63304Y40537D01*
G01X63805D01*
G01X63845Y40497D01*
G01Y40037D01*
G01X63805Y39997D01*
G01X63304D01*
G01X63264Y40037D01*
G37*
G01X63264Y40037D02*
G01X63264Y40497D01*
G01X63304Y40537D01*
G01X63805D01*
G01X63845Y40497D01*
G01Y40037D01*
G01X63805Y39997D01*
G01X63304D01*
G01X63264Y40037D01*
G36*
G01X62994Y40037D02*
G01X62994Y40497D01*
G01X62954Y40537D01*
G01X62453D01*
G01X62413Y40497D01*
G01Y40037D01*
G01X62453Y39997D01*
G01X62954D01*
G01X62994Y40037D01*
G37*
G01X62994Y40037D02*
G01X62994Y40497D01*
G01X62954Y40537D01*
G01X62453D01*
G01X62413Y40497D01*
G01Y40037D01*
G01X62453Y39997D01*
G01X62954D01*
G01X62994Y40037D01*
G36*
G01X58040Y38867D02*
G01X57763Y38867D01*
G01X57469Y39141D01*
G01Y39645D01*
G01X57533Y39709D01*
G01X58269D01*
G01X58333Y39645D01*
G01Y39141D01*
G01X58040Y38867D01*
G37*
G01X58040Y38867D02*
G01X57763Y38867D01*
G01X57469Y39141D01*
G01Y39645D01*
G01X57533Y39709D01*
G01X58269D01*
G01X58333Y39645D01*
G01Y39141D01*
G01X58040Y38867D01*
G36*
G01X58051Y38352D02*
G01X57774Y38352D01*
G01X57481Y38077D01*
G01Y37574D01*
G01X57545Y37510D01*
G01X58281D01*
G01X58345Y37574D01*
G01Y38077D01*
G01X58051Y38352D01*
G37*
G01X58051Y38352D02*
G01X57774Y38352D01*
G01X57481Y38077D01*
G01Y37574D01*
G01X57545Y37510D01*
G01X58281D01*
G01X58345Y37574D01*
G01Y38077D01*
G01X58051Y38352D01*
G36*
G01X45642Y47649D02*
G01X45642Y47372D01*
G01X45368Y47078D01*
G01X44865D01*
G01X44801Y47142D01*
G01Y47878D01*
G01X44865Y47942D01*
G01X45368D01*
G01X45642Y47649D01*
G37*
G01X45642Y47649D02*
G01X45642Y47372D01*
G01X45368Y47078D01*
G01X44865D01*
G01X44801Y47142D01*
G01Y47878D01*
G01X44865Y47942D01*
G01X45368D01*
G01X45642Y47649D01*
G36*
G01X46158Y47660D02*
G01X46158Y47383D01*
G01X46432Y47090D01*
G01X46935D01*
G01X46999Y47154D01*
G01Y47890D01*
G01X46935Y47954D01*
G01X46432D01*
G01X46158Y47660D01*
G37*
G01X46158Y47660D02*
G01X46158Y47383D01*
G01X46432Y47090D01*
G01X46935D01*
G01X46999Y47154D01*
G01Y47890D01*
G01X46935Y47954D01*
G01X46432D01*
G01X46158Y47660D01*
G36*
G01X59443Y38643D02*
G01X58993Y38643D01*
G01X58943Y38713D01*
G01Y39193D01*
G01X58993Y39243D01*
G01X59443D01*
G01X59493Y39193D01*
G01Y38713D01*
G01X59443Y38643D01*
G37*
G01X59443Y38643D02*
G01X58993Y38643D01*
G01X58943Y38713D01*
G01Y39193D01*
G01X58993Y39243D01*
G01X59443D01*
G01X59493Y39193D01*
G01Y38713D01*
G01X59443Y38643D01*
G36*
G01X59443Y37683D02*
G01X58993Y37683D01*
G01X58943Y37733D01*
G01Y38213D01*
G01X58993Y38283D01*
G01X59443D01*
G01X59493Y38213D01*
G01Y37733D01*
G01X59443Y37683D01*
G37*
G01X59443Y37683D02*
G01X58993Y37683D01*
G01X58943Y37733D01*
G01Y38213D01*
G01X58993Y38283D01*
G01X59443D01*
G01X59493Y38213D01*
G01Y37733D01*
G01X59443Y37683D01*
G36*
G01X65671Y31837D02*
G01X65671Y32287D01*
G01X65741Y32337D01*
G01X66221D01*
G01X66271Y32287D01*
G01Y31837D01*
G01X66221Y31787D01*
G01X65741D01*
G01X65671Y31837D01*
G37*
G01X65671Y31837D02*
G01X65671Y32287D01*
G01X65741Y32337D01*
G01X66221D01*
G01X66271Y32287D01*
G01Y31837D01*
G01X66221Y31787D01*
G01X65741D01*
G01X65671Y31837D01*
G36*
G01X64711Y31837D02*
G01X64711Y32287D01*
G01X64761Y32337D01*
G01X65241D01*
G01X65311Y32287D01*
G01Y31837D01*
G01X65241Y31787D01*
G01X64761D01*
G01X64711Y31837D01*
G37*
G01X64711Y31837D02*
G01X64711Y32287D01*
G01X64761Y32337D01*
G01X65241D01*
G01X65311Y32287D01*
G01Y31837D01*
G01X65241Y31787D01*
G01X64761D01*
G01X64711Y31837D01*
G36*
G01X48292Y48231D02*
G01X47842Y48231D01*
G01X47792Y48301D01*
G01Y48781D01*
G01X47842Y48831D01*
G01X48292D01*
G01X48342Y48781D01*
G01Y48301D01*
G01X48292Y48231D01*
G37*
G01X48292Y48231D02*
G01X47842Y48231D01*
G01X47792Y48301D01*
G01Y48781D01*
G01X47842Y48831D01*
G01X48292D01*
G01X48342Y48781D01*
G01Y48301D01*
G01X48292Y48231D01*
G36*
G01X48292Y47271D02*
G01X47842Y47271D01*
G01X47792Y47321D01*
G01Y47801D01*
G01X47842Y47871D01*
G01X48292D01*
G01X48342Y47801D01*
G01Y47321D01*
G01X48292Y47271D01*
G37*
G01X48292Y47271D02*
G01X47842Y47271D01*
G01X47792Y47321D01*
G01Y47801D01*
G01X47842Y47871D01*
G01X48292D01*
G01X48342Y47801D01*
G01Y47321D01*
G01X48292Y47271D01*
G36*
G01X51213Y48231D02*
G01X50763Y48231D01*
G01X50713Y48301D01*
G01Y48781D01*
G01X50763Y48831D01*
G01X51213D01*
G01X51263Y48781D01*
G01Y48301D01*
G01X51213Y48231D01*
G37*
G01X51213Y48231D02*
G01X50763Y48231D01*
G01X50713Y48301D01*
G01Y48781D01*
G01X50763Y48831D01*
G01X51213D01*
G01X51263Y48781D01*
G01Y48301D01*
G01X51213Y48231D01*
G36*
G01X51213Y47271D02*
G01X50763Y47271D01*
G01X50713Y47321D01*
G01Y47801D01*
G01X50763Y47871D01*
G01X51213D01*
G01X51263Y47801D01*
G01Y47321D01*
G01X51213Y47271D01*
G37*
G01X51213Y47271D02*
G01X50763Y47271D01*
G01X50713Y47321D01*
G01Y47801D01*
G01X50763Y47871D01*
G01X51213D01*
G01X51263Y47801D01*
G01Y47321D01*
G01X51213Y47271D01*
G36*
G01X67690Y3786D02*
G01X66410Y3786D01*
G01X66360Y3836D01*
G01Y4986D01*
G01X66410Y5036D01*
G01X66820Y5041D01*
G01Y4591D01*
G01X67270D01*
G01Y5031D01*
G01X67690Y5036D01*
G01X67740Y4986D01*
G01Y3836D01*
G01X67690Y3786D01*
G37*
G01X67690Y3786D02*
G01X66410Y3786D01*
G01X66360Y3836D01*
G01Y4986D01*
G01X66410Y5036D01*
G01X66820Y5041D01*
G01Y4591D01*
G01X67270D01*
G01Y5031D01*
G01X67690Y5036D01*
G01X67740Y4986D01*
G01Y3836D01*
G01X67690Y3786D01*
G36*
G01X67690Y5936D02*
G01X67270Y5936D01*
G01Y6381D01*
G01X66820D01*
G01Y5941D01*
G01X66410Y5936D01*
G01X66360Y5986D01*
G01Y7136D01*
G01X66410Y7186D01*
G01X67690D01*
G01X67740Y7136D01*
G01Y5986D01*
G01X67690Y5936D01*
G37*
G01X67690Y5936D02*
G01X67270Y5936D01*
G01Y6381D01*
G01X66820D01*
G01Y5941D01*
G01X66410Y5936D01*
G01X66360Y5986D01*
G01Y7136D01*
G01X66410Y7186D01*
G01X67690D01*
G01X67740Y7136D01*
G01Y5986D01*
G01X67690Y5936D01*
G36*
G01X65194Y5408D02*
G01X65644Y5408D01*
G01X65694Y5338D01*
G01Y4858D01*
G01X65644Y4808D01*
G01X65194D01*
G01X65144Y4858D01*
G01Y5338D01*
G01X65194Y5408D01*
G37*
G01X65194Y5408D02*
G01X65644Y5408D01*
G01X65694Y5338D01*
G01Y4858D01*
G01X65644Y4808D01*
G01X65194D01*
G01X65144Y4858D01*
G01Y5338D01*
G01X65194Y5408D01*
G36*
G01X65194Y6368D02*
G01X65644Y6368D01*
G01X65694Y6318D01*
G01Y5838D01*
G01X65644Y5768D01*
G01X65194D01*
G01X65144Y5838D01*
G01Y6318D01*
G01X65194Y6368D01*
G37*
G01X65194Y6368D02*
G01X65644Y6368D01*
G01X65694Y6318D01*
G01Y5838D01*
G01X65644Y5768D01*
G01X65194D01*
G01X65144Y5838D01*
G01Y6318D01*
G01X65194Y6368D01*
G36*
G01X69928Y11281D02*
G01X69928Y11731D01*
G01X69998Y11781D01*
G01X70478D01*
G01X70528Y11731D01*
G01Y11281D01*
G01X70478Y11231D01*
G01X69998D01*
G01X69928Y11281D01*
G37*
G01X69928Y11281D02*
G01X69928Y11731D01*
G01X69998Y11781D01*
G01X70478D01*
G01X70528Y11731D01*
G01Y11281D01*
G01X70478Y11231D01*
G01X69998D01*
G01X69928Y11281D01*
G36*
G01X68968Y11281D02*
G01X68968Y11731D01*
G01X69018Y11781D01*
G01X69498D01*
G01X69568Y11731D01*
G01Y11281D01*
G01X69498Y11231D01*
G01X69018D01*
G01X68968Y11281D01*
G37*
G01X68968Y11281D02*
G01X68968Y11731D01*
G01X69018Y11781D01*
G01X69498D01*
G01X69568Y11731D01*
G01Y11281D01*
G01X69498Y11231D01*
G01X69018D01*
G01X68968Y11281D01*
G36*
G01X69928Y12450D02*
G01X69928Y12900D01*
G01X69998Y12950D01*
G01X70478D01*
G01X70528Y12900D01*
G01Y12450D01*
G01X70478Y12400D01*
G01X69998D01*
G01X69928Y12450D01*
G37*
G01X69928Y12450D02*
G01X69928Y12900D01*
G01X69998Y12950D01*
G01X70478D01*
G01X70528Y12900D01*
G01Y12450D01*
G01X70478Y12400D01*
G01X69998D01*
G01X69928Y12450D01*
G36*
G01X68968Y12450D02*
G01X68968Y12900D01*
G01X69018Y12950D01*
G01X69498D01*
G01X69568Y12900D01*
G01Y12450D01*
G01X69498Y12400D01*
G01X69018D01*
G01X68968Y12450D01*
G37*
G01X68968Y12450D02*
G01X68968Y12900D01*
G01X69018Y12950D01*
G01X69498D01*
G01X69568Y12900D01*
G01Y12450D01*
G01X69498Y12400D01*
G01X69018D01*
G01X68968Y12450D01*
G36*
G01X87493Y2854D02*
G01X87033Y2854D01*
G01X86993Y2894D01*
G01Y3394D01*
G01X87033Y3434D01*
G01X87493D01*
G01X87533Y3394D01*
G01Y2894D01*
G01X87493Y2854D01*
G37*
G01X87493Y2854D02*
G01X87033Y2854D01*
G01X86993Y2894D01*
G01Y3394D01*
G01X87033Y3434D01*
G01X87493D01*
G01X87533Y3394D01*
G01Y2894D01*
G01X87493Y2854D01*
G36*
G01X87493Y2584D02*
G01X87033Y2584D01*
G01X86993Y2544D01*
G01Y2043D01*
G01X87033Y2003D01*
G01X87493D01*
G01X87533Y2043D01*
G01Y2544D01*
G01X87493Y2584D01*
G37*
G01X87493Y2584D02*
G01X87033Y2584D01*
G01X86993Y2544D01*
G01Y2043D01*
G01X87033Y2003D01*
G01X87493D01*
G01X87533Y2043D01*
G01Y2544D01*
G01X87493Y2584D01*
G36*
G01X51591Y9337D02*
G01X51591Y8824D01*
G01X51492Y8725D01*
G01X51101D01*
G01X50999Y8623D01*
G01Y8090D01*
G01X51101Y7988D01*
G01X51492D01*
G01X51591Y7889D01*
G01Y7376D01*
G01X51492Y7277D01*
G01X50022D01*
G01X49922Y7376D01*
G01Y9337D01*
G01X50022Y9436D01*
G01X51492D01*
G01X51591Y9337D01*
G37*
G01X51591Y9337D02*
G01X51591Y8824D01*
G01X51492Y8725D01*
G01X51101D01*
G01X50999Y8623D01*
G01Y8090D01*
G01X51101Y7988D01*
G01X51492D01*
G01X51591Y7889D01*
G01Y7376D01*
G01X51492Y7277D01*
G01X50022D01*
G01X49922Y7376D01*
G01Y9337D01*
G01X50022Y9436D01*
G01X51492D01*
G01X51591Y9337D01*
G36*
G01X52221Y9337D02*
G01X52221Y8824D01*
G01X52320Y8725D01*
G01X52711D01*
G01X52813Y8623D01*
G01Y8090D01*
G01X52711Y7988D01*
G01X52320D01*
G01X52221Y7889D01*
G01Y7376D01*
G01X52320Y7277D01*
G01X53791D01*
G01X53892Y7376D01*
G01Y9337D01*
G01X53791Y9436D01*
G01X52320D01*
G01X52221Y9337D01*
G37*
G01X52221Y9337D02*
G01X52221Y8824D01*
G01X52320Y8725D01*
G01X52711D01*
G01X52813Y8623D01*
G01Y8090D01*
G01X52711Y7988D01*
G01X52320D01*
G01X52221Y7889D01*
G01Y7376D01*
G01X52320Y7277D01*
G01X53791D01*
G01X53892Y7376D01*
G01Y9337D01*
G01X53791Y9436D01*
G01X52320D01*
G01X52221Y9337D01*
G36*
G01X47693Y5191D02*
G01X48143Y5191D01*
G01X48193Y5121D01*
G01Y4641D01*
G01X48143Y4591D01*
G01X47693D01*
G01X47643Y4641D01*
G01Y5121D01*
G01X47693Y5191D01*
G37*
G01X47693Y5191D02*
G01X48143Y5191D01*
G01X48193Y5121D01*
G01Y4641D01*
G01X48143Y4591D01*
G01X47693D01*
G01X47643Y4641D01*
G01Y5121D01*
G01X47693Y5191D01*
G36*
G01X47693Y6151D02*
G01X48143Y6151D01*
G01X48193Y6101D01*
G01Y5621D01*
G01X48143Y5551D01*
G01X47693D01*
G01X47643Y5621D01*
G01Y6101D01*
G01X47693Y6151D01*
G37*
G01X47693Y6151D02*
G01X48143Y6151D01*
G01X48193Y6101D01*
G01Y5621D01*
G01X48143Y5551D01*
G01X47693D01*
G01X47643Y5621D01*
G01Y6101D01*
G01X47693Y6151D01*
G36*
G01X46980Y5493D02*
G01X46520Y5493D01*
G01X46480Y5533D01*
G01Y6034D01*
G01X46520Y6074D01*
G01X46980D01*
G01X47020Y6034D01*
G01Y5533D01*
G01X46980Y5493D01*
G37*
G01X46980Y5493D02*
G01X46520Y5493D01*
G01X46480Y5533D01*
G01Y6034D01*
G01X46520Y6074D01*
G01X46980D01*
G01X47020Y6034D01*
G01Y5533D01*
G01X46980Y5493D01*
G36*
G01X46980Y5223D02*
G01X46520Y5223D01*
G01X46480Y5183D01*
G01Y4683D01*
G01X46520Y4643D01*
G01X46980D01*
G01X47020Y4683D01*
G01Y5183D01*
G01X46980Y5223D01*
G37*
G01X46980Y5223D02*
G01X46520Y5223D01*
G01X46480Y5183D01*
G01Y4683D01*
G01X46520Y4643D01*
G01X46980D01*
G01X47020Y4683D01*
G01Y5183D01*
G01X46980Y5223D01*
G36*
G01X47224Y3743D02*
G01X47224Y3283D01*
G01X47184Y3243D01*
G01X46683D01*
G01X46643Y3283D01*
G01Y3743D01*
G01X46683Y3783D01*
G01X47184D01*
G01X47224Y3743D01*
G37*
G01X47224Y3743D02*
G01X47224Y3283D01*
G01X47184Y3243D01*
G01X46683D01*
G01X46643Y3283D01*
G01Y3743D01*
G01X46683Y3783D01*
G01X47184D01*
G01X47224Y3743D01*
G36*
G01X47494Y3743D02*
G01X47494Y3283D01*
G01X47534Y3243D01*
G01X48034D01*
G01X48074Y3283D01*
G01Y3743D01*
G01X48034Y3783D01*
G01X47534D01*
G01X47494Y3743D01*
G37*
G01X47494Y3743D02*
G01X47494Y3283D01*
G01X47534Y3243D01*
G01X48034D01*
G01X48074Y3283D01*
G01Y3743D01*
G01X48034Y3783D01*
G01X47534D01*
G01X47494Y3743D01*
G36*
G01X47142Y9572D02*
G01X47142Y9122D01*
G01X47073Y9072D01*
G01X46592D01*
G01X46542Y9122D01*
G01Y9572D01*
G01X46592Y9622D01*
G01X47073D01*
G01X47142Y9572D01*
G37*
G01X47142Y9572D02*
G01X47142Y9122D01*
G01X47073Y9072D01*
G01X46592D01*
G01X46542Y9122D01*
G01Y9572D01*
G01X46592Y9622D01*
G01X47073D01*
G01X47142Y9572D01*
G36*
G01X48102Y9572D02*
G01X48102Y9122D01*
G01X48052Y9072D01*
G01X47573D01*
G01X47503Y9122D01*
G01Y9572D01*
G01X47573Y9622D01*
G01X48052D01*
G01X48102Y9572D01*
G37*
G01X48102Y9572D02*
G01X48102Y9122D01*
G01X48052Y9072D01*
G01X47573D01*
G01X47503Y9122D01*
G01Y9572D01*
G01X47573Y9622D01*
G01X48052D01*
G01X48102Y9572D01*
G36*
G01X40386Y3730D02*
G01X40386Y3280D01*
G01X40316Y3230D01*
G01X39836D01*
G01X39786Y3280D01*
G01Y3730D01*
G01X39836Y3780D01*
G01X40316D01*
G01X40386Y3730D01*
G37*
G01X40386Y3730D02*
G01X40386Y3280D01*
G01X40316Y3230D01*
G01X39836D01*
G01X39786Y3280D01*
G01Y3730D01*
G01X39836Y3780D01*
G01X40316D01*
G01X40386Y3730D01*
G36*
G01X41346Y3730D02*
G01X41346Y3280D01*
G01X41296Y3230D01*
G01X40816D01*
G01X40746Y3280D01*
G01Y3730D01*
G01X40816Y3780D01*
G01X41296D01*
G01X41346Y3730D01*
G37*
G01X41346Y3730D02*
G01X41346Y3280D01*
G01X41296Y3230D01*
G01X40816D01*
G01X40746Y3280D01*
G01Y3730D01*
G01X40816Y3780D01*
G01X41296D01*
G01X41346Y3730D01*
G36*
G01X56706Y50207D02*
G01X57156Y50207D01*
G01X57206Y50138D01*
G01Y49658D01*
G01X57156Y49607D01*
G01X56706D01*
G01X56656Y49658D01*
G01Y50138D01*
G01X56706Y50207D01*
G37*
G01X56706Y50207D02*
G01X57156Y50207D01*
G01X57206Y50138D01*
G01Y49658D01*
G01X57156Y49607D01*
G01X56706D01*
G01X56656Y49658D01*
G01Y50138D01*
G01X56706Y50207D01*
G36*
G01X56706Y51168D02*
G01X57156Y51168D01*
G01X57206Y51117D01*
G01Y50638D01*
G01X57156Y50568D01*
G01X56706D01*
G01X56656Y50638D01*
G01Y51117D01*
G01X56706Y51168D01*
G37*
G01X56706Y51168D02*
G01X57156Y51168D01*
G01X57206Y51117D01*
G01Y50638D01*
G01X57156Y50568D01*
G01X56706D01*
G01X56656Y50638D01*
G01Y51117D01*
G01X56706Y51168D01*
G36*
G01X60333Y46943D02*
G01X60333Y46493D01*
G01X60263Y46443D01*
G01X59783D01*
G01X59733Y46493D01*
G01Y46943D01*
G01X59783Y46993D01*
G01X60263D01*
G01X60333Y46943D01*
G37*
G01X60333Y46943D02*
G01X60333Y46493D01*
G01X60263Y46443D01*
G01X59783D01*
G01X59733Y46493D01*
G01Y46943D01*
G01X59783Y46993D01*
G01X60263D01*
G01X60333Y46943D01*
G36*
G01X61293Y46943D02*
G01X61293Y46493D01*
G01X61243Y46443D01*
G01X60763D01*
G01X60693Y46493D01*
G01Y46943D01*
G01X60763Y46993D01*
G01X61243D01*
G01X61293Y46943D01*
G37*
G01X61293Y46943D02*
G01X61293Y46493D01*
G01X61243Y46443D01*
G01X60763D01*
G01X60693Y46493D01*
G01Y46943D01*
G01X60763Y46993D01*
G01X61243D01*
G01X61293Y46943D01*
G36*
G01X41520Y11332D02*
G01X41520Y11782D01*
G01X41590Y11832D01*
G01X42070D01*
G01X42120Y11782D01*
G01Y11332D01*
G01X42070Y11282D01*
G01X41590D01*
G01X41520Y11332D01*
G37*
G01X41520Y11332D02*
G01X41520Y11782D01*
G01X41590Y11832D01*
G01X42070D01*
G01X42120Y11782D01*
G01Y11332D01*
G01X42070Y11282D01*
G01X41590D01*
G01X41520Y11332D01*
G36*
G01X40560Y11332D02*
G01X40560Y11782D01*
G01X40610Y11832D01*
G01X41090D01*
G01X41160Y11782D01*
G01Y11332D01*
G01X41090Y11282D01*
G01X40610D01*
G01X40560Y11332D01*
G37*
G01X40560Y11332D02*
G01X40560Y11782D01*
G01X40610Y11832D01*
G01X41090D01*
G01X41160Y11782D01*
G01Y11332D01*
G01X41090Y11282D01*
G01X40610D01*
G01X40560Y11332D01*
G36*
G01X55463Y13244D02*
G01X54950Y13244D01*
G01X54851Y13343D01*
G01Y13734D01*
G01X54750Y13835D01*
G01X54216D01*
G01X54115Y13734D01*
G01Y13343D01*
G01X54016Y13244D01*
G01X53503D01*
G01X53404Y13343D01*
G01Y14813D01*
G01X53503Y14912D01*
G01X55463D01*
G01X55563Y14813D01*
G01Y13343D01*
G01X55463Y13244D01*
G37*
G01X55463Y13244D02*
G01X54950Y13244D01*
G01X54851Y13343D01*
G01Y13734D01*
G01X54750Y13835D01*
G01X54216D01*
G01X54115Y13734D01*
G01Y13343D01*
G01X54016Y13244D01*
G01X53503D01*
G01X53404Y13343D01*
G01Y14813D01*
G01X53503Y14912D01*
G01X55463D01*
G01X55563Y14813D01*
G01Y13343D01*
G01X55463Y13244D01*
G36*
G01X55463Y12614D02*
G01X54950Y12614D01*
G01X54851Y12515D01*
G01Y12123D01*
G01X54750Y12022D01*
G01X54216D01*
G01X54115Y12123D01*
G01Y12515D01*
G01X54016Y12614D01*
G01X53503D01*
G01X53404Y12515D01*
G01Y11044D01*
G01X53503Y10942D01*
G01X55463D01*
G01X55563Y11044D01*
G01Y12515D01*
G01X55463Y12614D01*
G37*
G01X55463Y12614D02*
G01X54950Y12614D01*
G01X54851Y12515D01*
G01Y12123D01*
G01X54750Y12022D01*
G01X54216D01*
G01X54115Y12123D01*
G01Y12515D01*
G01X54016Y12614D01*
G01X53503D01*
G01X53404Y12515D01*
G01Y11044D01*
G01X53503Y10942D01*
G01X55463D01*
G01X55563Y11044D01*
G01Y12515D01*
G01X55463Y12614D01*
G36*
G01X59335Y14389D02*
G01X59335Y14839D01*
G01X59405Y14889D01*
G01X59885D01*
G01X59935Y14839D01*
G01Y14389D01*
G01X59885Y14339D01*
G01X59405D01*
G01X59335Y14389D01*
G37*
G01X59335Y14389D02*
G01X59335Y14839D01*
G01X59405Y14889D01*
G01X59885D01*
G01X59935Y14839D01*
G01Y14389D01*
G01X59885Y14339D01*
G01X59405D01*
G01X59335Y14389D01*
G36*
G01X58375Y14389D02*
G01X58375Y14839D01*
G01X58425Y14889D01*
G01X58905D01*
G01X58975Y14839D01*
G01Y14389D01*
G01X58905Y14339D01*
G01X58425D01*
G01X58375Y14389D01*
G37*
G01X58375Y14389D02*
G01X58375Y14839D01*
G01X58425Y14889D01*
G01X58905D01*
G01X58975Y14839D01*
G01Y14389D01*
G01X58905Y14339D01*
G01X58425D01*
G01X58375Y14389D01*
G36*
G01X59002Y15987D02*
G01X59002Y15527D01*
G01X58962Y15487D01*
G01X58462D01*
G01X58422Y15527D01*
G01Y15987D01*
G01X58462Y16027D01*
G01X58962D01*
G01X59002Y15987D01*
G37*
G01X59002Y15987D02*
G01X59002Y15527D01*
G01X58962Y15487D01*
G01X58462D01*
G01X58422Y15527D01*
G01Y15987D01*
G01X58462Y16027D01*
G01X58962D01*
G01X59002Y15987D01*
G36*
G01X59272Y15987D02*
G01X59272Y15527D01*
G01X59312Y15487D01*
G01X59813D01*
G01X59853Y15527D01*
G01Y15987D01*
G01X59813Y16027D01*
G01X59312D01*
G01X59272Y15987D01*
G37*
G01X59272Y15987D02*
G01X59272Y15527D01*
G01X59312Y15487D01*
G01X59813D01*
G01X59853Y15527D01*
G01Y15987D01*
G01X59813Y16027D01*
G01X59312D01*
G01X59272Y15987D01*
G36*
G01X61247Y15335D02*
G01X60787Y15335D01*
G01X60747Y15375D01*
G01Y15875D01*
G01X60787Y15915D01*
G01X61247D01*
G01X61287Y15875D01*
G01Y15375D01*
G01X61247Y15335D01*
G37*
G01X61247Y15335D02*
G01X60787Y15335D01*
G01X60747Y15375D01*
G01Y15875D01*
G01X60787Y15915D01*
G01X61247D01*
G01X61287Y15875D01*
G01Y15375D01*
G01X61247Y15335D01*
G36*
G01X61247Y15065D02*
G01X60787Y15065D01*
G01X60747Y15025D01*
G01Y14524D01*
G01X60787Y14484D01*
G01X61247D01*
G01X61287Y14524D01*
G01Y15025D01*
G01X61247Y15065D01*
G37*
G01X61247Y15065D02*
G01X60787Y15065D01*
G01X60747Y15025D01*
G01Y14524D01*
G01X60787Y14484D01*
G01X61247D01*
G01X61287Y14524D01*
G01Y15025D01*
G01X61247Y15065D01*
G36*
G01X50153Y13280D02*
G01X50603Y13280D01*
G01X50653Y13210D01*
G01Y12730D01*
G01X50603Y12680D01*
G01X50153D01*
G01X50103Y12730D01*
G01Y13210D01*
G01X50153Y13280D01*
G37*
G01X50153Y13280D02*
G01X50603Y13280D01*
G01X50653Y13210D01*
G01Y12730D01*
G01X50603Y12680D01*
G01X50153D01*
G01X50103Y12730D01*
G01Y13210D01*
G01X50153Y13280D01*
G36*
G01X50153Y14240D02*
G01X50603Y14240D01*
G01X50653Y14190D01*
G01Y13710D01*
G01X50603Y13640D01*
G01X50153D01*
G01X50103Y13710D01*
G01Y14190D01*
G01X50153Y14240D01*
G37*
G01X50153Y14240D02*
G01X50603Y14240D01*
G01X50653Y14190D01*
G01Y13710D01*
G01X50603Y13640D01*
G01X50153D01*
G01X50103Y13710D01*
G01Y14190D01*
G01X50153Y14240D01*
G04 PolygonModel End*

G04 Pad Start*
G36*
G01X14309Y9163D02*
G01X14984Y9163D01*
G01Y9363D01*
G01X14309D01*
G01Y9163D01*
G37*
G36*
G01X14309Y9663D02*
G01X14984Y9663D01*
G01Y9863D01*
G01X14309D01*
G01Y9663D01*
G37*
G36*
G01X13434Y10063D02*
G01X14984Y10063D01*
G01Y10463D01*
G01X13434D01*
G01Y10063D01*
G37*
G36*
G01X14309Y10663D02*
G01X14984Y10663D01*
G01Y10863D01*
G01X14309D01*
G01Y10663D01*
G37*
G36*
G01X14309Y11163D02*
G01X14984Y11163D01*
G01Y11363D01*
G01X14309D01*
G01Y11163D01*
G37*
G36*
G01X13434Y11163D02*
G01X14109Y11163D01*
G01Y11363D01*
G01X13434D01*
G01Y11163D01*
G37*
G36*
G01X13434Y10663D02*
G01X14109Y10663D01*
G01Y10863D01*
G01X13434D01*
G01Y10663D01*
G37*
G36*
G01X13434Y9663D02*
G01X14109Y9663D01*
G01Y9863D01*
G01X13434D01*
G01Y9663D01*
G37*
G36*
G01X13434Y9163D02*
G01X14109Y9163D01*
G01Y9363D01*
G01X13434D01*
G01Y9163D01*
G37*
G36*
G01X14309Y12151D02*
G01X14984Y12151D01*
G01Y12351D01*
G01X14309D01*
G01Y12151D01*
G37*
G36*
G01X14309Y12651D02*
G01X14984Y12651D01*
G01Y12851D01*
G01X14309D01*
G01Y12651D01*
G37*
G36*
G01X13434Y13051D02*
G01X14984Y13051D01*
G01Y13451D01*
G01X13434D01*
G01Y13051D01*
G37*
G36*
G01X14309Y13651D02*
G01X14984Y13651D01*
G01Y13851D01*
G01X14309D01*
G01Y13651D01*
G37*
G36*
G01X14309Y14151D02*
G01X14984Y14151D01*
G01Y14351D01*
G01X14309D01*
G01Y14151D01*
G37*
G36*
G01X13434Y14151D02*
G01X14109Y14151D01*
G01Y14351D01*
G01X13434D01*
G01Y14151D01*
G37*
G36*
G01X13434Y13651D02*
G01X14109Y13651D01*
G01Y13851D01*
G01X13434D01*
G01Y13651D01*
G37*
G36*
G01X13434Y12651D02*
G01X14109Y12651D01*
G01Y12851D01*
G01X13434D01*
G01Y12651D01*
G37*
G36*
G01X13434Y12151D02*
G01X14109Y12151D01*
G01Y12351D01*
G01X13434D01*
G01Y12151D01*
G37*
G36*
G01X14309Y15917D02*
G01X14984Y15917D01*
G01Y16117D01*
G01X14309D01*
G01Y15917D01*
G37*
G36*
G01X14309Y16417D02*
G01X14984Y16417D01*
G01Y16617D01*
G01X14309D01*
G01Y16417D01*
G37*
G36*
G01X13434Y16817D02*
G01X14984Y16817D01*
G01Y17217D01*
G01X13434D01*
G01Y16817D01*
G37*
G36*
G01X14309Y17417D02*
G01X14984Y17417D01*
G01Y17617D01*
G01X14309D01*
G01Y17417D01*
G37*
G36*
G01X14309Y17917D02*
G01X14984Y17917D01*
G01Y18117D01*
G01X14309D01*
G01Y17917D01*
G37*
G36*
G01X13434Y17917D02*
G01X14109Y17917D01*
G01Y18117D01*
G01X13434D01*
G01Y17917D01*
G37*
G36*
G01X13434Y17417D02*
G01X14109Y17417D01*
G01Y17617D01*
G01X13434D01*
G01Y17417D01*
G37*
G36*
G01X13434Y16417D02*
G01X14109Y16417D01*
G01Y16617D01*
G01X13434D01*
G01Y16417D01*
G37*
G36*
G01X13434Y15917D02*
G01X14109Y15917D01*
G01Y16117D01*
G01X13434D01*
G01Y15917D01*
G37*
G36*
G01X42532Y16557D02*
G01X41132Y16557D01*
G01Y16257D01*
G01X42532D01*
G01Y16557D01*
G37*
G36*
G01X42532Y17057D02*
G01X41132Y17057D01*
G01Y16757D01*
G01X42532D01*
G01Y17057D01*
G37*
G36*
G01X42532Y17557D02*
G01X41132Y17557D01*
G01Y17257D01*
G01X42532D01*
G01Y17557D01*
G37*
G36*
G01X42532Y18057D02*
G01X41132Y18057D01*
G01Y17757D01*
G01X42532D01*
G01Y18057D01*
G37*
G36*
G01X42532Y18557D02*
G01X41132Y18557D01*
G01Y18257D01*
G01X42532D01*
G01Y18557D01*
G37*
G36*
G01X42532Y19057D02*
G01X41132Y19057D01*
G01Y18757D01*
G01X42532D01*
G01Y19057D01*
G37*
G36*
G01X42532Y19557D02*
G01X41132Y19557D01*
G01Y19257D01*
G01X42532D01*
G01Y19557D01*
G37*
G36*
G01X42532Y20057D02*
G01X41132Y20057D01*
G01Y19757D01*
G01X42532D01*
G01Y20057D01*
G37*
G36*
G01X42532Y20557D02*
G01X41132Y20557D01*
G01Y20257D01*
G01X42532D01*
G01Y20557D01*
G37*
G36*
G01X42532Y21057D02*
G01X41132Y21057D01*
G01Y20757D01*
G01X42532D01*
G01Y21057D01*
G37*
G36*
G01X42532Y21557D02*
G01X41132Y21557D01*
G01Y21257D01*
G01X42532D01*
G01Y21557D01*
G37*
G36*
G01X42532Y22057D02*
G01X41132Y22057D01*
G01Y21757D01*
G01X42532D01*
G01Y22057D01*
G37*
G36*
G01X42532Y22557D02*
G01X41132Y22557D01*
G01Y22257D01*
G01X42532D01*
G01Y22557D01*
G37*
G36*
G01X42532Y23057D02*
G01X41132Y23057D01*
G01Y22757D01*
G01X42532D01*
G01Y23057D01*
G37*
G36*
G01X42532Y23557D02*
G01X41132Y23557D01*
G01Y23257D01*
G01X42532D01*
G01Y23557D01*
G37*
G36*
G01X42532Y24057D02*
G01X41132Y24057D01*
G01Y23757D01*
G01X42532D01*
G01Y24057D01*
G37*
G36*
G01X42532Y24557D02*
G01X41132Y24557D01*
G01Y24257D01*
G01X42532D01*
G01Y24557D01*
G37*
G36*
G01X42532Y25057D02*
G01X41132Y25057D01*
G01Y24757D01*
G01X42532D01*
G01Y25057D01*
G37*
G36*
G01X42532Y25557D02*
G01X41132Y25557D01*
G01Y25257D01*
G01X42532D01*
G01Y25557D01*
G37*
G36*
G01X42532Y26057D02*
G01X41132Y26057D01*
G01Y25757D01*
G01X42532D01*
G01Y26057D01*
G37*
G36*
G01X42532Y26557D02*
G01X41132Y26557D01*
G01Y26257D01*
G01X42532D01*
G01Y26557D01*
G37*
G36*
G01X42532Y27057D02*
G01X41132Y27057D01*
G01Y26757D01*
G01X42532D01*
G01Y27057D01*
G37*
G36*
G01X42532Y27557D02*
G01X41132Y27557D01*
G01Y27257D01*
G01X42532D01*
G01Y27557D01*
G37*
G36*
G01X42532Y28057D02*
G01X41132Y28057D01*
G01Y27757D01*
G01X42532D01*
G01Y28057D01*
G37*
G36*
G01X42532Y28557D02*
G01X41132Y28557D01*
G01Y28257D01*
G01X42532D01*
G01Y28557D01*
G37*
G36*
G01X40282Y29407D02*
G01X40282Y30807D01*
G01X39982D01*
G01Y29407D01*
G01X40282D01*
G37*
G36*
G01X39782Y29407D02*
G01X39782Y30807D01*
G01X39482D01*
G01Y29407D01*
G01X39782D01*
G37*
G36*
G01X39282Y29407D02*
G01X39282Y30807D01*
G01X38982D01*
G01Y29407D01*
G01X39282D01*
G37*
G36*
G01X38782Y29407D02*
G01X38782Y30807D01*
G01X38482D01*
G01Y29407D01*
G01X38782D01*
G37*
G36*
G01X38282Y29407D02*
G01X38282Y30807D01*
G01X37982D01*
G01Y29407D01*
G01X38282D01*
G37*
G36*
G01X37782Y29407D02*
G01X37782Y30807D01*
G01X37482D01*
G01Y29407D01*
G01X37782D01*
G37*
G36*
G01X37282Y29407D02*
G01X37282Y30807D01*
G01X36982D01*
G01Y29407D01*
G01X37282D01*
G37*
G36*
G01X36782Y29407D02*
G01X36782Y30807D01*
G01X36482D01*
G01Y29407D01*
G01X36782D01*
G37*
G36*
G01X36282Y29407D02*
G01X36282Y30807D01*
G01X35982D01*
G01Y29407D01*
G01X36282D01*
G37*
G36*
G01X35782Y29407D02*
G01X35782Y30807D01*
G01X35482D01*
G01Y29407D01*
G01X35782D01*
G37*
G36*
G01X35282Y29407D02*
G01X35282Y30807D01*
G01X34982D01*
G01Y29407D01*
G01X35282D01*
G37*
G36*
G01X34782Y29407D02*
G01X34782Y30807D01*
G01X34482D01*
G01Y29407D01*
G01X34782D01*
G37*
G36*
G01X34282Y29407D02*
G01X34282Y30807D01*
G01X33982D01*
G01Y29407D01*
G01X34282D01*
G37*
G36*
G01X33782Y29407D02*
G01X33782Y30807D01*
G01X33482D01*
G01Y29407D01*
G01X33782D01*
G37*
G36*
G01X33282Y29407D02*
G01X33282Y30807D01*
G01X32982D01*
G01Y29407D01*
G01X33282D01*
G37*
G36*
G01X32782Y29407D02*
G01X32782Y30807D01*
G01X32482D01*
G01Y29407D01*
G01X32782D01*
G37*
G36*
G01X32282Y29407D02*
G01X32282Y30807D01*
G01X31982D01*
G01Y29407D01*
G01X32282D01*
G37*
G36*
G01X31782Y29407D02*
G01X31782Y30807D01*
G01X31482D01*
G01Y29407D01*
G01X31782D01*
G37*
G36*
G01X31282Y29407D02*
G01X31282Y30807D01*
G01X30982D01*
G01Y29407D01*
G01X31282D01*
G37*
G36*
G01X30782Y29407D02*
G01X30782Y30807D01*
G01X30482D01*
G01Y29407D01*
G01X30782D01*
G37*
G36*
G01X30282Y29407D02*
G01X30282Y30807D01*
G01X29982D01*
G01Y29407D01*
G01X30282D01*
G37*
G36*
G01X29782Y29407D02*
G01X29782Y30807D01*
G01X29482D01*
G01Y29407D01*
G01X29782D01*
G37*
G36*
G01X29282Y29407D02*
G01X29282Y30807D01*
G01X28982D01*
G01Y29407D01*
G01X29282D01*
G37*
G36*
G01X28782Y29407D02*
G01X28782Y30807D01*
G01X28482D01*
G01Y29407D01*
G01X28782D01*
G37*
G36*
G01X28282Y29407D02*
G01X28282Y30807D01*
G01X27982D01*
G01Y29407D01*
G01X28282D01*
G37*
G36*
G01X27132Y28557D02*
G01X25732Y28557D01*
G01Y28257D01*
G01X27132D01*
G01Y28557D01*
G37*
G36*
G01X27132Y28057D02*
G01X25732Y28057D01*
G01Y27757D01*
G01X27132D01*
G01Y28057D01*
G37*
G36*
G01X27132Y27557D02*
G01X25732Y27557D01*
G01Y27257D01*
G01X27132D01*
G01Y27557D01*
G37*
G36*
G01X27132Y27057D02*
G01X25732Y27057D01*
G01Y26757D01*
G01X27132D01*
G01Y27057D01*
G37*
G36*
G01X27132Y26557D02*
G01X25732Y26557D01*
G01Y26257D01*
G01X27132D01*
G01Y26557D01*
G37*
G36*
G01X27132Y26057D02*
G01X25732Y26057D01*
G01Y25757D01*
G01X27132D01*
G01Y26057D01*
G37*
G36*
G01X27132Y25557D02*
G01X25732Y25557D01*
G01Y25257D01*
G01X27132D01*
G01Y25557D01*
G37*
G36*
G01X27132Y25057D02*
G01X25732Y25057D01*
G01Y24757D01*
G01X27132D01*
G01Y25057D01*
G37*
G36*
G01X27132Y24557D02*
G01X25732Y24557D01*
G01Y24257D01*
G01X27132D01*
G01Y24557D01*
G37*
G36*
G01X27132Y24057D02*
G01X25732Y24057D01*
G01Y23757D01*
G01X27132D01*
G01Y24057D01*
G37*
G36*
G01X27132Y23557D02*
G01X25732Y23557D01*
G01Y23257D01*
G01X27132D01*
G01Y23557D01*
G37*
G36*
G01X27132Y23057D02*
G01X25732Y23057D01*
G01Y22757D01*
G01X27132D01*
G01Y23057D01*
G37*
G36*
G01X27132Y22557D02*
G01X25732Y22557D01*
G01Y22257D01*
G01X27132D01*
G01Y22557D01*
G37*
G36*
G01X27132Y22057D02*
G01X25732Y22057D01*
G01Y21757D01*
G01X27132D01*
G01Y22057D01*
G37*
G36*
G01X27132Y21557D02*
G01X25732Y21557D01*
G01Y21257D01*
G01X27132D01*
G01Y21557D01*
G37*
G36*
G01X27132Y21057D02*
G01X25732Y21057D01*
G01Y20757D01*
G01X27132D01*
G01Y21057D01*
G37*
G36*
G01X27132Y20557D02*
G01X25732Y20557D01*
G01Y20257D01*
G01X27132D01*
G01Y20557D01*
G37*
G36*
G01X27132Y20057D02*
G01X25732Y20057D01*
G01Y19757D01*
G01X27132D01*
G01Y20057D01*
G37*
G36*
G01X27132Y19557D02*
G01X25732Y19557D01*
G01Y19257D01*
G01X27132D01*
G01Y19557D01*
G37*
G36*
G01X27132Y19057D02*
G01X25732Y19057D01*
G01Y18757D01*
G01X27132D01*
G01Y19057D01*
G37*
G36*
G01X27132Y18557D02*
G01X25732Y18557D01*
G01Y18257D01*
G01X27132D01*
G01Y18557D01*
G37*
G36*
G01X27132Y18057D02*
G01X25732Y18057D01*
G01Y17757D01*
G01X27132D01*
G01Y18057D01*
G37*
G36*
G01X27132Y17557D02*
G01X25732Y17557D01*
G01Y17257D01*
G01X27132D01*
G01Y17557D01*
G37*
G36*
G01X27132Y17057D02*
G01X25732Y17057D01*
G01Y16757D01*
G01X27132D01*
G01Y17057D01*
G37*
G36*
G01X27132Y16557D02*
G01X25732Y16557D01*
G01Y16257D01*
G01X27132D01*
G01Y16557D01*
G37*
G36*
G01X30782Y14007D02*
G01X30782Y15407D01*
G01X30482D01*
G01Y14007D01*
G01X30782D01*
G37*
G36*
G01X30282Y14007D02*
G01X30282Y15407D01*
G01X29982D01*
G01Y14007D01*
G01X30282D01*
G37*
G36*
G01X29782Y14007D02*
G01X29782Y15407D01*
G01X29482D01*
G01Y14007D01*
G01X29782D01*
G37*
G36*
G01X29282Y14007D02*
G01X29282Y15407D01*
G01X28982D01*
G01Y14007D01*
G01X29282D01*
G37*
G36*
G01X28782Y14007D02*
G01X28782Y15407D01*
G01X28482D01*
G01Y14007D01*
G01X28782D01*
G37*
G36*
G01X40282Y14007D02*
G01X40282Y15407D01*
G01X39982D01*
G01Y14007D01*
G01X40282D01*
G37*
G36*
G01X39782Y14007D02*
G01X39782Y15407D01*
G01X39482D01*
G01Y14007D01*
G01X39782D01*
G37*
G36*
G01X39282Y14007D02*
G01X39282Y15407D01*
G01X38982D01*
G01Y14007D01*
G01X39282D01*
G37*
G36*
G01X38782Y14007D02*
G01X38782Y15407D01*
G01X38482D01*
G01Y14007D01*
G01X38782D01*
G37*
G36*
G01X38282Y14007D02*
G01X38282Y15407D01*
G01X37982D01*
G01Y14007D01*
G01X38282D01*
G37*
G36*
G01X37782Y14007D02*
G01X37782Y15407D01*
G01X37482D01*
G01Y14007D01*
G01X37782D01*
G37*
G36*
G01X37282Y14007D02*
G01X37282Y15407D01*
G01X36982D01*
G01Y14007D01*
G01X37282D01*
G37*
G36*
G01X36782Y14007D02*
G01X36782Y15407D01*
G01X36482D01*
G01Y14007D01*
G01X36782D01*
G37*
G36*
G01X36282Y14007D02*
G01X36282Y15407D01*
G01X35982D01*
G01Y14007D01*
G01X36282D01*
G37*
G36*
G01X35782Y14007D02*
G01X35782Y15407D01*
G01X35482D01*
G01Y14007D01*
G01X35782D01*
G37*
G36*
G01X35282Y14007D02*
G01X35282Y15407D01*
G01X34982D01*
G01Y14007D01*
G01X35282D01*
G37*
G36*
G01X34782Y14007D02*
G01X34782Y15407D01*
G01X34482D01*
G01Y14007D01*
G01X34782D01*
G37*
G36*
G01X34282Y14007D02*
G01X34282Y15407D01*
G01X33982D01*
G01Y14007D01*
G01X34282D01*
G37*
G36*
G01X33782Y14007D02*
G01X33782Y15407D01*
G01X33482D01*
G01Y14007D01*
G01X33782D01*
G37*
G36*
G01X33282Y14007D02*
G01X33282Y15407D01*
G01X32982D01*
G01Y14007D01*
G01X33282D01*
G37*
G36*
G01X32782Y14007D02*
G01X32782Y15407D01*
G01X32482D01*
G01Y14007D01*
G01X32782D01*
G37*
G36*
G01X32282Y14007D02*
G01X32282Y15407D01*
G01X31982D01*
G01Y14007D01*
G01X32282D01*
G37*
G36*
G01X31782Y14007D02*
G01X31782Y15407D01*
G01X31482D01*
G01Y14007D01*
G01X31782D01*
G37*
G36*
G01X31282Y14007D02*
G01X31282Y15407D01*
G01X30982D01*
G01Y14007D01*
G01X31282D01*
G37*
G36*
G01X28282Y14007D02*
G01X28282Y15407D01*
G01X27982D01*
G01Y14007D01*
G01X28282D01*
G37*
G36*
G01X40555Y37825D02*
G01X40555Y39025D01*
G01X39155D01*
G01Y37825D01*
G01X40555D01*
G37*
G36*
G01X40555Y36225D02*
G01X40555Y37425D01*
G01X39155D01*
G01Y36225D01*
G01X40555D01*
G37*
G36*
G01X42755Y36225D02*
G01X42755Y37425D01*
G01X41355D01*
G01Y36225D01*
G01X42755D01*
G37*
G36*
G01X16810Y22215D02*
G01X16810Y24120D01*
G01X16175D01*
G01Y22215D01*
G01X16810D01*
G37*
G36*
G01X18080Y22215D02*
G01X18080Y24120D01*
G01X17445D01*
G01Y22215D01*
G01X18080D01*
G37*
G36*
G01X19350Y22215D02*
G01X19350Y24120D01*
G01X18715D01*
G01Y22215D01*
G01X19350D01*
G37*
G36*
G01X20620Y22215D02*
G01X20620Y24120D01*
G01X19985D01*
G01Y22215D01*
G01X20620D01*
G37*
G36*
G01X20620Y27803D02*
G01X20620Y29708D01*
G01X19985D01*
G01Y27803D01*
G01X20620D01*
G37*
G36*
G01X19350Y27803D02*
G01X19350Y29708D01*
G01X18715D01*
G01Y27803D01*
G01X19350D01*
G37*
G36*
G01X18080Y27803D02*
G01X18080Y29708D01*
G01X17445D01*
G01Y27803D01*
G01X18080D01*
G37*
G36*
G01X16810Y27803D02*
G01X16810Y29708D01*
G01X16175D01*
G01Y27803D01*
G01X16810D01*
G37*
G36*
G01X23627Y20751D02*
G01X23121Y20751D01*
G01Y20451D01*
G01X23627D01*
G01Y20751D01*
G37*
G36*
G01X23627Y21251D02*
G01X23121Y21251D01*
G01Y20951D01*
G01X23627D01*
G01Y21251D01*
G37*
G36*
G01X23627Y21749D02*
G01X23121Y21749D01*
G01Y21449D01*
G01X23627D01*
G01Y21749D01*
G37*
G36*
G01X23627Y22249D02*
G01X23121Y22249D01*
G01Y21949D01*
G01X23627D01*
G01Y22249D01*
G37*
G36*
G01X22773Y20751D02*
G01X22268Y20751D01*
G01Y20451D01*
G01X22773D01*
G01Y20751D01*
G37*
G36*
G01X22773Y21251D02*
G01X22268Y21251D01*
G01Y20951D01*
G01X22773D01*
G01Y21251D01*
G37*
G36*
G01X22773Y21749D02*
G01X22268Y21749D01*
G01Y21449D01*
G01X22773D01*
G01Y21749D01*
G37*
G36*
G01X22773Y22249D02*
G01X22268Y22249D01*
G01Y21949D01*
G01X22773D01*
G01Y22249D01*
G37*
G54D11*
G01X23887Y17577D03*
G01X24700Y22936D03*
G36*
G01X89949Y24657D02*
G01X89149Y24657D01*
G01Y23857D01*
G01X89949D01*
G01Y24657D01*
G37*
G36*
G01X89949Y26157D02*
G01X89149Y26157D01*
G01Y25357D01*
G01X89949D01*
G01Y26157D01*
G37*
G36*
G01X1550Y23950D02*
G01X750Y23950D01*
G01Y23150D01*
G01X1550D01*
G01Y23950D01*
G37*
G36*
G01X1550Y25450D02*
G01X750Y25450D01*
G01Y24650D01*
G01X1550D01*
G01Y25450D01*
G37*
G36*
G01X1550Y28350D02*
G01X750Y28350D01*
G01Y27550D01*
G01X1550D01*
G01Y28350D01*
G37*
G36*
G01X1550Y29850D02*
G01X750Y29850D01*
G01Y29050D01*
G01X1550D01*
G01Y29850D01*
G37*
G36*
G01X14309Y35151D02*
G01X14984Y35151D01*
G01Y35351D01*
G01X14309D01*
G01Y35151D01*
G37*
G36*
G01X14309Y35651D02*
G01X14984Y35651D01*
G01Y35851D01*
G01X14309D01*
G01Y35651D01*
G37*
G36*
G01X13434Y36051D02*
G01X14984Y36051D01*
G01Y36451D01*
G01X13434D01*
G01Y36051D01*
G37*
G36*
G01X14309Y36651D02*
G01X14984Y36651D01*
G01Y36851D01*
G01X14309D01*
G01Y36651D01*
G37*
G36*
G01X14309Y37151D02*
G01X14984Y37151D01*
G01Y37351D01*
G01X14309D01*
G01Y37151D01*
G37*
G36*
G01X13434Y37151D02*
G01X14109Y37151D01*
G01Y37351D01*
G01X13434D01*
G01Y37151D01*
G37*
G36*
G01X13434Y36651D02*
G01X14109Y36651D01*
G01Y36851D01*
G01X13434D01*
G01Y36651D01*
G37*
G36*
G01X13434Y35651D02*
G01X14109Y35651D01*
G01Y35851D01*
G01X13434D01*
G01Y35651D01*
G37*
G36*
G01X13434Y35151D02*
G01X14109Y35151D01*
G01Y35351D01*
G01X13434D01*
G01Y35151D01*
G37*
G36*
G01X14309Y38151D02*
G01X14984Y38151D01*
G01Y38351D01*
G01X14309D01*
G01Y38151D01*
G37*
G36*
G01X14309Y38651D02*
G01X14984Y38651D01*
G01Y38851D01*
G01X14309D01*
G01Y38651D01*
G37*
G36*
G01X13434Y39051D02*
G01X14984Y39051D01*
G01Y39451D01*
G01X13434D01*
G01Y39051D01*
G37*
G36*
G01X14309Y39651D02*
G01X14984Y39651D01*
G01Y39851D01*
G01X14309D01*
G01Y39651D01*
G37*
G36*
G01X14309Y40151D02*
G01X14984Y40151D01*
G01Y40351D01*
G01X14309D01*
G01Y40151D01*
G37*
G36*
G01X13434Y40151D02*
G01X14109Y40151D01*
G01Y40351D01*
G01X13434D01*
G01Y40151D01*
G37*
G36*
G01X13434Y39651D02*
G01X14109Y39651D01*
G01Y39851D01*
G01X13434D01*
G01Y39651D01*
G37*
G36*
G01X13434Y38651D02*
G01X14109Y38651D01*
G01Y38851D01*
G01X13434D01*
G01Y38651D01*
G37*
G36*
G01X13434Y38151D02*
G01X14109Y38151D01*
G01Y38351D01*
G01X13434D01*
G01Y38151D01*
G37*
G36*
G01X88902Y40165D02*
G01X88902Y41965D01*
G01X87402D01*
G01Y40165D01*
G01X88902D01*
G37*
G36*
G01X85702Y40165D02*
G01X85702Y41965D01*
G01X84202D01*
G01Y40165D01*
G01X85702D01*
G37*
G36*
G01X82202Y40165D02*
G01X82202Y41965D01*
G01X80702D01*
G01Y40165D01*
G01X82202D01*
G37*
G36*
G01X82202Y47635D02*
G01X82202Y49435D01*
G01X80702D01*
G01Y47635D01*
G01X82202D01*
G37*
G36*
G01X85702Y47635D02*
G01X85702Y49435D01*
G01X84202D01*
G01Y47635D01*
G01X85702D01*
G37*
G36*
G01X88902Y47635D02*
G01X88902Y49435D01*
G01X87402D01*
G01Y47635D01*
G01X88902D01*
G37*
G36*
G01X71349Y42775D02*
G01X72849Y42775D01*
G01Y43275D01*
G01X71349D01*
G01Y42775D01*
G37*
G36*
G01X71349Y43725D02*
G01X72849Y43725D01*
G01Y44225D01*
G01X71349D01*
G01Y43725D01*
G37*
G36*
G01X71349Y44675D02*
G01X72849Y44675D01*
G01Y45175D01*
G01X71349D01*
G01Y44675D01*
G37*
G36*
G01X68649Y44675D02*
G01X70149Y44675D01*
G01Y45175D01*
G01X68649D01*
G01Y44675D01*
G37*
G36*
G01X68649Y42775D02*
G01X70149Y42775D01*
G01Y43275D01*
G01X68649D01*
G01Y42775D01*
G37*
G36*
G01X62025Y36167D02*
G01X62025Y35467D01*
G01X62275D01*
G01Y36167D01*
G01X62025D01*
G37*
G36*
G01X61625Y36167D02*
G01X61625Y35467D01*
G01X61875D01*
G01Y36167D01*
G01X61625D01*
G37*
G36*
G01X61225Y36167D02*
G01X61225Y35467D01*
G01X61475D01*
G01Y36167D01*
G01X61225D01*
G37*
G36*
G01X60825Y36167D02*
G01X60825Y35467D01*
G01X61075D01*
G01Y36167D01*
G01X60825D01*
G37*
G36*
G01X60425Y36167D02*
G01X60425Y35467D01*
G01X60675D01*
G01Y36167D01*
G01X60425D01*
G37*
G36*
G01X60200Y35242D02*
G01X59500Y35242D01*
G01Y34992D01*
G01X60200D01*
G01Y35242D01*
G37*
G36*
G01X60200Y34842D02*
G01X59500Y34842D01*
G01Y34592D01*
G01X60200D01*
G01Y34842D01*
G37*
G36*
G01X60200Y34442D02*
G01X59500Y34442D01*
G01Y34192D01*
G01X60200D01*
G01Y34442D01*
G37*
G36*
G01X60200Y34042D02*
G01X59500Y34042D01*
G01Y33792D01*
G01X60200D01*
G01Y34042D01*
G37*
G36*
G01X60200Y33642D02*
G01X59500Y33642D01*
G01Y33392D01*
G01X60200D01*
G01Y33642D01*
G37*
G36*
G01X60425Y33167D02*
G01X60425Y32467D01*
G01X60675D01*
G01Y33167D01*
G01X60425D01*
G37*
G36*
G01X60825Y33167D02*
G01X60825Y32467D01*
G01X61075D01*
G01Y33167D01*
G01X60825D01*
G37*
G36*
G01X61225Y33167D02*
G01X61225Y32467D01*
G01X61475D01*
G01Y33167D01*
G01X61225D01*
G37*
G36*
G01X61625Y33167D02*
G01X61625Y32467D01*
G01X61875D01*
G01Y33167D01*
G01X61625D01*
G37*
G36*
G01X62025Y33167D02*
G01X62025Y32467D01*
G01X62275D01*
G01Y33167D01*
G01X62025D01*
G37*
G36*
G01X63200Y33642D02*
G01X62500Y33642D01*
G01Y33392D01*
G01X63200D01*
G01Y33642D01*
G37*
G36*
G01X63200Y34042D02*
G01X62500Y34042D01*
G01Y33792D01*
G01X63200D01*
G01Y34042D01*
G37*
G36*
G01X63200Y34442D02*
G01X62500Y34442D01*
G01Y34192D01*
G01X63200D01*
G01Y34442D01*
G37*
G36*
G01X63200Y34842D02*
G01X62500Y34842D01*
G01Y34592D01*
G01X63200D01*
G01Y34842D01*
G37*
G36*
G01X63200Y35242D02*
G01X62500Y35242D01*
G01Y34992D01*
G01X63200D01*
G01Y35242D01*
G37*
G36*
G01X60500Y35167D02*
G01X60500Y33467D01*
G01X62200D01*
G01Y35167D01*
G01X60500D01*
G37*
G01X64145Y36965D03*
G36*
G01X56303Y35151D02*
G01X56808Y35151D01*
G01Y35451D01*
G01X56303D01*
G01Y35151D01*
G37*
G36*
G01X56303Y34651D02*
G01X56808Y34651D01*
G01Y34950D01*
G01X56303D01*
G01Y34651D01*
G37*
G36*
G01X56303Y34153D02*
G01X56808Y34153D01*
G01Y34453D01*
G01X56303D01*
G01Y34153D01*
G37*
G36*
G01X56303Y33652D02*
G01X56808Y33652D01*
G01Y33952D01*
G01X56303D01*
G01Y33652D01*
G37*
G36*
G01X57156Y35151D02*
G01X57662Y35151D01*
G01Y35451D01*
G01X57156D01*
G01Y35151D01*
G37*
G36*
G01X57156Y34651D02*
G01X57662Y34651D01*
G01Y34950D01*
G01X57156D01*
G01Y34651D01*
G37*
G36*
G01X57156Y34153D02*
G01X57662Y34153D01*
G01Y34453D01*
G01X57156D01*
G01Y34153D01*
G37*
G36*
G01X57156Y33652D02*
G01X57662Y33652D01*
G01Y33952D01*
G01X57156D01*
G01Y33652D01*
G37*
G36*
G01X88902Y28565D02*
G01X88902Y30365D01*
G01X87402D01*
G01Y28565D01*
G01X88902D01*
G37*
G36*
G01X85702Y28565D02*
G01X85702Y30365D01*
G01X84202D01*
G01Y28565D01*
G01X85702D01*
G37*
G36*
G01X82202Y28565D02*
G01X82202Y30365D01*
G01X80702D01*
G01Y28565D01*
G01X82202D01*
G37*
G36*
G01X82202Y36035D02*
G01X82202Y37835D01*
G01X80702D01*
G01Y36035D01*
G01X82202D01*
G37*
G36*
G01X85702Y36035D02*
G01X85702Y37835D01*
G01X84202D01*
G01Y36035D01*
G01X85702D01*
G37*
G36*
G01X88902Y36035D02*
G01X88902Y37835D01*
G01X87402D01*
G01Y36035D01*
G01X88902D01*
G37*
G36*
G01X72889Y33503D02*
G01X72889Y32603D01*
G01X73689D01*
G01Y33503D01*
G01X72889D01*
G37*
G36*
G01X71489Y33503D02*
G01X71489Y32603D01*
G01X72289D01*
G01Y33503D01*
G01X71489D01*
G37*
G36*
G01X72889Y26747D02*
G01X72889Y25847D01*
G01X73689D01*
G01Y26747D01*
G01X72889D01*
G37*
G36*
G01X71489Y26747D02*
G01X71489Y25847D01*
G01X72289D01*
G01Y26747D01*
G01X71489D01*
G37*
G54D12*
G01X69941Y33028D03*
G01X75266Y33028D03*
G01X69941Y26297D03*
G01X75266Y26297D03*
G36*
G01X59306Y28468D02*
G01X61211Y28468D01*
G01Y29103D01*
G01X59306D01*
G01Y28468D01*
G37*
G36*
G01X59306Y27198D02*
G01X61211Y27198D01*
G01Y27833D01*
G01X59306D01*
G01Y27198D01*
G37*
G36*
G01X59306Y25928D02*
G01X61211Y25928D01*
G01Y26563D01*
G01X59306D01*
G01Y25928D01*
G37*
G36*
G01X59306Y24658D02*
G01X61211Y24658D01*
G01Y25293D01*
G01X59306D01*
G01Y24658D01*
G37*
G36*
G01X64894Y24658D02*
G01X66799Y24658D01*
G01Y25293D01*
G01X64894D01*
G01Y24658D01*
G37*
G36*
G01X64894Y25928D02*
G01X66799Y25928D01*
G01Y26563D01*
G01X64894D01*
G01Y25928D01*
G37*
G36*
G01X64894Y27198D02*
G01X66799Y27198D01*
G01Y27833D01*
G01X64894D01*
G01Y27198D01*
G37*
G36*
G01X64894Y28468D02*
G01X66799Y28468D01*
G01Y29103D01*
G01X64894D01*
G01Y28468D01*
G37*
G36*
G01X50615Y45792D02*
G01X50615Y44992D01*
G01X50915D01*
G01Y45792D01*
G01X50615D01*
G37*
G36*
G01X50115Y45792D02*
G01X50115Y44992D01*
G01X50415D01*
G01Y45792D01*
G01X50115D01*
G37*
G36*
G01X49615Y45792D02*
G01X49615Y44992D01*
G01X49915D01*
G01Y45792D01*
G01X49615D01*
G37*
G36*
G01X49115Y45792D02*
G01X49115Y44992D01*
G01X49415D01*
G01Y45792D01*
G01X49115D01*
G37*
G36*
G01X48615Y45792D02*
G01X48615Y44992D01*
G01X48915D01*
G01Y45792D01*
G01X48615D01*
G37*
G36*
G01X48115Y45792D02*
G01X48115Y44992D01*
G01X48415D01*
G01Y45792D01*
G01X48115D01*
G37*
G36*
G01X47965Y44842D02*
G01X47165Y44842D01*
G01Y44542D01*
G01X47965D01*
G01Y44842D01*
G37*
G36*
G01X47965Y44342D02*
G01X47165Y44342D01*
G01Y44042D01*
G01X47965D01*
G01Y44342D01*
G37*
G36*
G01X47965Y43842D02*
G01X47165Y43842D01*
G01Y43542D01*
G01X47965D01*
G01Y43842D01*
G37*
G36*
G01X47965Y43342D02*
G01X47165Y43342D01*
G01Y43042D01*
G01X47965D01*
G01Y43342D01*
G37*
G36*
G01X47965Y42842D02*
G01X47165Y42842D01*
G01Y42542D01*
G01X47965D01*
G01Y42842D01*
G37*
G36*
G01X47965Y42342D02*
G01X47165Y42342D01*
G01Y42042D01*
G01X47965D01*
G01Y42342D01*
G37*
G36*
G01X48115Y41892D02*
G01X48115Y41092D01*
G01X48415D01*
G01Y41892D01*
G01X48115D01*
G37*
G36*
G01X48615Y41892D02*
G01X48615Y41092D01*
G01X48915D01*
G01Y41892D01*
G01X48615D01*
G37*
G36*
G01X49115Y41892D02*
G01X49115Y41092D01*
G01X49415D01*
G01Y41892D01*
G01X49115D01*
G37*
G36*
G01X49615Y41892D02*
G01X49615Y41092D01*
G01X49915D01*
G01Y41892D01*
G01X49615D01*
G37*
G36*
G01X50115Y41892D02*
G01X50115Y41092D01*
G01X50415D01*
G01Y41892D01*
G01X50115D01*
G37*
G36*
G01X50615Y41892D02*
G01X50615Y41092D01*
G01X50915D01*
G01Y41892D01*
G01X50615D01*
G37*
G36*
G01X51865Y42342D02*
G01X51065Y42342D01*
G01Y42042D01*
G01X51865D01*
G01Y42342D01*
G37*
G36*
G01X51865Y42842D02*
G01X51065Y42842D01*
G01Y42542D01*
G01X51865D01*
G01Y42842D01*
G37*
G36*
G01X51865Y43342D02*
G01X51065Y43342D01*
G01Y43042D01*
G01X51865D01*
G01Y43342D01*
G37*
G36*
G01X51865Y43842D02*
G01X51065Y43842D01*
G01Y43542D01*
G01X51865D01*
G01Y43842D01*
G37*
G36*
G01X51865Y44342D02*
G01X51065Y44342D01*
G01Y44042D01*
G01X51865D01*
G01Y44342D01*
G37*
G36*
G01X51865Y44842D02*
G01X51065Y44842D01*
G01Y44542D01*
G01X51865D01*
G01Y44842D01*
G37*
G36*
G01X48165Y44792D02*
G01X48165Y42092D01*
G01X50865D01*
G01Y44792D01*
G01X48165D01*
G37*
G54D13*
G01X71769Y8377D03*
G01X71769Y3053D03*
G36*
G01X73266Y11727D02*
G01X73941Y11727D01*
G01Y11927D01*
G01X73266D01*
G01Y11727D01*
G37*
G36*
G01X73266Y12227D02*
G01X73941Y12227D01*
G01Y12427D01*
G01X73266D01*
G01Y12227D01*
G37*
G36*
G01X72391Y12627D02*
G01X73941Y12627D01*
G01Y13027D01*
G01X72391D01*
G01Y12627D01*
G37*
G36*
G01X73266Y13227D02*
G01X73941Y13227D01*
G01Y13427D01*
G01X73266D01*
G01Y13227D01*
G37*
G36*
G01X73266Y13727D02*
G01X73941Y13727D01*
G01Y13927D01*
G01X73266D01*
G01Y13727D01*
G37*
G36*
G01X72391Y13727D02*
G01X73066Y13727D01*
G01Y13927D01*
G01X72391D01*
G01Y13727D01*
G37*
G36*
G01X72391Y13227D02*
G01X73066Y13227D01*
G01Y13427D01*
G01X72391D01*
G01Y13227D01*
G37*
G36*
G01X72391Y12227D02*
G01X73066Y12227D01*
G01Y12427D01*
G01X72391D01*
G01Y12227D01*
G37*
G36*
G01X72391Y11727D02*
G01X73066Y11727D01*
G01Y11927D01*
G01X72391D01*
G01Y11727D01*
G37*
G36*
G01X89149Y3386D02*
G01X89949Y3386D01*
G01Y4186D01*
G01X89149D01*
G01Y3386D01*
G37*
G36*
G01X89149Y1886D02*
G01X89949Y1886D01*
G01Y2686D01*
G01X89149D01*
G01Y1886D01*
G37*
G36*
G01X52375Y3362D02*
G01X53875Y3362D01*
G01Y3862D01*
G01X52375D01*
G01Y3362D01*
G37*
G36*
G01X52375Y4312D02*
G01X53875Y4312D01*
G01Y4812D01*
G01X52375D01*
G01Y4312D01*
G37*
G36*
G01X52375Y5262D02*
G01X53875Y5262D01*
G01Y5762D01*
G01X52375D01*
G01Y5262D01*
G37*
G36*
G01X49675Y5262D02*
G01X51175Y5262D01*
G01Y5762D01*
G01X49675D01*
G01Y5262D01*
G37*
G36*
G01X49675Y3362D02*
G01X51175Y3362D01*
G01Y3862D01*
G01X49675D01*
G01Y3362D01*
G37*
G36*
G01X42711Y7366D02*
G01X42711Y8636D01*
G01X41695D01*
G01Y7366D01*
G01X42711D01*
G37*
G36*
G01X40679Y7366D02*
G01X40679Y8636D01*
G01X39663D01*
G01Y7366D01*
G01X40679D01*
G37*
G36*
G01X41695Y5080D02*
G01X41695Y6350D01*
G01X40679D01*
G01Y5080D01*
G01X41695D01*
G37*
G36*
G01X58506Y49309D02*
G01X58506Y48039D01*
G01X59522D01*
G01Y49309D01*
G01X58506D01*
G37*
G36*
G01X60538Y49309D02*
G01X60538Y48039D01*
G01X61554D01*
G01Y49309D01*
G01X60538D01*
G37*
G36*
G01X59522Y51595D02*
G01X59522Y50325D01*
G01X60538D01*
G01Y51595D01*
G01X59522D01*
G37*
G36*
G01X56903Y4156D02*
G01X56003Y4156D01*
G01Y3356D01*
G01X56903D01*
G01Y4156D01*
G37*
G36*
G01X56903Y5556D02*
G01X56003Y5556D01*
G01Y4756D01*
G01X56903D01*
G01Y5556D01*
G37*
G36*
G01X47464Y8265D02*
G01X47464Y7365D01*
G01X48264D01*
G01Y8265D01*
G01X47464D01*
G37*
G36*
G01X46064Y8265D02*
G01X46064Y7365D01*
G01X46864D01*
G01Y8265D01*
G01X46064D01*
G37*
G36*
G01X43261Y3055D02*
G01X43261Y3955D01*
G01X42461D01*
G01Y3055D01*
G01X43261D01*
G37*
G36*
G01X44661Y3055D02*
G01X44661Y3955D01*
G01X43861D01*
G01Y3055D01*
G01X44661D01*
G37*
G36*
G01X41127Y9659D02*
G01X41127Y10559D01*
G01X40327D01*
G01Y9659D01*
G01X41127D01*
G37*
G36*
G01X42527Y9659D02*
G01X42527Y10559D01*
G01X41727D01*
G01Y9659D01*
G01X42527D01*
G37*
G36*
G01X60320Y8908D02*
G01X60320Y8008D01*
G01X61120D01*
G01Y8908D01*
G01X60320D01*
G37*
G36*
G01X58920Y8908D02*
G01X58920Y8008D01*
G01X59720D01*
G01Y8908D01*
G01X58920D01*
G37*
G36*
G01X51623Y13643D02*
G01X52523Y13643D01*
G01Y14443D01*
G01X51623D01*
G01Y13643D01*
G37*
G36*
G01X51623Y12243D02*
G01X52523Y12243D01*
G01Y13043D01*
G01X51623D01*
G01Y12243D01*
G37*
G36*
G01X14309Y42191D02*
G01X14984Y42191D01*
G01Y42391D01*
G01X14309D01*
G01Y42191D01*
G37*
G36*
G01X14309Y42691D02*
G01X14984Y42691D01*
G01Y42891D01*
G01X14309D01*
G01Y42691D01*
G37*
G36*
G01X13434Y43091D02*
G01X14984Y43091D01*
G01Y43491D01*
G01X13434D01*
G01Y43091D01*
G37*
G36*
G01X14309Y43691D02*
G01X14984Y43691D01*
G01Y43891D01*
G01X14309D01*
G01Y43691D01*
G37*
G36*
G01X14309Y44191D02*
G01X14984Y44191D01*
G01Y44391D01*
G01X14309D01*
G01Y44191D01*
G37*
G36*
G01X13434Y44191D02*
G01X14109Y44191D01*
G01Y44391D01*
G01X13434D01*
G01Y44191D01*
G37*
G36*
G01X13434Y43691D02*
G01X14109Y43691D01*
G01Y43891D01*
G01X13434D01*
G01Y43691D01*
G37*
G36*
G01X13434Y42691D02*
G01X14109Y42691D01*
G01Y42891D01*
G01X13434D01*
G01Y42691D01*
G37*
G36*
G01X13434Y42191D02*
G01X14109Y42191D01*
G01Y42391D01*
G01X13434D01*
G01Y42191D01*
G37*
G36*
G01X18772Y46103D02*
G01X19762Y46103D01*
G01Y46983D01*
G01X18772D01*
G01Y46103D01*
G37*
G36*
G01X18772Y42718D02*
G01X19762Y42718D01*
G01Y43598D01*
G01X18772D01*
G01Y42718D01*
G37*
G36*
G01X58887Y12935D02*
G01X57387Y12935D01*
G01Y12435D01*
G01X58887D01*
G01Y12935D01*
G37*
G36*
G01X58887Y11985D02*
G01X57387Y11985D01*
G01Y11485D01*
G01X58887D01*
G01Y11985D01*
G37*
G36*
G01X58887Y11035D02*
G01X57387Y11035D01*
G01Y10535D01*
G01X58887D01*
G01Y11035D01*
G37*
G36*
G01X61587Y11035D02*
G01X60087Y11035D01*
G01Y10535D01*
G01X61587D01*
G01Y11035D01*
G37*
G36*
G01X61587Y12935D02*
G01X60087Y12935D01*
G01Y12435D01*
G01X61587D01*
G01Y12935D01*
G37*
G36*
G01X77403Y10620D02*
G01X79603Y10620D01*
G01Y11321D01*
G01X77403D01*
G01Y10620D01*
G37*
G36*
G01X77403Y12619D02*
G01X79603Y12619D01*
G01Y13320D01*
G01X77403D01*
G01Y12619D01*
G37*
G36*
G01X77403Y14620D02*
G01X79603Y14620D01*
G01Y15321D01*
G01X77403D01*
G01Y14620D01*
G37*
G36*
G01X77403Y16619D02*
G01X79603Y16619D01*
G01Y17320D01*
G01X77403D01*
G01Y16619D01*
G37*
G36*
G01X77403Y17620D02*
G01X79603Y17620D01*
G01Y18321D01*
G01X77403D01*
G01Y17620D01*
G37*
G36*
G01X77403Y15618D02*
G01X79603Y15618D01*
G01Y16320D01*
G01X77403D01*
G01Y15618D01*
G37*
G36*
G01X77403Y13619D02*
G01X79603Y13619D01*
G01Y14321D01*
G01X77403D01*
G01Y13619D01*
G37*
G36*
G01X77403Y11621D02*
G01X79603Y11621D01*
G01Y12322D01*
G01X77403D01*
G01Y11621D01*
G37*
G36*
G01X77403Y9619D02*
G01X79603Y9619D01*
G01Y10320D01*
G01X77403D01*
G01Y9619D01*
G37*
G36*
G01X82802Y5720D02*
G01X84303Y5720D01*
G01Y7320D01*
G01X82802D01*
G01Y5720D01*
G37*
G36*
G01X86002Y5720D02*
G01X87503Y5720D01*
G01Y7320D01*
G01X86002D01*
G01Y5720D01*
G37*
G36*
G01X82802Y20620D02*
G01X84303Y20620D01*
G01Y22220D01*
G01X82802D01*
G01Y20620D01*
G37*
G36*
G01X86002Y20620D02*
G01X87503Y20620D01*
G01Y22220D01*
G01X86002D01*
G01Y20620D01*
G37*
G36*
G01X41655Y37825D02*
G01X41355Y38125D01*
G01Y39025D01*
G01X42755D01*
G01Y37825D01*
G01X41655D01*
G37*
G04 Pad End*

M02*
